<svg width="105" height="24" viewBox="0 0 105 24" fill="none" xmlns="http://www.w3.org/2000/svg">
<g clip-path="url(#clip0_1206_31)">
<path d="M20.5466 21.0393H17.0891V16.171C17.0891 11.018 9.29555 6.00728 4.13765 11.6158C5.38462 9.67987 8.19028 7.57311 11.5628 7.57311C16.8624 7.57311 20.3765 11.9859 20.5466 16.2279V21.0393ZM20.5466 12.8685C19.6397 10.7902 18.6194 9.73681 17.0891 8.56955V2.93254H20.5466V12.8685ZM6.12146 8.59802C4.61943 9.76528 3.57085 10.8187 2.66397 12.897V2.93254H6.12146V8.59802ZM2.66397 16.2279C3.11741 9.79375 10.4008 8.22792 13.9717 11.7012C10.4292 9.96457 6.12146 12.6123 6.12146 16.6265V21.0962H2.66397V16.2279ZM23.2105 0.341797H0V23.6585H23.2105V0.341797Z" fill="#999999"/>
<path d="M96.3848 23.6566V9.08005H96.4415L101.514 23.6566H105V0.311364H101.401V13.6637H101.344L96.4982 0.311364H92.7857V23.6566H96.3848ZM79.9193 18.5035H84.2836L84.9921 23.685H88.8464L84.567 0.339833H79.6359L75.3565 23.685H79.2108L79.9193 18.5035ZM82.0731 4.9804H82.1298L83.7168 15.0018H80.4861L82.0731 4.9804ZM65.3241 15.0018H67.8747V17.2509C67.8747 19.5854 67.3079 20.4964 65.6925 20.4964C64.3039 20.4964 63.8221 19.5284 63.8221 18.048V6.03378C63.8221 4.06937 64.6156 3.47151 65.5792 3.47151C67.1662 3.47151 67.8747 4.38254 67.8747 7.85585H71.6723V6.37542C71.6723 2.87364 69.6885 -0.0302734 65.6925 -0.0302734C61.7533 -0.0302734 59.8261 2.64588 59.8261 5.94837V17.9626C59.8261 21.6921 62.0083 23.9413 65.1824 23.9413C67.0529 23.9413 68.0164 23.2864 69.2067 21.863L69.9436 23.5996H71.8707V11.8416H65.3241V15.0018ZM48.065 6.06225C48.065 4.3256 48.5751 3.47151 50.1905 3.47151C51.8059 3.47151 52.316 4.3256 52.316 6.06225V17.9057C52.316 19.6423 51.8059 20.4964 50.1905 20.4964C48.5751 20.4964 48.065 19.6423 48.065 17.9057V6.06225ZM44.0691 17.9911C44.0691 21.2936 45.9962 23.9697 50.1905 23.9697C54.3849 23.9697 56.312 21.2936 56.312 17.9911V5.97684C56.312 2.67435 54.3849 -0.00180369 50.1905 -0.00180369C45.9962 -0.00180369 44.0691 2.67435 44.0691 5.97684V17.9911ZM31.6278 23.6566V13.322H35.8788V23.6566H39.8747V0.311364H35.8788V9.82026H31.6278V0.311364H27.6602V23.6566H31.6278Z" fill="#999999"/>
</g>
<defs>
<clipPath id="clip0_1206_31">
<rect width="105" height="24" fill="white"/>
</clipPath>
</defs>
</svg>
