<svg width="113" height="63" viewBox="0 0 113 63" fill="none" xmlns="http://www.w3.org/2000/svg">
<path d="M57.5697 24.6495H63.7715V24.2303H63.5529C62.2408 24.2303 61.8034 23.8811 61.8034 22.3267V13.245C61.8034 11.8915 62.1533 11.4985 63.4654 11.4549V11.0444H57.8321V11.4636H58.252C59.6078 11.4636 59.9839 11.9002 59.9839 13.0616V17.3754H52.2076V13.5681C52.2076 11.8827 52.47 11.4636 54.027 11.4636V11.0444H48.8136V11.4636C50.0207 11.5509 50.3881 11.8827 50.3881 13.018V22.6498C50.3881 23.8985 49.9507 24.2478 48.6561 24.2478H48.5249V24.667H54.027V24.2478H53.957C52.4875 24.2478 52.2076 23.7413 52.2076 22.3267V18.1701H59.9839V22.6149C59.9839 23.7501 59.6778 24.2565 58.252 24.2565H57.5697V24.6495Z" fill="#999999"/>
<path d="M107.919 10.7126H107.499C107.482 10.8436 107.386 10.9309 107.255 10.9746C107.123 11.0182 106.966 11.0444 106.817 11.0444H96.4078C96.2504 11.0444 96.1017 11.027 95.9705 10.9746C95.8393 10.9309 95.7518 10.8436 95.7255 10.7126H95.3057L95.2969 11.0008L95.052 14.258H95.4631C95.5856 12.2233 95.953 11.8303 96.9502 11.8303H100.747V22.5974C100.747 23.7326 100.44 24.2391 99.0145 24.2391H98.3322V24.6582H104.534V24.2303H104.315C103.003 24.2303 102.566 23.8811 102.566 22.3267V11.8303H106.257C107.255 11.8303 107.377 12.2233 107.499 14.258H107.911V11.0008L107.919 10.7126Z" fill="#999999"/>
<path d="M87.608 23.0515V12.9656C87.608 11.612 87.9841 11.4549 89.4012 11.4549H90.2147V11.0444H83.7504V11.4636H84.0566C85.4387 11.4636 85.7886 11.9439 85.7886 13.1053V22.7982C85.7886 23.916 85.4124 24.2391 84.4065 24.2391H83.6805V24.6582H93.4775L94.6758 21.9949H94.2122C93.46 23.3047 93.1538 23.8723 91.7018 23.8723H88.4827C87.8442 23.8636 87.608 23.6453 87.608 23.0515Z" fill="#999999"/>
<path d="M81.3362 11.4549V11.0444H76.2102V11.4549C78.0209 11.5422 78.3446 11.9089 78.3446 14.0047C78.3446 14.0047 78.3446 18.2661 78.3446 19.4188C78.3446 22.938 76.0878 24.0382 74.1021 24.0382C72.029 24.0382 69.8597 22.4053 69.8597 19.4188C69.8597 18.2225 69.8597 13.0878 69.8597 13.0878C69.8597 11.8216 70.3845 11.4549 71.5829 11.4549H71.7753V11.0444H66.1683V11.4549C67.6553 11.4811 68.0402 11.6906 68.0402 13.0878C68.0402 13.0878 68.0402 18.4058 68.0402 19.4887C68.0402 23.8811 71.4779 25.1822 73.691 25.1822C77.6973 25.1822 79.3418 22.2132 79.3418 19.4887C79.3418 18.598 79.3418 13.4546 79.3418 13.4546C79.3505 12.0661 79.8754 11.4723 81.3362 11.4549Z" fill="#999999"/>
<path d="M49.732 35.3197V31.1107H50.2568V35.3197H49.732Z" fill="#999999"/>
<path d="M54.9891 35.3197L52.5311 31.9577V35.3197H52.0063V31.1107H52.5398L54.9716 34.4028V31.1107H55.4964V35.3197H54.9891Z" fill="#999999"/>
<path d="M58.0332 35.3197V31.5735H56.6948V31.1107H59.8964V31.5735H58.558V35.3197H58.0332Z" fill="#999999"/>
<path d="M61.1035 35.3197V31.1107H63.8676V31.5735H61.6283V32.927H63.8239V33.3985H61.6283V34.8481H63.8676V35.3109H61.1035V35.3197Z" fill="#999999"/>
<path d="M67.9002 35.3197L66.833 33.6431H65.9845V35.3197H65.4597V31.1107H67.1566C67.9264 31.1107 68.4862 31.5997 68.4862 32.3769C68.4862 33.1366 67.9614 33.547 67.3841 33.5994L68.5212 35.3197H67.9002ZM67.9352 32.3769C67.9352 31.8966 67.5853 31.5735 67.0867 31.5735H65.9758V33.1802H67.0867C67.594 33.189 67.9352 32.8571 67.9352 32.3769Z" fill="#999999"/>
<path d="M73.0523 35.3197L70.5943 31.9577V35.3197H70.0695V31.1107H70.6031L73.0349 34.4028V31.1107H73.5597V35.3197H73.0523Z" fill="#999999"/>
<path d="M78.3095 35.3197L77.9334 34.3766H75.834L75.4666 35.3197H74.863L76.56 31.1107H77.2073L78.9043 35.3197H78.3095ZM76.8837 31.6521L75.9914 33.9225H77.7847L76.8837 31.6521Z" fill="#999999"/>
<path d="M80.715 35.3197V31.5735H79.3767V31.1107H82.5782V31.5735H81.2398V35.3197H80.715Z" fill="#999999"/>
<path d="M84.039 35.3197V31.1107H84.5638V35.3197H84.039Z" fill="#999999"/>
<path d="M86.0159 33.2239C86.0159 31.9839 86.8644 31.0495 88.1065 31.0495C89.3486 31.0495 90.2059 31.9839 90.2059 33.2239C90.2059 34.4639 89.3486 35.3983 88.1065 35.3983C86.8644 35.3983 86.0159 34.4639 86.0159 33.2239ZM89.6635 33.2239C89.6635 32.2371 89.0512 31.5123 88.1065 31.5123C87.1531 31.5123 86.5582 32.2371 86.5582 33.2239C86.5582 34.2019 87.1618 34.9354 88.1065 34.9354C89.0512 34.9267 89.6635 34.2019 89.6635 33.2239Z" fill="#999999"/>
<path d="M94.5183 35.3197L92.0603 31.9577V35.3197H91.5355V31.1107H92.0691L94.5008 34.4028V31.1107H95.0256V35.3197H94.5183Z" fill="#999999"/>
<path d="M99.653 35.3197L99.2768 34.3766H97.1775L96.8014 35.3197H96.1978L97.8948 31.1107H98.5421L100.239 35.3197H99.653ZM98.2272 31.6521L97.3349 33.9225H99.1282L98.2272 31.6521Z" fill="#999999"/>
<path d="M101.621 35.3197V31.1107H102.146V34.8568H104.105V35.3197H101.621Z" fill="#999999"/>
<path d="M49.732 43.6943V39.4853H51.6126C52.3474 39.4853 52.7935 39.9306 52.7935 40.5594C52.7935 41.0921 52.4436 41.4414 52.05 41.5287C52.4961 41.5985 52.8722 42.0614 52.8722 42.5678C52.8722 43.2402 52.4261 43.703 51.6476 43.703L49.732 43.6943ZM52.2512 40.6292C52.2512 40.2537 51.9975 39.9481 51.5252 39.9481H50.2568V41.3016H51.5252C51.9975 41.3016 52.2512 41.0135 52.2512 40.6292ZM52.3387 42.498C52.3387 42.1137 52.0762 41.7732 51.5602 41.7732H50.2655V43.2228H51.5602C52.0413 43.2228 52.3387 42.9433 52.3387 42.498Z" fill="#999999"/>
<path d="M54.0969 42.0614V39.4853H54.6305V42.0526C54.6305 42.8211 55.0416 43.3101 55.8201 43.3101C56.5986 43.3101 57.0185 42.8211 57.0185 42.0526V39.4853H57.5521V42.0526C57.5521 43.1005 56.966 43.7729 55.8288 43.7729C54.6742 43.7729 54.0969 43.0918 54.0969 42.0614Z" fill="#999999"/>
<path d="M58.5318 43.1005L58.8467 42.6988C59.1178 43.0132 59.5727 43.3014 60.1675 43.3014C60.9198 43.3014 61.156 42.8997 61.156 42.5678C61.156 41.485 58.6542 42.0875 58.6542 40.5856C58.6542 39.887 59.2753 39.4067 60.1063 39.4067C60.7449 39.4067 61.2434 39.625 61.6021 40.0005L61.2872 40.3847C60.9723 40.0354 60.5262 39.8783 60.0626 39.8783C59.564 39.8783 59.1966 40.149 59.1966 40.5506C59.1966 41.4937 61.6983 40.9523 61.6983 42.5242C61.6983 43.1267 61.2784 43.7642 60.1413 43.7642C59.424 43.7729 58.8817 43.4935 58.5318 43.1005Z" fill="#999999"/>
<path d="M63.1241 43.6943V39.4853H63.649V43.6943H63.1241Z" fill="#999999"/>
<path d="M68.3725 43.6943L65.9145 40.3323V43.6943H65.3897V39.4853H65.9233L68.355 42.7774V39.4853H68.8799V43.6943H68.3725Z" fill="#999999"/>
<path d="M70.5069 43.6943V39.4853H73.271V39.9481H71.0317V41.3016H73.2273V41.7732H71.0317V43.2228H73.271V43.6856H70.5069V43.6943Z" fill="#999999"/>
<path d="M74.6094 43.1005L74.9243 42.6988C75.1954 43.0132 75.6503 43.3014 76.2451 43.3014C76.9974 43.3014 77.2336 42.8997 77.2336 42.5678C77.2336 41.485 74.7318 42.0875 74.7318 40.5856C74.7318 39.887 75.3529 39.4067 76.1839 39.4067C76.8224 39.4067 77.321 39.625 77.6797 40.0005L77.3648 40.3847C77.0499 40.0354 76.6038 39.8783 76.1402 39.8783C75.6416 39.8783 75.2742 40.149 75.2742 40.5506C75.2742 41.4937 77.7759 40.9523 77.7759 42.5242C77.7759 43.1267 77.356 43.7642 76.2189 43.7642C75.5016 43.7729 74.9593 43.4935 74.6094 43.1005Z" fill="#999999"/>
<path d="M78.9481 43.1005L79.263 42.6988C79.5341 43.0132 79.989 43.3014 80.5838 43.3014C81.3361 43.3014 81.5723 42.8997 81.5723 42.5678C81.5723 41.485 79.0705 42.0875 79.0705 40.5856C79.0705 39.887 79.6916 39.4067 80.5226 39.4067C81.1611 39.4067 81.6597 39.625 82.0184 40.0005L81.7035 40.3847C81.3886 40.0354 80.9424 39.8783 80.4788 39.8783C79.9802 39.8783 79.6128 40.149 79.6128 40.5506C79.6128 41.4937 82.1146 40.9523 82.1146 42.5242C82.1146 43.1267 81.6947 43.7642 80.5576 43.7642C79.8403 43.7729 79.2979 43.4935 78.9481 43.1005Z" fill="#999999"/>
<path d="M85.561 43.1005L85.8759 42.6988C86.1471 43.0132 86.602 43.3014 87.1968 43.3014C87.9491 43.3014 88.1852 42.8997 88.1852 42.5678C88.1852 41.485 85.6835 42.0875 85.6835 40.5856C85.6835 39.887 86.3046 39.4067 87.1356 39.4067C87.7741 39.4067 88.2727 39.625 88.6313 40.0005L88.3164 40.3847C88.0015 40.0354 87.5554 39.8783 87.0918 39.8783C86.5932 39.8783 86.2258 40.149 86.2258 40.5506C86.2258 41.4937 88.7276 40.9523 88.7276 42.5242C88.7276 43.1267 88.3077 43.7642 87.1705 43.7642C86.4533 43.7729 85.9109 43.4935 85.561 43.1005Z" fill="#999999"/>
<path d="M89.7335 41.5898C89.7335 40.2974 90.687 39.4154 91.9028 39.4154C92.6464 39.4154 93.1712 39.7647 93.5036 40.245L93.0662 40.4895C92.8301 40.1315 92.3839 39.8783 91.9028 39.8783C90.9756 39.8783 90.2758 40.5768 90.2758 41.5898C90.2758 42.5853 90.9756 43.3014 91.9028 43.3014C92.3839 43.3014 92.8301 43.0394 93.0662 42.6901L93.5124 42.9259C93.1625 43.4149 92.6551 43.7642 91.9028 43.7642C90.687 43.7729 89.7335 42.8822 89.7335 41.5898Z" fill="#999999"/>
<path d="M97.8073 43.6943V41.7645H95.3406V43.6943H94.8157V39.4853H95.3406V41.2929H97.8073V39.4853H98.3321V43.6943H97.8073Z" fill="#999999"/>
<path d="M99.653 41.5898C99.653 40.3498 100.501 39.4154 101.744 39.4154C102.986 39.4154 103.843 40.3498 103.843 41.5898C103.843 42.8298 102.986 43.7642 101.744 43.7642C100.501 43.7729 99.653 42.8298 99.653 41.5898ZM103.309 41.5898C103.309 40.603 102.697 39.8783 101.752 39.8783C100.799 39.8783 100.204 40.603 100.204 41.5898C100.204 42.5678 100.808 43.3014 101.752 43.3014C102.688 43.3014 103.309 42.5678 103.309 41.5898Z" fill="#999999"/>
<path d="M104.866 41.5898C104.866 40.3498 105.715 39.4154 106.957 39.4154C108.199 39.4154 109.056 40.3498 109.056 41.5898C109.056 42.8298 108.199 43.7642 106.957 43.7642C105.715 43.7729 104.866 42.8298 104.866 41.5898ZM108.523 41.5898C108.523 40.603 107.91 39.8783 106.966 39.8783C106.012 39.8783 105.417 40.603 105.417 41.5898C105.417 42.5678 106.021 43.3014 106.966 43.3014C107.91 43.3014 108.523 42.5678 108.523 41.5898Z" fill="#999999"/>
<path d="M110.316 43.6943V39.4853H110.841V43.2315H112.8V43.6943H110.316Z" fill="#999999"/>
<path d="M26.0182 6.76512V4.98371L21.2422 0.21582L16.4661 4.98371V6.76512H0.152344V33.5299C0.152344 44.4978 9.09212 53.4223 20.0788 53.4223H21.041V59.7795C21.041 61.1243 22.1344 62.2158 23.4815 62.2158V61.8229C22.3531 61.8229 21.4346 60.906 21.4346 59.7795V53.4223H22.4056C33.3922 53.4223 42.332 44.4978 42.332 33.5299V6.76512H26.0182ZM21.4346 0.975539L25.6158 5.14962V13.7598L21.4346 17.9338V0.975539ZM21.041 28.4389V30.9538L19.0728 32.9186L15.0228 28.8843L18.2506 25.6533L21.041 28.4389ZM18.5392 25.3826L21.041 22.8851V27.88L18.5392 25.3826ZM21.041 31.5127V34.8747L19.3527 33.1893L21.041 31.5127ZM21.4346 31.5215L23.1141 33.1981L21.4346 34.8747V31.5215ZM21.4346 30.9713V28.4739L24.225 25.6882L27.444 28.9017L23.394 32.9361L21.4346 30.9713ZM21.4346 27.9062V22.8938L23.9451 25.4L21.4346 27.9062ZM21.041 22.3262L18.2593 25.1031L7.16771 14.0305H13.7719L21.041 21.2871V22.3262ZM17.9794 25.3826L14.7429 28.6136L6.86155 20.7631V14.2924L17.9794 25.3826ZM18.7929 33.1981L14.7167 37.2674L7.58758 30.1767V23.6099L13.0372 29.0502H14.6292L18.7929 33.1981ZM20.9885 44.0786L19.6764 45.3885H14.7604L8.31361 38.9527V33.0234L12.9934 37.6865H14.5679L20.9885 44.0786ZM14.9966 37.5555L19.0728 33.4862L21.041 35.4423V43.5809L14.9966 37.5555ZM21.4346 35.4423L23.394 33.4862L27.4703 37.5555L21.4259 43.5809V35.4423H21.4346ZM27.8989 37.6953H29.4734L34.1532 33.0322V38.9527L27.7064 45.3885H22.7992L21.4871 44.0786L27.8989 37.6953ZM27.7589 37.2761L23.6827 33.2068L27.8377 29.0589H29.4209L34.8968 23.6012V30.1592L27.7589 37.2761ZM27.7239 28.6136L24.5049 25.4L35.6053 14.3186V20.7457L27.7239 28.6136ZM24.225 25.1206L21.4346 22.335V21.2871L28.7036 14.0305H35.3341L24.225 25.1206ZM16.8598 5.14962L21.041 0.975539V17.9338L16.8598 13.751V5.14962ZM20.0788 53.0293C9.3108 53.0293 0.545974 44.2795 0.545974 33.5299V7.15807H16.4574V13.9169L21.041 18.4927V20.7369L13.9294 13.6375H6.46792V20.9291L14.2268 28.666H13.1946L7.19395 22.6581V30.3426L14.1743 37.2936H13.1596L7.91998 32.0716V39.1186L14.5942 45.7815H19.8338L21.041 44.5764V53.0206L20.0788 53.0293ZM41.9384 33.5299C41.9384 44.2795 33.1735 53.0293 22.4056 53.0293H21.4346V44.5851L22.633 45.7815H27.8726L34.5556 39.1186V32.0803L29.3072 37.3023H28.2925L35.2816 30.3339V22.6581L29.246 28.6747H28.2313L35.9989 20.9291V13.6462H28.5462L21.4346 20.7457V18.5015L26.0095 13.9344V7.15807H41.9384V33.5299Z" fill="#999999"/>
<path d="M57.5697 24.6495H63.7715V24.2303H63.5529C62.2408 24.2303 61.8034 23.8811 61.8034 22.3267V13.245C61.8034 11.8915 62.1533 11.4985 63.4654 11.4549V11.0444H57.8321V11.4636H58.252C59.6078 11.4636 59.9839 11.9002 59.9839 13.0616V17.3754H52.2076V13.5681C52.2076 11.8827 52.47 11.4636 54.027 11.4636V11.0444H48.8136V11.4636C50.0207 11.5509 50.3881 11.8827 50.3881 13.018V22.6498C50.3881 23.8985 49.9507 24.2478 48.6561 24.2478H48.5249V24.667H54.027V24.2478H53.957C52.4875 24.2478 52.2076 23.7413 52.2076 22.3267V18.1701H59.9839V22.6149C59.9839 23.7501 59.6778 24.2565 58.252 24.2565H57.5697V24.6495Z" stroke="#999999" stroke-width="0.305634" stroke-miterlimit="10"/>
<path d="M107.919 10.7126H107.499C107.482 10.8436 107.386 10.9309 107.255 10.9746C107.123 11.0182 106.966 11.0444 106.817 11.0444H96.4078C96.2504 11.0444 96.1017 11.027 95.9705 10.9746C95.8393 10.9309 95.7518 10.8436 95.7255 10.7126H95.3057L95.2969 11.0008L95.052 14.258H95.4631C95.5856 12.2233 95.953 11.8303 96.9502 11.8303H100.747V22.5974C100.747 23.7326 100.44 24.2391 99.0145 24.2391H98.3322V24.6582H104.534V24.2303H104.315C103.003 24.2303 102.566 23.8811 102.566 22.3267V11.8303H106.257C107.255 11.8303 107.377 12.2233 107.499 14.258H107.911V11.0008L107.919 10.7126Z" stroke="#999999" stroke-width="0.305634" stroke-miterlimit="10"/>
<path d="M87.608 23.0515V12.9656C87.608 11.612 87.9841 11.4549 89.4012 11.4549H90.2147V11.0444H83.7504V11.4636H84.0566C85.4387 11.4636 85.7886 11.9439 85.7886 13.1053V22.7982C85.7886 23.916 85.4124 24.2391 84.4065 24.2391H83.6805V24.6582H93.4775L94.6758 21.9949H94.2122C93.46 23.3047 93.1538 23.8723 91.7018 23.8723H88.4827C87.8442 23.8636 87.608 23.6453 87.608 23.0515Z" stroke="#999999" stroke-width="0.305634" stroke-miterlimit="10"/>
<path d="M81.3362 11.4549V11.0444H76.2102V11.4549C78.0209 11.5422 78.3446 11.9089 78.3446 14.0047C78.3446 14.0047 78.3446 18.2661 78.3446 19.4188C78.3446 22.938 76.0878 24.0382 74.1021 24.0382C72.029 24.0382 69.8597 22.4053 69.8597 19.4188C69.8597 18.2225 69.8597 13.0878 69.8597 13.0878C69.8597 11.8216 70.3845 11.4549 71.5829 11.4549H71.7753V11.0444H66.1683V11.4549C67.6553 11.4811 68.0402 11.6906 68.0402 13.0878C68.0402 13.0878 68.0402 18.4058 68.0402 19.4887C68.0402 23.8811 71.4779 25.1822 73.691 25.1822C77.6973 25.1822 79.3418 22.2132 79.3418 19.4887C79.3418 18.598 79.3418 13.4546 79.3418 13.4546C79.3505 12.0661 79.8754 11.4723 81.3362 11.4549Z" stroke="#999999" stroke-width="0.305634" stroke-miterlimit="10"/>
<path d="M49.732 35.3197V31.1107H50.2568V35.3197H49.732Z" stroke="#999999" stroke-width="0.305634" stroke-miterlimit="10"/>
<path d="M54.9891 35.3197L52.5311 31.9577V35.3197H52.0063V31.1107H52.5398L54.9716 34.4028V31.1107H55.4964V35.3197H54.9891Z" stroke="#999999" stroke-width="0.305634" stroke-miterlimit="10"/>
<path d="M58.0332 35.3197V31.5735H56.6948V31.1107H59.8964V31.5735H58.558V35.3197H58.0332Z" stroke="#999999" stroke-width="0.305634" stroke-miterlimit="10"/>
<path d="M61.1035 35.3197V31.1107H63.8676V31.5735H61.6283V32.927H63.8239V33.3985H61.6283V34.8481H63.8676V35.3109H61.1035V35.3197Z" stroke="#999999" stroke-width="0.305634" stroke-miterlimit="10"/>
<path d="M67.9002 35.3197L66.833 33.6431H65.9845V35.3197H65.4597V31.1107H67.1566C67.9264 31.1107 68.4862 31.5997 68.4862 32.3769C68.4862 33.1366 67.9614 33.547 67.3841 33.5994L68.5212 35.3197H67.9002ZM67.9352 32.3769C67.9352 31.8966 67.5853 31.5735 67.0867 31.5735H65.9758V33.1802H67.0867C67.594 33.189 67.9352 32.8571 67.9352 32.3769Z" stroke="#999999" stroke-width="0.305634" stroke-miterlimit="10"/>
<path d="M73.0523 35.3197L70.5943 31.9577V35.3197H70.0695V31.1107H70.6031L73.0349 34.4028V31.1107H73.5597V35.3197H73.0523Z" stroke="#999999" stroke-width="0.305634" stroke-miterlimit="10"/>
<path d="M78.3095 35.3197L77.9334 34.3766H75.834L75.4666 35.3197H74.863L76.56 31.1107H77.2073L78.9043 35.3197H78.3095ZM76.8837 31.6521L75.9914 33.9225H77.7847L76.8837 31.6521Z" stroke="#999999" stroke-width="0.305634" stroke-miterlimit="10"/>
<path d="M80.715 35.3197V31.5735H79.3767V31.1107H82.5782V31.5735H81.2398V35.3197H80.715Z" stroke="#999999" stroke-width="0.305634" stroke-miterlimit="10"/>
<path d="M84.039 35.3197V31.1107H84.5638V35.3197H84.039Z" stroke="#999999" stroke-width="0.305634" stroke-miterlimit="10"/>
<path d="M86.0159 33.2239C86.0159 31.9839 86.8644 31.0495 88.1065 31.0495C89.3486 31.0495 90.2059 31.9839 90.2059 33.2239C90.2059 34.4639 89.3486 35.3983 88.1065 35.3983C86.8644 35.3983 86.0159 34.4639 86.0159 33.2239ZM89.6635 33.2239C89.6635 32.2371 89.0512 31.5123 88.1065 31.5123C87.1531 31.5123 86.5582 32.2371 86.5582 33.2239C86.5582 34.2019 87.1618 34.9354 88.1065 34.9354C89.0512 34.9267 89.6635 34.2019 89.6635 33.2239Z" stroke="#999999" stroke-width="0.305634" stroke-miterlimit="10"/>
<path d="M94.5183 35.3197L92.0603 31.9577V35.3197H91.5355V31.1107H92.0691L94.5008 34.4028V31.1107H95.0256V35.3197H94.5183Z" stroke="#999999" stroke-width="0.305634" stroke-miterlimit="10"/>
<path d="M99.653 35.3197L99.2768 34.3766H97.1775L96.8014 35.3197H96.1978L97.8948 31.1107H98.5421L100.239 35.3197H99.653ZM98.2272 31.6521L97.3349 33.9225H99.1282L98.2272 31.6521Z" stroke="#999999" stroke-width="0.305634" stroke-miterlimit="10"/>
<path d="M101.621 35.3197V31.1107H102.146V34.8568H104.105V35.3197H101.621Z" stroke="#999999" stroke-width="0.305634" stroke-miterlimit="10"/>
<path d="M49.732 43.6943V39.4853H51.6126C52.3474 39.4853 52.7935 39.9306 52.7935 40.5594C52.7935 41.0921 52.4436 41.4414 52.05 41.5287C52.4961 41.5985 52.8722 42.0614 52.8722 42.5678C52.8722 43.2402 52.4261 43.703 51.6476 43.703L49.732 43.6943ZM52.2512 40.6292C52.2512 40.2537 51.9975 39.9481 51.5252 39.9481H50.2568V41.3016H51.5252C51.9975 41.3016 52.2512 41.0135 52.2512 40.6292ZM52.3387 42.498C52.3387 42.1137 52.0762 41.7732 51.5602 41.7732H50.2655V43.2228H51.5602C52.0413 43.2228 52.3387 42.9433 52.3387 42.498Z" stroke="#999999" stroke-width="0.305634" stroke-miterlimit="10"/>
<path d="M54.0969 42.0614V39.4853H54.6305V42.0526C54.6305 42.8211 55.0416 43.3101 55.8201 43.3101C56.5986 43.3101 57.0185 42.8211 57.0185 42.0526V39.4853H57.5521V42.0526C57.5521 43.1005 56.966 43.7729 55.8288 43.7729C54.6742 43.7729 54.0969 43.0918 54.0969 42.0614Z" stroke="#999999" stroke-width="0.305634" stroke-miterlimit="10"/>
<path d="M58.5318 43.1005L58.8467 42.6988C59.1178 43.0132 59.5727 43.3014 60.1675 43.3014C60.9198 43.3014 61.156 42.8997 61.156 42.5678C61.156 41.485 58.6542 42.0875 58.6542 40.5856C58.6542 39.887 59.2753 39.4067 60.1063 39.4067C60.7449 39.4067 61.2434 39.625 61.6021 40.0005L61.2872 40.3847C60.9723 40.0354 60.5262 39.8783 60.0626 39.8783C59.564 39.8783 59.1966 40.149 59.1966 40.5506C59.1966 41.4937 61.6983 40.9523 61.6983 42.5242C61.6983 43.1267 61.2784 43.7642 60.1413 43.7642C59.424 43.7729 58.8817 43.4935 58.5318 43.1005Z" stroke="#999999" stroke-width="0.305634" stroke-miterlimit="10"/>
<path d="M63.1241 43.6943V39.4853H63.649V43.6943H63.1241Z" stroke="#999999" stroke-width="0.305634" stroke-miterlimit="10"/>
<path d="M68.3725 43.6943L65.9145 40.3323V43.6943H65.3897V39.4853H65.9233L68.355 42.7774V39.4853H68.8799V43.6943H68.3725Z" stroke="#999999" stroke-width="0.305634" stroke-miterlimit="10"/>
<path d="M70.5069 43.6943V39.4853H73.271V39.9481H71.0317V41.3016H73.2273V41.7732H71.0317V43.2228H73.271V43.6856H70.5069V43.6943Z" stroke="#999999" stroke-width="0.305634" stroke-miterlimit="10"/>
<path d="M74.6094 43.1005L74.9243 42.6988C75.1954 43.0132 75.6503 43.3014 76.2451 43.3014C76.9974 43.3014 77.2336 42.8997 77.2336 42.5678C77.2336 41.485 74.7318 42.0875 74.7318 40.5856C74.7318 39.887 75.3529 39.4067 76.1839 39.4067C76.8224 39.4067 77.321 39.625 77.6797 40.0005L77.3648 40.3847C77.0499 40.0354 76.6038 39.8783 76.1402 39.8783C75.6416 39.8783 75.2742 40.149 75.2742 40.5506C75.2742 41.4937 77.7759 40.9523 77.7759 42.5242C77.7759 43.1267 77.356 43.7642 76.2189 43.7642C75.5016 43.7729 74.9593 43.4935 74.6094 43.1005Z" stroke="#999999" stroke-width="0.305634" stroke-miterlimit="10"/>
<path d="M78.9481 43.1005L79.263 42.6988C79.5341 43.0132 79.989 43.3014 80.5838 43.3014C81.3361 43.3014 81.5723 42.8997 81.5723 42.5678C81.5723 41.485 79.0705 42.0875 79.0705 40.5856C79.0705 39.887 79.6916 39.4067 80.5226 39.4067C81.1611 39.4067 81.6597 39.625 82.0184 40.0005L81.7035 40.3847C81.3886 40.0354 80.9424 39.8783 80.4788 39.8783C79.9802 39.8783 79.6128 40.149 79.6128 40.5506C79.6128 41.4937 82.1146 40.9523 82.1146 42.5242C82.1146 43.1267 81.6947 43.7642 80.5576 43.7642C79.8403 43.7729 79.2979 43.4935 78.9481 43.1005Z" stroke="#999999" stroke-width="0.305634" stroke-miterlimit="10"/>
<path d="M85.561 43.1005L85.8759 42.6988C86.1471 43.0132 86.602 43.3014 87.1968 43.3014C87.9491 43.3014 88.1852 42.8997 88.1852 42.5678C88.1852 41.485 85.6835 42.0875 85.6835 40.5856C85.6835 39.887 86.3046 39.4067 87.1356 39.4067C87.7741 39.4067 88.2727 39.625 88.6313 40.0005L88.3164 40.3847C88.0015 40.0354 87.5554 39.8783 87.0918 39.8783C86.5932 39.8783 86.2258 40.149 86.2258 40.5506C86.2258 41.4937 88.7276 40.9523 88.7276 42.5242C88.7276 43.1267 88.3077 43.7642 87.1705 43.7642C86.4533 43.7729 85.9109 43.4935 85.561 43.1005Z" stroke="#999999" stroke-width="0.305634" stroke-miterlimit="10"/>
<path d="M89.7335 41.5898C89.7335 40.2974 90.687 39.4154 91.9028 39.4154C92.6464 39.4154 93.1712 39.7647 93.5036 40.245L93.0662 40.4895C92.8301 40.1315 92.3839 39.8783 91.9028 39.8783C90.9756 39.8783 90.2758 40.5768 90.2758 41.5898C90.2758 42.5853 90.9756 43.3014 91.9028 43.3014C92.3839 43.3014 92.8301 43.0394 93.0662 42.6901L93.5124 42.9259C93.1625 43.4149 92.6551 43.7642 91.9028 43.7642C90.687 43.7729 89.7335 42.8822 89.7335 41.5898Z" stroke="#999999" stroke-width="0.305634" stroke-miterlimit="10"/>
<path d="M97.8073 43.6943V41.7645H95.3406V43.6943H94.8157V39.4853H95.3406V41.2929H97.8073V39.4853H98.3321V43.6943H97.8073Z" stroke="#999999" stroke-width="0.305634" stroke-miterlimit="10"/>
<path d="M99.653 41.5898C99.653 40.3498 100.501 39.4154 101.744 39.4154C102.986 39.4154 103.843 40.3498 103.843 41.5898C103.843 42.8298 102.986 43.7642 101.744 43.7642C100.501 43.7729 99.653 42.8298 99.653 41.5898ZM103.309 41.5898C103.309 40.603 102.697 39.8783 101.752 39.8783C100.799 39.8783 100.204 40.603 100.204 41.5898C100.204 42.5678 100.808 43.3014 101.752 43.3014C102.688 43.3014 103.309 42.5678 103.309 41.5898Z" stroke="#999999" stroke-width="0.305634" stroke-miterlimit="10"/>
<path d="M104.866 41.5898C104.866 40.3498 105.715 39.4154 106.957 39.4154C108.199 39.4154 109.056 40.3498 109.056 41.5898C109.056 42.8298 108.199 43.7642 106.957 43.7642C105.715 43.7729 104.866 42.8298 104.866 41.5898ZM108.523 41.5898C108.523 40.603 107.91 39.8783 106.966 39.8783C106.012 39.8783 105.417 40.603 105.417 41.5898C105.417 42.5678 106.021 43.3014 106.966 43.3014C107.91 43.3014 108.523 42.5678 108.523 41.5898Z" stroke="#999999" stroke-width="0.305634" stroke-miterlimit="10"/>
<path d="M110.316 43.6943V39.4853H110.841V43.2315H112.8V43.6943H110.316Z" stroke="#999999" stroke-width="0.305634" stroke-miterlimit="10"/>
<path d="M26.0182 6.76512V4.98371L21.2422 0.21582L16.4661 4.98371V6.76512H0.152344V33.5299C0.152344 44.4978 9.09212 53.4223 20.0788 53.4223H21.041V59.7795C21.041 61.1243 22.1344 62.2158 23.4815 62.2158V61.8229C22.3531 61.8229 21.4346 60.906 21.4346 59.7795V53.4223H22.4056C33.3922 53.4223 42.332 44.4978 42.332 33.5299V6.76512H26.0182ZM21.4346 0.975539L25.6158 5.14962V13.7598L21.4346 17.9338V0.975539ZM21.041 28.4389V30.9538L19.0728 32.9186L15.0228 28.8843L18.2506 25.6533L21.041 28.4389ZM18.5392 25.3826L21.041 22.8851V27.88L18.5392 25.3826ZM21.041 31.5127V34.8747L19.3527 33.1893L21.041 31.5127ZM21.4346 31.5215L23.1141 33.1981L21.4346 34.8747V31.5215ZM21.4346 30.9713V28.4739L24.225 25.6882L27.444 28.9017L23.394 32.9361L21.4346 30.9713ZM21.4346 27.9062V22.8938L23.9451 25.4L21.4346 27.9062ZM21.041 22.3262L18.2593 25.1031L7.16771 14.0305H13.7719L21.041 21.2871V22.3262ZM17.9794 25.3826L14.7429 28.6136L6.86155 20.7631V14.2924L17.9794 25.3826ZM18.7929 33.1981L14.7167 37.2674L7.58758 30.1767V23.6099L13.0372 29.0502H14.6292L18.7929 33.1981ZM20.9885 44.0786L19.6764 45.3885H14.7604L8.31361 38.9527V33.0234L12.9934 37.6865H14.5679L20.9885 44.0786ZM14.9966 37.5555L19.0728 33.4862L21.041 35.4423V43.5809L14.9966 37.5555ZM21.4346 35.4423L23.394 33.4862L27.4703 37.5555L21.4259 43.5809V35.4423H21.4346ZM27.8989 37.6953H29.4734L34.1532 33.0322V38.9527L27.7064 45.3885H22.7992L21.4871 44.0786L27.8989 37.6953ZM27.7589 37.2761L23.6827 33.2068L27.8377 29.0589H29.4209L34.8968 23.6012V30.1592L27.7589 37.2761ZM27.7239 28.6136L24.5049 25.4L35.6053 14.3186V20.7457L27.7239 28.6136ZM24.225 25.1206L21.4346 22.335V21.2871L28.7036 14.0305H35.3341L24.225 25.1206ZM16.8598 5.14962L21.041 0.975539V17.9338L16.8598 13.751V5.14962ZM20.0788 53.0293C9.3108 53.0293 0.545974 44.2795 0.545974 33.5299V7.15807H16.4574V13.9169L21.041 18.4927V20.7369L13.9294 13.6375H6.46792V20.9291L14.2268 28.666H13.1946L7.19395 22.6581V30.3426L14.1743 37.2936H13.1596L7.91998 32.0716V39.1186L14.5942 45.7815H19.8338L21.041 44.5764V53.0206L20.0788 53.0293ZM41.9384 33.5299C41.9384 44.2795 33.1735 53.0293 22.4056 53.0293H21.4346V44.5851L22.633 45.7815H27.8726L34.5556 39.1186V32.0803L29.3072 37.3023H28.2925L35.2816 30.3339V22.6581L29.246 28.6747H28.2313L35.9989 20.9291V13.6462H28.5462L21.4346 20.7457V18.5015L26.0095 13.9344V7.15807H41.9384V33.5299Z" stroke="#999999" stroke-width="0.305634" stroke-miterlimit="10"/>
</svg>
