<svg width="163" height="27" viewBox="0 0 163 27" fill="none" xmlns="http://www.w3.org/2000/svg">
<g clip-path="url(#clip0_1206_147)">
<path fill-rule="evenodd" clip-rule="evenodd" d="M50.4967 11.8412C49.608 11.8412 48.9197 11.8944 48.7193 11.8944C48.336 11.8944 47.4735 11.8412 46.5238 11.8412C46.2537 11.8412 46.0534 11.8589 46.0534 12.0097C46.0534 12.1162 46.1231 12.1783 46.3409 12.1783C46.5935 12.1783 47.0291 12.1783 47.2992 12.2936C47.7349 12.4798 47.9004 12.8258 47.9178 13.9522L48.1008 22.2279H48.0136C47.7087 21.9352 45.2605 19.2742 44.0321 18.0235C41.3922 15.3537 38.6391 12.3468 38.4213 12.1073C38.1164 11.7702 37.9508 11.5308 37.7505 11.5308C37.5675 11.5308 37.5152 11.788 37.5152 12.1605L37.3497 23.0705C37.3323 24.676 37.2626 25.2082 36.7921 25.3589C36.5394 25.4299 36.2084 25.4476 35.9818 25.4476C35.7989 25.4476 35.6943 25.4831 35.6943 25.5984C35.6943 25.767 35.8599 25.7847 36.0951 25.7847C37.036 25.7847 37.8899 25.7315 38.0467 25.7315C38.3952 25.7315 39.1183 25.7847 40.2945 25.7847C40.5471 25.7847 40.7127 25.7492 40.7127 25.5984C40.7127 25.492 40.6081 25.4476 40.4077 25.4476C40.1202 25.4476 39.7717 25.4299 39.4668 25.3146C39.1009 25.1904 38.8656 24.7114 38.8308 23.2656L38.6304 15.5222H38.6827C39.005 15.877 41.0176 18.1743 42.9953 20.1701C44.8772 22.0682 47.1947 24.4808 48.336 25.5896C48.5364 25.7936 48.7542 25.9976 48.9546 25.9976C49.1201 25.9976 49.1898 25.8291 49.1898 25.4299L49.3902 13.8015C49.4076 12.7725 49.5557 12.3823 50.0611 12.2315C50.2789 12.1783 50.427 12.1783 50.6012 12.1783C50.819 12.1783 50.9236 12.125 50.9236 12.0097C50.9236 11.8589 50.7406 11.8412 50.5054 11.8412H50.4967Z" fill="#999999"/>
<path fill-rule="evenodd" clip-rule="evenodd" d="M64.0709 11.584C58.6431 11.584 56.5957 15.6553 56.5957 18.813C56.5957 21.9706 58.6954 26.0419 63.8967 26.0419C68.4968 26.0419 71.3893 22.7068 71.3893 18.4848C71.3893 14.2627 68.5839 11.5929 64.0709 11.5929V11.584ZM64.6459 25.1106C61.1697 25.1106 59.0874 22.0682 59.0874 18.2364C59.0874 13.6507 61.4572 12.4621 63.5395 12.4621C66.5104 12.4621 68.8453 15.0255 68.8453 19.15C68.8453 24.4808 65.9092 25.1017 64.6459 25.1017V25.1106Z" fill="#999999"/>
<path fill-rule="evenodd" clip-rule="evenodd" d="M89.755 11.8414C89.2148 11.8414 88.361 11.8946 88.056 11.8946C87.8208 11.8946 87.0628 11.8414 86.1567 11.8414C85.8082 11.8414 85.6514 11.8769 85.6514 12.0277C85.6514 12.1607 85.7995 12.1784 85.9564 12.1784C86.1916 12.1784 86.4617 12.1962 86.6795 12.2671C86.8363 12.3204 86.9147 12.4712 86.9147 12.6219C86.9147 12.7905 86.845 13.0654 86.7492 13.3049C86.3136 14.5201 83.9612 20.4541 83.1858 22.4853H83.1161L80.0058 14.1121C79.7531 13.4468 79.5876 12.9324 79.5876 12.6929C79.5876 12.5244 79.6399 12.4002 79.7706 12.3026C79.9187 12.1873 80.1888 12.1696 80.4763 12.1696C80.6418 12.1696 80.7463 12.1341 80.7463 12.001C80.7463 11.868 80.546 11.8325 80.3282 11.8325C79.4221 11.8325 78.5508 11.8857 78.0978 11.8857C77.4618 11.8857 76.4337 11.8325 75.4754 11.8325C75.2053 11.8325 75.0049 11.8503 75.0049 12.001C75.0049 12.1075 75.0572 12.1696 75.2227 12.1696C75.3708 12.1696 75.6583 12.1696 75.9284 12.2405C76.5818 12.4268 76.8868 12.6308 77.305 13.642L81.8702 24.9068C82.21 25.776 82.3233 26.0332 82.5585 26.0332C82.8112 26.0332 82.9157 25.7405 83.3862 24.6673L85.7995 19.0438C86.7753 16.7731 87.2632 15.7796 87.9689 14.05C88.4568 12.8703 88.7269 12.5599 88.9621 12.3913C89.2932 12.1696 89.6678 12.1696 89.8508 12.1696C90.0337 12.1696 90.1383 12.1341 90.1383 12.001C90.1383 11.868 89.9902 11.8325 89.755 11.8325V11.8414Z" fill="#999999"/>
<path fill-rule="evenodd" clip-rule="evenodd" d="M106.23 25.4478C106.013 25.4478 105.742 25.4301 105.472 25.3768C105.089 25.2881 104.566 25.022 103.878 23.3634C102.719 20.5605 99.8267 13.0388 99.3911 12.0276C99.2081 11.6019 99.1036 11.4333 98.9381 11.4333C98.7551 11.4333 98.6506 11.6374 98.4327 12.1696L93.8849 23.7448C93.5277 24.6673 93.1792 25.297 92.3515 25.4035L91.7852 25.4389C91.6371 25.4389 91.5674 25.4744 91.5674 25.5897C91.5674 25.7405 91.6806 25.776 91.9159 25.776C92.8568 25.776 93.85 25.7228 94.0504 25.7228C94.608 25.7228 95.3921 25.776 95.9671 25.776C96.1675 25.776 96.2721 25.7405 96.2721 25.5897C96.2721 25.4833 96.2198 25.4389 96.002 25.4389H95.7319C95.1743 25.4389 95.0088 25.1994 95.0088 24.8713C95.0088 24.6495 95.0959 24.206 95.2789 23.7448L96.2547 21.1104C96.2895 21.004 96.3243 20.9596 96.4202 20.9596H100.454C100.541 20.9596 100.602 20.9951 100.637 21.0927L102.083 24.9954C102.17 25.2172 102.048 25.3857 101.918 25.4212C101.735 25.4389 101.665 25.4744 101.665 25.5897C101.665 25.7228 101.883 25.7228 102.214 25.7405C103.66 25.776 104.984 25.776 105.638 25.776C106.291 25.776 106.474 25.7405 106.474 25.5897C106.474 25.4567 106.387 25.4389 106.239 25.4389L106.23 25.4478ZM100.114 20.046H96.7861C96.7164 20.046 96.699 19.9928 96.7164 19.913L98.3805 15.3805C98.3979 15.3095 98.4327 15.2119 98.485 15.2119C98.5373 15.2119 98.5547 15.3006 98.5721 15.3805L100.201 19.9307C100.219 19.9839 100.201 20.0372 100.114 20.0372V20.046Z" fill="#999999"/>
<path fill-rule="evenodd" clip-rule="evenodd" d="M124.23 25.4477C124.082 25.4477 123.925 25.4299 123.724 25.3944C123.454 25.3412 122.714 25.2082 121.694 24.1438C120.623 22.9996 119.377 21.3586 117.765 19.3008C119.595 17.7841 120.152 16.5334 120.152 15.1674C120.152 13.9345 119.429 12.9943 118.924 12.6395C117.948 11.9565 116.728 11.8501 115.596 11.8501C115.029 11.8501 113.662 11.9033 113.043 11.9033C112.66 11.9033 111.518 11.8501 110.56 11.8501C110.29 11.8501 110.159 11.8856 110.159 12.0186C110.159 12.1517 110.264 12.1872 110.464 12.1872C110.717 12.1872 111.022 12.2049 111.17 12.2404C111.762 12.3646 111.91 12.6661 111.945 13.287C111.98 13.8724 111.98 14.3958 111.98 17.1987V20.445C111.98 22.1392 111.98 23.6027 111.893 24.3744C111.823 24.9066 111.727 25.3146 111.37 25.3856C111.205 25.4211 110.987 25.4565 110.717 25.4565C110.499 25.4565 110.429 25.5098 110.429 25.6073C110.429 25.7404 110.56 25.7936 110.795 25.7936C111.518 25.7936 112.66 25.7404 113.008 25.7404C113.278 25.7404 114.62 25.7936 115.665 25.7936C115.901 25.7936 116.031 25.7404 116.031 25.6073C116.031 25.5186 115.962 25.4565 115.814 25.4565C115.596 25.4565 115.195 25.4211 114.925 25.3856C114.385 25.3146 114.271 24.9066 114.219 24.3744C114.132 23.6027 114.132 22.1481 114.132 20.4273V20.1701C114.132 20.0636 114.184 20.0193 114.28 20.0193L115.857 20.0548C115.988 20.0548 116.092 20.0725 116.179 20.1878C116.415 20.4628 117.251 21.7134 117.974 22.7335C118.985 24.1527 119.673 25.0219 120.457 25.4477C120.928 25.7049 121.381 25.8025 122.391 25.8025H124.116C124.334 25.8025 124.465 25.767 124.465 25.6162C124.465 25.5275 124.395 25.4654 124.247 25.4654L124.23 25.4477ZM116.955 18.8485C116.632 19.0879 116.397 19.1589 115.665 19.1589C115.212 19.1589 114.672 19.1057 114.289 18.9726C114.167 18.9194 114.123 18.8396 114.123 18.6444V13.0387C114.123 12.8879 114.158 12.8169 114.289 12.7814C114.472 12.7282 114.794 12.7105 115.247 12.7105C116.319 12.7105 118.018 13.4644 118.018 16.081C118.018 17.5889 117.495 18.4404 116.946 18.8485H116.955Z" fill="#999999"/>
<path fill-rule="evenodd" clip-rule="evenodd" d="M137.874 11.7082C137.726 11.7082 137.29 11.8944 136.131 11.8944H128.961C128.36 11.8944 127.672 11.859 127.149 11.8057C126.696 11.7703 126.513 11.584 126.374 11.584C126.269 11.584 126.208 11.6993 126.156 11.9388C126.121 12.0896 125.772 13.766 125.772 14.0587C125.772 14.2627 125.807 14.3514 125.938 14.3514C126.043 14.3514 126.104 14.2804 126.138 14.1296C126.173 13.9789 126.269 13.7571 126.443 13.4821C126.713 13.0741 127.149 12.9854 128.203 12.95L130.904 12.879V20.4362C130.904 22.1303 130.904 23.5938 130.817 24.3655C130.765 24.8977 130.651 25.3057 130.294 25.3767C130.129 25.4122 129.911 25.4477 129.641 25.4477C129.423 25.4477 129.353 25.5009 129.353 25.5984C129.353 25.7315 129.475 25.7847 129.71 25.7847C130.434 25.7847 131.575 25.7315 131.993 25.7315C132.498 25.7315 133.64 25.7847 134.833 25.7847C135.034 25.7847 135.173 25.7315 135.173 25.5984C135.173 25.5097 135.086 25.4477 134.886 25.4477C134.616 25.4477 134.215 25.4122 133.962 25.3767C133.422 25.3057 133.309 24.8977 133.256 24.3833C133.169 23.5938 133.169 22.1392 133.169 20.4362V12.879L135.452 12.9322C137.064 12.9677 137.552 13.4821 137.586 13.9611L137.604 14.1651C137.621 14.4401 137.656 14.5377 137.804 14.5377C137.909 14.5377 137.952 14.4224 137.97 14.245C137.97 13.766 138.022 12.4976 138.022 12.1073C138.022 11.8323 138.005 11.717 137.874 11.717V11.7082Z" fill="#999999"/>
<path fill-rule="evenodd" clip-rule="evenodd" d="M148.93 25.4477C148.659 25.4477 148.259 25.4123 148.006 25.3768C147.466 25.3058 147.335 24.9688 147.283 24.4721C147.213 23.6826 147.213 22.228 147.213 20.4362V17.1899C147.213 14.387 147.213 13.8725 147.248 13.2782C147.283 12.6307 147.431 12.3203 147.919 12.2316C148.137 12.1961 148.285 12.1784 148.459 12.1784C148.633 12.1784 148.747 12.1429 148.747 11.9921C148.747 11.8768 148.598 11.8413 148.363 11.8413C147.675 11.8413 146.603 11.8945 146.15 11.8945C145.628 11.8945 144.486 11.8413 143.798 11.8413C143.51 11.8413 143.362 11.8768 143.362 11.9921C143.362 12.1429 143.476 12.1784 143.65 12.1784C143.868 12.1784 144.103 12.1961 144.303 12.2493C144.704 12.338 144.887 12.6573 144.922 13.2782C144.957 13.8636 144.957 14.387 144.957 17.1899V20.4362C144.957 22.228 144.957 23.6826 144.87 24.4543C144.817 24.9865 144.704 25.297 144.347 25.3768C144.181 25.4123 143.963 25.4477 143.693 25.4477C143.476 25.4477 143.406 25.501 143.406 25.5985C143.406 25.7316 143.528 25.7848 143.763 25.7848C144.486 25.7848 145.628 25.7316 146.046 25.7316C146.534 25.7316 147.675 25.7848 148.869 25.7848C149.069 25.7848 149.217 25.7316 149.217 25.5985C149.217 25.5098 149.13 25.4477 148.93 25.4477Z" fill="#999999"/>
<path fill-rule="evenodd" clip-rule="evenodd" d="M160.029 17.3672L159.524 16.9769C158.016 15.8149 157.607 15.1763 157.607 14.3248C157.607 13.216 158.426 12.4266 159.759 12.4266C160.935 12.4266 161.458 12.9766 161.728 13.3314C162.111 13.8103 162.198 14.378 162.198 14.5465C162.198 14.7683 162.251 14.8747 162.381 14.8747C162.529 14.8747 162.582 14.7328 162.582 14.3248C162.582 12.8879 162.651 12.3557 162.651 12.1162C162.651 11.9831 162.564 11.9299 162.399 11.8944C161.928 11.7614 161.17 11.584 159.994 11.584C157.476 11.584 155.812 13.0386 155.812 15.0699C155.812 16.56 156.5 17.855 158.496 19.4427L159.332 20.108C160.831 21.2877 161.109 22.1569 161.109 23.0528C161.109 24.0285 160.308 25.1549 158.687 25.1549C157.563 25.1549 156.492 24.6582 156.1 23.2923C156.013 22.9818 155.934 22.5915 155.934 22.3521C155.934 22.2013 155.917 22.0416 155.751 22.0416C155.603 22.0416 155.551 22.2456 155.533 22.5206C155.516 22.8133 155.446 23.922 155.446 24.9332C155.446 25.3412 155.499 25.4299 155.786 25.563C156.561 25.9089 157.38 26.0419 158.435 26.0419C159.393 26.0419 160.404 25.8734 161.31 25.288C162.617 24.4187 163.009 23.1503 163.009 22.086C163.009 20.3386 162.216 19.0968 160.038 17.3849L160.029 17.3672Z" fill="#999999"/>
<path fill-rule="evenodd" clip-rule="evenodd" d="M11.047 26.8403C4.1207 25.5276 2.50891 19.4251 5.0355 14.3958C6.31622 11.8502 10.2281 5.68559 2.7093 2.63434C2.5699 2.57225 2.5002 2.64321 2.58732 2.75852C5.88932 6.30648 3.11878 10.1383 1.3066 13.704C-2.05638 20.3298 0.992956 26.2106 11.0383 26.9911C11.1777 27 11.1952 26.8758 11.0383 26.8403H11.047Z" fill="#999999"/>
<path fill-rule="evenodd" clip-rule="evenodd" d="M10.1064 0L12.2497 21.3853C12.2584 21.5273 12.3804 21.5184 12.3891 21.3853L14.088 0H10.1064Z" fill="#999999"/>
<path fill-rule="evenodd" clip-rule="evenodd" d="M17.0671 10.493C16.8841 10.4043 16.797 10.5196 16.9364 10.6261C19.4194 12.6129 23.462 23.656 13.5821 26.8403C13.4253 26.8846 13.434 27.0088 13.5821 26.9911C29.2906 24.9953 23.8976 13.5177 17.0584 10.4842L17.0671 10.493Z" fill="#999999"/>
</g>
<defs>
<clipPath id="clip0_1206_147">
<rect width="163" height="27" fill="white"/>
</clipPath>
</defs>
</svg>
