<svg width="95" height="30" viewBox="0 0 95 30" fill="none" xmlns="http://www.w3.org/2000/svg">
<g clip-path="url(#clip0_1206_161)">
<path d="M0.0263672 29.074C0.13238 28.5969 0.238392 28.1464 0.264895 27.6428C0.47692 26.3177 0.662442 24.9925 0.874467 23.6674C1.08649 22.3422 1.27201 21.017 1.48404 19.6919C1.69606 18.3667 1.88159 17.0681 2.09361 15.7429C2.30564 14.4178 2.49116 13.1191 2.70318 11.794L3.31275 7.845C3.41877 7.23543 3.52478 6.65236 3.57778 6.04279C3.60429 5.85726 3.65729 5.77775 3.84282 5.77775C5.32699 5.77775 6.78466 5.77775 8.26884 5.77775C8.45436 5.77775 8.48086 5.83076 8.45436 6.01628C8.10982 8.03052 7.76528 10.0713 7.44724 12.0855C7.04969 14.5238 6.65215 16.9356 6.2546 19.3474C6.2546 19.3739 6.2811 19.4004 6.2811 19.4269C6.57264 18.9233 6.83767 18.4462 7.1292 17.9692C7.9508 16.538 8.87841 15.1864 9.88553 13.8877C11.2107 12.2975 12.7479 10.9194 14.4706 9.75322C17.9955 7.23543 21.8914 5.45972 25.9729 4.02855C29.2328 2.88891 32.5722 2.01431 35.9646 1.37824C37.7403 1.0337 39.516 0.768665 41.3182 0.583143C42.6964 0.450627 44.101 0.318112 45.4792 0.265105C46.9899 0.185596 48.5006 0.185596 50.0112 0.238602C53.5097 0.371118 56.9816 0.821671 60.321 1.98781C61.9641 2.54437 63.5013 3.33947 64.906 4.37309C64.9325 4.39959 64.959 4.4261 65.012 4.4791C64.5615 4.71763 64.1374 5.03567 63.7399 5.38021C62.7327 6.33432 62.1497 7.65948 62.1762 9.06414C62.1762 9.27617 62.1232 9.35567 61.9111 9.35567C60.3475 9.35567 58.7838 9.35567 57.2466 9.35567C57.1141 9.35567 57.0081 9.38218 56.9551 9.19666C56.6635 8.24254 56.0009 7.57997 55.1793 7.0499C54.0132 6.33432 52.7146 5.85726 51.3629 5.59223C49.4812 5.19469 47.573 4.98266 45.6382 4.92965C44.0215 4.87665 42.4314 4.90315 40.8147 5.03567C34.4804 5.51272 28.3317 6.83788 22.501 9.46169C20.0892 10.5218 17.81 11.9265 15.7957 13.6227C14.3646 14.9213 13.0924 16.379 12.0323 17.9692C11.4757 18.7643 10.9191 19.5859 10.3361 20.381C10.2301 20.5135 10.2036 20.6725 10.2566 20.8315C11.2107 23.5878 12.1383 26.3177 13.0659 29.074C13.1719 29.392 13.1719 29.4185 12.8274 29.4185C11.3167 29.4185 9.80602 29.4185 8.32184 29.4185C8.13632 29.445 7.9773 29.339 7.9243 29.1535V29.127C7.26172 26.9272 6.57264 24.754 5.85705 22.5277C5.64503 23.2698 5.51251 23.9854 5.38 24.701C5.11496 26.1852 4.95595 27.6958 4.77042 29.18C4.74392 29.392 4.66441 29.4185 4.50539 29.4185C3.02122 29.4185 1.53704 29.4185 0.0528703 29.4185L0.0263672 29.074Z" fill="#999999"/>
<path d="M48.3418 16.5114C48.4478 15.7693 48.5273 15.1332 48.6068 14.4972C48.6334 14.3116 48.7129 14.2586 48.8719 14.2586C50.25 14.2586 51.6547 14.2586 53.0329 14.2586C53.2449 14.2586 53.2714 14.3381 53.2449 14.5237C52.9004 16.6969 52.5558 18.8967 52.2113 21.0699C51.7872 23.6937 51.3897 26.291 50.9921 28.9149C50.9391 29.2329 50.8596 29.3389 50.5416 29.3124C49.2429 29.2859 47.9443 29.3124 46.6191 29.3124C46.3806 29.3124 46.3541 29.2594 46.3806 29.0209C46.4601 28.4113 46.5131 27.7752 46.5926 27.1391C46.4601 27.1657 46.4601 27.2717 46.4071 27.3512C45.559 28.4908 44.4724 29.2594 43.0412 29.4714C41.451 29.7099 40.1789 28.9944 39.4898 27.5102C39.0922 26.6091 38.8802 25.602 38.8537 24.6214C38.7212 22.1831 39.1982 19.7448 40.2319 17.5185C40.8414 16.2464 41.663 15.1332 42.9617 14.4707C43.8363 14.0201 44.8434 13.8876 45.7975 14.0731C46.7251 14.2321 47.3612 14.8152 47.8648 15.5838C47.9973 15.9018 48.1298 16.1934 48.3418 16.5114ZM43.5448 23.2697C43.5448 23.7202 43.5978 24.1443 43.7303 24.5683C44.1013 25.7345 45.347 26.0525 46.2216 25.2044C46.5926 24.8334 46.8841 24.3563 47.0432 23.8793C47.5202 22.5541 47.7853 21.1494 47.8118 19.7448C47.8383 19.2942 47.7057 18.8437 47.4937 18.4461C47.2022 17.8896 46.5661 17.6245 45.983 17.8366C45.2675 18.0486 44.8434 18.5786 44.5254 19.2147C43.8363 20.4604 43.5978 21.865 43.5448 23.2697Z" fill="#999999"/>
<path d="M24.4097 22.8723C24.4627 21.0701 24.9397 19.3209 25.7878 17.7307C26.848 15.8224 28.4116 14.4708 30.6114 14.0202C32.9172 13.5432 35.0109 13.9937 36.6011 15.8754C37.5552 17.0151 38.0323 18.4462 37.9528 19.9304C37.8733 22.1037 37.5022 24.1709 36.3891 26.0791C34.8254 28.7295 32.4401 29.7896 29.4453 29.6041C28.3586 29.5776 27.2985 29.18 26.4239 28.5174C25.3903 27.6693 24.8867 26.5297 24.6217 25.2576C24.4362 24.489 24.3567 23.6939 24.4097 22.8723ZM33.3412 20.1424C33.3412 19.7714 33.2882 19.4004 33.2087 19.0293C32.9437 17.9692 31.9366 17.5716 30.9824 18.1017C30.5849 18.3402 30.2404 18.7113 30.0018 19.1353C29.5778 19.8774 29.2862 20.699 29.1537 21.5471C28.9152 22.5807 28.9152 23.6674 29.1272 24.7275C29.4188 25.9996 30.8499 26.0791 31.539 25.4696C31.8571 25.2045 32.0956 24.86 32.2811 24.489C32.9967 23.1373 33.2352 21.6266 33.3412 20.1424Z" fill="#999999"/>
<path d="M80.9408 19.2149C81.0203 18.6849 81.0998 18.2078 81.1793 17.7308C81.4974 15.584 81.8154 13.4638 82.1334 11.317C82.1599 11.1315 82.2394 11.105 82.3985 11.105C83.2996 11.105 84.2007 11.105 85.1018 11.105C85.3403 11.105 85.3403 11.211 85.3138 11.37C85.1018 12.9072 84.8633 14.4444 84.6512 15.9816C84.3067 18.4463 83.9356 20.9376 83.5911 23.4024C83.3261 25.3107 83.0345 27.2189 82.7695 29.1271C82.743 29.2861 82.7165 29.3656 82.531 29.3656C81.6034 29.3656 80.6758 29.3656 79.7482 29.3656C79.5626 29.3656 79.5096 29.2861 79.5361 29.1271C79.6156 28.65 79.6686 28.1995 79.7216 27.6959C79.4036 28.12 79.0326 28.491 78.6085 28.8091C78.1845 29.1536 77.6809 29.3921 77.1509 29.4451C76.2232 29.4981 75.5607 29.0741 75.0571 28.3055C74.5801 27.5634 74.315 26.6888 74.262 25.8142C74.05 23.5879 74.527 21.3352 75.6402 19.4005C76.0642 18.5789 76.7798 17.9428 77.6544 17.6512C78.9001 17.2537 79.9072 17.6247 80.6228 18.7114C80.7288 18.8704 80.8083 19.0029 80.9408 19.2149ZM80.5432 22.1568C80.5698 21.7857 80.5167 21.4147 80.4107 21.0702C80.1722 20.3546 79.5096 20.1425 78.9001 20.6196C78.582 20.8846 78.3435 21.2292 78.211 21.6267C77.7869 22.6603 77.5749 23.7735 77.6014 24.9131C77.6014 25.2841 77.6809 25.6817 77.8399 26.0262C77.999 26.4238 78.4495 26.6093 78.8471 26.4768C79.4566 26.3178 79.7217 25.8407 79.9337 25.3107C80.3047 24.3035 80.5167 23.2434 80.5432 22.1568Z" fill="#999999"/>
<path d="M56.3717 29.3126C55.6826 29.3126 55.02 29.3126 54.3309 29.3126C54.0924 29.3126 54.0129 29.286 54.0659 29.021C54.4635 26.4237 54.861 23.7999 55.2586 21.2026C55.4176 20.1425 55.5766 19.1089 55.7356 18.0487C55.7886 17.7307 55.6826 17.6777 55.3911 17.6777C54.967 17.7042 54.5165 17.6777 54.0924 17.6777C53.9334 17.6777 53.8804 17.6512 53.9069 17.4657C54.0659 16.485 54.2249 15.5044 54.384 14.5238C54.4105 14.3383 54.49 14.2588 54.702 14.2853C55.1525 14.3118 55.6031 14.2853 56.0271 14.2853C56.2392 14.2853 56.3187 14.2058 56.3452 14.0203C56.5307 12.8276 56.7427 11.6615 56.9283 10.4688C56.9813 10.1773 57.0608 10.0713 57.3788 10.0713C58.704 10.0978 60.0026 10.0978 61.3278 10.0713C61.6193 10.0713 61.6988 10.1243 61.6458 10.4158C61.4868 11.5025 61.3278 12.5891 61.1688 13.6757C61.1423 13.7817 61.1423 13.8877 61.1157 13.9938C61.0627 14.1793 61.1688 14.2323 61.3278 14.2323C61.8048 14.2323 62.2819 14.2323 62.7589 14.2323C62.9975 14.2323 63.077 14.2853 63.024 14.5238C62.865 15.5044 62.7059 16.485 62.5734 17.4657C62.5469 17.6247 62.4674 17.6777 62.3084 17.6777C61.7783 17.6777 61.2748 17.6777 60.7447 17.6777C60.5327 17.6777 60.4797 17.7307 60.4532 17.9427C59.9231 21.5206 59.3665 25.0721 58.81 28.65C58.704 29.286 58.7305 29.286 58.0679 29.286L56.3717 29.3126Z" fill="#999999"/>
<path d="M21.1759 15.8756C22.13 14.5769 23.4286 13.9673 24.9923 13.8348C25.2309 13.8083 25.2839 13.8613 25.2574 14.0998C25.0718 15.319 24.9128 16.5381 24.7538 17.7573C24.7273 17.9428 24.6478 17.9428 24.5153 17.9428C23.9587 17.8898 23.4021 17.9163 22.8721 18.0223C21.4674 18.3403 20.7783 19.2945 20.4338 20.5931C20.1423 21.7062 20.0362 22.8459 19.8772 23.959C19.6122 25.6552 19.3472 27.3514 19.1086 29.0476C19.0821 29.2066 19.0291 29.2596 18.8701 29.2596C17.4389 29.2596 15.9813 29.2596 14.5501 29.2596C14.3381 29.2596 14.3381 29.1536 14.3646 28.9946C14.6296 27.3779 14.8946 25.7347 15.1597 24.0915C15.5572 21.6267 15.9548 19.1354 16.3258 16.6706C16.4318 15.9551 16.5643 15.2395 16.6703 14.4974C16.6969 14.2854 16.7764 14.2324 16.9884 14.2324C18.34 14.2324 19.6917 14.2324 21.0169 14.2324C21.2289 14.2324 21.3084 14.2854 21.2819 14.5239C21.2289 15.001 21.2024 15.4515 21.1759 15.8756Z" fill="#999999"/>
<path d="M93.5296 25.6817C93.079 26.8213 92.6815 27.8814 91.8069 28.65C90.9853 29.3656 90.0046 29.5246 88.971 29.5776C88.0434 29.6306 87.1423 29.5246 86.3737 28.9415C85.4726 28.279 85.0221 27.3513 84.863 26.2912C84.492 23.9855 84.8365 21.7857 86.1352 19.798C87.0363 18.2873 88.6795 17.3862 90.4287 17.4127C92.5489 17.3862 93.8741 18.4993 94.1126 20.6726C94.2186 21.8387 94.1391 23.0313 93.9271 24.171C93.9006 24.383 93.7946 24.436 93.5826 24.436C91.8334 24.436 90.0577 24.436 88.3084 24.436C88.0169 24.436 87.9374 24.542 87.9374 24.7805C87.9374 25.2311 87.8844 25.6817 88.0699 26.1322C88.2024 26.5298 88.547 26.8478 88.9445 26.9008C89.4216 26.9803 89.8986 26.7948 90.1637 26.3972C90.2167 26.3442 90.2432 26.2912 90.2697 26.2382C90.4287 25.7347 90.7997 25.6286 91.3033 25.6551C91.9924 25.6817 92.7345 25.6817 93.5296 25.6817ZM89.7396 22.3688C90.1637 22.3688 90.5877 22.3688 91.0118 22.3688C91.1708 22.3688 91.2503 22.3158 91.2768 22.1567C91.3563 21.7857 91.3298 21.4147 91.2503 21.0436C91.0383 20.2485 90.5082 19.9305 89.7131 20.169C88.918 20.4075 88.2024 21.4412 88.2554 22.2362C88.2554 22.3953 88.3615 22.3688 88.441 22.3688H89.7396Z" fill="#999999"/>
<path d="M68.6429 14.3383C68.2983 16.538 67.9538 18.7113 67.6092 20.911L66.4431 28.3054C66.4431 28.4114 66.4166 28.4909 66.3901 28.5969C66.2576 29.339 66.2576 29.339 65.5155 29.339C64.2963 29.339 63.1037 29.339 61.8846 29.339C61.6195 29.339 61.5665 29.286 61.593 29.021C61.8846 27.1923 62.1761 25.3371 62.4411 23.5083C62.8387 20.964 63.2362 18.3932 63.6338 15.8489C63.7133 15.4249 63.7663 14.9743 63.8193 14.5238C63.8458 14.3648 63.8988 14.3118 64.0578 14.3118C65.542 14.3118 67.0262 14.3118 68.5103 14.3118C68.5633 14.3118 68.5899 14.3118 68.6429 14.3383Z" fill="#999999"/>
<path d="M62.8389 9.06415C62.8389 6.67887 64.8001 4.74414 67.1854 4.74414C69.5707 4.74414 71.5054 6.70537 71.5054 9.09065C71.5054 11.4759 69.5442 13.4107 67.1589 13.4107C64.7736 13.3842 62.8389 11.4494 62.8389 9.06415Z" fill="#999999"/>
<path d="M70.6574 25.178C71.8501 25.178 72.8307 26.1321 72.8572 27.3512C72.8572 28.5704 71.8766 29.551 70.6574 29.551C69.4648 29.551 68.4312 28.5439 68.4312 27.4307C68.4047 26.2116 69.4118 25.2045 70.6309 25.178H70.6574Z" fill="#999999"/>
</g>
<defs>
<clipPath id="clip0_1206_161">
<rect width="94.4306" height="29.7895" fill="white"/>
</clipPath>
</defs>
</svg>
