<svg width="185" height="39" viewBox="0 0 185 39" fill="none" xmlns="http://www.w3.org/2000/svg">
<g clip-path="url(#clip0_1206_130)">
<path d="M87.5207 24.8621L85.9072 24.7595C85.4755 24.7595 84.9411 24.7595 84.2936 24.8621C83.7592 23.3652 83.3276 22.2887 82.9987 21.6428C82.2485 21.6428 81.601 21.5403 80.8508 21.5403C80.8508 21.5403 79.9875 21.5403 78.5898 21.6428L78.487 21.7453C78.2712 22.4938 77.8396 23.4575 77.3052 24.8518C77.0893 24.7493 76.7707 24.7493 76.4419 24.7493C76.113 24.7493 75.7944 24.7493 75.5786 24.8518V24.7493L76.9763 21.9606C77.7265 20.5663 79.0214 17.8802 80.8508 14.0253L81.601 14.1278C81.601 14.1278 81.8168 14.0253 82.2485 14.0253L82.4643 14.2406C82.7829 14.7737 83.6462 16.4961 85.0439 19.5001C86.3388 22.3912 87.0891 24.1136 87.4076 24.5442L87.5104 24.6468V24.8621H87.5207ZM73.3279 14.1381L70.6352 19.5001C69.885 20.8944 69.0217 22.7193 68.1584 24.8621L67.2952 24.7595C66.9766 24.7595 66.7607 24.7595 66.4319 24.8621C65.1369 21.7556 63.4206 18.1057 61.3755 14.1381H63.0918C63.4104 14.2406 63.9551 14.1381 64.7053 14.1381C65.0239 14.8865 66.103 17.4598 68.0351 21.8581C69.6486 18.7516 70.8305 16.1783 71.5807 14.1381H73.3279ZM56.8843 24.8621C56.8843 24.8621 56.5657 24.8621 56.1341 24.7595H55.3839C54.8495 24.7595 54.3048 24.7595 53.7703 24.8621C53.9862 23.1499 53.9862 21.2122 53.9862 19.0695V18.2083C53.9862 16.5986 53.9862 15.2043 53.8834 14.1278H56.8946C56.8946 14.2304 56.8946 14.8763 56.7918 16.168C56.7918 16.7012 56.6891 17.6649 56.6891 19.2745C56.5863 20.2382 56.6891 22.1657 56.9049 24.8518H56.8843V24.8621ZM48.714 24.8621L45.4869 24.7595C44.192 24.657 42.7943 24.7595 41.2938 24.8621C41.3966 23.1499 41.5096 20.7816 41.5096 17.8904C41.5096 16.5986 41.5096 15.4196 41.4069 14.3534V14.1381H44.4181C44.3153 15.6349 44.3153 16.6089 44.3153 16.9267V23.683H45.3944C46.4735 23.5805 47.6554 23.5805 48.7242 23.4677C48.6215 23.683 48.6215 23.8983 48.6215 24.1136C48.6215 24.3289 48.6215 24.6468 48.7242 24.8621H48.714ZM36.5663 16.8242C36.5663 18.6491 35.3844 19.7154 32.9076 20.0434C32.3732 20.146 31.7257 20.146 30.7597 20.2587V22.4015C30.7597 22.9346 30.7597 23.6933 30.8625 24.8723L29.362 24.7698C29.2592 24.7698 28.7145 24.7698 27.7485 24.8723L27.8512 24.0111C27.954 23.478 27.954 22.9346 27.954 22.299V17.7982L27.8512 15.6554V14.1586H33.9764C34.7267 14.2611 35.3741 14.5892 35.9086 15.1223C36.3402 15.5529 36.556 16.086 36.556 16.8345L36.5663 16.8242ZM21.726 19.3975C21.726 22.4015 20.6469 24.9748 18.499 27.0151C16.4538 29.1578 13.8742 30.2343 10.863 30.2343C7.85179 30.2343 5.38526 29.1578 3.22704 27.1278C1.07911 24.9851 0 22.4117 0 19.4078C0 16.4039 1.07911 13.9433 3.11399 11.7903C5.26193 9.64754 7.84151 8.57104 10.8527 8.57104C13.864 8.57104 16.3305 9.64754 18.4887 11.7903C20.6366 13.8305 21.7157 16.4039 21.7157 19.4078H21.726V19.3975ZM82.5774 20.6791C82.1457 19.8179 81.6113 18.6389 80.8611 17.0292C80.5425 17.5624 79.9978 18.7414 79.1448 20.4638V20.6791H82.5876H82.5774ZM33.5551 17.142V17.0395C33.5551 16.2911 33.2365 15.6452 32.6918 15.3274C32.3732 15.1121 31.7257 15.0095 30.7597 15.0095V19.4078C30.9755 19.4078 31.4071 19.3053 31.9416 19.3053C33.0207 18.9874 33.5551 18.3415 33.5551 17.1625V17.142ZM20.8627 19.3975C20.8627 16.6089 19.8967 14.2509 17.9646 12.3234C16.0324 10.396 13.6687 9.43224 10.8733 9.43224C8.07788 9.43224 5.71413 10.396 3.78201 12.3234C1.8499 14.2509 0.770791 16.6089 0.770791 19.3975C0.770791 22.1862 1.8499 24.5442 3.78201 26.4717C5.71413 28.3991 8.07788 29.4756 10.8733 29.4756C13.6687 29.4756 16.0324 28.5119 17.9646 26.4717C19.8967 24.5442 20.8627 22.1862 20.8627 19.3975ZM16.351 15.2146C16.351 16.2911 16.0324 17.2548 15.1692 18.0032C14.4189 18.7516 13.4529 19.1822 12.3738 19.1822V11.1341C13.4529 11.1341 14.4189 11.5647 15.1692 12.3132C15.9194 13.0616 16.351 14.0253 16.351 15.2043V15.2146ZM11.2947 21.7556H7.10155V11.1341H11.2947V21.7556ZM18.9306 22.8218V22.9244C18.1804 24.534 17.2143 25.8155 15.7036 26.7895C14.3059 27.7532 12.6924 28.1838 10.863 28.1838C9.14671 28.1838 7.53319 27.7532 6.02244 26.687C4.62474 25.7233 3.54564 24.4315 2.90845 22.8218H18.9306Z" fill="#999999"/>
<path d="M105.979 0V39" stroke="#999999" stroke-width="2.89169" stroke-miterlimit="10"/>
<path d="M180.519 13.1434V14.0969C179.142 12.9897 177.426 12.4053 175.565 12.4053C170.848 12.4053 167.148 16.3729 167.148 21.4274C167.148 23.6829 167.93 25.8359 169.337 27.4865C170.9 29.3217 173.315 30.4084 175.812 30.4084C177.6 30.4084 179.183 29.8445 180.519 28.7168V29.66C180.519 29.8753 180.694 30.0496 180.899 30.0496H184.62C184.836 30.0496 185 29.8753 185 29.66V13.1434C185 12.9281 184.825 12.7539 184.62 12.7539H180.899C180.684 12.7539 180.519 12.9281 180.519 13.1434ZM180.858 21.4274C180.858 23.7751 179.07 26.0922 176.326 26.0922C173.582 26.0922 171.794 24.0827 171.794 21.4274C171.794 18.4952 173.962 16.7523 176.264 16.7523C179.121 16.7523 180.848 19.0796 180.848 21.4274" fill="#999999"/>
<path d="M131.302 26.2255C130.264 26.2255 129.514 25.9077 129.01 25.2721C128.63 24.8004 128.455 24.1751 128.455 23.1396V16.7523H133.255C133.46 16.7523 133.625 16.5883 133.625 16.3833V13.1025C133.625 12.8974 133.46 12.7334 133.255 12.7334H128.455V8.32489C128.455 8.10959 128.28 7.9353 128.075 7.9353H124.18C123.964 7.9353 123.8 8.10959 123.8 8.32489V12.7334H121.066C120.85 12.7334 120.686 12.9077 120.686 13.123V16.373C120.686 16.5883 120.86 16.7626 121.066 16.7626H123.8V22.7295C123.8 25.1695 124.18 26.7176 125.074 27.9069C126.287 29.5473 128.342 30.4085 131.014 30.4085C133.07 30.4085 134.385 29.9164 135.104 29.3525C135.31 29.1885 135.351 28.8296 135.228 28.6553C135.125 28.5118 133.542 25.9795 133.542 25.9795C133.398 25.7437 133.09 25.6924 132.833 25.8359C132.484 26.0307 131.826 26.246 131.292 26.246" fill="#999999"/>
<path d="M142.648 12.3745C140.253 12.3745 138.095 13.3382 136.564 15.0811C135.104 16.742 134.303 18.9873 134.303 21.3966C134.303 26.6868 137.992 30.3879 143.285 30.3879C145.608 30.3879 147.899 29.537 149.513 28.1119C149.585 28.0504 149.667 27.9684 149.76 27.8761C149.893 27.7428 149.914 27.5275 149.79 27.3737C149.379 26.8201 148.413 25.5488 147.951 24.9234C147.817 24.7389 147.55 24.7184 147.386 24.8721C147.283 24.9747 147.149 25.0874 147.016 25.2002C146.255 25.8256 145.022 26.574 143.388 26.574C140.962 26.574 139.092 24.9337 138.825 22.5756H150.16C150.438 22.5756 150.674 22.3603 150.705 22.0835C150.726 21.8682 150.746 21.5709 150.746 21.2223C150.746 18.854 149.934 16.6395 148.475 14.9991C146.975 13.3075 144.899 12.3848 142.648 12.3848M142.648 16.1884C144.107 16.1884 145.782 17.3059 145.978 19.1206H139.041C139.256 17.7057 140.685 16.1884 142.648 16.1884Z" fill="#999999"/>
<path d="M159.215 25.9589V23.4881C159.215 22.4833 159.431 21.3556 159.821 20.2073C160.263 18.895 160.9 17.7878 161.599 16.9778L162.668 15.5938V21.3761L159.215 25.9589Z" fill="#888888"/>
<path d="M162.668 15.5938L164.939 12.6514C165.124 12.4156 165.422 12.3233 165.7 12.4361C165.967 12.5386 166.152 12.8154 166.152 13.123L166.131 16.7728L162.668 21.3659V15.5835V15.5938Z" fill="#C1C1C1"/>
<path d="M166.131 16.7729V18.8747C166.162 19.9512 165.977 21.1917 165.555 22.4528C165.165 23.601 164.661 24.6058 164.065 25.3849L162.678 27.1894V21.3763L166.141 16.7832L166.131 16.7729Z" fill="#777777"/>
<path d="M162.668 21.3762V27.1893L160.407 30.1215C160.222 30.3573 159.924 30.4496 159.647 30.3368C159.379 30.2343 159.194 29.9575 159.194 29.6499V25.959L162.658 21.3762H162.668Z" fill="#999999"/>
<path d="M158.722 25.9589V23.4881C158.722 22.4833 158.506 21.3556 158.115 20.2073C157.673 18.895 157.036 17.7878 156.337 16.9778L155.269 15.5938V21.3761L158.722 25.9589Z" fill="#888888"/>
<path d="M155.268 15.5938L152.997 12.6514C152.812 12.4156 152.514 12.3233 152.236 12.4361C151.969 12.5386 151.784 12.8154 151.784 13.123L151.805 16.7728L155.268 21.3659V15.5835V15.5938Z" fill="#C1C1C1"/>
<path d="M151.805 16.7729V18.8747C151.774 19.9512 151.959 21.1917 152.381 22.4528C152.771 23.601 153.275 24.6058 153.871 25.3849L155.258 27.1894V21.3763L151.795 16.7832L151.805 16.7729Z" fill="#777777"/>
<path d="M155.269 21.3762V27.1893L157.53 30.1215C157.715 30.3573 158.013 30.4496 158.29 30.3368C158.557 30.2343 158.742 29.9575 158.742 29.6499V25.959L155.279 21.3762H155.269Z" fill="#999999"/>
</g>
<defs>
<clipPath id="clip0_1206_130">
<rect width="185" height="39" fill="white"/>
</clipPath>
</defs>
</svg>
