<svg width="59" height="59" viewBox="0 0 59 59" fill="none" xmlns="http://www.w3.org/2000/svg">
<g clip-path="url(#clip0_1206_36)">
<path d="M38.4999 22.0588C37.5644 22.0588 36.8365 22.7867 36.7314 23.8273H39.9581C39.9581 22.8918 39.4378 22.0588 38.4999 22.0588Z" fill="#999999"/>
<path d="M28.4066 14.0471C29.0319 14.0471 29.6548 13.6295 29.9674 13.0066V10.4053C29.6548 9.77998 29.0319 9.36475 28.4066 9.36475C27.2611 9.36475 26.5332 10.4053 26.5332 11.7585C26.5332 13.1116 27.2611 14.0471 28.4066 14.0471Z" fill="#999999"/>
<path d="M28.8251 35.0679C27.7845 35.0679 27.0566 36.0034 27.0566 37.3565C27.0566 38.7097 27.7845 39.6452 28.8251 39.6452C29.8656 39.6452 30.5935 38.7073 30.5935 37.3565C30.5935 36.0058 29.8656 35.0679 28.8251 35.0679Z" fill="#999999"/>
<path d="M16.1286 11.6534C16.1286 10.3002 15.4007 9.36475 14.3602 9.36475C13.3197 9.36475 12.5918 10.3002 12.5918 11.6534C12.5918 13.1116 13.3197 13.9421 14.3602 13.9421C15.4007 13.9421 16.1286 13.0066 16.1286 11.6534Z" fill="#999999"/>
<path d="M35.6903 35.0679C34.6498 35.0679 33.9219 36.0034 33.9219 37.3565C33.9219 38.7097 34.6498 39.6452 35.6903 39.6452C36.7308 39.6452 37.4587 38.7073 37.4587 37.3565C37.4587 36.0058 36.7308 35.0679 35.6903 35.0679Z" fill="#999999"/>
<path d="M35.4833 13.9445C36.5238 13.9445 37.2517 13.009 37.2517 11.6559C37.2517 10.3027 36.5213 9.36719 35.4833 9.36719C34.4452 9.36719 33.7148 10.3027 33.7148 11.6559C33.7148 13.009 34.4427 13.9445 35.4833 13.9445Z" fill="#999999"/>
<path d="M9.05259 23.7246H7.28418V26.6386H8.95C10.0956 26.6386 10.8234 26.1183 10.8234 25.1804C10.8234 24.2424 10.1982 23.7246 9.05503 23.7246H9.05259Z" fill="#999999"/>
<path d="M0 0V59H59V49.8428H5.93053V48.6973H58.9976V0H0ZM35.483 8.22165C37.2515 8.22165 38.4996 9.57483 38.4996 11.6559C38.4996 13.7369 37.2515 15.0901 35.483 15.0901C33.7146 15.0901 32.464 13.7369 32.464 11.6559C32.464 9.57483 33.7122 8.22165 35.483 8.22165ZM38.7097 26.7436C39.2299 26.7436 39.7502 26.536 40.2705 26.2233H40.3755L40.7907 27.1588H40.6881C39.9603 27.6791 39.2324 27.8867 38.502 27.8867C36.6311 27.8867 35.3805 26.5335 35.3805 24.4525C35.3805 22.2664 36.9413 21.0182 38.3995 21.0182C39.2324 21.0182 39.8552 21.2258 40.2705 21.7461C40.8958 22.474 41.2084 23.5145 40.9983 24.7651H36.6286C36.7312 26.0132 37.5641 26.7411 38.7097 26.7411V26.7436ZM5.93053 5.93053H7.28371V13.7345H10.9256V14.9827H5.93053V5.93053ZM8.74192 40.7907C7.70139 40.7907 6.34821 40.1654 5.62033 39.4375L6.34821 38.502C6.9735 39.1249 7.909 39.6476 8.74192 39.6476C9.88748 39.6476 10.5103 39.1273 10.5103 38.2944C10.5103 37.4615 9.99006 37.1489 9.15715 36.8362L7.80397 36.316C7.17868 36.1083 6.03556 35.3805 6.03556 33.9223C6.03556 32.464 7.18112 31.4235 8.8445 31.4235C9.88503 31.4235 10.8205 31.8387 11.5509 32.5691L10.823 33.5046C10.1977 32.8817 9.57483 32.5691 8.84695 32.5691C7.80642 32.5691 7.28615 33.0893 7.28615 33.8172C7.28615 34.6501 8.01403 34.9628 8.63933 35.2754L9.99251 35.7957C10.8254 36.2134 11.7609 36.8362 11.7609 38.2944C11.7609 39.7526 10.5128 40.7932 8.74436 40.7932L8.74192 40.7907ZM8.94953 27.7841H5.93053V18.732H8.42683C10.4029 18.732 11.4458 19.6675 11.4458 21.2283C11.4458 22.0612 11.0282 22.684 10.3003 22.9967V23.2043C11.756 23.517 11.9637 24.5575 11.9637 25.1803C11.9637 26.8462 10.8181 27.7817 8.94709 27.7817L8.94953 27.7841ZM11.3432 11.6534C11.3432 9.57239 12.5914 8.21921 14.3622 8.21921C16.1331 8.21921 17.3788 9.67497 17.3788 11.6534C17.3788 13.7345 16.1307 15.0877 14.3622 15.0877C12.5938 15.0877 11.3432 13.7345 11.3432 11.6534ZM15.9206 40.6857C14.0472 40.6857 12.799 39.3325 12.799 37.2515C12.799 36.2109 13.1117 35.2754 13.7345 34.6501C14.2548 34.0273 15.0877 33.7146 15.9206 33.7146C16.6485 33.7146 17.2738 34.0273 17.8966 34.5475L17.2713 35.483C16.9587 35.1728 16.5434 34.9628 16.0232 34.9628C14.775 34.9628 14.0472 35.9007 14.0472 37.2515C14.0472 38.7097 14.775 39.5401 15.9206 39.5401C16.5459 39.5401 17.0662 39.3325 17.5864 38.9148L18.1067 39.8528C17.4814 40.3731 16.6485 40.6857 15.9206 40.6857ZM18.5219 27.7841H17.4814V26.9512C16.8561 27.5765 16.1282 27.8867 15.4003 27.8867C13.9421 27.8867 13.2142 27.0538 13.2142 25.493V21.2258H14.4624V25.2829C14.4624 26.2184 14.5674 26.7387 15.5029 26.7387C16.2308 26.7387 16.9587 26.2184 17.2713 25.6982V21.2234H18.5195V27.7792L18.5219 27.7841ZM18.7295 8.42927H19.7701V9.26218C20.3954 8.63689 21.1232 8.32668 21.8511 8.32668C23.3093 8.32668 24.0372 9.15959 24.0372 10.7204V14.9875H22.7891V10.928C22.7891 9.99251 22.6865 9.47224 21.7485 9.47224C21.0207 9.47224 20.2903 9.99251 19.9801 10.5128V14.9875H18.732V8.43171L18.7295 8.42927ZM24.4525 36.316V40.5831H23.2043V36.526C23.2043 35.5881 23.1017 35.0678 22.1638 35.0678C21.4359 35.0678 20.7056 35.5881 20.3954 36.1083V40.5831H19.1472V31.7386L20.3954 31.1158V34.7576C21.0207 34.2373 21.6435 33.9247 22.3714 33.9247C23.8272 33.9247 24.5575 34.7576 24.4525 36.3184V36.316ZM24.5575 26.0132C24.5575 26.9487 23.8296 27.9917 22.1638 27.9917C21.3309 27.9917 20.3954 27.574 19.6675 27.0562L20.5004 26.0157C20.9156 26.4334 21.646 26.8486 22.3738 26.8486C23.1017 26.8486 23.5194 26.4334 23.5194 25.9131C23.5194 25.2878 22.8941 25.0802 22.2712 24.8726L22.1687 24.7675C21.3357 24.4549 20.1926 24.0397 20.1926 22.7915C20.1926 21.646 21.1281 20.9181 22.4813 20.9181C23.4168 20.9181 24.2497 21.4383 24.5624 21.751L23.9371 22.6865C23.5218 22.3738 23.0016 22.0612 22.4813 22.0612C21.7534 22.0612 21.3357 22.3738 21.3357 22.8941C21.3357 23.4144 21.856 23.727 22.5839 23.9346L22.7915 24.0372C23.6244 24.3499 24.665 24.7651 24.5599 26.0132H24.5575ZM28.0967 8.32424C28.9297 8.32424 29.5525 8.63689 29.8652 9.05212V6.13815L31.1133 5.51285V14.8776H30.0728V14.1497C29.7601 14.67 29.0322 15.0852 28.1993 15.0852C26.2233 15.0852 25.2854 13.4219 25.1803 11.756C25.1803 9.36233 26.6385 8.3218 28.0943 8.3218L28.0967 8.32424ZM26.0132 20.1877V18.732H27.2614V20.1877H26.0132ZM27.2638 21.2283V27.7841H26.0157V21.2283H27.2638ZM28.8246 40.7907C27.0562 40.7907 25.8081 39.4375 25.8081 37.3565C25.8081 35.2754 27.0562 33.9223 28.8246 33.9223C30.593 33.9223 31.8436 35.2754 31.8436 37.3565C31.8436 39.4375 30.593 40.7907 28.8246 40.7907ZM30.1754 23.3093V27.7841H29.0298V21.2283H30.0703V22.0612C30.6956 21.4359 31.4235 21.1257 32.1514 21.1257C33.6096 21.1257 34.3375 21.9586 34.3375 23.5194V27.7865H32.9843V23.7295C32.9843 22.794 32.8793 22.2712 31.9413 22.2712C31.2135 22.2712 30.4856 22.7915 30.1729 23.3118L30.1754 23.3093ZM35.6907 40.7907C33.9222 40.7907 32.6741 39.4375 32.6741 37.3565C32.6741 35.2754 33.9222 33.9223 35.6907 33.9223C37.4591 33.9223 38.7097 35.2754 38.7097 37.3565C38.7097 39.4375 37.4615 40.7907 35.6907 40.7907ZM41.311 40.5831H40.0628V31.7386L41.311 31.1158V40.5856V40.5831ZM41.206 10.5103V14.9851H39.9554V8.42927H40.9959V9.15715C41.6188 8.53186 42.3491 8.22165 43.077 8.22165C44.5352 8.22165 45.2631 9.05456 45.2631 10.6154V14.8825H44.0149V10.8254C44.0149 9.99251 43.8073 9.47224 42.9744 9.47224C42.2465 9.47224 41.5186 9.99251 41.206 10.5128V10.5103ZM44.3275 27.9917C43.4946 27.9917 42.5591 27.574 41.8288 27.0562L42.5567 26.0157C42.9719 26.4334 43.7023 26.8486 44.4301 26.8486C45.158 26.8486 45.5757 26.4334 45.5757 25.9131C45.5757 25.2878 44.9528 25.0802 44.3275 24.8726L44.2225 24.7675C43.3896 24.4549 42.2465 24.0397 42.2465 22.7915C42.2465 21.646 43.1844 20.9181 44.5352 20.9181C45.4731 20.9181 46.3036 21.4383 46.6162 21.751L45.9909 22.6865C45.5757 22.3738 45.053 22.0612 44.5327 22.0612C43.8048 22.0612 43.3872 22.3738 43.3872 22.8941C43.3872 23.4144 43.9074 23.727 44.6378 23.9346L44.9504 24.0372C45.7833 24.3499 46.7188 24.6625 46.7188 26.0132C46.7188 26.9487 45.9909 27.9917 44.3251 27.9917H44.3275ZM49.9479 27.9917C49.115 27.9917 48.1795 27.574 47.4516 27.0562L48.1795 26.0157C48.5971 26.4334 49.325 26.8486 50.0529 26.8486C50.7808 26.8486 51.1985 26.4334 51.1985 25.9131C51.1985 25.2878 50.5732 25.0802 49.9479 24.8726L49.8428 24.7675C49.0099 24.4549 47.8668 24.0397 47.8668 22.7915C47.8668 21.646 48.8023 20.9181 50.1555 20.9181C51.0934 20.9181 51.9239 21.4383 52.2366 21.751L51.6113 22.6865C51.196 22.3738 50.6758 22.0612 50.1531 22.0612C49.4252 22.0612 49.0075 22.3738 49.0075 22.8941C49.0075 23.4144 49.5278 23.727 50.2581 23.9346L50.5707 24.0372C51.4036 24.3499 52.3391 24.6625 52.3391 26.0132C52.3391 26.9487 51.6088 27.9917 49.9454 27.9917H49.9479Z" fill="#999999"/>
<path d="M10.3027 21.2282C10.3027 20.2927 9.6774 19.875 8.53428 19.875H7.28613V22.5814H8.53428C9.6774 22.5814 10.3027 22.1661 10.3027 21.2282Z" fill="#999999"/>
<path d="M10.3024 23.2043V22.9966C11.0302 22.684 11.4479 22.0611 11.4479 21.2282C11.4479 19.6674 10.4074 18.7319 8.42891 18.7319H5.93262V27.7841H8.95162C10.8251 27.7841 11.9682 26.8486 11.9682 25.1827C11.9682 24.5574 11.7606 23.5193 10.3048 23.2067L10.3024 23.2043ZM7.28335 19.8751H8.5315C9.67462 19.8751 10.2999 20.2903 10.2999 21.2282C10.2999 22.1662 9.67462 22.5814 8.5315 22.5814H7.28335V19.8751ZM8.94918 26.6385H7.28335V23.7245H9.05176C10.1973 23.7245 10.8202 24.2448 10.8202 25.1803C10.8202 26.1158 10.0923 26.6385 8.94673 26.6385H8.94918Z" fill="white"/>
<path d="M10.9257 13.7344H7.28384V5.93042H5.93066V14.985H10.9257V13.7344Z" fill="white"/>
<path d="M17.3764 11.6535C17.3764 9.67745 16.1282 8.21924 14.3598 8.21924C12.5914 8.21924 11.3408 9.57241 11.3408 11.6535C11.3408 13.7345 12.589 15.0877 14.3598 15.0877C16.1307 15.0877 17.3764 13.7345 17.3764 11.6535ZM12.5914 11.6535C12.5914 10.3003 13.3193 9.3648 14.3598 9.3648C15.4004 9.3648 16.1282 10.3003 16.1282 11.6535C16.1282 13.0067 15.4004 13.9422 14.3598 13.9422C13.3193 13.9422 12.5914 13.1092 12.5914 11.6535Z" fill="white"/>
<path d="M22.3716 33.9222C21.6438 33.9222 21.0185 34.2349 20.3956 34.7551V31.1133L19.1475 31.7361V40.5806H20.3956V36.1059C20.7083 35.5856 21.4361 35.0653 22.164 35.0653C23.0995 35.0653 23.2046 35.5856 23.2046 36.5235V40.5806H24.4527V36.3135C24.5553 34.7527 23.8274 33.9198 22.3716 33.9198V33.9222Z" fill="white"/>
<path d="M19.9801 10.5103C20.2927 9.99004 21.0206 9.46978 21.7485 9.46978C22.684 9.46978 22.789 9.99004 22.789 10.9255V14.9851H24.0372V10.7179C24.0372 9.15713 23.3093 8.32422 21.8511 8.32422C21.1232 8.32422 20.3953 8.63687 19.77 9.25972V8.42681H18.7295V14.9826H19.9776V10.5079L19.9801 10.5103Z" fill="white"/>
<path d="M17.2739 25.703C16.9612 26.2233 16.2334 26.7436 15.5055 26.7436C14.57 26.7436 14.4649 26.2233 14.4649 25.2878V21.2307H13.2168V25.4979C13.2168 27.0587 13.9447 27.8916 15.4029 27.8916C16.1308 27.8916 16.8611 27.5789 17.4839 26.9561V27.789H18.5245V21.2332H17.2763V25.7079L17.2739 25.703Z" fill="white"/>
<path d="M44.0146 10.823V14.8801H45.2628V10.6129C45.2628 9.05215 44.5349 8.21924 43.0767 8.21924C42.3488 8.21924 41.6185 8.53189 40.9956 9.15474V8.42686H39.9551V14.9827H41.2057V10.5079C41.5183 9.98765 42.2462 9.46738 42.9741 9.46738C43.807 9.46738 44.0146 9.98765 44.0146 10.8206V10.823Z" fill="white"/>
<path d="M32.9867 23.7246V27.7817H34.3399V23.5146C34.3399 21.9538 33.612 21.1208 32.1538 21.1208C31.4259 21.1208 30.6981 21.4335 30.0728 22.0563V21.2234H29.0322V27.7793H30.1778V23.3045C30.4904 22.7842 31.2183 22.264 31.9462 22.264C32.8841 22.264 32.9892 22.7842 32.9892 23.7222L32.9867 23.7246Z" fill="white"/>
<path d="M28.1992 15.0878C29.0321 15.0878 29.76 14.6725 30.0726 14.1523V14.8801H31.1131V5.51538L29.865 6.14068V9.05465C29.5524 8.63941 28.9295 8.32677 28.0966 8.32677C26.6384 8.32677 25.1826 9.3673 25.1826 11.761C25.2876 13.4268 26.2231 15.0902 28.2016 15.0902L28.1992 15.0878ZM28.4068 9.36485C29.0321 9.36485 29.6549 9.78253 29.9676 10.4054V13.0067C29.6549 13.632 29.0321 14.0472 28.4068 14.0472C27.2612 14.0472 26.5334 13.1117 26.5334 11.7586C26.5334 10.4054 27.2612 9.36485 28.4068 9.36485Z" fill="white"/>
<path d="M35.4829 15.0877C37.2513 15.0877 38.4994 13.7345 38.4994 11.6535C38.4994 9.57241 37.2513 8.21924 35.4829 8.21924C33.7145 8.21924 32.4639 9.57241 32.4639 11.6535C32.4639 13.7345 33.712 15.0877 35.4829 15.0877ZM35.4829 9.3648C36.5234 9.3648 37.2513 10.3003 37.2513 11.6535C37.2513 13.0067 36.521 13.9422 35.4829 13.9422C34.4448 13.9422 33.7145 13.0067 33.7145 11.6535C33.7145 10.3003 34.4423 9.3648 35.4829 9.3648Z" fill="white"/>
<path d="M28.8242 33.9224C27.0558 33.9224 25.8076 35.2755 25.8076 37.3566C25.8076 39.4377 27.0558 40.7908 28.8242 40.7908C30.5926 40.7908 31.8432 39.4377 31.8432 37.3566C31.8432 35.2755 30.5926 33.9224 28.8242 33.9224ZM28.8242 39.6453C27.7836 39.6453 27.0558 38.7073 27.0558 37.3566C27.0558 36.0059 27.7836 35.0679 28.8242 35.0679C29.8647 35.0679 30.5926 36.0034 30.5926 37.3566C30.5926 38.7098 29.8647 39.6453 28.8242 39.6453Z" fill="white"/>
<path d="M35.6904 33.9224C33.922 33.9224 32.6738 35.2755 32.6738 37.3566C32.6738 39.4377 33.922 40.7908 35.6904 40.7908C37.4588 40.7908 38.7094 39.4377 38.7094 37.3566C38.7094 35.2755 37.4612 33.9224 35.6904 33.9224ZM35.6904 39.6453C34.6499 39.6453 33.922 38.7073 33.922 37.3566C33.922 36.0059 34.6499 35.0679 35.6904 35.0679C36.7309 35.0679 37.4588 36.0034 37.4588 37.3566C37.4588 38.7098 36.7309 39.6453 35.6904 39.6453Z" fill="white"/>
<path d="M40.0625 40.5831H41.3106V31.1133L40.0625 31.7361V40.5831Z" fill="white"/>
<path d="M27.2618 21.2283H26.0137V27.7841H27.2618V21.2283Z" fill="white"/>
<path d="M27.2618 18.7295H26.0137V20.1853H27.2618V18.7295Z" fill="white"/>
<path d="M9.99034 35.7958L8.63717 35.2755C8.01187 34.9629 7.28399 34.6502 7.28399 33.8173C7.28399 33.0894 7.80425 32.5691 8.84478 32.5691C9.57267 32.5691 10.198 32.8818 10.8208 33.5046L11.5487 32.5691C10.8208 31.8413 9.88531 31.4236 8.84234 31.4236C7.17652 31.4236 6.0334 32.4641 6.0334 33.9223C6.0334 35.3805 7.17896 36.106 7.80181 36.316L9.15499 36.8363C9.9879 37.1489 10.5082 37.4616 10.5082 38.2945C10.5082 39.1274 9.88287 39.6477 8.73975 39.6477C7.90684 39.6477 6.97134 39.1274 6.34605 38.5021L5.61816 39.4376C6.34605 40.1655 7.69922 40.7908 8.73975 40.7908C10.5082 40.7908 11.7563 39.7478 11.7563 38.2921C11.7563 36.8363 10.8208 36.211 9.9879 35.7933L9.99034 35.7958Z" fill="white"/>
<path d="M15.9204 39.5401C14.7749 39.5401 14.047 38.7072 14.047 37.2514C14.047 35.8982 14.7749 34.9627 16.023 34.9627C16.5433 34.9627 16.9585 35.1704 17.2712 35.483L17.8964 34.5475C17.2712 34.0272 16.6483 33.7146 15.9204 33.7146C15.0875 33.7146 14.2546 34.0272 13.7343 34.6501C13.109 35.2754 12.7988 36.2109 12.7988 37.2514C12.7988 39.3325 14.047 40.6857 15.9204 40.6857C16.6483 40.6857 17.4812 40.373 18.1065 39.8528L17.5862 38.9148C17.066 39.3325 16.5457 39.5401 15.9204 39.5401Z" fill="white"/>
<path d="M44.9526 24.0371L44.64 23.9345C43.9097 23.7269 43.3894 23.4143 43.3894 22.894C43.3894 22.3737 43.8071 22.0611 44.535 22.0611C45.0552 22.0611 45.5755 22.3737 45.9932 22.6864L46.6185 21.7509C46.3058 21.4382 45.4729 20.918 44.5374 20.918C43.1842 20.918 42.2487 21.6459 42.2487 22.7914C42.2487 24.0396 43.3943 24.4572 44.2248 24.7674L44.3298 24.8725C44.9551 25.0801 45.5779 25.2877 45.5779 25.913C45.5779 26.4333 45.1627 26.8485 44.4324 26.8485C43.7021 26.8485 42.9742 26.4333 42.5589 26.0156L41.8311 27.0561C42.5589 27.5764 43.4969 27.9916 44.3298 27.9916C45.9932 27.9916 46.7235 26.9511 46.7235 26.0131C46.7235 24.66 45.788 24.3498 44.9551 24.0371H44.9526Z" fill="white"/>
<path d="M22.7891 24.0371L22.5815 23.9345C21.8536 23.7269 21.3333 23.4143 21.3333 22.894C21.3333 22.3737 21.7485 22.0611 22.4789 22.0611C22.9991 22.0611 23.5194 22.3737 23.9346 22.6864L24.5599 21.7509C24.2473 21.4382 23.4144 20.918 22.4789 20.918C21.1257 20.918 20.1902 21.6459 20.1902 22.7914C20.1902 24.0396 21.3357 24.4572 22.1662 24.7674L22.2688 24.8725C22.8941 25.0801 23.517 25.2877 23.517 25.913C23.517 26.4333 23.1017 26.8485 22.3714 26.8485C21.6411 26.8485 20.9132 26.4333 20.498 26.0156L19.665 27.0561C20.3929 27.5764 21.3309 27.9916 22.1613 27.9916C23.8247 27.9916 24.555 26.9511 24.555 26.0131C24.6601 24.765 23.6195 24.3498 22.7866 24.0371H22.7891Z" fill="white"/>
<path d="M50.5703 24.0371L50.2577 23.9345C49.5298 23.7269 49.0071 23.4143 49.0071 22.894C49.0071 22.3737 49.4248 22.0611 50.1526 22.0611C50.6729 22.0611 51.1956 22.3737 51.6108 22.6864L52.2361 21.7509C51.9235 21.4382 51.0906 20.918 50.1551 20.918C48.8019 20.918 47.8664 21.6459 47.8664 22.7914C47.8664 24.0396 49.0095 24.4572 49.8424 24.7674L49.9475 24.8725C50.5728 25.0801 51.1981 25.2877 51.1981 25.913C51.1981 26.4333 50.7804 26.8485 50.0525 26.8485C49.3246 26.8485 48.5943 26.4333 48.1791 26.0156L47.4512 27.0561C48.1791 27.5764 49.1146 27.9916 49.9475 27.9916C51.6108 27.9916 52.3412 26.9511 52.3412 26.0131C52.3412 24.66 51.4032 24.3498 50.5728 24.0371H50.5703Z" fill="white"/>
<path d="M40.2709 21.7486C39.8556 21.2284 39.2303 21.0208 38.3999 21.0208C36.9417 21.0208 35.3809 22.2689 35.3809 24.455C35.3809 26.6411 36.6314 27.8892 38.5024 27.8892C39.2328 27.8892 39.9607 27.6816 40.6885 27.1613H40.7911L40.3759 26.2258H40.2709C39.7506 26.5385 39.2303 26.7461 38.7101 26.7461C37.5645 26.7461 36.734 26.0182 36.629 24.7701H40.9987C41.2064 23.5219 40.8962 22.4814 40.2709 21.7511V21.7486ZM36.7316 23.8297C36.8342 22.7892 37.5645 22.0613 38.5 22.0613C39.4355 22.0613 39.9582 22.8942 39.9582 23.8297H36.7316Z" fill="white"/>
</g>
<defs>
<clipPath id="clip0_1206_36">
<rect width="59" height="59" fill="white"/>
</clipPath>
</defs>
</svg>
