<svg width="155" height="21" viewBox="0 0 155 21" fill="none" xmlns="http://www.w3.org/2000/svg">
<path fill-rule="evenodd" clip-rule="evenodd" d="M4.96645 1.71509L2.48193 4.23019H13.6067V15.494L16.0895 12.9798V1.71509H4.96645ZM0 6.74439V18.0082H11.1231L13.6067 15.494H2.48194V4.23016L0 6.74439Z" fill="#999999"/>
<path d="M102.111 3.86523C102.972 3.86526 103.736 4.03946 104.402 4.38672C105.069 4.73488 105.591 5.16674 105.969 5.68555V4.0498H108.291V15.502C108.291 16.5377 108.076 17.4613 107.645 18.2725C107.214 19.0836 106.591 19.7207 105.776 20.1846C104.962 20.6476 103.99 20.8798 102.858 20.8799C101.35 20.8799 100.098 20.5218 99.1016 19.8066C98.1049 19.0906 97.5391 18.1187 97.4053 16.8916H99.6875C99.8628 17.4781 100.235 17.9525 100.809 18.3135C101.38 18.6745 102.063 18.8555 102.858 18.8555C103.787 18.8554 104.537 18.5688 105.109 17.9961C105.682 17.4233 105.969 16.5926 105.969 15.502V13.6201C105.578 14.1518 105.049 14.5989 104.382 14.96C103.716 15.3208 102.959 15.5019 102.111 15.502C101.142 15.502 100.256 15.2531 99.4551 14.7559C98.6548 14.2576 98.0215 13.5616 97.5566 12.6689C97.0919 11.7763 96.8604 10.7636 96.8604 9.63184C96.8604 8.50076 97.0917 7.49808 97.5566 6.62598C98.0215 5.75389 98.6549 5.07532 99.4551 4.59082C100.256 4.10737 101.142 3.86523 102.111 3.86523ZM26.623 3.86523C27.9693 3.86523 29.0835 4.18863 29.9658 4.83594C30.8474 5.48338 31.444 6.40871 31.7539 7.6084H29.2686C29.067 7.04928 28.7435 6.61269 28.2998 6.29883C27.8544 5.98588 27.2962 5.82812 26.623 5.82812C25.6808 5.82823 24.93 6.16605 24.3721 6.84082C23.8132 7.51568 23.5332 8.45952 23.5332 9.67285C23.5332 10.8863 23.8132 11.8339 24.3721 12.5156C24.93 13.1972 25.6808 13.538 26.623 13.5381C27.9557 13.5381 28.8375 12.9454 29.2686 11.7598H31.7539C31.4304 12.9043 30.8236 13.8145 29.9355 14.4893C29.0472 15.1633 27.9424 15.502 26.623 15.502C25.5588 15.5019 24.6172 15.2598 23.7959 14.7754C22.9755 14.2918 22.333 13.6101 21.8682 12.7305C21.4033 11.8515 21.1709 10.8322 21.1709 9.67285C21.1709 8.51442 21.4033 7.49513 21.8682 6.61621C22.333 5.73729 22.9754 5.0587 23.7959 4.58105C24.6172 4.10433 25.5588 3.8653 26.623 3.86523ZM38.1748 3.86523C39.2383 3.86528 40.2015 4.10431 41.0635 4.58105C41.9244 5.05865 42.6039 5.74041 43.1025 6.62598C43.6005 7.51267 43.8496 8.52804 43.8496 9.67285C43.8496 10.8185 43.5944 11.8349 43.082 12.7207C42.5706 13.6064 41.8746 14.2918 40.9932 14.7754C40.1109 15.2598 39.1376 15.5019 38.0742 15.502C37.0242 15.502 36.0742 15.2599 35.2266 14.7754C34.3781 14.2917 33.7119 13.6094 33.2275 12.7305C32.7424 11.8507 32.5 10.8321 32.5 9.67285C32.5 8.52804 32.7493 7.51267 33.248 6.62598C33.746 5.74022 34.4259 5.05867 35.2871 4.58105C36.1492 4.10429 37.1121 3.86523 38.1748 3.86523ZM49.8066 3.86523C50.6814 3.86523 51.4459 4.03942 52.0996 4.38672C52.7515 4.73483 53.2738 5.16686 53.6641 5.68555V4.0498H55.9873V15.3174H53.6641V13.6396C53.2738 14.1712 52.7423 14.6156 52.0693 14.9697C51.3962 15.3239 50.6286 15.5019 49.7666 15.502C48.8106 15.502 47.9357 15.2531 47.1406 14.7559C46.3472 14.2576 45.7178 13.5616 45.2529 12.6689C44.7881 11.7763 44.5566 10.7637 44.5566 9.63184C44.5566 8.50076 44.788 7.49808 45.2529 6.62598C45.7178 5.75396 46.3503 5.07529 47.1514 4.59082C47.9515 4.1073 48.8373 3.86531 49.8066 3.86523ZM62.6914 3.86523C64.0375 3.86531 65.151 4.18872 66.0332 4.83594C66.9147 5.48338 67.5114 6.40871 67.8213 7.6084H65.3359C65.1344 7.04928 64.8109 6.61269 64.3672 6.29883C63.9227 5.98597 63.3643 5.8282 62.6914 5.82812C61.7489 5.82812 60.9984 6.16594 60.4395 6.84082C59.8806 7.51568 59.6016 8.45954 59.6016 9.67285C59.6016 10.8863 59.8806 11.8339 60.4395 12.5156C60.9983 13.1973 61.7489 13.5381 62.6914 13.5381C64.0238 13.538 64.9049 12.9452 65.3359 11.7598H67.8213C67.4978 12.9043 66.891 13.8145 66.0029 14.4893C65.1147 15.1632 64.0105 15.5019 62.6914 15.502C61.6278 15.502 60.6847 15.2599 59.8633 14.7754C59.0429 14.2918 58.4004 13.6101 57.9355 12.7305C57.4706 11.8515 57.2393 10.8322 57.2393 9.67285C57.2393 8.51443 57.4707 7.49513 57.9355 6.61621C58.4004 5.73731 59.0428 5.0587 59.8633 4.58105C60.6847 4.10426 61.6278 3.86523 62.6914 3.86523ZM118.65 3.86523C119.997 3.86525 121.11 4.18878 121.992 4.83594C122.874 5.48338 123.47 6.40871 123.78 7.6084H121.296C121.094 7.0494 120.771 6.61267 120.327 6.29883C119.882 5.98585 119.324 5.82814 118.65 5.82812C117.708 5.82812 116.956 6.16594 116.398 6.84082C115.84 7.51567 115.561 8.45964 115.561 9.67285C115.561 10.8862 115.84 11.8339 116.398 12.5156C116.956 13.1974 117.708 13.5381 118.65 13.5381C119.983 13.5381 120.865 12.9455 121.296 11.7598H123.78C123.457 12.9044 122.85 13.8145 121.962 14.4893C121.074 15.1633 119.97 15.5019 118.65 15.502C117.586 15.502 116.645 15.2597 115.823 14.7754C115.003 14.2918 114.359 13.6101 113.895 12.7305C113.43 11.8515 113.197 10.8322 113.197 9.67285C113.197 8.51449 113.43 7.49509 113.895 6.61621C114.359 5.73724 115.003 5.0587 115.823 4.58105C116.645 4.10437 117.586 3.86523 118.65 3.86523ZM129.999 3.86523C131.063 3.86523 132.026 4.1043 132.888 4.58105C133.749 5.05867 134.429 5.74022 134.927 6.62598C135.426 7.51267 135.675 8.52804 135.675 9.67285C135.675 10.8185 135.42 11.8349 134.907 12.7207C134.396 13.6065 133.699 14.2917 132.817 14.7754C131.935 15.2598 130.962 15.502 129.898 15.502C128.849 15.5019 127.899 15.2598 127.052 14.7754C126.203 14.2917 125.537 13.6094 125.053 12.7305C124.568 11.8507 124.325 10.8322 124.325 9.67285C124.325 8.52804 124.574 7.51267 125.072 6.62598C125.571 5.74024 126.251 5.05867 127.112 4.58105C127.973 4.10442 128.937 3.8653 129.999 3.86523ZM71.415 5.35742C71.8062 4.88083 72.3009 4.51281 72.8994 4.25391C73.4989 3.99503 74.1553 3.86523 74.8682 3.86523C75.7165 3.86527 76.4743 4.04919 77.1406 4.41699C77.807 4.78567 78.3322 5.33001 78.7158 6.05273C79.0994 6.77553 79.291 7.64794 79.291 8.66992V15.3174H77.0098V9.01855C77.0098 8.00924 76.7605 7.23666 76.2617 6.69727C75.7638 6.15874 75.0839 5.88965 74.2227 5.88965C73.3607 5.88965 72.6775 6.15883 72.1729 6.69727C71.6681 7.23666 71.415 8.00923 71.415 9.01855V15.3174H69.1143V0.183594H71.415V5.35742ZM83.5117 15.3174H81.209V4.0498H83.5117V15.3174ZM91.1455 3.86523C92.0202 3.86523 92.8046 4.04917 93.498 4.41699C94.1907 4.78573 94.7328 5.33081 95.124 6.05371C95.5143 6.77655 95.709 7.64886 95.709 8.6709V15.3174H93.4268V9.01855C93.4268 8.0094 93.1784 7.23663 92.6807 6.69727C92.182 6.15881 91.5025 5.88973 90.6406 5.88965C89.7786 5.88965 89.0955 6.15873 88.5908 6.69727C88.0853 7.23664 87.834 8.0093 87.834 9.01855V15.3174H85.5312V4.04883H87.834V5.33691C88.2099 4.87401 88.6915 4.51283 89.2773 4.25391C89.8624 3.99497 90.4851 3.86527 91.1455 3.86523ZM112.398 12.9502V15.3174H110.061V12.9502H112.398ZM150.417 3.86523C151.292 3.86523 152.076 4.04913 152.77 4.41699C153.462 4.78573 154.007 5.33081 154.405 6.05371C154.802 6.77657 155.001 7.64881 155.001 8.6709V15.3174H152.719V9.01855C152.719 8.00926 152.47 7.23664 151.972 6.69727C151.473 6.15879 150.793 5.88965 149.932 5.88965C149.07 5.8897 148.387 6.15886 147.883 6.69727C147.377 7.23664 147.125 8.00926 147.125 9.01855V15.3174H144.844V9.01855C144.844 8.00929 144.594 7.23664 144.096 6.69727C143.597 6.15877 142.917 5.88968 142.057 5.88965C141.194 5.88965 140.51 6.15873 140.006 6.69727C139.5 7.23663 139.248 8.00941 139.248 9.01855V15.3174H136.946V4.04883H139.248V5.33691C139.626 4.87389 140.103 4.51288 140.683 4.25391C141.261 3.99493 141.881 3.86523 142.541 3.86523C143.429 3.86526 144.223 4.05597 144.923 4.4375C145.623 4.8191 146.161 5.37182 146.539 6.09473C146.875 5.4131 147.401 4.87091 148.114 4.46875C148.827 4.06658 149.595 3.86525 150.417 3.86523ZM38.1348 5.82812C37.5421 5.82812 36.9969 5.97526 36.499 6.26758C36.0011 6.56171 35.6 6.99745 35.2969 7.57715C34.9946 8.15681 34.8428 8.85484 34.8428 9.67285C34.8428 10.4907 34.9878 11.1929 35.2764 11.7793C35.566 12.365 35.9571 12.8054 36.4482 13.0986C36.9392 13.3917 37.4808 13.538 38.0732 13.5381C38.6652 13.5381 39.222 13.388 39.7402 13.0879C40.2575 12.7878 40.6785 12.3491 41.002 11.7695C41.3254 11.1898 41.4873 10.4909 41.4873 9.67285C41.4873 8.85487 41.3324 8.1568 41.0234 7.57715C40.7127 6.99745 40.3025 6.56171 39.791 6.26758C39.2787 5.97518 38.7275 5.82814 38.1348 5.82812ZM129.96 5.82812C129.366 5.82812 128.821 5.97516 128.323 6.26758C127.825 6.56171 127.424 6.99756 127.122 7.57715C126.82 8.15683 126.668 8.8548 126.668 9.67285C126.668 10.4907 126.812 11.1928 127.102 11.7793C127.39 12.3649 127.781 12.8054 128.272 13.0986C128.764 13.3919 129.306 13.538 129.898 13.5381C130.49 13.5381 131.047 13.388 131.565 13.0879C132.083 12.7878 132.504 12.3491 132.827 11.7695C133.15 11.1899 133.312 10.4909 133.312 9.67285C133.312 8.85489 133.157 8.15679 132.848 7.57715C132.538 6.99752 132.127 6.56171 131.616 6.26758C131.104 5.97521 130.552 5.82818 129.96 5.82812ZM50.291 5.88965C49.6993 5.88972 49.1471 6.0359 48.6357 6.3291C48.1243 6.62236 47.7094 7.05214 47.3936 7.61719C47.0768 8.18316 46.9199 8.85491 46.9199 9.63184C46.9199 10.4095 47.0769 11.0911 47.3936 11.6768C47.7094 12.2633 48.1274 12.7096 48.6465 13.0166C49.1637 13.3234 49.7129 13.4765 50.291 13.4766C50.8829 13.4766 51.4368 13.3265 51.9482 13.0264C52.4595 12.7271 52.8737 12.2875 53.1895 11.708C53.5062 11.1292 53.6641 10.4498 53.6641 9.67285C53.6641 8.89604 53.5061 8.22121 53.1895 7.64844C52.8737 7.0766 52.4595 6.63997 51.9482 6.33984C51.4368 6.04056 50.8829 5.88965 50.291 5.88965ZM102.596 5.88965C102.003 5.88965 101.452 6.03595 100.939 6.3291C100.429 6.62232 100.014 7.05223 99.6973 7.61719C99.3814 8.18316 99.2236 8.85491 99.2236 9.63184C99.2236 10.4096 99.3814 11.0911 99.6973 11.6768C100.014 12.2633 100.431 12.7096 100.949 13.0166C101.467 13.3236 102.017 13.4766 102.596 13.4766C103.188 13.4765 103.74 13.3265 104.251 13.0264C104.763 12.7271 105.176 12.2876 105.493 11.708C105.809 11.1292 105.969 10.4498 105.969 9.67285C105.969 8.89597 105.809 8.22125 105.493 7.64844C105.176 7.07647 104.763 6.63998 104.251 6.33984C103.74 6.04059 103.188 5.88968 102.596 5.88965ZM83.5469 2.36719H81.209V0H83.5469V2.36719Z" fill="#999999"/>
</svg>
