<svg width="231" height="35" viewBox="0 0 231 35" fill="none" xmlns="http://www.w3.org/2000/svg">
<path d="M73.9829 28.6562H69.3629V10.7187H63.4229V6.89062H79.9229V10.7187H73.9829V28.6562Z" fill="#999999"/>
<path d="M83.2783 28.6562V6.83594H87.8983V28.6016H83.2783V28.6562Z" fill="#999999"/>
<path d="M106.378 22.5859C106.378 24.5547 105.663 26.0859 104.233 27.2344C102.803 28.3828 100.823 28.9297 98.2931 28.9297C95.9281 28.9297 93.8931 28.4922 92.0781 27.6172V23.3516C93.5631 24.0078 94.8281 24.4453 95.8181 24.7187C96.8631 24.9922 97.7981 25.1016 98.6231 25.1016C99.6681 25.1016 100.438 24.8828 100.988 24.5C101.538 24.1172 101.813 23.5156 101.813 22.75C101.813 22.3125 101.703 21.9297 101.428 21.6016C101.208 21.2734 100.823 20.9453 100.383 20.6172C99.9431 20.2891 98.9531 19.7969 97.5231 19.1406C96.2031 18.5391 95.1581 17.9375 94.4981 17.3359C93.8381 16.7344 93.2881 16.0781 92.9031 15.3125C92.5181 14.5469 92.2981 13.6719 92.2981 12.6328C92.2981 10.7187 92.9581 9.1875 94.2781 8.09375C95.5981 7 97.4131 6.45312 99.7231 6.45312C100.878 6.45312 101.923 6.5625 102.968 6.83594C104.013 7.10937 105.058 7.49219 106.213 7.98437L104.728 11.5937C103.573 11.1016 102.583 10.7734 101.813 10.6094C101.043 10.4453 100.273 10.3359 99.5581 10.3359C98.6781 10.3359 98.0181 10.5547 97.5231 10.9375C97.0281 11.3203 96.8081 11.8672 96.8081 12.5234C96.8081 12.9062 96.9181 13.2891 97.0831 13.5625C97.2481 13.8906 97.5781 14.1641 97.9631 14.4375C98.4031 14.7109 99.3381 15.2031 100.933 15.9688C102.968 16.9531 104.398 17.9375 105.168 18.9219C105.993 19.9609 106.378 21.1641 106.378 22.5859Z" fill="#999999"/>
<path d="M120.513 6.78125C122.933 6.78125 125.738 7.76562 125.738 9.51562V11.0469H124.473V10.0078C124.473 8.69531 122.328 8.03906 120.568 8.03906C117.048 8.03906 114.793 10.5 114.793 13.9453C114.793 17.3359 117.103 19.9063 120.568 19.9063C121.943 19.9063 124.803 19.4688 124.803 17.8828V15.6953H121.888V14.5469H126.123V18.1563C126.123 20.2891 122.658 21.1094 120.568 21.1094C116.278 21.1094 113.363 17.9922 113.363 13.9453C113.308 9.84375 116.223 6.78125 120.513 6.78125Z" fill="#999999"/>
<path d="M128.488 19.6875H130.303V8.14844H128.488V7H134.428C135.363 7 136.133 7.05469 136.903 7.32812C138.278 7.82031 139.158 8.96875 139.158 10.7734C139.158 12.8516 137.948 14.3281 136.078 14.7109V14.7656C136.078 14.7656 136.353 14.9297 136.573 15.3125L138.883 19.25C139.103 19.6328 139.378 19.6875 139.873 19.6875H140.258V20.8359H139.488C138.278 20.8359 138.058 20.6719 137.563 19.7969L135.253 15.8047C134.868 15.1484 134.593 14.9844 133.713 14.9844H131.733V19.6875H133.548V20.8359H128.543L128.488 19.6875ZM134.923 13.7813C136.628 13.7813 137.728 12.6328 137.728 10.8828C137.728 9.625 137.178 8.80469 136.188 8.42187C135.693 8.25781 135.033 8.14844 134.373 8.14844H131.678V13.7813H134.923Z" fill="#999999"/>
<path d="M143.228 8.14844H141.413V7H146.418V8.14844H144.603V15.75C144.603 16.7344 144.823 17.6641 145.208 18.2656C145.868 19.25 147.023 19.7969 148.563 19.7969C150.048 19.7969 151.313 19.25 151.918 18.1563C152.303 17.5 152.523 16.625 152.523 15.6406V8.14844H150.708V7H155.713V8.14844H153.898V15.75C153.898 17.0078 153.568 18.2109 153.018 19.0312C152.083 20.3438 150.488 21.1094 148.563 21.1094C146.638 21.1094 144.988 20.3438 144.053 19.0312C143.448 18.1562 143.228 17.0625 143.228 15.8047V8.14844Z" fill="#999999"/>
<path d="M157.473 19.6875H159.288V8.14844H157.473V7H163.798C164.623 7 165.503 7.05469 166.163 7.38281C167.538 7.98437 168.418 9.35156 168.418 11.1562C168.418 13.0703 167.428 14.5469 165.888 15.0938C165.228 15.3125 164.568 15.3672 163.853 15.3672H160.718V19.6875H162.533V20.8359H157.473V19.6875ZM163.688 14.2188C164.348 14.2188 164.898 14.1641 165.393 13.9453C166.438 13.5078 167.043 12.5234 167.043 11.2109C167.043 9.95312 166.493 9.02344 165.613 8.58594C165.118 8.36719 164.458 8.25781 163.743 8.25781H160.718V14.2734L163.688 14.2188Z" fill="#999999"/>
<path d="M168.363 19.6875H169.793L174.468 7H176.008L180.683 19.6875H182.113V20.8359H177.658V19.6875H179.253L177.933 16.1328H172.488L171.223 19.6875H172.818V20.8359H168.363V19.6875ZM177.548 14.9844L175.513 9.29688C175.348 8.85937 175.293 8.42187 175.293 8.42187H175.238C175.238 8.42187 175.183 8.85937 175.018 9.29688L172.873 14.9844H177.548Z" fill="#999999"/>
<path d="M115.233 28.7109L113.968 25.1562C114.023 25.7031 114.023 26.1953 114.023 26.6328V28.7109H113.363V24.4453H114.353L115.563 27.8359L116.773 24.4453H117.763V28.7109H117.103V26.5781C117.103 26.3594 117.103 26.0859 117.103 25.7578C117.103 25.4297 117.103 25.2109 117.158 25.1562L115.893 28.7109H115.233Z" fill="#999999"/>
<path d="M121.943 28.7109H119.523V24.4453H121.943V25.0469H120.238V26.1953H121.833V26.7969H120.238V28.1641H121.943V28.7109Z" fill="#999999"/>
<path d="M125.903 28.7109H123.483V24.4453H125.903V25.0469H124.198V26.1953H125.793V26.7969H124.198V28.1641H125.903V28.7109Z" fill="#999999"/>
<path d="M128.928 28.7109H128.213V25.0469H126.948V24.4453H130.193V25.0469H128.928V28.7109Z" fill="#999999"/>
<path d="M132.173 24.4453H131.458V28.7109H132.173V24.4453Z" fill="#999999"/>
<path d="M137.453 28.7109H136.573L134.483 25.3203V25.5391C134.538 25.9219 134.538 26.25 134.538 26.5234V28.7656H133.878V24.5H134.703L136.793 27.8906C136.793 27.8359 136.793 27.6719 136.738 27.3984C136.738 27.125 136.738 26.9063 136.738 26.7422V24.5H137.398V28.7109H137.453Z" fill="#999999"/>
<path d="M140.973 26.4141H142.568V28.5469C142.293 28.6016 142.073 28.7109 141.798 28.7109C141.578 28.7656 141.303 28.7656 141.028 28.7656C140.368 28.7656 139.873 28.6016 139.543 28.2188C139.213 27.8359 138.993 27.2891 138.993 26.5781C138.993 25.8672 139.213 25.375 139.598 24.9922C139.983 24.6094 140.533 24.3906 141.248 24.3906C141.688 24.3906 142.128 24.4453 142.513 24.6641L142.293 25.2656C141.963 25.1016 141.578 25.0469 141.248 25.0469C140.808 25.0469 140.423 25.2109 140.148 25.4844C139.873 25.7578 139.763 26.1406 139.763 26.6875C139.763 27.1797 139.873 27.6172 140.093 27.8906C140.313 28.1641 140.698 28.2734 141.138 28.2734C141.358 28.2734 141.633 28.2188 141.853 28.2188V27.125H140.973V26.4141Z" fill="#999999"/>
<path d="M151.699 26.5781C151.699 27.2891 151.534 27.8359 151.149 28.2187C150.819 28.6016 150.324 28.8203 149.664 28.8203C149.004 28.8203 148.509 28.6562 148.179 28.2734C147.849 27.8906 147.684 27.3438 147.684 26.6328C147.684 25.9219 147.849 25.375 148.234 24.9922C148.564 24.6094 149.059 24.4453 149.719 24.4453C150.379 24.4453 150.874 24.6094 151.204 24.9922C151.534 25.375 151.699 25.8672 151.699 26.5781ZM148.399 26.5781C148.399 27.125 148.509 27.5078 148.729 27.7812C148.949 28.0547 149.279 28.1641 149.664 28.1641C150.104 28.1641 150.379 28.0547 150.599 27.7812C150.819 27.5078 150.929 27.125 150.929 26.5781C150.929 26.0312 150.819 25.6484 150.599 25.375C150.379 25.1016 150.104 24.9922 149.664 24.9922C149.224 24.9922 148.949 25.1563 148.729 25.375C148.509 25.6484 148.399 26.0859 148.399 26.5781Z" fill="#999999"/>
<path d="M153.898 28.7109H153.238V24.4453H155.658V25.0469H153.898V26.3594H155.548V26.9609H153.898V28.7109Z" fill="#999999"/>
<path d="M162.588 28.7109L161.323 25.1562C161.323 25.7031 161.378 26.1953 161.378 26.6328V28.7109H160.773V24.4453H161.763L162.973 27.8359L164.183 24.4453H165.173V28.7109H164.513V26.5781C164.513 26.3594 164.513 26.0859 164.513 25.7578C164.513 25.4297 164.513 25.2109 164.568 25.1562H164.513L163.248 28.7109H162.588Z" fill="#999999"/>
<path d="M167.593 24.4453H166.878V28.7109H167.593V24.4453Z" fill="#999999"/>
<path d="M172.929 28.7109H172.049L169.959 25.3203V25.5391C169.959 25.9219 170.014 26.25 170.014 26.5234V28.7656H169.354V24.5H170.234L172.324 27.8906C172.324 27.8359 172.324 27.6719 172.324 27.3984C172.324 27.125 172.324 26.9063 172.324 26.7422V24.5H172.984V28.7109H172.929Z" fill="#999999"/>
<path d="M178.154 26.5781C178.154 27.2891 177.934 27.8359 177.549 28.1641C177.164 28.5469 176.614 28.7109 175.844 28.7109H174.634V24.4453H175.954C176.614 24.4453 177.164 24.6094 177.549 24.9922C177.934 25.375 178.154 25.8672 178.154 26.5781ZM177.384 26.5781C177.384 25.5391 176.889 25.0469 175.954 25.0469H175.349V28.1641H175.844C176.889 28.1641 177.384 27.6172 177.384 26.5781Z" fill="#999999"/>
<path d="M182.168 27.5625C182.168 27.9453 182.003 28.2188 181.728 28.4375C181.453 28.6563 181.068 28.7656 180.573 28.7656C180.078 28.7656 179.693 28.7109 179.363 28.5469V27.8906C179.583 28 179.748 28.0547 179.968 28.1094C180.188 28.1641 180.408 28.1641 180.573 28.1641C180.848 28.1641 181.068 28.1094 181.178 28C181.288 27.8906 181.398 27.7813 181.398 27.5625C181.398 27.3984 181.343 27.2891 181.233 27.1797C181.123 27.0703 180.848 26.9609 180.463 26.7969C180.078 26.6328 179.803 26.4688 179.638 26.25C179.473 26.0313 179.418 25.8125 179.418 25.5391C179.418 25.1563 179.528 24.8828 179.803 24.7188C180.078 24.5 180.408 24.3906 180.848 24.3906C181.233 24.3906 181.673 24.5 182.058 24.6641L181.838 25.2109C181.453 25.0469 181.123 24.9922 180.848 24.9922C180.628 24.9922 180.463 25.0469 180.353 25.1563C180.243 25.2656 180.188 25.375 180.188 25.5391C180.188 25.6484 180.188 25.7578 180.243 25.8125C180.298 25.8672 180.353 25.9766 180.463 26.0312C180.573 26.0859 180.738 26.1953 181.068 26.3047C181.398 26.4141 181.618 26.5781 181.783 26.6875C181.948 26.7969 182.058 26.9063 182.113 27.0703C182.113 27.1797 182.168 27.3984 182.168 27.5625Z" fill="#999999"/>
<path d="M43.0175 17.1172C42.7975 12.6875 40.3225 8.85938 36.6925 6.78125C33.0625 8.91406 30.5875 12.7422 30.3675 17.1172C30.1475 22.0391 32.7325 26.3594 36.6375 28.6562C40.5975 26.3594 43.2375 22.0391 43.0175 17.1172Z" fill="#999999"/>
<path d="M27.9115 17.7188C27.9115 13.0156 25.3815 8.96875 21.5865 6.78125H21.5315C19.4965 7.92969 17.9015 9.625 16.8015 11.5938L12.5665 18.9219C12.2915 19.3594 12.6215 19.9063 13.1165 19.9063H14.9865C15.2615 19.9063 15.4815 20.0703 15.5365 20.3438C16.2515 23.8984 18.5065 26.9062 21.5865 28.6562C25.3815 26.4688 27.9115 22.3672 27.9115 17.7188ZM21.5315 15.3125C21.0915 15.3125 20.7065 14.9297 20.7065 14.4922C20.7065 14.0547 21.0915 13.6719 21.5315 13.6719C21.9715 13.6719 22.3565 14.0547 22.3565 14.4922C22.3565 14.9297 21.9715 15.3125 21.5315 15.3125Z" fill="#999999"/>
<path d="M12.98 20.3437C12.925 20.0703 12.705 19.9062 12.43 19.9062H10.56C10.065 19.9062 9.735 19.3594 10.01 18.9219L14.245 11.5938C15.345 9.57031 16.995 7.92969 18.975 6.78125C18.975 6.78125 19.03 6.78125 19.03 6.72656C17.16 5.63281 15.015 5.03125 12.705 5.03125C6.105 5.08594 0.715 10.0625 0.0549999 16.4062C-5.32717e-08 16.8437 0 17.2812 0 17.7187C0 24.7187 5.665 30.3516 12.705 30.3516C15.015 30.3516 17.16 29.75 19.03 28.6562C15.95 26.9062 13.695 23.8984 12.98 20.3437ZM6.325 15.3125C5.885 15.3125 5.5 14.9297 5.5 14.4922C5.5 14.0547 5.885 13.6719 6.325 13.6719C6.765 13.6719 7.15 14.0547 7.15 14.4922C7.15 14.9297 6.765 15.3125 6.325 15.3125Z" fill="#999999"/>
<path d="M27.9659 17.1172C28.1859 12.7422 30.6609 8.91404 34.2909 6.78122C32.5859 5.79685 30.6059 5.19529 28.5159 5.08591C25.9859 4.97654 23.6209 5.5781 21.5859 6.78122C25.3809 8.96872 27.9109 13.0156 27.9109 17.7187C27.9109 22.3672 25.3809 26.4687 21.5859 28.6562C23.4559 29.75 25.6009 30.3515 27.9109 30.3515C30.2209 30.3515 32.4209 29.75 34.2359 28.6562C30.3309 26.3594 27.7459 22.039 27.9659 17.1172Z" fill="#999999"/>
<path d="M58.4177 18.9219L54.1827 11.5938C51.9277 7.6016 47.4727 4.86722 42.4677 5.08597C40.3777 5.19535 38.3977 5.79691 36.6927 6.78128C40.3227 8.85941 42.7977 12.6875 43.0177 17.1172C43.2377 22.0391 40.5977 26.3594 36.6377 28.6563C38.5077 29.75 40.7077 30.3516 42.9627 30.3516C42.9627 30.3516 42.9627 30.3516 43.0177 30.3516C49.1227 30.3516 54.2377 26.0313 55.4477 20.3438C55.5027 20.0703 55.7227 19.9063 55.9977 19.9063H57.8127H57.8677C58.3627 19.9063 58.6927 19.3594 58.4177 18.9219ZM49.4527 15.3125C49.0127 15.3125 48.6277 14.9297 48.6277 14.4922C48.6277 14.0547 49.0127 13.6719 49.4527 13.6719C49.8927 13.6719 50.2777 14.0547 50.2777 14.4922C50.2777 14.9297 49.8927 15.3125 49.4527 15.3125Z" fill="#999999"/>
</svg>
