<svg width="46" height="54" viewBox="0 0 46 54" fill="none" xmlns="http://www.w3.org/2000/svg">
<path fill-rule="evenodd" clip-rule="evenodd" d="M34.1157 12.2342C29.6049 12.2342 27.2102 14.5483 23.6663 14.5011C20.1216 14.5483 17.7276 12.2342 13.2162 12.2342C9.62556 12.2342 5.06739 14.5011 2.99609 17.8079C-0.824538 23.8542 -0.456578 30.4204 1.15477 37.221C2.9041 44.4496 9.07281 53.3298 13.9528 53.3298C17.9575 53.3298 19.7536 51.1086 23.6663 51.1086C27.578 51.1086 29.3275 53.3298 33.2877 53.3298C37.7983 53.3298 43.1844 45.7238 45.4872 38.9687C41.067 37.1738 38.0742 32.6872 38.0742 27.916C38.0742 23.1928 40.423 19.5557 44.0138 17.4776C41.8045 14.4068 37.5684 12.2342 34.1157 12.2342ZM32.9182 0C26.4284 0.708704 21.595 6.28219 22.009 12.6118C28.4996 11.9504 33.2877 6.32948 32.9182 0Z" fill="#999999"/>
</svg>
