<svg width="76" height="76" viewBox="0 0 76 76" fill="none" xmlns="http://www.w3.org/2000/svg">
<path fill-rule="evenodd" clip-rule="evenodd" d="M15.0185 34.8372V30.0645C15.1701 23.8964 17.7135 18.0316 22.1064 13.7222C26.4994 9.41267 32.3941 7 38.5324 7C44.6708 7 50.5655 9.41267 54.9585 13.7222C59.3513 18.0316 61.8946 23.8964 62.0462 30.0645L62.0465 30.0768L62.0464 34.8514H63.9511C64.797 34.8514 65.6077 35.1893 66.205 35.7899C66.8022 36.3904 67.1372 37.2043 67.1372 38.0523V38.9531C68.7135 39.2983 70.1386 40.1527 71.1912 41.3912C72.3368 42.7392 72.9659 44.4536 72.9659 46.2258C72.9659 47.9981 72.3368 49.7125 71.1912 51.0604C70.1386 52.2989 68.7135 53.1534 67.1372 53.4985V54.4161C67.1328 55.2621 66.7966 56.0727 66.2009 56.6718C65.605 57.271 64.7976 57.61 63.9538 57.6144L63.9511 57.6144C53.925 57.6144 58.4632 57.6144 57.0296 57.6144C56.1858 57.61 55.3783 57.271 54.7824 56.6718C54.1867 56.0727 53.8506 55.2621 53.8462 54.4161L53.8462 54.4135L53.8462 38.0534C53.8442 37.6325 53.9248 37.2153 54.0835 36.8257C54.2424 36.4356 54.4765 36.0808 54.7725 35.7817C55.0684 35.4825 55.4204 35.245 55.8082 35.0829C56.196 34.9207 56.612 34.8372 57.0322 34.8372H58.937V30.0832C58.7973 24.7344 56.5866 19.6522 52.7762 15.9188C48.9645 12.184 43.8534 10.0943 38.5324 10.0943C33.2115 10.0943 28.1004 12.184 24.2887 15.9188C20.4783 19.6522 18.2676 24.7344 18.1279 30.0833V34.8372H20.0327C20.4529 34.8372 20.8689 34.9207 21.2567 35.0829C21.6445 35.245 21.9965 35.4825 22.2924 35.7817C22.5884 36.0808 22.8225 36.4356 22.9814 36.8257C23.1401 37.2153 23.2207 37.6325 23.2187 38.0534V54.4302C23.2143 55.2762 22.8782 56.0869 22.2824 56.6859C21.6866 57.2851 20.8791 57.6241 20.0353 57.6286L20.0327 57.6286L14 57.6286H13.0147C12.1709 57.6241 11.3608 57.2601 10.765 56.6609C10.1692 56.0619 9.8331 55.2512 9.82873 54.4052V53.4876C8.25236 53.1425 6.82725 52.288 5.7747 51.0496C4.62912 49.7016 4 47.9872 4 46.2149C4 44.4427 4.62912 42.7283 5.7747 41.3803C6.82725 40.1418 8.25236 39.2874 9.82873 38.9423V38.0414C9.82873 37.1934 10.1637 36.3795 10.7609 35.779C11.3582 35.1784 12.1689 34.8405 13.0147 34.8405L15.0185 34.8372ZM13.0147 37.9616C12.9953 37.9616 12.9762 37.9694 12.9616 37.984C12.9469 37.9988 12.9382 38.0194 12.9382 38.0414V54.4167C12.9382 54.4388 12.9469 54.4594 12.9616 54.4741C13.0087 54.5215 13.0508 54.5215 13.0508 54.5215H14.9659H20.0327C20.0427 54.5216 20.0532 54.5195 20.0626 54.5155C20.0719 54.5115 20.0806 54.5055 20.0879 54.4978L20.0906 54.4948L20.0942 54.4903C20.0956 54.4883 20.0969 54.4863 20.0982 54.4842C20.1008 54.4799 20.103 54.4753 20.1048 54.4704C20.1087 54.4601 20.1104 54.4489 20.1099 54.4377L20.1093 54.4256V38.0523C20.1093 38.0303 20.1005 38.0097 20.0859 37.9949C20.0713 37.9803 20.0521 37.9725 20.0327 37.9725L13.0147 37.9616ZM67.1372 50.278C67.8483 50.0054 68.4791 49.5465 68.9611 48.9435C69.5767 48.1734 69.9125 47.2146 69.9125 46.2258C69.9125 45.237 69.5767 44.2783 68.9611 43.5082C68.4791 42.9052 67.8483 42.4463 67.1372 42.1737V50.278ZM64.0043 54.485C64.019 54.4703 64.0277 54.4497 64.0277 54.4276V38.0523C64.0277 38.0303 64.019 38.0097 64.0043 37.9949C63.9897 37.9803 63.9706 37.9725 63.9511 37.9725H57.0322C57.0128 37.9725 56.9936 37.9803 56.979 37.9949C56.9644 38.0097 56.9556 38.0302 56.9556 38.0523V54.4276C56.9556 54.4497 56.9644 54.4703 56.979 54.485C56.9936 54.4997 57.0128 54.5074 57.0322 54.5074H63.9511C63.9706 54.5074 63.9897 54.4997 64.0043 54.485ZM9.82873 50.2671C9.11754 49.9945 8.48677 49.5356 8.00478 48.9326C7.38923 48.1625 7.05339 47.2037 7.05339 46.2149C7.05339 45.2262 7.38923 44.2674 8.00478 43.4973C8.48677 42.8943 9.11754 42.4354 9.82873 42.1628V50.2671Z" fill="#555555"/>
<path d="M48 56.6904C45.6128 59.2516 42.3755 60.6904 39 60.6904C35.6245 60.6904 32.3872 59.2516 30 56.6904" stroke="#555555" stroke-width="3" stroke-linecap="round" stroke-linejoin="round"/>
<path d="M41 49.6904C40.4695 50.3307 39.7501 50.6904 39 50.6904C38.2499 50.6904 37.5305 50.3307 37 49.6904" stroke="#555555" stroke-width="3" stroke-linecap="round" stroke-linejoin="round"/>
<path d="M55 62.6904C50.6235 67.1725 44.6884 69.6904 38.5 69.6904C32.3116 69.6904 26.3765 67.1725 22 62.6904" stroke="#555555" stroke-width="3" stroke-linecap="round" stroke-linejoin="round"/>
</svg>
