<svg width="80" height="80" viewBox="0 0 80 80" fill="none" xmlns="http://www.w3.org/2000/svg">
<rect width="80" height="80" rx="20" fill="black"/>
<mask id="mask0_41_598" style="mask-type:alpha" maskUnits="userSpaceOnUse" x="0" y="0" width="80" height="80">
<rect width="80" height="80" rx="20" fill="black"/>
</mask>
<g mask="url(#mask0_41_598)">
<path d="M12.0412 20.7519C10.1951 20.7519 8.69275 22.251 8.69275 24.0932C8.69275 25.9354 10.1951 27.4346 12.0412 27.4346C13.8873 27.4346 15.3896 25.9354 15.3896 24.0932C15.3896 22.251 13.8873 20.7519 12.0412 20.7519ZM12.0412 25.6965C11.1568 25.6965 10.4346 24.9758 10.4346 24.0932C10.4346 23.2107 11.1568 22.49 12.0412 22.49C12.9256 22.49 13.6478 23.2107 13.6478 24.0932C13.6478 24.9758 12.9256 25.6965 12.0412 25.6965Z" fill="white"/>
<path d="M-2.07101 -9.16287C-3.91709 -9.16287 -5.41945 -7.66368 -5.41945 -5.8215C-5.41945 -3.97931 -3.91709 -2.48012 -2.07101 -2.48012C-0.224921 -2.48012 1.27744 -3.97931 1.27744 -5.8215C1.27744 -7.66368 -0.224921 -9.16287 -2.07101 -9.16287ZM-2.07101 -7.42474C-1.18659 -7.42474 -0.464371 -6.70405 -0.464371 -5.8215C-0.464371 -4.93894 -1.18659 -4.21825 -2.07101 -4.21825C-2.95543 -4.21825 -3.67764 -4.93894 -3.67764 -5.8215C-3.67764 -6.70405 -2.95543 -7.42474 -2.07101 -7.42474Z" fill="white"/>
<path d="M70.9227 32.9805L64.3108 21.5535C64.7936 21.0294 65.0601 20.3511 65.0601 19.6304C65.0601 18.0503 63.774 16.7669 62.1905 16.7669C61.982 16.7669 61.7773 16.79 61.5764 16.8324L40.7945 -19.0941L40.7095 -19.2406C40.6052 -19.4179 40.416 -19.5258 40.2113 -19.5258H10.9134C10.5272 -20.9671 9.2179 -22 7.68079 -22C6.14367 -22 4.83056 -20.9671 4.44821 -19.5258H-20.2113C-20.416 -19.5258 -20.6053 -19.4179 -20.7095 -19.2406L-50.9228 32.9805C-51.027 33.1578 -51.027 33.3775 -50.9228 33.5547L-20.7945 85.6255L-20.7095 85.772C-20.6053 85.9492 -20.416 86.0572 -20.2113 86.0572H40.2151C40.4198 86.0572 40.6091 85.9492 40.7134 85.772L47.7733 73.5665C47.9316 73.5973 48.0938 73.6127 48.256 73.6127C49.7005 73.6127 50.8784 72.4373 50.8784 70.9959C50.8784 70.3677 50.6506 69.7703 50.2412 69.3002L70.9227 33.5547C71.027 33.3775 71.027 33.1578 70.9227 32.9805ZM48.2522 71.8746C47.7655 71.8746 47.3716 71.4815 47.3716 70.9959C47.3716 70.5103 47.7655 70.1172 48.2522 70.1172C48.7388 70.1172 49.1327 70.5103 49.1327 70.9959C49.1327 71.4815 48.7388 71.8746 48.2522 71.8746ZM-19.5393 84.319L-49.0767 33.2657L-19.5393 -17.7876H4.44434C4.83055 -16.3463 6.1398 -15.3134 7.67692 -15.3134C7.8121 -15.3134 7.95113 -15.3211 8.08631 -15.3404L15.9727 10.589C15.49 10.8704 15.1269 11.3136 14.9493 11.8454C14.7523 12.4274 14.7948 13.0517 15.0729 13.6028C15.4861 14.4314 16.3473 14.9363 17.2781 14.8746L18.4676 18.7825C17.4674 19.3992 17.085 20.6941 17.618 21.7655C18.0119 22.5517 18.8036 23.0412 19.6881 23.0412C19.8889 23.0412 20.082 23.018 20.2712 22.9679L46.4949 69.0689C45.9542 69.5584 45.6337 70.2598 45.6337 70.9959C45.6337 71.6241 45.8615 72.2215 46.2709 72.6916L39.5431 84.319H-19.5393ZM7.68079 -20.2619C8.56521 -20.2619 9.28742 -19.5412 9.28742 -18.6586C9.28742 -17.7761 8.56521 -17.0554 7.68079 -17.0554C6.79636 -17.0554 6.07415 -17.7761 6.07415 -18.6586C6.07415 -19.5412 6.79636 -20.2619 7.68079 -20.2619ZM39.5393 -17.7876L60.0741 17.7034C59.9659 17.8229 59.8694 17.9462 59.7806 18.0811L38.7862 12.4505C38.7862 10.6083 37.2838 9.10911 35.4377 9.10911C34.8121 9.10911 34.2019 9.28639 33.6766 9.61398L10.3032 -16.5813C10.5889 -16.9398 10.7975 -17.3483 10.9172 -17.7915H39.5431L39.5393 -17.7876ZM34.9665 15.761L45.4715 63.7505L21.6693 21.9081C22.0633 21.2414 22.1019 20.4205 21.7504 19.7113C21.4415 19.0947 20.8699 18.6554 20.2017 18.5012L18.8654 14.1038C19.0701 13.8726 19.2285 13.6028 19.3289 13.3061C19.5259 12.7241 19.4834 12.0998 19.2053 11.5487C18.9041 10.9475 18.3672 10.5197 17.7261 10.3539L10.3418 -13.926L32.4832 10.8896C32.2245 11.3714 32.0931 11.9032 32.0931 12.4505C32.0931 14.1347 33.3483 15.5298 34.9704 15.761H34.9665ZM17.6759 12.755C17.6257 12.9014 17.5291 13.0132 17.3901 13.0825C17.2549 13.1481 17.1043 13.1596 16.9614 13.1134C16.8185 13.0671 16.6988 12.9631 16.6331 12.8282C16.5675 12.6933 16.5559 12.543 16.6022 12.3965C16.6524 12.2501 16.749 12.1383 16.888 12.069C16.9691 12.0266 17.0541 12.0111 17.1391 12.0111C17.3476 12.0111 17.5485 12.1268 17.6489 12.3233C17.7145 12.4582 17.7261 12.6124 17.6798 12.755H17.6759ZM19.4293 20.2316C19.5104 20.1931 19.5954 20.17 19.6803 20.17C19.7421 20.17 19.8001 20.1815 19.8619 20.2008C20.0048 20.247 20.1206 20.3511 20.1901 20.486C20.2558 20.6209 20.2674 20.7712 20.221 20.9176C20.1747 21.0602 20.0704 21.1758 19.9352 21.2452C19.8001 21.3107 19.6494 21.3223 19.5027 21.276C19.3598 21.2298 19.2439 21.1257 19.1744 20.9947C19.0354 20.7172 19.1474 20.3742 19.4293 20.2355V20.2316ZM35.4377 10.8472C36.3221 10.8472 37.0444 11.5679 37.0444 12.4505C37.0444 13.333 36.3221 14.0537 35.4377 14.0537C34.5533 14.0537 33.8311 13.333 33.8311 12.4505C33.8311 11.5679 34.5533 10.8472 35.4377 10.8472ZM62.1944 20.7519C61.5726 20.7519 61.0666 20.247 61.0666 19.6266C61.0666 19.0061 61.5726 18.5012 62.1944 18.5012C62.8162 18.5012 63.3221 19.0061 63.3221 19.6266C63.3221 20.247 62.8162 20.7519 62.1944 20.7519ZM48.7349 68.4215C48.5805 68.3906 48.4221 68.3752 48.2638 68.3752L36.6968 15.5414C37.3765 15.26 37.952 14.7629 38.3266 14.127L59.3248 19.7576C59.3943 21.276 60.6534 22.4862 62.1905 22.4862C62.3991 22.4862 62.6038 22.4631 62.8007 22.4207L69.0728 33.2618L48.7311 68.4176L48.7349 68.4215Z" fill="white"/>
</g>
</svg>
