<svg width="21" height="21" viewBox="0 0 21 21" fill="none" xmlns="http://www.w3.org/2000/svg">
<ellipse cx="10.5" cy="10.5" rx="10.5" ry="10.5" transform="rotate(-90 10.5 10.5)" fill="#8000FF"/>
<path d="M8.60027 15.002C8.17684 14.6846 8.09094 14.0839 8.40841 13.6605L14.4268 5.63347C14.7442 5.21004 15.3448 5.12415 15.7683 5.44162C16.1917 5.75909 16.2776 6.3597 15.9601 6.78313L9.94178 14.8102C9.62431 15.2336 9.0237 15.3195 8.60027 15.002Z" fill="white"/>
<path d="M9.64697 15.0023C10.0704 14.6848 10.1563 14.0842 9.83882 13.6608L7.05066 9.94207C6.7332 9.51864 6.13258 9.43274 5.70916 9.75021C5.28573 10.0677 5.19983 10.6683 5.5173 11.0917L8.30546 14.8105C8.62293 15.2339 9.22354 15.3198 9.64697 15.0023Z" fill="white"/>
</svg>
