<svg width="102" height="25" viewBox="0 0 102 25" fill="none" xmlns="http://www.w3.org/2000/svg">
<g clip-path="url(#clip0_66_16644)">
<path d="M4.32564 0C4.3996 0.0655727 3.76749 1.60304 3.76749 1.88347V11.1613C5.28286 9.71732 6.59869 8.29286 8.76012 7.85059C11.1574 7.36089 15.0393 8.34029 15.3504 11.2297C15.723 14.6827 14.9025 18.7705 15.5249 22.2166C15.61 22.684 15.8193 23.1151 15.9072 23.5783H11.7211C11.9737 22.8347 12.222 22.0743 12.2848 21.2818C12.4704 18.8975 12.4983 14.44 12.2625 12.0863C11.7755 7.20882 6.71172 8.94161 4.79588 11.9817C3.41865 14.1693 3.57214 18.6757 3.76191 21.2832C3.81912 22.0617 4.07308 22.8137 4.1861 23.5797H0L0.563729 21.7018V2.43456C0.563729 2.43456 0.513495 1.8458 0.463262 1.55421C0.369772 1.01847 0.221864 0.492493 0 0H4.32564Z" fill="#555555"/>
<path d="M46.1867 14.0912H34.1865V16.8118C34.1865 17.0448 34.7224 18.6018 34.8591 18.9296C36.5935 23.097 40.961 23.8588 44.4439 21.2303C44.5932 21.3935 45.2616 21.8121 44.9825 22.052C39.9941 26.3463 31.1474 23.3858 30.7009 16.5314C30.0744 6.9103 45.4848 3.08895 46.1867 14.0912ZM42.6983 12.9751C42.9299 6.62848 35.24 7.85622 34.6051 12.9751H42.6983Z" fill="#555555"/>
<path d="M59.8389 8.95006L59.9994 11.0219C58.0752 9.54858 54.9454 7.58698 52.5105 8.90402C50.7997 9.82901 51.2239 11.347 52.5593 12.3933C55.177 14.4428 62.3938 15.4976 61.0208 20.2049C60.0985 23.3705 55.1212 24.4434 52.2718 23.9802C51.4653 23.849 48.6285 22.9477 48.1374 22.3939C47.9043 22.1316 47.9448 20.6932 47.8611 20.23C49.922 21.9363 52.0402 23.3691 54.87 22.984C56.331 22.7859 58.2636 21.6042 58.0152 19.9161C57.5198 16.5384 49.8746 16.3514 48.736 12.7254C48.0369 10.5015 49.216 8.71009 51.2755 7.94833C54.1905 6.87126 57.1584 7.60791 59.8375 8.94866L59.8389 8.95006Z" fill="#555555"/>
<path d="M77.8601 10.6032C74.5085 8.06962 69.2172 7.47668 67.4688 12.1407C65.3465 17.8037 69.2995 25.0362 75.9401 22.1454C76.6796 21.8232 77.4834 20.7238 77.8615 22.0408C75.3247 23.9201 72.3107 24.5507 69.2409 23.6173C59.7148 20.7196 62.6897 6.54052 73.8833 7.39576C74.475 7.44041 77.0592 7.9901 77.4401 8.30401C77.7806 8.58305 77.8127 10.1135 77.8601 10.6032Z" fill="#555555"/>
<path d="M101.844 8.38916L102 10.4638C101.075 10.1122 100.28 9.48995 99.3474 9.14116C88.257 4.99612 88.4691 25.8064 99.4828 22.3869C99.9614 22.2376 101.382 21.3419 101.492 21.3614C101.602 21.3809 102.141 21.8511 101.936 22.0478C95.686 27.0844 85.8361 22.0353 88.0073 13.7047C89.5087 7.94271 96.8511 6.02296 101.842 8.39056L101.844 8.38916Z" fill="#555555"/>
<path d="M23.0235 11.1612C24.1663 9.94045 25.1989 8.6862 26.7938 8.02489C28.3887 7.36358 30.0003 7.35521 31.6748 7.53518L30.1399 9.70606C29.2175 9.50516 28.5729 9.12149 27.5738 9.22333C22.6635 9.7242 22.7835 17.3418 23.0249 20.8562C23.0863 21.7561 23.2816 22.7327 23.5816 23.5782H19.3955C19.4583 23.2252 19.6355 22.949 19.7235 22.5806C20.223 20.4907 20.1756 11.6788 19.6341 9.59724C19.4834 9.02103 19.2658 8.47134 18.9769 7.95234H22.7444C22.7263 8.23974 23.0235 8.8006 23.0235 8.99871V11.1612Z" fill="#555555"/>
<path d="M84.8384 7.9525C84.5705 8.68775 84.3347 9.60995 84.2747 10.3885C84.0487 13.3309 84.0794 18.0395 84.2733 21.0029C84.3291 21.8595 84.5105 22.7873 84.8384 23.5769H80.6523C80.7751 23.0119 81.0221 22.5794 81.0765 21.9781C81.3542 18.9645 81.3556 12.7002 81.0765 9.68808C81.0207 9.0784 80.75 8.54544 80.6523 7.94971H84.8384V7.9525Z" fill="#555555"/>
<path d="M82.6993 5.53744C83.7458 5.53744 84.5942 4.68918 84.5942 3.6428C84.5942 2.59643 83.7458 1.74817 82.6993 1.74817C81.6528 1.74817 80.8044 2.59643 80.8044 3.6428C80.8044 4.68918 81.6528 5.53744 82.6993 5.53744Z" fill="#555555"/>
</g>
<defs>
<clipPath id="clip0_66_16644">
<rect width="102" height="24.0833" fill="white"/>
</clipPath>
</defs>
</svg>
