<svg width="102" height="25" viewBox="0 0 102 25" fill="none" xmlns="http://www.w3.org/2000/svg">
<g clip-path="url(#clip0_136_2)">
<path d="M4.32564 0C4.3996 0.0655727 3.76749 1.60304 3.76749 1.88347V11.1613C5.28286 9.71732 6.5987 8.29286 8.76012 7.85059C11.1574 7.36089 15.0393 8.34029 15.3504 11.2297C15.723 14.6827 14.9025 18.7705 15.5249 22.2166C15.61 22.684 15.8193 23.1151 15.9072 23.5783H11.7211C11.9737 22.8347 12.222 22.0743 12.2848 21.2818C12.4704 18.8975 12.4983 14.44 12.2625 12.0863C11.7755 7.20882 6.71172 8.94161 4.79588 11.9817C3.41865 14.1693 3.57214 18.6757 3.76191 21.2832C3.81912 22.0617 4.07308 22.8137 4.1861 23.5797H0L0.563729 21.7018V2.43456C0.563729 2.43456 0.513495 1.8458 0.463262 1.55421C0.369773 1.01847 0.221864 0.492493 0 0H4.32564Z" fill="white"/>
<path d="M46.1868 14.0905H34.1866V16.8111C34.1866 17.044 34.7224 18.601 34.8592 18.9289C36.5936 23.0963 40.9611 23.858 44.4439 21.2295C44.5933 21.3928 45.2616 21.8113 44.9826 22.0513C39.9941 26.3456 31.1475 23.3851 30.701 16.5306C30.0744 6.90957 45.4849 3.08821 46.1868 14.0905ZM42.6983 12.9744C42.93 6.62775 35.2401 7.85549 34.6052 12.9744H42.6983Z" fill="white"/>
<path d="M59.8389 8.94871L59.9994 11.0205C58.0752 9.54724 54.9454 7.58564 52.5105 8.90267C50.7997 9.82767 51.2239 11.3456 52.5593 12.392C55.177 14.4415 62.3938 15.4962 61.0208 20.2035C60.0985 23.3691 55.1212 24.442 52.2718 23.9788C51.4653 23.8477 48.6285 22.9464 48.1374 22.3925C47.9043 22.1302 47.9448 20.6918 47.8611 20.2286C49.922 21.9349 52.0402 23.3677 54.87 22.9827C56.331 22.7846 58.2636 21.6029 58.0152 19.9147C57.5198 16.537 49.8746 16.3501 48.736 12.724C48.0369 10.5001 49.216 8.70875 51.2755 7.94699C54.1905 6.86992 57.1584 7.60657 59.8375 8.94732L59.8389 8.94871Z" fill="white"/>
<path d="M77.8602 10.604C74.5085 8.07036 69.2173 7.47741 67.4689 12.1414C65.3465 17.8044 69.2996 25.037 75.9402 22.1462C76.6797 21.8239 77.4834 20.7245 77.8616 22.0415C75.3248 23.9208 72.3108 24.5514 69.241 23.6181C59.7148 20.7203 62.6897 6.54126 73.8834 7.39649C74.475 7.44114 77.0592 7.99083 77.4402 8.30474C77.7806 8.58378 77.8127 10.1143 77.8602 10.604Z" fill="white"/>
<path d="M101.844 8.38721L102 10.4618C101.075 10.1102 100.279 9.48799 99.3474 9.1392C88.257 4.99417 88.4691 25.8044 99.4827 22.3849C99.9613 22.2356 101.382 21.3399 101.492 21.3595C101.602 21.379 102.141 21.8492 101.936 22.0459C95.6859 27.0824 85.836 22.0333 88.0072 13.7028C89.5086 7.94076 96.851 6.02101 101.842 8.3886L101.844 8.38721Z" fill="white"/>
<path d="M23.0234 11.1596C24.1662 9.93886 25.1988 8.68461 26.7937 8.0233C28.3886 7.36199 30.0002 7.35362 31.6747 7.5336L30.1398 9.70447C29.2174 9.50357 28.5728 9.1199 27.5737 9.22175C22.6634 9.72261 22.7834 17.3402 23.0248 20.8546C23.0862 21.7545 23.2815 22.7311 23.5815 23.5766H19.3954C19.4582 23.2236 19.6354 22.9474 19.7233 22.5791C20.2229 20.4891 20.1754 11.6772 19.634 9.59565C19.4833 9.01945 19.2656 8.46975 18.9768 7.95075H22.7443C22.7262 8.23816 23.0234 8.79901 23.0234 8.99713V11.1596Z" fill="white"/>
<path d="M84.8384 7.95201C84.5705 8.68726 84.3347 9.60946 84.2747 10.388C84.0487 13.3304 84.0794 18.039 84.2733 21.0024C84.3291 21.859 84.5105 22.7868 84.8384 23.5765H80.6523C80.7751 23.0114 81.0221 22.5789 81.0765 21.9776C81.3542 18.964 81.3556 12.6998 81.0765 9.68759C81.0207 9.07791 80.75 8.54495 80.6523 7.94922H84.8384V7.95201Z" fill="white"/>
<path d="M82.6993 5.53927C83.7459 5.53927 84.5943 4.69101 84.5943 3.64463C84.5943 2.59826 83.7459 1.75 82.6993 1.75C81.6528 1.75 80.8044 2.59826 80.8044 3.64463C80.8044 4.69101 81.6528 5.53927 82.6993 5.53927Z" fill="white"/>
</g>
<defs>
<clipPath id="clip0_136_2">
<rect width="102" height="24.0833" fill="white"/>
</clipPath>
</defs>
</svg>
