<svg width="113" height="63" viewBox="0 0 113 63" fill="none" xmlns="http://www.w3.org/2000/svg">
<path d="M57.5702 24.6495H63.772V24.2303H63.5533C62.2412 24.2303 61.8039 23.8811 61.8039 22.3267V13.245C61.8039 11.8915 62.1538 11.4985 63.4659 11.4549V11.0444H57.8326V11.4636H58.2524C59.6083 11.4636 59.9844 11.9002 59.9844 13.0616V17.3754H52.208V13.5681C52.208 11.8827 52.4705 11.4636 54.0275 11.4636V11.0444H48.8141V11.4636C50.0212 11.5509 50.3886 11.8827 50.3886 13.018V22.6498C50.3886 23.8985 49.9512 24.2478 48.6566 24.2478H48.5254V24.667H54.0275V24.2478H53.9575C52.488 24.2478 52.208 23.7413 52.208 22.3267V18.1701H59.9844V22.6149C59.9844 23.7501 59.6783 24.2565 58.2524 24.2565H57.5702V24.6495Z" fill="#999999"/>
<path d="M107.92 10.7126H107.5C107.482 10.8436 107.386 10.9309 107.255 10.9746C107.124 11.0182 106.966 11.0444 106.818 11.0444H96.4083C96.2509 11.0444 96.1022 11.027 95.971 10.9746C95.8397 10.9309 95.7523 10.8436 95.726 10.7126H95.3062L95.2974 11.0008L95.0525 14.258H95.4636C95.5861 12.2233 95.9535 11.8303 96.9507 11.8303H100.747V22.5974C100.747 23.7326 100.441 24.2391 99.015 24.2391H98.3327V24.6582H104.535V24.2303H104.316C103.004 24.2303 102.566 23.8811 102.566 22.3267V11.8303H106.258C107.255 11.8303 107.377 12.2233 107.5 14.258H107.911V11.0008L107.92 10.7126Z" fill="#999999"/>
<path d="M87.6085 23.0515V12.9656C87.6085 11.612 87.9846 11.4549 89.4017 11.4549H90.2152V11.0444H83.7509V11.4636H84.0571C85.4392 11.4636 85.7891 11.9439 85.7891 13.1053V22.7982C85.7891 23.916 85.4129 24.2391 84.407 24.2391H83.6809V24.6582H93.478L94.6763 21.9949H94.2127C93.4605 23.3047 93.1543 23.8723 91.7023 23.8723H88.4832C87.8447 23.8636 87.6085 23.6453 87.6085 23.0515Z" fill="#999999"/>
<path d="M81.3367 11.4549V11.0444H76.2107V11.4549C78.0214 11.5422 78.3451 11.9089 78.3451 14.0047C78.3451 14.0047 78.3451 18.2661 78.3451 19.4188C78.3451 22.938 76.0883 24.0382 74.1026 24.0382C72.0295 24.0382 69.8602 22.4053 69.8602 19.4188C69.8602 18.2225 69.8602 13.0878 69.8602 13.0878C69.8602 11.8216 70.385 11.4549 71.5834 11.4549H71.7758V11.0444H66.1688V11.4549C67.6558 11.4811 68.0407 11.6906 68.0407 13.0878C68.0407 13.0878 68.0407 18.4058 68.0407 19.4887C68.0407 23.8811 71.4784 25.1822 73.6915 25.1822C77.6978 25.1822 79.3423 22.2132 79.3423 19.4887C79.3423 18.598 79.3423 13.4546 79.3423 13.4546C79.351 12.0661 79.8759 11.4723 81.3367 11.4549Z" fill="#999999"/>
<path d="M49.7324 35.3197V31.1107H50.2573V35.3197H49.7324Z" fill="#999999"/>
<path d="M54.9896 35.3197L52.5316 31.9577V35.3197H52.0067V31.1107H52.5403L54.9721 34.4028V31.1107H55.4969V35.3197H54.9896Z" fill="#999999"/>
<path d="M58.0337 35.3197V31.5735H56.6953V31.1107H59.8968V31.5735H58.5585V35.3197H58.0337Z" fill="#999999"/>
<path d="M61.104 35.3197V31.1107H63.8681V31.5735H61.6288V32.927H63.8244V33.3985H61.6288V34.8481H63.8681V35.3109H61.104V35.3197Z" fill="#999999"/>
<path d="M67.9007 35.3197L66.8335 33.6431H65.985V35.3197H65.4602V31.1107H67.1571C67.9269 31.1107 68.4867 31.5997 68.4867 32.3769C68.4867 33.1366 67.9619 33.547 67.3846 33.5994L68.5217 35.3197H67.9007ZM67.9356 32.3769C67.9356 31.8966 67.5857 31.5735 67.0872 31.5735H65.9762V33.1802H67.0872C67.5945 33.189 67.9356 32.8571 67.9356 32.3769Z" fill="#999999"/>
<path d="M73.0528 35.3197L70.5948 31.9577V35.3197H70.07V31.1107H70.6036L73.0353 34.4028V31.1107H73.5602V35.3197H73.0528Z" fill="#999999"/>
<path d="M78.31 35.3197L77.9338 34.3766H75.8345L75.4671 35.3197H74.8635L76.5605 31.1107H77.2078L78.9048 35.3197H78.31ZM76.8842 31.6521L75.9919 33.9225H77.7851L76.8842 31.6521Z" fill="#999999"/>
<path d="M80.7155 35.3197V31.5735H79.3772V31.1107H82.5787V31.5735H81.2403V35.3197H80.7155Z" fill="#999999"/>
<path d="M84.0395 35.3197V31.1107H84.5643V35.3197H84.0395Z" fill="#999999"/>
<path d="M86.0164 33.2239C86.0164 31.9839 86.8649 31.0495 88.107 31.0495C89.3491 31.0495 90.2064 31.9839 90.2064 33.2239C90.2064 34.4639 89.3491 35.3983 88.107 35.3983C86.8649 35.3983 86.0164 34.4639 86.0164 33.2239ZM89.664 33.2239C89.664 32.2371 89.0517 31.5123 88.107 31.5123C87.1535 31.5123 86.5587 32.2371 86.5587 33.2239C86.5587 34.2019 87.1623 34.9354 88.107 34.9354C89.0517 34.9267 89.664 34.2019 89.664 33.2239Z" fill="#999999"/>
<path d="M94.5188 35.3197L92.0608 31.9577V35.3197H91.5359V31.1107H92.0695L94.5013 34.4028V31.1107H95.0261V35.3197H94.5188Z" fill="#999999"/>
<path d="M99.6535 35.3197L99.2773 34.3766H97.178L96.8018 35.3197H96.1983L97.8953 31.1107H98.5426L100.24 35.3197H99.6535ZM98.2277 31.6521L97.3354 33.9225H99.1286L98.2277 31.6521Z" fill="#999999"/>
<path d="M101.622 35.3197V31.1107H102.146V34.8568H104.106V35.3197H101.622Z" fill="#999999"/>
<path d="M49.7324 43.6943V39.4853H51.6131C52.3479 39.4853 52.794 39.9306 52.794 40.5594C52.794 41.0921 52.4441 41.4414 52.0505 41.5287C52.4966 41.5985 52.8727 42.0614 52.8727 42.5678C52.8727 43.2402 52.4266 43.703 51.6481 43.703L49.7324 43.6943ZM52.2517 40.6292C52.2517 40.2537 51.998 39.9481 51.5256 39.9481H50.2573V41.3016H51.5256C51.998 41.3016 52.2517 41.0135 52.2517 40.6292ZM52.3391 42.498C52.3391 42.1137 52.0767 41.7732 51.5606 41.7732H50.266V43.2228H51.5606C52.0417 43.2228 52.3391 42.9433 52.3391 42.498Z" fill="#999999"/>
<path d="M54.0974 42.0614V39.4853H54.631V42.0526C54.631 42.8211 55.0421 43.3101 55.8206 43.3101C56.5991 43.3101 57.019 42.8211 57.019 42.0526V39.4853H57.5526V42.0526C57.5526 43.1005 56.9665 43.7729 55.8293 43.7729C54.6747 43.7729 54.0974 43.0918 54.0974 42.0614Z" fill="#999999"/>
<path d="M58.5323 43.1005L58.8472 42.6988C59.1183 43.0132 59.5732 43.3014 60.168 43.3014C60.9203 43.3014 61.1565 42.8997 61.1565 42.5678C61.1565 41.485 58.6547 42.0875 58.6547 40.5856C58.6547 39.887 59.2758 39.4067 60.1068 39.4067C60.7453 39.4067 61.2439 39.625 61.6026 40.0005L61.2877 40.3847C60.9728 40.0354 60.5266 39.8783 60.063 39.8783C59.5644 39.8783 59.1971 40.149 59.1971 40.5506C59.1971 41.4937 61.6988 40.9523 61.6988 42.5242C61.6988 43.1267 61.2789 43.7642 60.1418 43.7642C59.4245 43.7729 58.8822 43.4935 58.5323 43.1005Z" fill="#999999"/>
<path d="M63.1246 43.6943V39.4853H63.6494V43.6943H63.1246Z" fill="#999999"/>
<path d="M68.373 43.6943L65.915 40.3323V43.6943H65.3902V39.4853H65.9238L68.3555 42.7774V39.4853H68.8804V43.6943H68.373Z" fill="#999999"/>
<path d="M70.5074 43.6943V39.4853H73.2715V39.9481H71.0322V41.3016H73.2278V41.7732H71.0322V43.2228H73.2715V43.6856H70.5074V43.6943Z" fill="#999999"/>
<path d="M74.6099 43.1005L74.9248 42.6988C75.1959 43.0132 75.6508 43.3014 76.2456 43.3014C76.9979 43.3014 77.2341 42.8997 77.2341 42.5678C77.2341 41.485 74.7323 42.0875 74.7323 40.5856C74.7323 39.887 75.3534 39.4067 76.1844 39.4067C76.8229 39.4067 77.3215 39.625 77.6802 40.0005L77.3653 40.3847C77.0504 40.0354 76.6043 39.8783 76.1406 39.8783C75.642 39.8783 75.2747 40.149 75.2747 40.5506C75.2747 41.4937 77.7764 40.9523 77.7764 42.5242C77.7764 43.1267 77.3565 43.7642 76.2194 43.7642C75.5021 43.7729 74.9598 43.4935 74.6099 43.1005Z" fill="#999999"/>
<path d="M78.9485 43.1005L79.2634 42.6988C79.5346 43.0132 79.9895 43.3014 80.5843 43.3014C81.3366 43.3014 81.5727 42.8997 81.5727 42.5678C81.5727 41.485 79.071 42.0875 79.071 40.5856C79.071 39.887 79.6921 39.4067 80.5231 39.4067C81.1616 39.4067 81.6602 39.625 82.0188 40.0005L81.7039 40.3847C81.389 40.0354 80.9429 39.8783 80.4793 39.8783C79.9807 39.8783 79.6133 40.149 79.6133 40.5506C79.6133 41.4937 82.1151 40.9523 82.1151 42.5242C82.1151 43.1267 81.6952 43.7642 80.558 43.7642C79.8408 43.7729 79.2984 43.4935 78.9485 43.1005Z" fill="#999999"/>
<path d="M85.5615 43.1005L85.8764 42.6988C86.1476 43.0132 86.6025 43.3014 87.1973 43.3014C87.9495 43.3014 88.1857 42.8997 88.1857 42.5678C88.1857 41.485 85.684 42.0875 85.684 40.5856C85.684 39.887 86.305 39.4067 87.136 39.4067C87.7746 39.4067 88.2732 39.625 88.6318 40.0005L88.3169 40.3847C88.002 40.0354 87.5559 39.8783 87.0923 39.8783C86.5937 39.8783 86.2263 40.149 86.2263 40.5506C86.2263 41.4937 88.7281 40.9523 88.7281 42.5242C88.7281 43.1267 88.3082 43.7642 87.171 43.7642C86.4538 43.7729 85.9114 43.4935 85.5615 43.1005Z" fill="#999999"/>
<path d="M89.734 41.5898C89.734 40.2974 90.6875 39.4154 91.9033 39.4154C92.6469 39.4154 93.1717 39.7647 93.5041 40.245L93.0667 40.4895C92.8306 40.1315 92.3844 39.8783 91.9033 39.8783C90.9761 39.8783 90.2763 40.5768 90.2763 41.5898C90.2763 42.5853 90.9761 43.3014 91.9033 43.3014C92.3844 43.3014 92.8306 43.0394 93.0667 42.6901L93.5128 42.9259C93.163 43.4149 92.6556 43.7642 91.9033 43.7642C90.6875 43.7729 89.734 42.8822 89.734 41.5898Z" fill="#999999"/>
<path d="M97.8078 43.6943V41.7645H95.341V43.6943H94.8162V39.4853H95.341V41.2929H97.8078V39.4853H98.3326V43.6943H97.8078Z" fill="#999999"/>
<path d="M99.6535 41.5898C99.6535 40.3498 100.502 39.4154 101.744 39.4154C102.986 39.4154 103.843 40.3498 103.843 41.5898C103.843 42.8298 102.986 43.7642 101.744 43.7642C100.502 43.7729 99.6535 42.8298 99.6535 41.5898ZM103.31 41.5898C103.31 40.603 102.698 39.8783 101.753 39.8783C100.799 39.8783 100.205 40.603 100.205 41.5898C100.205 42.5678 100.808 43.3014 101.753 43.3014C102.689 43.3014 103.31 42.5678 103.31 41.5898Z" fill="#999999"/>
<path d="M104.867 41.5898C104.867 40.3498 105.715 39.4154 106.957 39.4154C108.2 39.4154 109.057 40.3498 109.057 41.5898C109.057 42.8298 108.2 43.7642 106.957 43.7642C105.715 43.7729 104.867 42.8298 104.867 41.5898ZM108.523 41.5898C108.523 40.603 107.911 39.8783 106.966 39.8783C106.013 39.8783 105.418 40.603 105.418 41.5898C105.418 42.5678 106.022 43.3014 106.966 43.3014C107.911 43.3014 108.523 42.5678 108.523 41.5898Z" fill="#999999"/>
<path d="M110.316 43.6943V39.4853H110.841V43.2315H112.801V43.6943H110.316Z" fill="#999999"/>
<path d="M26.0187 6.76512V4.98371L21.2427 0.21582L16.4666 4.98371V6.76512H0.152832V33.5299C0.152832 44.4978 9.09261 53.4223 20.0793 53.4223H21.0415V59.7795C21.0415 61.1243 22.1349 62.2158 23.482 62.2158V61.8229C22.3536 61.8229 21.4351 60.906 21.4351 59.7795V53.4223H22.406C33.3927 53.4223 42.3325 44.4978 42.3325 33.5299V6.76512H26.0187ZM21.4351 0.975539L25.6163 5.14962V13.7598L21.4351 17.9338V0.975539ZM21.0415 28.4389V30.9538L19.0733 32.9186L15.0233 28.8843L18.2511 25.6533L21.0415 28.4389ZM18.5397 25.3826L21.0415 22.8851V27.88L18.5397 25.3826ZM21.0415 31.5127V34.8747L19.3532 33.1893L21.0415 31.5127ZM21.4351 31.5215L23.1146 33.1981L21.4351 34.8747V31.5215ZM21.4351 30.9713V28.4739L24.2255 25.6882L27.4445 28.9017L23.3945 32.9361L21.4351 30.9713ZM21.4351 27.9062V22.8938L23.9456 25.4L21.4351 27.9062ZM21.0415 22.3262L18.2598 25.1031L7.16819 14.0305H13.7724L21.0415 21.2871V22.3262ZM17.9799 25.3826L14.7434 28.6136L6.86204 20.7631V14.2924L17.9799 25.3826ZM18.7934 33.1981L14.7171 37.2674L7.58807 30.1767V23.6099L13.0377 29.0502H14.6297L18.7934 33.1981ZM20.989 44.0786L19.6769 45.3885H14.7609L8.31409 38.9527V33.0234L12.9939 37.6865H14.5684L20.989 44.0786ZM14.9971 37.5555L19.0733 33.4862L21.0415 35.4423V43.5809L14.9971 37.5555ZM21.4351 35.4423L23.3945 33.4862L27.4708 37.5555L21.4263 43.5809V35.4423H21.4351ZM27.8994 37.6953H29.4739L34.1537 33.0322V38.9527L27.7069 45.3885H22.7997L21.4876 44.0786L27.8994 37.6953ZM27.7594 37.2761L23.6832 33.2068L27.8381 29.0589H29.4214L34.8972 23.6012V30.1592L27.7594 37.2761ZM27.7244 28.6136L24.5054 25.4L35.6058 14.3186V20.7457L27.7244 28.6136ZM24.2255 25.1206L21.4351 22.335V21.2871L28.7041 14.0305H35.3346L24.2255 25.1206ZM16.8602 5.14962L21.0415 0.975539V17.9338L16.8602 13.751V5.14962ZM20.0793 53.0293C9.31129 53.0293 0.546462 44.2795 0.546462 33.5299V7.15807H16.4579V13.9169L21.0415 18.4927V20.7369L13.9299 13.6375H6.46841V20.9291L14.2273 28.666H13.1951L7.19444 22.6581V30.3426L14.1748 37.2936H13.1601L7.92046 32.0716V39.1186L14.5947 45.7815H19.8343L21.0415 44.5764V53.0206L20.0793 53.0293ZM41.9388 33.5299C41.9388 44.2795 33.174 53.0293 22.406 53.0293H21.4351V44.5851L22.6335 45.7815H27.8731L34.5561 39.1186V32.0803L29.3077 37.3023H28.293L35.2821 30.3339V22.6581L29.2465 28.6747H28.2318L35.9994 20.9291V13.6462H28.5467L21.4351 20.7457V18.5015L26.0099 13.9344V7.15807H41.9388V33.5299Z" fill="#999999"/>
<path d="M57.5702 24.6495H63.772V24.2303H63.5533C62.2412 24.2303 61.8039 23.8811 61.8039 22.3267V13.245C61.8039 11.8915 62.1538 11.4985 63.4659 11.4549V11.0444H57.8326V11.4636H58.2524C59.6083 11.4636 59.9844 11.9002 59.9844 13.0616V17.3754H52.208V13.5681C52.208 11.8827 52.4705 11.4636 54.0275 11.4636V11.0444H48.8141V11.4636C50.0212 11.5509 50.3886 11.8827 50.3886 13.018V22.6498C50.3886 23.8985 49.9512 24.2478 48.6566 24.2478H48.5254V24.667H54.0275V24.2478H53.9575C52.488 24.2478 52.208 23.7413 52.208 22.3267V18.1701H59.9844V22.6149C59.9844 23.7501 59.6783 24.2565 58.2524 24.2565H57.5702V24.6495Z" stroke="#999999" stroke-width="0.305634" stroke-miterlimit="10"/>
<path d="M107.92 10.7126H107.5C107.482 10.8436 107.386 10.9309 107.255 10.9746C107.124 11.0182 106.966 11.0444 106.818 11.0444H96.4083C96.2509 11.0444 96.1022 11.027 95.971 10.9746C95.8397 10.9309 95.7523 10.8436 95.726 10.7126H95.3062L95.2974 11.0008L95.0525 14.258H95.4636C95.5861 12.2233 95.9535 11.8303 96.9507 11.8303H100.747V22.5974C100.747 23.7326 100.441 24.2391 99.015 24.2391H98.3327V24.6582H104.535V24.2303H104.316C103.004 24.2303 102.566 23.8811 102.566 22.3267V11.8303H106.258C107.255 11.8303 107.377 12.2233 107.5 14.258H107.911V11.0008L107.92 10.7126Z" stroke="#999999" stroke-width="0.305634" stroke-miterlimit="10"/>
<path d="M87.6085 23.0515V12.9656C87.6085 11.612 87.9846 11.4549 89.4017 11.4549H90.2152V11.0444H83.7509V11.4636H84.0571C85.4392 11.4636 85.7891 11.9439 85.7891 13.1053V22.7982C85.7891 23.916 85.4129 24.2391 84.407 24.2391H83.6809V24.6582H93.478L94.6763 21.9949H94.2127C93.4605 23.3047 93.1543 23.8723 91.7023 23.8723H88.4832C87.8447 23.8636 87.6085 23.6453 87.6085 23.0515Z" stroke="#999999" stroke-width="0.305634" stroke-miterlimit="10"/>
<path d="M81.3367 11.4549V11.0444H76.2107V11.4549C78.0214 11.5422 78.3451 11.9089 78.3451 14.0047C78.3451 14.0047 78.3451 18.2661 78.3451 19.4188C78.3451 22.938 76.0883 24.0382 74.1026 24.0382C72.0295 24.0382 69.8602 22.4053 69.8602 19.4188C69.8602 18.2225 69.8602 13.0878 69.8602 13.0878C69.8602 11.8216 70.385 11.4549 71.5834 11.4549H71.7758V11.0444H66.1688V11.4549C67.6558 11.4811 68.0407 11.6906 68.0407 13.0878C68.0407 13.0878 68.0407 18.4058 68.0407 19.4887C68.0407 23.8811 71.4784 25.1822 73.6915 25.1822C77.6978 25.1822 79.3423 22.2132 79.3423 19.4887C79.3423 18.598 79.3423 13.4546 79.3423 13.4546C79.351 12.0661 79.8759 11.4723 81.3367 11.4549Z" stroke="#999999" stroke-width="0.305634" stroke-miterlimit="10"/>
<path d="M49.7324 35.3197V31.1107H50.2573V35.3197H49.7324Z" stroke="#999999" stroke-width="0.305634" stroke-miterlimit="10"/>
<path d="M54.9896 35.3197L52.5316 31.9577V35.3197H52.0067V31.1107H52.5403L54.9721 34.4028V31.1107H55.4969V35.3197H54.9896Z" stroke="#999999" stroke-width="0.305634" stroke-miterlimit="10"/>
<path d="M58.0337 35.3197V31.5735H56.6953V31.1107H59.8968V31.5735H58.5585V35.3197H58.0337Z" stroke="#999999" stroke-width="0.305634" stroke-miterlimit="10"/>
<path d="M61.104 35.3197V31.1107H63.8681V31.5735H61.6288V32.927H63.8244V33.3985H61.6288V34.8481H63.8681V35.3109H61.104V35.3197Z" stroke="#999999" stroke-width="0.305634" stroke-miterlimit="10"/>
<path d="M67.9007 35.3197L66.8335 33.6431H65.985V35.3197H65.4602V31.1107H67.1571C67.9269 31.1107 68.4867 31.5997 68.4867 32.3769C68.4867 33.1366 67.9619 33.547 67.3846 33.5994L68.5217 35.3197H67.9007ZM67.9356 32.3769C67.9356 31.8966 67.5857 31.5735 67.0872 31.5735H65.9762V33.1802H67.0872C67.5945 33.189 67.9356 32.8571 67.9356 32.3769Z" stroke="#999999" stroke-width="0.305634" stroke-miterlimit="10"/>
<path d="M73.0528 35.3197L70.5948 31.9577V35.3197H70.07V31.1107H70.6036L73.0353 34.4028V31.1107H73.5602V35.3197H73.0528Z" stroke="#999999" stroke-width="0.305634" stroke-miterlimit="10"/>
<path d="M78.31 35.3197L77.9338 34.3766H75.8345L75.4671 35.3197H74.8635L76.5605 31.1107H77.2078L78.9048 35.3197H78.31ZM76.8842 31.6521L75.9919 33.9225H77.7851L76.8842 31.6521Z" stroke="#999999" stroke-width="0.305634" stroke-miterlimit="10"/>
<path d="M80.7155 35.3197V31.5735H79.3772V31.1107H82.5787V31.5735H81.2403V35.3197H80.7155Z" stroke="#999999" stroke-width="0.305634" stroke-miterlimit="10"/>
<path d="M84.0395 35.3197V31.1107H84.5643V35.3197H84.0395Z" stroke="#999999" stroke-width="0.305634" stroke-miterlimit="10"/>
<path d="M86.0164 33.2239C86.0164 31.9839 86.8649 31.0495 88.107 31.0495C89.3491 31.0495 90.2064 31.9839 90.2064 33.2239C90.2064 34.4639 89.3491 35.3983 88.107 35.3983C86.8649 35.3983 86.0164 34.4639 86.0164 33.2239ZM89.664 33.2239C89.664 32.2371 89.0517 31.5123 88.107 31.5123C87.1535 31.5123 86.5587 32.2371 86.5587 33.2239C86.5587 34.2019 87.1623 34.9354 88.107 34.9354C89.0517 34.9267 89.664 34.2019 89.664 33.2239Z" stroke="#999999" stroke-width="0.305634" stroke-miterlimit="10"/>
<path d="M94.5188 35.3197L92.0608 31.9577V35.3197H91.5359V31.1107H92.0695L94.5013 34.4028V31.1107H95.0261V35.3197H94.5188Z" stroke="#999999" stroke-width="0.305634" stroke-miterlimit="10"/>
<path d="M99.6535 35.3197L99.2773 34.3766H97.178L96.8018 35.3197H96.1983L97.8953 31.1107H98.5426L100.24 35.3197H99.6535ZM98.2277 31.6521L97.3354 33.9225H99.1286L98.2277 31.6521Z" stroke="#999999" stroke-width="0.305634" stroke-miterlimit="10"/>
<path d="M101.622 35.3197V31.1107H102.146V34.8568H104.106V35.3197H101.622Z" stroke="#999999" stroke-width="0.305634" stroke-miterlimit="10"/>
<path d="M49.7324 43.6943V39.4853H51.6131C52.3479 39.4853 52.794 39.9306 52.794 40.5594C52.794 41.0921 52.4441 41.4414 52.0505 41.5287C52.4966 41.5985 52.8727 42.0614 52.8727 42.5678C52.8727 43.2402 52.4266 43.703 51.6481 43.703L49.7324 43.6943ZM52.2517 40.6292C52.2517 40.2537 51.998 39.9481 51.5256 39.9481H50.2573V41.3016H51.5256C51.998 41.3016 52.2517 41.0135 52.2517 40.6292ZM52.3391 42.498C52.3391 42.1137 52.0767 41.7732 51.5606 41.7732H50.266V43.2228H51.5606C52.0417 43.2228 52.3391 42.9433 52.3391 42.498Z" stroke="#999999" stroke-width="0.305634" stroke-miterlimit="10"/>
<path d="M54.0974 42.0614V39.4853H54.631V42.0526C54.631 42.8211 55.0421 43.3101 55.8206 43.3101C56.5991 43.3101 57.019 42.8211 57.019 42.0526V39.4853H57.5526V42.0526C57.5526 43.1005 56.9665 43.7729 55.8293 43.7729C54.6747 43.7729 54.0974 43.0918 54.0974 42.0614Z" stroke="#999999" stroke-width="0.305634" stroke-miterlimit="10"/>
<path d="M58.5323 43.1005L58.8472 42.6988C59.1183 43.0132 59.5732 43.3014 60.168 43.3014C60.9203 43.3014 61.1565 42.8997 61.1565 42.5678C61.1565 41.485 58.6547 42.0875 58.6547 40.5856C58.6547 39.887 59.2758 39.4067 60.1068 39.4067C60.7453 39.4067 61.2439 39.625 61.6026 40.0005L61.2877 40.3847C60.9728 40.0354 60.5266 39.8783 60.063 39.8783C59.5644 39.8783 59.1971 40.149 59.1971 40.5506C59.1971 41.4937 61.6988 40.9523 61.6988 42.5242C61.6988 43.1267 61.2789 43.7642 60.1418 43.7642C59.4245 43.7729 58.8822 43.4935 58.5323 43.1005Z" stroke="#999999" stroke-width="0.305634" stroke-miterlimit="10"/>
<path d="M63.1246 43.6943V39.4853H63.6494V43.6943H63.1246Z" stroke="#999999" stroke-width="0.305634" stroke-miterlimit="10"/>
<path d="M68.373 43.6943L65.915 40.3323V43.6943H65.3902V39.4853H65.9238L68.3555 42.7774V39.4853H68.8804V43.6943H68.373Z" stroke="#999999" stroke-width="0.305634" stroke-miterlimit="10"/>
<path d="M70.5074 43.6943V39.4853H73.2715V39.9481H71.0322V41.3016H73.2278V41.7732H71.0322V43.2228H73.2715V43.6856H70.5074V43.6943Z" stroke="#999999" stroke-width="0.305634" stroke-miterlimit="10"/>
<path d="M74.6099 43.1005L74.9248 42.6988C75.1959 43.0132 75.6508 43.3014 76.2456 43.3014C76.9979 43.3014 77.2341 42.8997 77.2341 42.5678C77.2341 41.485 74.7323 42.0875 74.7323 40.5856C74.7323 39.887 75.3534 39.4067 76.1844 39.4067C76.8229 39.4067 77.3215 39.625 77.6802 40.0005L77.3653 40.3847C77.0504 40.0354 76.6043 39.8783 76.1406 39.8783C75.642 39.8783 75.2747 40.149 75.2747 40.5506C75.2747 41.4937 77.7764 40.9523 77.7764 42.5242C77.7764 43.1267 77.3565 43.7642 76.2194 43.7642C75.5021 43.7729 74.9598 43.4935 74.6099 43.1005Z" stroke="#999999" stroke-width="0.305634" stroke-miterlimit="10"/>
<path d="M78.9485 43.1005L79.2634 42.6988C79.5346 43.0132 79.9895 43.3014 80.5843 43.3014C81.3366 43.3014 81.5727 42.8997 81.5727 42.5678C81.5727 41.485 79.071 42.0875 79.071 40.5856C79.071 39.887 79.6921 39.4067 80.5231 39.4067C81.1616 39.4067 81.6602 39.625 82.0188 40.0005L81.7039 40.3847C81.389 40.0354 80.9429 39.8783 80.4793 39.8783C79.9807 39.8783 79.6133 40.149 79.6133 40.5506C79.6133 41.4937 82.1151 40.9523 82.1151 42.5242C82.1151 43.1267 81.6952 43.7642 80.558 43.7642C79.8408 43.7729 79.2984 43.4935 78.9485 43.1005Z" stroke="#999999" stroke-width="0.305634" stroke-miterlimit="10"/>
<path d="M85.5615 43.1005L85.8764 42.6988C86.1476 43.0132 86.6025 43.3014 87.1973 43.3014C87.9495 43.3014 88.1857 42.8997 88.1857 42.5678C88.1857 41.485 85.684 42.0875 85.684 40.5856C85.684 39.887 86.305 39.4067 87.136 39.4067C87.7746 39.4067 88.2732 39.625 88.6318 40.0005L88.3169 40.3847C88.002 40.0354 87.5559 39.8783 87.0923 39.8783C86.5937 39.8783 86.2263 40.149 86.2263 40.5506C86.2263 41.4937 88.7281 40.9523 88.7281 42.5242C88.7281 43.1267 88.3082 43.7642 87.171 43.7642C86.4538 43.7729 85.9114 43.4935 85.5615 43.1005Z" stroke="#999999" stroke-width="0.305634" stroke-miterlimit="10"/>
<path d="M89.734 41.5898C89.734 40.2974 90.6875 39.4154 91.9033 39.4154C92.6469 39.4154 93.1717 39.7647 93.5041 40.245L93.0667 40.4895C92.8306 40.1315 92.3844 39.8783 91.9033 39.8783C90.9761 39.8783 90.2763 40.5768 90.2763 41.5898C90.2763 42.5853 90.9761 43.3014 91.9033 43.3014C92.3844 43.3014 92.8306 43.0394 93.0667 42.6901L93.5128 42.9259C93.163 43.4149 92.6556 43.7642 91.9033 43.7642C90.6875 43.7729 89.734 42.8822 89.734 41.5898Z" stroke="#999999" stroke-width="0.305634" stroke-miterlimit="10"/>
<path d="M97.8078 43.6943V41.7645H95.341V43.6943H94.8162V39.4853H95.341V41.2929H97.8078V39.4853H98.3326V43.6943H97.8078Z" stroke="#999999" stroke-width="0.305634" stroke-miterlimit="10"/>
<path d="M99.6535 41.5898C99.6535 40.3498 100.502 39.4154 101.744 39.4154C102.986 39.4154 103.843 40.3498 103.843 41.5898C103.843 42.8298 102.986 43.7642 101.744 43.7642C100.502 43.7729 99.6535 42.8298 99.6535 41.5898ZM103.31 41.5898C103.31 40.603 102.698 39.8783 101.753 39.8783C100.799 39.8783 100.205 40.603 100.205 41.5898C100.205 42.5678 100.808 43.3014 101.753 43.3014C102.689 43.3014 103.31 42.5678 103.31 41.5898Z" stroke="#999999" stroke-width="0.305634" stroke-miterlimit="10"/>
<path d="M104.867 41.5898C104.867 40.3498 105.715 39.4154 106.957 39.4154C108.2 39.4154 109.057 40.3498 109.057 41.5898C109.057 42.8298 108.2 43.7642 106.957 43.7642C105.715 43.7729 104.867 42.8298 104.867 41.5898ZM108.523 41.5898C108.523 40.603 107.911 39.8783 106.966 39.8783C106.013 39.8783 105.418 40.603 105.418 41.5898C105.418 42.5678 106.022 43.3014 106.966 43.3014C107.911 43.3014 108.523 42.5678 108.523 41.5898Z" stroke="#999999" stroke-width="0.305634" stroke-miterlimit="10"/>
<path d="M110.316 43.6943V39.4853H110.841V43.2315H112.801V43.6943H110.316Z" stroke="#999999" stroke-width="0.305634" stroke-miterlimit="10"/>
<path d="M26.0187 6.76512V4.98371L21.2427 0.21582L16.4666 4.98371V6.76512H0.152832V33.5299C0.152832 44.4978 9.09261 53.4223 20.0793 53.4223H21.0415V59.7795C21.0415 61.1243 22.1349 62.2158 23.482 62.2158V61.8229C22.3536 61.8229 21.4351 60.906 21.4351 59.7795V53.4223H22.406C33.3927 53.4223 42.3325 44.4978 42.3325 33.5299V6.76512H26.0187ZM21.4351 0.975539L25.6163 5.14962V13.7598L21.4351 17.9338V0.975539ZM21.0415 28.4389V30.9538L19.0733 32.9186L15.0233 28.8843L18.2511 25.6533L21.0415 28.4389ZM18.5397 25.3826L21.0415 22.8851V27.88L18.5397 25.3826ZM21.0415 31.5127V34.8747L19.3532 33.1893L21.0415 31.5127ZM21.4351 31.5215L23.1146 33.1981L21.4351 34.8747V31.5215ZM21.4351 30.9713V28.4739L24.2255 25.6882L27.4445 28.9017L23.3945 32.9361L21.4351 30.9713ZM21.4351 27.9062V22.8938L23.9456 25.4L21.4351 27.9062ZM21.0415 22.3262L18.2598 25.1031L7.16819 14.0305H13.7724L21.0415 21.2871V22.3262ZM17.9799 25.3826L14.7434 28.6136L6.86204 20.7631V14.2924L17.9799 25.3826ZM18.7934 33.1981L14.7171 37.2674L7.58807 30.1767V23.6099L13.0377 29.0502H14.6297L18.7934 33.1981ZM20.989 44.0786L19.6769 45.3885H14.7609L8.31409 38.9527V33.0234L12.9939 37.6865H14.5684L20.989 44.0786ZM14.9971 37.5555L19.0733 33.4862L21.0415 35.4423V43.5809L14.9971 37.5555ZM21.4351 35.4423L23.3945 33.4862L27.4708 37.5555L21.4263 43.5809V35.4423H21.4351ZM27.8994 37.6953H29.4739L34.1537 33.0322V38.9527L27.7069 45.3885H22.7997L21.4876 44.0786L27.8994 37.6953ZM27.7594 37.2761L23.6832 33.2068L27.8381 29.0589H29.4214L34.8972 23.6012V30.1592L27.7594 37.2761ZM27.7244 28.6136L24.5054 25.4L35.6058 14.3186V20.7457L27.7244 28.6136ZM24.2255 25.1206L21.4351 22.335V21.2871L28.7041 14.0305H35.3346L24.2255 25.1206ZM16.8602 5.14962L21.0415 0.975539V17.9338L16.8602 13.751V5.14962ZM20.0793 53.0293C9.31129 53.0293 0.546462 44.2795 0.546462 33.5299V7.15807H16.4579V13.9169L21.0415 18.4927V20.7369L13.9299 13.6375H6.46841V20.9291L14.2273 28.666H13.1951L7.19444 22.6581V30.3426L14.1748 37.2936H13.1601L7.92046 32.0716V39.1186L14.5947 45.7815H19.8343L21.0415 44.5764V53.0206L20.0793 53.0293ZM41.9388 33.5299C41.9388 44.2795 33.174 53.0293 22.406 53.0293H21.4351V44.5851L22.6335 45.7815H27.8731L34.5561 39.1186V32.0803L29.3077 37.3023H28.293L35.2821 30.3339V22.6581L29.2465 28.6747H28.2318L35.9994 20.9291V13.6462H28.5467L21.4351 20.7457V18.5015L26.0099 13.9344V7.15807H41.9388V33.5299Z" stroke="#999999" stroke-width="0.305634" stroke-miterlimit="10"/>
</svg>
