<svg width="59" height="45" viewBox="0 0 59 45" fill="none" xmlns="http://www.w3.org/2000/svg">
<path d="M43.0764 12.8184C43.0734 13.9681 42.9681 15.3601 42.6702 16.957C41.6609 22.3117 40.9084 26.7118 38.4827 36.2959L38.4514 36.4062C38.0788 37.6816 37.6783 38.861 37.2893 40.0195C37.24 40.0354 37.1921 40.0498 37.1477 40.0664C37.1283 40.0737 37.1094 40.0822 37.0901 40.0898C37.7598 35.6547 37.9173 32.9398 37.885 31.2812C37.8665 30.3313 37.7854 29.702 37.6917 29.2812C37.6778 29.219 37.6604 29.1612 37.6458 29.1064L39.3088 23.9834L39.3147 23.9658L39.3196 23.9492C40.0325 21.5044 40.6537 19.3243 41.0637 18.1143L41.0676 18.1035C41.6232 16.4121 42.3894 14.468 43.0764 12.8184ZM21.3889 14.9473C22.0993 16.869 22.8215 18.9278 23.1077 19.8076L23.1086 19.8105C23.4893 20.9691 24.6762 25.0056 25.5286 27.9434L25.5422 27.9404C25.664 28.3548 25.8348 28.7302 25.967 29.0146C26.0553 29.2045 26.1204 29.3457 26.1692 29.46L26.0139 30.3477L26.0071 30.3867L26.0022 30.4268V30.4297C26.002 30.4313 26.0015 30.434 26.0012 30.4365C26.0007 30.4414 26.0001 30.4479 25.9993 30.4561C25.9976 30.4732 25.9953 30.498 25.9924 30.5293C25.9867 30.5919 25.9791 30.6827 25.97 30.8008C25.9516 31.0374 25.9277 31.3841 25.9065 31.834C25.8641 32.7336 25.8307 34.0473 25.8635 35.7246C25.8743 36.2737 25.884 36.9898 25.8938 37.7773C25.0018 34.4343 23.8496 30.0116 22.9163 26.1348C21.022 18.2458 20.9342 15.8935 20.8967 13.9766V13.959L20.8928 13.7021C20.8929 13.6779 20.8935 13.6539 20.8938 13.6299C21.0531 14.0478 21.2208 14.4924 21.3889 14.9473ZM6.28052 4.59863C7.0526 5.99032 7.74593 7.34707 8.02173 7.90332L8.02271 7.97266L8.15356 8.22363L8.15454 8.22559C8.15494 8.22637 8.15583 8.22722 8.15649 8.22852L8.18481 8.28516C8.20257 8.32124 8.22486 8.36912 8.25317 8.42773C8.30972 8.54481 8.3853 8.70217 8.47778 8.89648C8.66272 9.28502 8.91454 9.81679 9.21704 10.459C9.82192 11.7431 10.6298 13.4667 11.5178 15.3691C13.2946 19.1757 15.3891 23.6932 16.8176 26.8369L16.8196 26.8359C17.8611 29.1573 18.7136 32.2296 19.4553 35.1797C19.6712 36.0384 19.8802 36.8937 20.0813 37.7148C19.6644 36.7868 19.2201 35.7836 18.7688 34.8027C18.2407 33.6549 17.7014 32.5436 17.2053 31.7266C16.9615 31.3251 16.6912 30.9318 16.4016 30.6357C16.2814 30.5129 16.1267 30.3779 15.9407 30.2637C14.6433 26.9965 8.0987 10.3603 6.86841 6.60059C6.63152 5.87662 6.43856 5.20822 6.28052 4.59863ZM32.4143 20.04C32.9208 21.4958 33.0358 23.4096 33.0559 26.1182V26.125C33.0868 28.4722 32.5677 32.1154 32.092 34.7422L32.0471 34.6982L31.6565 36.9102C31.6547 36.9205 31.6525 36.9309 31.6506 36.9414V35.4375C31.6506 32.9866 31.4265 31.3345 31.1858 30.2666C31.0653 29.7321 30.9407 29.3423 30.8372 29.0713C30.8298 29.0519 30.8209 29.0338 30.8137 29.0156C30.8911 28.4392 30.9891 27.7334 31.1086 26.9893L31.261 26.0859L31.262 26.0781L31.634 23.8887C31.8627 22.7975 32.0076 21.8691 32.0725 21.4492C32.1607 21.0579 32.2846 20.556 32.4143 20.04ZM56.9563 5.09473C56.8247 5.7579 56.6373 6.5182 56.3665 7.38281C54.5091 12.924 51.3244 21.3578 49.6907 25.4678L49.6858 25.4805C48.2969 29.0951 47.1507 31.5759 45.7571 34.9668C45.664 35.0232 45.5855 35.0836 45.5208 35.1357C45.2627 35.3438 45.027 35.6203 44.8303 35.874C44.7013 36.0404 44.5671 36.2264 44.4309 36.4229C44.7044 34.7696 44.8168 33.6014 44.8391 32.7676C44.8589 32.0276 44.8118 31.5225 44.7385 31.1602C44.7331 31.1335 44.7246 31.1079 44.719 31.083C44.7251 31.0687 44.7321 31.0542 44.7385 31.0391C44.8495 30.7781 45.0079 30.4109 45.1985 29.9697C45.5794 29.0882 46.0871 27.9185 46.6057 26.7256C47.6353 24.3572 48.7241 21.8557 48.9045 21.4043L48.9163 21.375L48.926 21.3447C48.9273 21.3414 48.9328 21.3259 48.9456 21.2939C48.9602 21.2572 48.9804 21.2083 49.0061 21.1475C49.0575 21.0259 49.1274 20.8663 49.2141 20.6709C49.3874 20.2802 49.6236 19.7602 49.9065 19.1455C50.4721 17.9168 51.2206 16.3194 52.0227 14.6406C53.4673 11.6171 55.0639 8.37427 56.0745 6.52441H56.1096L56.4485 5.94922C56.6265 5.64771 56.7969 5.36367 56.9563 5.09473Z" fill="#C76D31" stroke="#F26D14" stroke-width="2.3697"/>
<path d="M2.65527 20.6035C3.5467 21.383 4.25502 22.1943 4.57422 22.5977L4.58887 22.6162L4.60449 22.6338C4.74339 22.7955 5.14508 23.3991 5.75293 24.3555C6.33246 25.2673 7.02378 26.3769 7.73535 27.5039V27.5049L10.3203 31.832V31.833L10.3213 31.834C10.3217 31.8347 10.3225 31.8356 10.3232 31.8369C10.3248 31.8399 10.3269 31.8447 10.3301 31.8506C10.3364 31.8624 10.346 31.8802 10.3584 31.9033C10.3833 31.9498 10.4204 32.0188 10.4678 32.1074C10.5625 32.2846 10.6991 32.5417 10.8691 32.8604C11.2095 33.4981 11.6815 34.3836 12.207 35.373C12.5243 35.9704 12.8593 36.606 13.1982 37.2471C13.111 37.1945 13.0214 37.1441 12.9307 37.0986C12.7605 36.7768 12.4988 36.4169 12.1338 35.9971C11.5974 35.3803 10.5394 34.3792 9.66504 33.5723C9.21776 33.1595 8.80219 32.7816 8.49805 32.5078C8.36942 32.392 8.26055 32.2947 8.17773 32.2207C8.138 32.1377 8.0878 32.0317 8.02734 31.9053C7.86458 31.565 7.62982 31.0754 7.34473 30.4785C6.77455 29.2848 6.00009 27.6621 5.18359 25.9453C4.32236 24.1344 3.41764 22.2241 2.65527 20.6035Z" fill="#C76D31" stroke="#F26D14" stroke-width="2.3697"/>
</svg>
