<svg width="129" height="39" viewBox="0 0 129 39" fill="none" xmlns="http://www.w3.org/2000/svg">
<path d="M28.9613 9.56726V21.6357C28.9613 21.8313 28.884 22.0189 28.7464 22.1573C28.6088 22.2956 28.4221 22.3733 28.2274 22.3733H24.437C24.2424 22.3732 24.0558 22.2955 23.9181 22.1572C23.7805 22.0189 23.7032 21.8313 23.7031 21.6357V2.00578C23.7031 1.81016 23.7804 1.62254 23.918 1.48421C24.0557 1.34589 24.2423 1.26817 24.437 1.26817H27.9446C28.1393 1.26817 28.3259 1.34589 28.4636 1.48421C28.6012 1.62254 28.6785 1.81016 28.6785 2.00578V4.7702C28.6785 4.7702 29.9324 0.826843 33.6536 0.826843C33.6536 0.826843 37.3344 0.379659 38.831 4.48562C38.831 4.48562 40.0849 0.826843 43.887 0.826843C43.887 0.826843 49.5413 0.488934 49.5413 6.36933L49.5843 9.60791V21.6764C49.5843 21.872 49.507 22.0596 49.3694 22.1979C49.2317 22.3363 49.0451 22.414 48.8504 22.414H45.0596C44.865 22.4139 44.6784 22.3361 44.5408 22.1978C44.4032 22.0595 44.3258 21.872 44.3257 21.6764L44.2911 8.51028C44.3989 5.52894 41.9992 5.74587 41.9992 5.74587C38.9792 5.80018 39.2697 9.60791 39.2697 9.60791V21.6764C39.2697 21.872 39.1924 22.0596 39.0548 22.1979C38.9172 22.3363 38.7305 22.414 38.5359 22.414H34.7454C34.5508 22.4139 34.3642 22.3361 34.2266 22.1978C34.0889 22.0595 34.0116 21.872 34.0115 21.6764V8.80819C34.0115 8.80819 34.2332 5.71855 31.5364 5.71855C31.5367 5.71855 28.8672 5.36633 28.9613 9.56726ZM126.669 9.53116V21.5993C126.669 21.7949 126.592 21.9824 126.454 22.1208C126.316 22.2591 126.13 22.3368 125.935 22.3369L121.993 22.4136C121.798 22.4136 121.612 22.3358 121.474 22.1975C121.337 22.0592 121.259 21.8716 121.259 21.676V8.80819C121.259 8.80819 121.481 5.71855 118.784 5.71855C118.784 5.71855 116.209 5.59106 116.209 10.4353V21.6354C116.209 21.831 116.131 22.0185 115.994 22.1569C115.856 22.2952 115.67 22.3729 115.475 22.373H111.684C111.49 22.3729 111.303 22.2952 111.165 22.1569C111.028 22.0185 110.95 21.831 110.95 21.6354V2.00578C110.95 1.81018 111.028 1.62262 111.165 1.48431C111.303 1.346 111.49 1.26826 111.684 1.26817H115.192C115.387 1.26817 115.573 1.34589 115.711 1.48421C115.848 1.62254 115.926 1.81016 115.926 2.00578V4.7702C115.926 4.7702 117.18 0.826843 120.901 0.826843C120.901 0.826843 124.887 0.218998 126.23 4.4092C126.23 4.40887 126.669 5.27332 126.669 9.53116ZM99.3004 0.745537C94.4531 0.745537 90.5232 4.8515 90.5232 11.7625C90.5232 17.8472 93.5568 22.7795 99.3004 22.7795C104.72 22.7795 108.078 17.8472 108.078 11.7625C108.078 4.97346 104.148 0.745537 99.3004 0.745537ZM102.36 12.0064C102.36 14.6082 102.036 15.9905 102.036 15.9905C101.576 18.7409 99.5893 18.7448 99.2965 18.7301C98.9803 18.7428 96.977 18.7142 96.5625 15.9905C96.5625 15.9905 96.2389 14.6082 96.2389 12.0064V11.5729C96.2389 8.97112 96.5625 7.58892 96.5625 7.58892C96.977 4.86516 98.9807 4.83654 99.2965 4.8489C99.5893 4.83426 101.576 4.83784 102.036 7.58892C102.036 7.58892 102.36 8.97112 102.36 11.5729V12.0064ZM88.3231 4.74288V1.92643C88.323 1.73083 88.2457 1.54326 88.1081 1.40495C87.9705 1.26664 87.7838 1.1889 87.5892 1.18882H75.0601C74.8654 1.18882 74.6787 1.26653 74.5411 1.40486C74.4035 1.54319 74.3262 1.7308 74.3262 1.92643V4.72109C74.3263 4.91669 74.4036 5.10425 74.5412 5.24256C74.6788 5.38087 74.8654 5.45861 75.0601 5.4587H81.5955L73.8599 16.7375C73.8599 16.7375 73.5551 17.1948 73.5651 17.6998V21.1306C73.5651 21.1306 73.5146 22.307 74.842 21.6243C74.842 21.6243 77.1996 20.1927 81.1528 20.1927C81.1528 20.1927 85.0569 20.1439 87.6598 21.7476C87.6598 21.7476 88.7402 22.2413 88.7402 21.1557V18.1695C88.7402 18.1695 88.8383 17.3792 87.807 16.8858C87.807 16.8858 84.8112 15.2324 80.8826 15.5036L88.3231 4.74288ZM20.7776 18.8628L19.591 17.0474C19.2134 16.3697 19.2406 15.6106 19.2406 15.6106V7.23637C19.4023 0.000120878 11.4205 0.623577 11.4205 0.623577C4.32496 0.623577 3.27687 6.17354 3.27687 6.17354C2.98111 7.28939 3.8412 7.31638 3.8412 7.31638L7.3084 7.6699C7.3084 7.6699 7.89959 7.80584 8.11477 7.09848C8.11477 7.09848 8.57135 4.67718 11.1247 4.67718C13.903 4.67718 13.8742 7.07376 13.8742 7.07376V9.08008C8.32801 9.26643 5.75779 10.8138 5.75779 10.8138C2.3333 12.7652 2.54881 16.6409 2.54881 16.6409C2.54881 22.9555 8.53511 22.6842 8.53511 22.6842C12.3641 22.6842 14.6292 19.8658 14.6292 19.8658C15.3032 21.0588 16.5438 22.1964 16.5438 22.1964C17.1644 22.8729 17.8113 22.305 17.8113 22.305L20.6158 19.8932C21.2358 19.432 20.7776 18.8628 20.7776 18.8628ZM10.4038 18.7848C8.60274 18.7848 7.93324 16.986 8.23223 15.218C8.53155 13.4501 10.086 12.0608 13.8746 12.1014V13.1763C14.0088 17.8719 11.903 18.7848 10.4038 18.7848ZM71.1486 18.8628L69.9623 17.0474C69.5847 16.3697 69.6115 15.6106 69.6115 15.6106V7.23637C69.7733 0.000120878 61.7915 0.623577 61.7915 0.623577C54.696 0.623577 53.6479 6.17354 53.6479 6.17354C53.3521 7.28939 54.2122 7.31638 54.2122 7.31638L57.6794 7.6699C57.6794 7.6699 58.2706 7.80584 58.4858 7.09848C58.4858 7.09848 58.9423 4.67718 61.4957 4.67718C64.274 4.67718 64.2452 7.07376 64.2452 7.07376V9.08008C58.6993 9.26643 56.1288 10.8138 56.1288 10.8138C52.7043 12.7652 52.9198 16.6409 52.9198 16.6409C52.9198 22.9555 58.9061 22.6842 58.9061 22.6842C62.7351 22.6842 65.0002 19.8658 65.0002 19.8658C65.6745 21.0588 66.9145 22.1964 66.9145 22.1964C67.5351 22.8729 68.1823 22.305 68.1823 22.305L70.9865 19.8932C71.6068 19.432 71.1486 18.8628 71.1486 18.8628ZM60.7748 18.7848C58.9737 18.7848 58.3042 16.986 58.6032 15.218C58.9025 13.4501 60.457 12.0608 64.2452 12.1014V13.1763C64.3798 17.8719 62.2743 18.7848 60.7748 18.7848Z" fill="#999999"/>
<path d="M80.6919 34.7134C80.6919 34.7134 80.3748 35.2679 80.7644 35.3918C80.7644 35.3918 81.2044 35.5645 81.7532 35.0526C81.7532 35.0526 85.7556 31.5385 85.8521 25.1407C85.8521 25.1407 85.8815 24.3416 85.5625 24.1231C85.5625 24.1231 84.3086 23.0082 79.7998 23.3474C79.7998 23.3474 75.8695 23.6141 73.7238 25.5287C73.7238 25.5287 73.531 25.6982 73.531 25.9161C73.531 25.9161 73.4847 26.3867 74.6642 26.1827C74.6642 26.1827 78.5941 25.625 80.933 25.9161C80.933 25.9161 82.139 26.0614 82.4765 26.4738C82.4765 26.4738 83.0311 26.9343 82.7415 28.4606C82.7415 28.4613 81.9455 32.3386 80.6919 34.7134Z" fill="#999999"/>
<path d="M79.8996 28.5753C79.8996 28.5753 80.4866 29.3396 79.5394 29.9989C79.5394 29.9989 69.4219 38.1327 52.4338 38.1327C52.4338 38.1327 34.9467 38.9998 20.3449 25.6656C20.3449 25.6656 19.833 25.2138 20.1508 24.794C20.1508 24.794 20.4349 24.4076 21.1704 24.8278C21.1704 24.8278 34.9062 33.4303 52.946 33.4303C52.946 33.4303 65.4849 33.9181 78.3473 28.3893C78.3473 28.3893 79.3721 27.8556 79.8996 28.5753Z" fill="#999999"/>
</svg>
