<svg width="40" height="40" viewBox="0 0 40 40" fill="none" xmlns="http://www.w3.org/2000/svg">
<g clip-path="url(#clip0_266_726)">
<g clip-path="url(#clip1_266_726)">
<path d="M31.2159 12.0451L21.6159 19.3936C21.139 19.759 20.5541 19.9572 19.9523 19.9572C19.3505 19.9572 18.7655 19.759 18.2887 19.3936L8.68866 12.0451C8.59529 11.9638 8.48617 11.9023 8.36803 11.8644C8.24988 11.8266 8.12521 11.8133 8.00169 11.8253C7.87817 11.8372 7.75841 11.8742 7.64981 11.934C7.54121 11.9938 7.44605 12.0751 7.3702 12.1729C7.29436 12.2707 7.23943 12.3829 7.20879 12.5026C7.17816 12.6223 7.17248 12.747 7.19209 12.869C7.2117 12.991 7.2562 13.1077 7.32284 13.2119C7.38948 13.3161 7.47685 13.4057 7.57957 13.475L17.225 20.8325C18.0198 21.4416 18.9947 21.7718 19.9977 21.7718C21.0008 21.7718 21.9757 21.4416 22.7705 20.8325L32.325 13.475C32.4277 13.4057 32.5151 13.3161 32.5817 13.2119C32.6484 13.1077 32.6929 12.991 32.7125 12.869C32.7321 12.747 32.7264 12.6223 32.6958 12.5026C32.6652 12.3829 32.6102 12.2707 32.5344 12.1729C32.4585 12.0751 32.3634 11.9938 32.2548 11.934C32.1462 11.8742 32.0264 11.8372 31.9029 11.8253C31.7794 11.8133 31.6547 11.8266 31.5366 11.8644C31.4184 11.9023 31.3093 11.9638 31.2159 12.0451Z" fill="white"/>
<path d="M25.6705 21.1674C25.5853 21.2515 25.5176 21.3516 25.4715 21.4619C25.4253 21.5722 25.4016 21.6905 25.4016 21.81C25.4016 21.9294 25.4253 22.0477 25.4715 22.158C25.5176 22.2683 25.5853 22.3684 25.6705 22.4525L31.125 27.8824C31.2095 27.9672 31.3101 28.0345 31.4209 28.0804C31.5316 28.1264 31.6505 28.15 31.7705 28.15C31.8905 28.15 32.0093 28.1264 32.1201 28.0804C32.2309 28.0345 32.3314 27.9672 32.4159 27.8824C32.5011 27.7982 32.5688 27.6981 32.6149 27.5878C32.6611 27.4776 32.6848 27.3593 32.6848 27.2398C32.6848 27.1203 32.6611 27.0021 32.6149 26.8918C32.5688 26.7815 32.5011 26.6814 32.4159 26.5973L26.9614 21.1674C26.8769 21.0826 26.7763 21.0153 26.6655 20.9693C26.5548 20.9234 26.4359 20.8997 26.3159 20.8997C26.1959 20.8997 26.0771 20.9234 25.9663 20.9693C25.8555 21.0153 25.755 21.0826 25.6705 21.1674Z" fill="white"/>
<path d="M14.2936 21.4352C14.3788 21.5193 14.4464 21.6194 14.4926 21.7297C14.5387 21.84 14.5625 21.9583 14.5625 22.0777C14.5625 22.1972 14.5387 22.3155 14.4926 22.4258C14.4464 22.5361 14.3788 22.6361 14.2936 22.7203L8.83906 28.1501C8.75454 28.235 8.65399 28.3023 8.54321 28.3482C8.43243 28.3942 8.31361 28.4178 8.1936 28.4178C8.07359 28.4178 7.95477 28.3942 7.84399 28.3482C7.73321 28.3023 7.63266 28.235 7.54815 28.1501C7.46294 28.066 7.39531 27.9659 7.34916 27.8556C7.303 27.7454 7.27924 27.6271 7.27924 27.5076C7.27924 27.3881 7.303 27.2699 7.34916 27.1596C7.39531 27.0493 7.46294 26.9492 7.54815 26.8651L13.0027 21.4352C13.0872 21.3504 13.1878 21.2831 13.2985 21.2371C13.4093 21.1912 13.5281 21.1675 13.6481 21.1675C13.7682 21.1675 13.887 21.1912 13.9978 21.2371C14.1085 21.2831 14.2091 21.3504 14.2936 21.4352Z" fill="white"/>
<path fill-rule="evenodd" clip-rule="evenodd" d="M34.737 11.0528C34.737 10.4714 34.2657 10.0001 33.6843 10.0001H6.3159C5.73455 10.0001 5.26327 10.4714 5.26327 11.0528V28.9475C5.26327 29.5288 5.73455 30.0001 6.3159 30.0001H33.6843C34.2657 30.0001 34.737 29.5288 34.737 28.9475V11.0528ZM6.3159 8.42114C4.86252 8.42114 3.68433 9.59934 3.68433 11.0528V28.9475C3.68433 30.4009 4.86252 31.5791 6.3159 31.5791H33.6843C35.1377 31.5791 36.3159 30.4009 36.3159 28.9475V11.0528C36.3159 9.59934 35.1377 8.42114 33.6843 8.42114H6.3159Z" fill="white"/>
</g>
</g>
<defs>
<clipPath id="clip0_266_726">
<rect width="40" height="40" fill="white"/>
</clipPath>
<clipPath id="clip1_266_726">
<rect width="40" height="40" fill="white"/>
</clipPath>
</defs>
</svg>
