<svg width="34" height="34" viewBox="0 0 34 34" fill="none" xmlns="http://www.w3.org/2000/svg">
<path d="M12.4858 20.7844C12.4858 20.5836 12.4066 20.3911 12.2655 20.2491C12.1244 20.1071 11.933 20.0273 11.7335 20.0273H5.7143C5.51476 20.0273 5.32338 20.1071 5.18228 20.2491C5.04118 20.3911 4.96191 20.5836 4.96191 20.7844C4.96191 20.9852 5.04118 21.1778 5.18228 21.3198C5.32338 21.4617 5.51476 21.5415 5.7143 21.5415H11.7335C11.933 21.5415 12.1244 21.4617 12.2655 21.3198C12.4066 21.1778 12.4858 20.9852 12.4858 20.7844Z" fill="white"/>
<path d="M10.2281 16.9993C10.2281 16.7985 10.1488 16.6059 10.0077 16.464C9.86655 16.322 9.67518 16.2422 9.47563 16.2422H3.4565C3.25695 16.2422 3.06557 16.322 2.92447 16.464C2.78337 16.6059 2.7041 16.7985 2.7041 16.9993C2.7041 17.2001 2.78337 17.3927 2.92447 17.5346C3.06557 17.6766 3.25695 17.7564 3.4565 17.7564H9.47563C9.67518 17.7564 9.86655 17.6766 10.0077 17.5346C10.1488 17.3927 10.2281 17.2001 10.2281 16.9993Z" fill="white"/>
<path d="M7.97119 13.2141C7.97119 13.0133 7.89192 12.8207 7.75082 12.6787C7.60972 12.5368 7.41834 12.457 7.2188 12.457H1.19966C1.00011 12.457 0.808737 12.5368 0.667636 12.6787C0.526535 12.8207 0.447266 13.0133 0.447266 13.2141C0.447266 13.4149 0.526535 13.6074 0.667636 13.7494C0.808737 13.8914 1.00011 13.9712 1.19966 13.9712H7.2188C7.41834 13.9712 7.60972 13.8914 7.75082 13.7494C7.89192 13.6074 7.97119 13.4149 7.97119 13.2141Z" fill="white"/>
<path d="M29.3318 10.3437L21.3865 16.4913C20.9919 16.797 20.5078 16.9628 20.0097 16.9628C19.5116 16.9628 19.0275 16.797 18.6328 16.4913L10.6875 10.3437C10.6103 10.2756 10.5199 10.2242 10.4222 10.1926C10.3244 10.1609 10.2212 10.1498 10.119 10.1598C10.0167 10.1698 9.91762 10.2008 9.82774 10.2508C9.73785 10.3008 9.6591 10.3688 9.59633 10.4506C9.53355 10.5324 9.48809 10.6263 9.46274 10.7264C9.43738 10.8266 9.43268 10.9309 9.44891 11.033C9.46514 11.135 9.50197 11.2326 9.55712 11.3198C9.61228 11.407 9.68459 11.4819 9.7696 11.5399L17.7525 17.695C18.4103 18.2046 19.2171 18.4809 20.0473 18.4809C20.8774 18.4809 21.6843 18.2046 22.3421 17.695L30.2497 11.5399C30.3347 11.4819 30.4071 11.407 30.4622 11.3198C30.5174 11.2326 30.5542 11.135 30.5704 11.033C30.5866 10.9309 30.5819 10.8266 30.5566 10.7264C30.5312 10.6263 30.4858 10.5324 30.423 10.4506C30.3602 10.3688 30.2815 10.3008 30.1916 10.2508C30.1017 10.2008 30.0026 10.1698 29.9004 10.1598C29.7981 10.1498 29.695 10.1609 29.5972 10.1926C29.4994 10.2242 29.4091 10.2756 29.3318 10.3437Z" fill="white"/>
<path d="M31.2958 7.15625H7.2192C7.01965 7.15625 6.82828 7.23601 6.68718 7.37799C6.54607 7.51997 6.4668 7.71254 6.4668 7.91333C6.4668 8.11412 6.54607 8.30669 6.68718 8.44867C6.82828 8.59065 7.01965 8.67042 7.2192 8.67042H31.2958C31.4953 8.67042 31.6867 8.75018 31.8278 8.89216C31.9689 9.03414 32.0481 9.22671 32.0481 9.4275V24.5693C32.0481 24.77 31.9689 24.9625 31.8278 25.1045C31.6867 25.2465 31.4953 25.3263 31.2958 25.3263H7.2192C7.01965 25.3263 6.82828 25.406 6.68718 25.548C6.54607 25.69 6.4668 25.8825 6.4668 26.0833C6.4668 26.2841 6.54607 26.4767 6.68718 26.6187C6.82828 26.7606 7.01965 26.8405 7.2192 26.8405H31.2958C31.8944 26.8405 32.4685 26.6012 32.8918 26.1753C33.3151 25.7493 33.5529 25.1716 33.5529 24.5693V9.4275C33.5529 8.82513 33.3151 8.24743 32.8918 7.82148C32.4685 7.39554 31.8944 7.15625 31.2958 7.15625Z" fill="white"/>
<path d="M24.742 17.9778C24.6715 18.0482 24.6155 18.132 24.5773 18.2242C24.5391 18.3165 24.5195 18.4154 24.5195 18.5154C24.5195 18.6153 24.5391 18.7143 24.5773 18.8065C24.6155 18.8988 24.6715 18.9825 24.742 19.0529L29.2564 23.5954C29.3263 23.6664 29.4095 23.7227 29.5012 23.7611C29.5929 23.7996 29.6912 23.8194 29.7906 23.8194C29.8899 23.8194 29.9882 23.7996 30.0799 23.7611C30.1716 23.7227 30.2548 23.6664 30.3248 23.5954C30.3953 23.525 30.4513 23.4413 30.4895 23.349C30.5277 23.2568 30.5473 23.1578 30.5473 23.0579C30.5473 22.9579 30.5277 22.859 30.4895 22.7667C30.4513 22.6745 30.3953 22.5907 30.3248 22.5204L25.8104 17.9778C25.7405 17.9069 25.6573 17.8506 25.5656 17.8121C25.4739 17.7737 25.3755 17.7539 25.2762 17.7539C25.1769 17.7539 25.0785 17.7737 24.9869 17.8121C24.8952 17.8506 24.812 17.9069 24.742 17.9778Z" fill="white"/>
</svg>
