<svg width="40" height="41" viewBox="0 0 40 41" fill="none" xmlns="http://www.w3.org/2000/svg">
<g clip-path="url(#clip0_266_744)">
<g clip-path="url(#clip1_266_744)">
<path d="M20.3108 8.71429C23.0537 8.71429 25.568 9.97143 27.2251 12.1714C28.8537 14.3429 29.3394 17.0571 28.6251 19.6571L21.9108 33.7143C21.7394 34.0571 21.3965 34.2857 20.9965 34.2857C20.6251 34.2857 20.3108 34.0857 20.1108 33.7714L12.2537 20.3714C11.2537 17.7143 11.5965 14.8286 13.1965 12.4857C14.8251 10.0857 17.4251 8.71429 20.3108 8.71429ZM20.3108 7C13.0251 7 8.0251 14.3429 10.7108 21.1143L18.6537 34.6571C19.1394 35.4857 20.0537 36 20.9965 36C22.0537 36 22.9965 35.4 23.4537 34.4571L30.2251 20.2571C32.168 13.6286 27.2251 7 20.3108 7Z" fill="white"/>
<path d="M22.6537 17.2571C22.6537 18.4857 21.6537 19.4571 20.4537 19.4571C19.2251 19.4571 18.2537 18.4571 18.2537 17.2571C18.2537 16.0571 19.2251 15.0571 20.4537 15.0571C21.6822 15.0571 22.6537 16.0571 22.6537 17.2571Z" fill="white"/>
</g>
</g>
<defs>
<clipPath id="clip0_266_744">
<rect width="40" height="41" fill="white"/>
</clipPath>
<clipPath id="clip1_266_744">
<rect width="40" height="41" fill="white"/>
</clipPath>
</defs>
</svg>
