<svg width="246" height="51" viewBox="0 0 246 51" fill="none" xmlns="http://www.w3.org/2000/svg">
<path fill-rule="evenodd" clip-rule="evenodd" d="M25.7699 25.1024L26.8993 24.4557L41.0351 34.1472L25.7699 25.1024ZM24.9579 24.5856L23.9071 23.9809L25.0786 5.4834L24.9579 24.5856ZM23.692 24.5226L19.0076 28.3989L24.6208 25.088L23.692 24.5226Z" fill="#999999"/>
<path fill-rule="evenodd" clip-rule="evenodd" d="M25.2427 0C11.3023 0 0 11.301 0 25.2426C0 39.1843 11.3023 50.4853 25.2427 50.4853C39.1843 50.4853 50.4866 39.1843 50.4866 25.2426C50.4866 11.301 39.1843 0 25.2427 0ZM25.2453 49.1394C19.4774 49.1394 14.0794 47.2163 10.0574 43.6863C6.14439 40.2495 3.10499 34.7885 2.35465 28.9839C4.13343 40.0225 13.7055 48.4547 25.2453 48.4547C38.0509 48.4547 48.4324 38.0732 48.4324 25.2676C48.4324 19.9549 46.4476 14.7523 43.441 10.8432C46.487 13.1926 49.1171 19.884 49.1171 25.2676C49.1171 38.451 38.4287 49.1394 25.2453 49.1394ZM23.0533 23.4442L25.0944 2.51469L25.2427 2.51338H25.2951L25.4958 24.5382L29.0088 22.4381L25.4748 2.516C37.921 2.64062 47.9746 12.7663 47.9746 25.2426C47.9746 29.2515 46.9356 33.0163 45.1149 36.2852L29.338 23.0848L27.8439 23.9322L45.0073 36.4741L44.8761 36.6998L25.5745 25.5955V29.5125L44.7436 36.9215C40.7702 43.5407 33.5239 47.9719 25.2413 47.9719C16.9679 47.9719 9.72688 43.5499 5.75217 36.9411L24.9095 29.4718V25.5562L5.58557 36.6604L5.45833 36.44L22.5614 23.9322L21.0672 23.0848L5.33371 36.2157C3.47804 32.8565 2.50749 29.0804 2.51338 25.2426C2.51338 12.8647 12.4082 2.79803 24.7193 2.51862L21.6405 22.5968L23.0533 23.4442ZM25.2427 1.35638C12.0579 1.35638 1.37081 12.0448 1.37081 25.2282C1.37081 30.5829 3.31357 35.6477 6.27688 40.0225C7.28171 41.9023 8.36918 43.0659 9.82001 44.602C4.13474 40.0606 0.456501 33.0701 0.456501 25.2269C0.456501 11.5384 11.5529 0.440757 25.2427 0.440757C38.9324 0.440757 50.24 12.0212 49.8334 25.2269C49.4897 12.3426 38.2096 1.35638 25.2427 1.35638ZM136.126 26.9139C136.126 22.4866 134.169 18.8976 129.872 18.8976C125.883 18.8976 123.615 22.4866 123.615 26.9139C123.615 31.3411 125.51 34.9302 129.872 34.9302C134.108 34.9302 135.352 32.8313 136.003 29.4745L134.543 29.4692C134.42 30.7141 133.608 33.5187 130.495 33.5803C126.944 33.6525 126.696 29.0954 126.756 26.9152L126.818 25.669C126.818 24.2995 126.695 20.25 129.995 20.25C132.611 20.25 132.985 23.6147 132.985 25.669H126.818L126.756 26.9152L136.126 26.9139ZM62.4383 13.3815L62.3753 14.3785H63.3093C63.9941 14.3785 64.8677 14.4401 64.8677 15.3124L64.5568 32.1951C64.5568 32.8182 64.2446 33.503 62.9984 33.503H62.0644L62.0015 34.4999H68.2928V33.503H67.2342C66.4235 33.503 65.8633 33.2537 65.8633 32.1951L66.1742 15.9985L72.9024 33.44H73.5871L80.3769 15.8109L80.6891 32.1951C80.6891 32.7552 80.1277 33.503 79.2553 33.503H77.9475V34.4999H85.8589V33.503H84.9249C84.2401 33.503 83.4294 33.1291 83.4294 32.2568L83.1172 15.5617C83.1172 15.0002 83.7403 14.3785 84.3634 14.3785H85.5467V13.3815H79.8771L74.0213 28.7058L68.1655 13.3815H62.4383ZM106.26 34.513V33.7037H105.637C105.076 33.7037 104.08 33.5161 104.08 32.3945V24.2339C104.08 21.6798 105.387 20.7459 106.695 20.7459C107.194 20.7459 107.506 20.9951 107.38 21.9291C107.255 22.8631 108.065 23.4862 108.751 23.4245C109.437 23.3629 110.309 23.2369 110.183 21.4936C110.057 19.7502 109.063 18.9395 107.318 18.9395C105.948 18.9395 104.826 19.8119 104.515 20.2487C104.153 20.7563 103.704 20.5596 103.643 19.9994C103.581 19.4393 103.332 18.8792 102.709 19.0655C101.517 19.4465 100.282 19.6765 99.0331 19.7502V20.3733C101.649 20.2487 101.401 21.5565 101.401 22.1796V32.3958C101.401 33.5174 100.404 33.705 99.8425 33.705H98.9701V34.5143L106.26 34.513ZM120.137 19.8879C119.219 19.2176 118.064 18.8333 116.66 18.8333C112.673 18.8333 110.404 22.4223 110.404 26.8509C110.404 31.2782 112.298 34.8462 116.66 34.8672C120.521 34.8869 121.457 32.7067 122.106 29.3485L120.646 29.342C120.521 30.5869 120.086 33.4531 117.283 33.5161C113.733 33.5961 113.484 29.0298 113.545 26.8509C113.545 25.4801 113.733 19.9968 116.723 19.9968C119.275 19.9968 120.834 21.8045 120.834 23.86H121.643V18.6273H120.958L120.137 19.8879ZM210.258 33.579C206.707 33.6512 206.459 29.094 206.519 26.9139H215.889C215.889 22.4866 213.935 18.8976 209.635 18.8976C205.648 18.8976 203.38 22.4866 203.38 26.9139C203.38 31.3411 205.273 34.9302 209.635 34.9302C213.871 34.9302 215.118 32.8313 215.766 29.4745L214.309 29.4679C214.183 30.7141 213.373 33.5187 210.258 33.579ZM209.761 20.2487C212.376 20.2487 212.75 23.6134 212.75 25.6677H206.584C206.584 24.2982 206.459 20.2487 209.761 20.2487ZM159.045 33.579C155.494 33.6512 155.246 29.094 155.306 26.9139H164.676C164.676 22.4866 162.719 18.8976 158.421 18.8976C154.435 18.8976 152.164 22.4866 152.164 26.9139C152.164 31.3411 154.06 34.9302 158.421 34.9302C162.657 34.9302 163.902 32.8313 164.553 29.4745L163.093 29.4679C162.969 30.7141 162.16 33.5187 159.045 33.579ZM158.545 20.2487C161.163 20.2487 161.534 23.6134 161.534 25.6677H155.368C155.368 24.2982 155.246 20.2487 158.545 20.2487ZM92.9294 33.579C89.3797 33.6512 89.1305 29.094 89.1921 26.9139H98.5622C98.5622 22.4866 96.605 18.8976 92.3076 18.8976C88.3198 18.8976 86.0517 22.4866 86.0517 26.9139C86.0517 31.3411 87.9459 34.9302 92.3076 34.9302C96.5434 34.9302 97.7895 32.8313 98.4389 29.4745L96.9789 29.4692C96.8542 30.7141 96.0449 33.5187 92.9294 33.579ZM92.4309 20.2487C95.0479 20.2487 95.4205 23.6134 95.4205 25.6677H89.2538C89.2538 24.2982 89.1304 20.2487 92.4309 20.2487ZM149.693 31.2598V13.8787C149.693 13.1624 149.322 12.5695 148.696 12.7571C147.505 13.1385 146.27 13.3686 145.022 13.4418V14.0649C146.828 13.9403 147.016 14.5018 147.016 15.1249V20.4822C146.206 19.7345 145.271 18.9868 143.59 18.9868C141.472 18.9868 137.547 20.6685 137.547 26.5859C137.547 34.374 142.095 34.8711 143.466 34.8711C144.837 34.8711 146.643 33.7509 147.017 33.158C147.047 33.0333 147.235 32.8772 147.296 33.158C147.361 33.7194 147.765 34.5589 148.388 34.3727C149.579 33.9919 150.813 33.7619 152.062 33.6879V33.0648C149.445 33.1908 149.693 31.8816 149.693 31.2598ZM147.016 29.3905C146.954 32.8156 145.148 33.8755 143.652 33.8755C140.289 33.8138 140.537 28.7058 140.537 26.5243C140.537 24.3428 140.663 20.0454 143.714 20.4192C146.768 20.7931 147.017 24.0319 147.017 25.9628L147.016 29.3905ZM186.261 25.5955V24.1631H178.041V25.5955H186.261ZM166.713 29.2174V34.5117H167.397L168.02 33.1409C168.643 33.7023 169.952 34.6363 171.632 34.6363C173.315 34.6363 175.683 33.7023 176.619 31.959C177.551 30.2143 177.116 27.3481 174.997 26.4757C173.142 25.7123 171.516 24.798 170.263 24.1709C169.873 23.9852 169.554 23.6789 169.352 23.2972C169.15 22.9156 169.077 22.479 169.143 22.0524C169.33 21.0554 170.201 19.9968 172.194 19.9339C174.188 19.8722 175.183 21.5539 175.435 23.4849H176.119V18.5027H175.496L174.81 19.6859C173.503 18.8136 172.942 18.689 171.758 18.689C170.575 18.689 168.581 19.3121 167.46 21.0567C166.339 22.8014 166.65 25.5404 169.33 26.6633C172.008 27.7836 173.255 28.4696 174.002 28.8435C174.749 29.2174 175.185 30.7128 174.688 31.5851C174.188 32.4561 173.255 33.4544 171.76 33.4544C170.264 33.4544 167.899 32.3945 167.338 29.2187L166.713 29.2174ZM197.97 23.0992C199.467 22.7253 200.963 20.0467 200.963 18.2404C200.963 16.434 200.277 13.3815 195.915 13.3815H186.571V14.1909C187.506 14.1909 189.125 14.3785 189.125 15.9355V31.3228C189.125 32.1951 189.063 33.6276 186.571 33.6276V34.4999H194.234C196.538 34.4999 201.834 34.3123 201.96 28.2086C201.96 26.1517 200.963 23.7223 197.97 23.0992ZM191.804 14.3785H194.919C197.225 14.3785 198.158 16.0589 198.158 18.2404C198.158 20.919 197.349 22.9746 194.919 22.9746H191.804V14.3785ZM194.981 33.503H191.804V23.9715H195.355C197.412 23.9715 199.218 25.404 199.218 28.5182C199.218 31.6337 197.347 33.503 194.981 33.503ZM227.402 23.1753V32.3945C227.402 33.5161 226.405 33.7037 225.843 33.7037H225.469V34.513H232.259V33.7037H231.636C231.075 33.7037 230.078 33.5161 230.078 32.3945V23.2382C230.016 19.0641 226.279 18.9395 224.971 18.9395C223.6 18.9395 222.103 19.8119 221.794 20.2487C221.43 20.7563 220.982 20.5596 220.92 19.9994C220.858 19.4393 220.611 18.8792 219.985 19.0655C218.793 19.4464 217.559 19.6765 216.311 19.7502V20.3733C218.926 20.2487 218.678 21.5565 218.678 22.1796V32.3958C218.678 33.5174 217.681 33.705 217.12 33.705H216.249V34.5143H223.536V33.705H222.913C222.351 33.705 221.354 33.5174 221.354 32.3958V24.2352C221.354 22.8657 221.854 20.6842 224.408 20.4966C226.965 20.3103 227.402 21.9921 227.402 23.1753ZM233.703 23.4875L234.825 19.2517H245.416L236.32 33.642H241.178C242.3 33.642 243.172 33.2052 244.355 30.3389H244.855L243.858 34.513H233.017L242.052 20.1241H238.001C237.004 20.1241 235.885 20.1241 234.327 23.4875H233.703Z" fill="#999999"/>
</svg>
