<svg width="148" height="32" viewBox="0 0 148 32" fill="none" xmlns="http://www.w3.org/2000/svg">
<g clip-path="url(#clip0_66_16700)">
<path d="M52.2492 18.431L51.367 20.9613H51.2935C51.1464 20.3907 50.8769 19.5225 50.4358 18.4807L45.7061 6.44965H41.0745V25.6248H44.1377V13.7923C44.1377 13.0481 44.1377 12.2047 44.1132 11.1628C44.0887 10.6419 44.0397 10.245 44.0152 9.94732H44.0887C44.2357 10.6915 44.4073 11.2372 44.5298 11.5845L50.2152 25.5752H52.3717L58.0081 11.4605C58.1307 11.138 58.2532 10.4931 58.3757 9.94732H58.4492C58.3757 11.3613 58.3267 12.6264 58.3022 13.3954V25.5504H61.5615V6.40004H57.1014L52.2492 18.431ZM64.6493 11.8078H67.8351V25.5504H64.6493V11.8078ZM66.2667 6.00314C65.7275 6.00314 65.2864 6.20159 64.9188 6.54887C64.5513 6.89616 64.3552 7.34267 64.3552 7.88841C64.3552 8.40934 64.5513 8.85585 64.9188 9.20314C65.2864 9.55042 65.7275 9.72407 66.2667 9.72407C66.8058 9.72407 67.2714 9.52562 67.6145 9.20314C67.9821 8.85585 68.1782 8.40934 68.1782 7.88841C68.1782 7.36748 67.9821 6.92097 67.6145 6.54887C67.2959 6.20159 66.8303 6.00314 66.2667 6.00314ZM79.1324 11.6838C78.5442 11.5597 77.9316 11.4853 77.3434 11.4853C75.8976 11.4853 74.5742 11.8078 73.4715 12.4528C72.3687 13.0977 71.4865 13.9907 70.9228 15.107C70.3347 16.2481 70.0406 17.5628 70.0406 19.076C70.0406 20.3907 70.3347 21.5566 70.8983 22.6233C71.462 23.6652 72.2462 24.5086 73.2999 25.0791C74.3047 25.6497 75.4809 25.9473 76.8043 25.9473C78.3237 25.9473 79.6225 25.6248 80.6517 25.0295L80.6762 25.0047V22.0279L80.5537 22.1272C80.0881 22.4745 79.549 22.7721 79.0098 22.9458C78.4462 23.1442 77.9316 23.2434 77.4905 23.2434C76.2161 23.2434 75.2114 22.8714 74.5007 22.0528C73.7655 21.259 73.3979 20.1675 73.3979 18.8031C73.3979 17.3892 73.7655 16.2729 74.5252 15.4543C75.2849 14.6357 76.2896 14.214 77.5149 14.214C78.5442 14.214 79.598 14.5613 80.5537 15.2559L80.6762 15.3551V12.2047L80.6517 12.1799C80.2351 12.0062 79.7695 11.8078 79.1324 11.6838ZM89.6454 11.5845C88.8613 11.5845 88.1261 11.8326 87.4889 12.3535C86.9498 12.8 86.5822 13.445 86.2636 14.214H86.2391V11.8078H83.0533V25.5504H86.2391V18.5303C86.2391 17.3396 86.4842 16.3473 87.0233 15.6279C87.5624 14.8838 88.2486 14.5117 89.0818 14.5117C89.3759 14.5117 89.67 14.5861 90.0375 14.6357C90.3806 14.7349 90.6257 14.8341 90.7972 14.9582L90.9198 15.0574V11.8326L90.8462 11.8078C90.6257 11.659 90.1846 11.5845 89.6454 11.5845ZM98.3206 11.5101C96.0905 11.5101 94.3016 12.1799 93.0518 13.4946C91.7775 14.8093 91.1648 16.6202 91.1648 18.9024C91.1648 21.0357 91.802 22.7721 93.0273 24.0372C94.2526 25.2776 95.919 25.9225 98.002 25.9225C100.183 25.9225 101.923 25.2528 103.173 23.9132C104.447 22.5737 105.06 20.7876 105.06 18.5799C105.06 16.3969 104.472 14.6605 103.271 13.3954C102.119 12.1303 100.428 11.5101 98.3206 11.5101ZM100.869 22.0776C100.281 22.8465 99.3498 23.2186 98.1981 23.2186C97.0463 23.2186 96.115 22.8465 95.4534 22.0279C94.7917 21.259 94.4731 20.1427 94.4731 18.7287C94.4731 17.2652 94.8162 16.1489 95.4534 15.3551C96.115 14.5613 97.0218 14.1644 98.1736 14.1644C99.3008 14.1644 100.183 14.5365 100.82 15.3055C101.457 16.0745 101.8 17.1907 101.8 18.6543C101.751 20.1427 101.482 21.3086 100.869 22.0776ZM112.167 17.5132C111.162 17.0915 110.525 16.769 110.231 16.4962C109.985 16.2481 109.863 15.9008 109.863 15.4543C109.863 15.0822 110.01 14.7101 110.378 14.4621C110.745 14.214 111.162 14.09 111.774 14.09C112.314 14.09 112.877 14.1892 113.416 14.338C113.955 14.4869 114.446 14.7101 114.838 15.0078L114.96 15.107V12.0807L114.887 12.0559C114.519 11.907 114.029 11.7582 113.441 11.6341C112.853 11.5349 112.314 11.4853 111.872 11.4853C110.353 11.4853 109.103 11.8574 108.123 12.676C107.143 13.445 106.677 14.4869 106.677 15.7024C106.677 16.3473 106.775 16.9179 106.996 17.3892C107.216 17.8605 107.535 18.307 107.976 18.6791C108.417 19.0264 109.054 19.4233 109.936 19.7954C110.672 20.1179 111.235 20.3659 111.578 20.5644C111.921 20.7628 112.142 20.9861 112.314 21.1597C112.436 21.3582 112.51 21.6062 112.51 21.9287C112.51 22.8465 111.823 23.2931 110.427 23.2931C109.887 23.2931 109.324 23.1938 108.662 22.9706C108 22.7473 107.388 22.4248 106.873 22.0528L106.751 21.9535V25.1039L106.824 25.1287C107.29 25.352 107.853 25.5008 108.54 25.6745C109.226 25.7985 109.838 25.8977 110.378 25.8977C112.019 25.8977 113.367 25.5256 114.323 24.707C115.303 23.9132 115.818 22.8962 115.818 21.5814C115.818 20.6636 115.573 19.845 115.034 19.2248C114.323 18.6295 113.441 18.0093 112.167 17.5132ZM124.223 11.5101C121.993 11.5101 120.204 12.1799 118.955 13.4946C117.705 14.8093 117.068 16.6202 117.068 18.9024C117.068 21.0357 117.705 22.7721 118.93 24.0372C120.155 25.2776 121.822 25.9225 123.905 25.9225C126.086 25.9225 127.826 25.2528 129.076 23.9132C130.35 22.5737 130.963 20.7876 130.963 18.5799C130.963 16.3969 130.374 14.6605 129.174 13.3954C128.022 12.1303 126.331 11.5101 124.223 11.5101ZM126.748 22.0776C126.159 22.8465 125.228 23.2186 124.076 23.2186C122.9 23.2186 121.993 22.8465 121.332 22.0279C120.67 21.259 120.352 20.1427 120.352 18.7287C120.352 17.2652 120.695 16.1489 121.332 15.3551C121.993 14.5613 122.9 14.1644 124.052 14.1644C125.155 14.1644 126.061 14.5365 126.699 15.3055C127.336 16.0745 127.679 17.1907 127.679 18.6543C127.679 20.1427 127.36 21.3086 126.748 22.0776ZM147.994 14.4621V11.8078H144.784V7.73957L144.686 7.76438L141.647 8.68221L141.574 8.70701V11.8078H136.771V10.0714C136.771 9.27756 136.967 8.6574 137.31 8.2605C137.653 7.8636 138.167 7.66515 138.805 7.66515C139.246 7.66515 139.711 7.76438 140.226 7.98763L140.348 8.06205V5.25895L140.275 5.23415C139.834 5.08531 139.246 4.98608 138.486 4.98608C137.53 4.98608 136.697 5.20934 135.937 5.58143C135.178 6.00314 134.614 6.57368 134.197 7.34267C133.781 8.08686 133.56 8.93027 133.56 9.89771V11.8078H131.33V14.4372H133.56V25.5504H136.771V14.4621H141.574V21.5318C141.574 24.4341 142.922 25.8977 145.617 25.8977C146.058 25.8977 146.524 25.8233 146.965 25.7489C147.431 25.6497 147.774 25.5256 147.97 25.4264L147.994 25.4016V22.7473L147.872 22.8465C147.676 22.9706 147.504 23.0698 147.21 23.1442C146.965 23.2186 146.745 23.2434 146.573 23.2434C145.936 23.2434 145.495 23.0946 145.176 22.7225C144.882 22.3752 144.735 21.8047 144.735 20.9613V14.4621H147.994Z" fill="#999999"/>
<path d="M0.00280762 0H15.025V15.2062H0.00280762V0Z" fill="#999999"/>
<path d="M16.5922 0H31.6144V15.2062H16.5922V0Z" fill="#999999"/>
<path d="M0.00274658 16.7937H15.025V31.9999H0.00274658V16.7937Z" fill="#999999"/>
<path d="M16.5922 16.7937H31.6144V31.9999H16.5922V16.7937Z" fill="#999999"/>
</g>
<defs>
<clipPath id="clip0_66_16700">
<rect width="148" height="32" fill="white"/>
</clipPath>
</defs>
</svg>
