<svg width="364" height="64" viewBox="0 0 364 64" fill="none" xmlns="http://www.w3.org/2000/svg">
<path d="M335.265 0L363.875 62.1717H353.468L344.206 41.9063H318.118L308.535 62.1717H303.4L332.698 0H335.265ZM319.906 37.9632H342.326L331.277 13.8923L319.906 37.9632Z" fill="black"/>
<path d="M242.706 1.37524H262.109C268.344 1.37524 273.709 1.956 278.202 3.11752C282.695 4.27904 286.439 6.14357 289.435 8.71114C292.858 11.6455 295.426 15.0078 297.138 18.798C298.88 22.5882 299.751 26.7299 299.751 31.2232C299.751 35.5024 298.972 39.5219 297.413 43.2816C295.884 47.0412 293.622 50.3271 290.627 53.1392C287.662 55.9207 283.979 58.1215 279.577 59.7415C275.206 61.3615 270.193 62.1715 264.539 62.1715H242.706V1.37524ZM252.93 57.7241H263.796C267.22 57.7241 270.444 57.1586 273.47 56.0277C276.497 54.8967 279.125 53.2156 281.357 50.9842C283.618 48.7529 285.391 46.0172 286.675 42.7772C287.989 39.5066 288.647 35.7317 288.647 31.4524C288.647 27.6928 288.035 24.2541 286.813 21.1363C285.59 17.988 283.878 15.2829 281.678 13.021C279.477 10.7591 276.848 9.00152 273.791 7.7483C270.765 6.49509 267.449 5.86848 263.842 5.86848H252.93V57.7241Z" fill="black"/>
<path d="M201.451 0L230.061 62.1717H219.653L210.392 41.9063H184.304L174.721 62.1717H169.586L198.884 0H201.451ZM186.092 37.9632H208.512L197.462 13.8923L186.092 37.9632Z" fill="black"/>
<path d="M125.073 1.37524L148.044 49.7463L169.364 1.37524H174.224L146.622 63.5928H143.963L114.299 1.37524H125.073Z" fill="black"/>
<path d="M92.6629 0L121.273 62.1717H110.865L101.603 41.9063H75.5152L65.9327 62.1717H60.7975L90.0953 0H92.6629ZM77.3033 37.9632H99.7237L88.674 13.8923L77.3033 37.9632Z" fill="black"/>
<path d="M3.05176e-05 1.37524H5.7312L45.5743 45.8491H46.0328V1.37524H50.526V63.5928H48.1419L4.99761 14.1672H4.63082V62.1715H3.05176e-05V1.37524Z" fill="black"/>
</svg>
