<svg width="123" height="156" viewBox="0 0 123 156" fill="none" xmlns="http://www.w3.org/2000/svg">
<path d="M112.107 50.2525C112.107 50.2525 111.833 44.3079 111.308 41.4513C107.04 18.2209 86.1795 0.588623 61.0882 0.588623C35.9969 0.588623 15.1361 18.2209 10.8685 41.4513C10.3437 44.3079 10.0698 50.2525 10.0698 50.2525" stroke="#3A3531" stroke-width="1.17721"/>
<path d="M112.107 50.2525C112.107 50.2525 111.833 44.3079 111.308 41.4513C107.04 18.2209 86.1795 0.588623 61.0882 0.588623C35.9969 0.588623 15.1361 18.2209 10.8685 41.4513C10.3437 44.3079 10.0698 50.2525 10.0698 50.2525" stroke="url(#paint0_linear_698_782)" stroke-width="1.17721"/>
<path d="M112.107 50.2525C112.107 50.2525 111.833 44.3079 111.308 41.4513C107.04 18.2209 86.1795 0.588623 61.0882 0.588623C35.9969 0.588623 15.1361 18.2209 10.8685 41.4513C10.3437 44.3079 10.0698 50.2525 10.0698 50.2525" stroke="black" stroke-width="1.17721"/>
<path d="M27.6775 23.1626L27.6775 50.252" stroke="#3A3531" stroke-width="1.17721"/>
<path d="M27.6775 23.1626L27.6775 50.252" stroke="url(#paint1_linear_698_782)" stroke-width="1.17721"/>
<path d="M27.6775 23.1626L27.6775 50.252" stroke="black" stroke-width="1.17721"/>
<path d="M38.5128 14.1328L38.5128 50.252" stroke="#3A3531" stroke-width="1.17721"/>
<path d="M38.5128 14.1328L38.5128 50.252" stroke="url(#paint2_linear_698_782)" stroke-width="1.17721"/>
<path d="M38.5128 14.1328L38.5128 50.252" stroke="black" stroke-width="1.17721"/>
<path d="M49.8008 9.1665L49.8008 50.2521" stroke="#3A3531" stroke-width="1.17721"/>
<path d="M49.8008 9.1665L49.8008 50.2521" stroke="url(#paint3_linear_698_782)" stroke-width="1.17721"/>
<path d="M49.8008 9.1665L49.8008 50.2521" stroke="black" stroke-width="1.17721"/>
<path d="M61.088 7.81177L61.088 50.2518" stroke="#3A3531" stroke-width="1.17721"/>
<path d="M61.088 7.81177L61.088 50.2518" stroke="url(#paint4_linear_698_782)" stroke-width="1.17721"/>
<path d="M61.088 7.81177L61.088 50.2518" stroke="black" stroke-width="1.17721"/>
<path d="M71.9239 9.1665L71.9239 50.2521" stroke="#3A3531" stroke-width="1.17721"/>
<path d="M71.9239 9.1665L71.9239 50.2521" stroke="url(#paint5_linear_698_782)" stroke-width="1.17721"/>
<path d="M71.9239 9.1665L71.9239 50.2521" stroke="black" stroke-width="1.17721"/>
<path d="M82.7599 13.6814L82.7599 50.2521" stroke="#3A3531" stroke-width="1.17721"/>
<path d="M82.7599 13.6814L82.7599 50.2521" stroke="url(#paint6_linear_698_782)" stroke-width="1.17721"/>
<path d="M82.7599 13.6814L82.7599 50.2521" stroke="black" stroke-width="1.17721"/>
<path d="M94.0477 22.2599L94.0477 50.2523" stroke="#3A3531" stroke-width="1.17721"/>
<path d="M94.0477 22.2599L94.0477 50.2523" stroke="url(#paint7_linear_698_782)" stroke-width="1.17721"/>
<path d="M94.0477 22.2599L94.0477 50.2523" stroke="black" stroke-width="1.17721"/>
<path d="M105.297 154.998V52.0065C105.297 52.0065 105.06 46.7165 104.606 44.1745C100.909 23.5025 82.8382 7.81201 61.103 7.81201C39.3678 7.81201 21.2972 23.5025 17.6004 44.1745C17.1458 46.7165 16.9085 52.0065 16.9085 52.0065V154.998" stroke="#3A3531" stroke-width="1.17721"/>
<path d="M105.297 154.998V52.0065C105.297 52.0065 105.06 46.7165 104.606 44.1745C100.909 23.5025 82.8382 7.81201 61.103 7.81201C39.3678 7.81201 21.2972 23.5025 17.6004 44.1745C17.1458 46.7165 16.9085 52.0065 16.9085 52.0065V154.998" stroke="url(#paint8_linear_698_782)" stroke-width="1.17721"/>
<path d="M105.297 154.998V52.0065C105.297 52.0065 105.06 46.7165 104.606 44.1745C100.909 23.5025 82.8382 7.81201 61.103 7.81201C39.3678 7.81201 21.2972 23.5025 17.6004 44.1745C17.1458 46.7165 16.9085 52.0065 16.9085 52.0065V154.998" stroke="black" stroke-width="1.17721"/>
<path d="M0.588593 154.547C0.588593 149.809 4.42923 145.968 9.1669 145.968H10.0699V154.547H0.588593V154.547Z" stroke="black" stroke-width="1.17721"/>
<path d="M121.589 154.547C121.589 149.809 117.748 145.968 113.01 145.968H112.107V154.547H121.589V154.547Z" stroke="black" stroke-width="1.17721"/>
<path d="M10.0698 49.801V154.547H16.8421" stroke="black" stroke-width="1.17721"/>
<path d="M112.107 50.2531V154.547H105.334" stroke="black" stroke-width="1.17721"/>
<path d="M17.0667 50.4784H111.88" stroke="black" stroke-width="1.17721"/>
<path d="M108.671 58.2454H112.107M105.334 145.968H112.107M105.553 114.917H112.107" stroke="black" stroke-width="1.17721"/>
<path d="M10.5212 71.8451L13.407 71.8451M10.5212 137.164H16.8421M14.5846 30.3866L20.6797 33.3212M30.6125 10.521L34.6759 16.3904M104.738 31.6152L101.496 33.3212M13.407 123.092L16.8421 123.092" stroke="black" stroke-width="1.17721"/>
<path d="M97.4331 26.7748L103.077 22.2599" stroke="black" stroke-width="1.17721"/>
<path d="M77.2076 6.99779L78.4702 3.74854" stroke="black" stroke-width="1.17721"/>
<path d="M85.273 71.0776C85.2526 68.6362 84.3095 68.2616 81.1233 68.2684C81.0604 67.332 80.3688 65.4218 78.1053 65.2719C75.8418 65.1221 75.0039 66.9569 74.8782 68.2679C69.8026 68.2679 69.8026 72.1842 69.8026 73.1291H66.4283M82.6119 71.0776H87.9865" stroke="black" stroke-width="1.02595" stroke-linecap="round"/>
<path d="M74.003 74.0029C74.003 72.637 74.9394 71.4229 77.1243 71.4229C77.1243 71.0205 77.3741 70.2157 78.3729 70.2157" stroke="black" stroke-width="1.02595" stroke-linecap="round"/>
<path d="M16.8779 83.599C16.8779 82.9711 16.9848 81.8347 18.6632 81.8347C18.7432 80.9635 19.2757 79.7442 20.7145 79.8437C22.1532 79.9433 22.5928 81.2128 22.6328 81.8351C24.658 81.8306 25.2575 82.0795 25.2705 83.702M24.2691 83.702H26.6514" stroke="black" stroke-width="1.02595" stroke-linecap="round"/>
<path d="M61.9128 63.0782C61.9128 62.368 61.3547 61.6948 59.4535 61.6948C59.363 60.7095 58.7597 59.3305 57.1301 59.4431C55.5005 59.5557 55.0025 60.9914 54.9573 61.6952C52.6633 61.6901 51.9843 61.9717 51.9696 63.8065M53.1038 63.8065H50.4054" stroke="black" stroke-width="1.02595" stroke-linecap="round"/>
<path d="M68.4676 88.5695C68.4676 87.8885 68.3268 86.6563 66.1177 86.6563C66.0125 85.7115 65.3115 84.3892 63.4179 84.4972C61.5243 84.6052 60.9457 85.9818 60.8931 86.6567H59.4364" stroke="black" stroke-width="1.02595" stroke-linecap="round"/>
<path d="M19.5355 120.566L19.3969 125.268L20.6729 125.085L20.8153 120.534C20.8047 120.11 20.8172 119.473 20.2484 119.487C19.6796 119.501 19.5541 120.172 19.5355 120.566Z" stroke="black" stroke-width="0.893243"/>
<path d="M23.6464 119.95L23.5646 124.648L25.0113 124.461L25.0684 119.914C25.0578 119.49 24.9558 118.824 24.3585 118.839C23.7613 118.854 23.665 119.555 23.6464 119.95Z" stroke="black" stroke-width="0.893243"/>
<path d="M28.2685 119.287L28.2436 123.986L29.7756 123.796L29.7473 119.25C29.7367 118.826 29.5778 118.161 28.9806 118.176C28.3834 118.191 28.2871 118.892 28.2685 119.287Z" stroke="black" stroke-width="0.893243"/>
<path d="M33.7007 94.2954L36.2574 93.504" stroke="black" stroke-width="0.649631" stroke-linecap="round"/>
<path d="M38.1697 105.19L40.2179 104.811L42.0896 105.19" stroke="black" stroke-width="0.649631" stroke-linecap="round"/>
<path d="M29.6065 103.022L32.9568 102.188" stroke="black" stroke-width="0.649631" stroke-linecap="round"/>
<path d="M24.7689 102.553L32.9569 100.513" stroke="black" stroke-width="0.649631" stroke-linecap="round"/>
<path d="M18.8484 107.871L22.1441 107.113" stroke="black" stroke-width="0.649631" stroke-linecap="round"/>
<path d="M24.7861 106.515L28.0818 105.758" stroke="black" stroke-width="0.649631" stroke-linecap="round"/>
<path d="M25.66 109.72L28.9557 108.962" stroke="black" stroke-width="0.649631" stroke-linecap="round"/>
<path d="M20.9984 108.846L24.2942 108.088" stroke="black" stroke-width="0.649631" stroke-linecap="round"/>
<path d="M30.0294 107.098L33.3252 106.34" stroke="black" stroke-width="0.649631" stroke-linecap="round"/>
<path d="M30.0294 110.302L33.3252 109.545" stroke="black" stroke-width="0.649631" stroke-linecap="round"/>
<path d="M38.0925 123.099L39.9615 122.948" stroke="black" stroke-width="0.649631" stroke-linecap="round"/>
<path d="M17.166 113.25L26.5006 111.432" stroke="black" stroke-width="0.649631" stroke-linecap="round"/>
<path d="M46.6534 106.052L49.343 106.658" stroke="black" stroke-width="0.649631" stroke-linecap="round"/>
<path d="M45.4535 104.592L49.23 105.488" stroke="black" stroke-width="0.649631" stroke-linecap="round"/>
<path d="M47.0013 93.21C46.8292 93.1594 46.6486 93.2579 46.598 93.43C46.5474 93.6021 46.6459 93.7826 46.818 93.8332L46.9097 93.5216L47.0013 93.21ZM46.9097 93.5216L46.818 93.8332L49.1568 94.5209L49.2485 94.2093L49.3401 93.8976L47.0013 93.21L46.9097 93.5216Z" fill="black"/>
<path d="M35.7434 115.031L40.2306 114.305L43.0259 114.568" stroke="black" stroke-width="0.649631" stroke-linecap="round"/>
<path d="M41.7503 63.1625L41.7749 60.6501" stroke="black" stroke-width="1.01367"/>
<path d="M41.8404 58.3011L41.865 55.7887" stroke="black" stroke-width="1.01367"/>
<path d="M55.0795 91.6866L54.967 89.6104" stroke="black" stroke-width="0.683968" stroke-linecap="round"/>
<path d="M23.9429 100.504L24.0102 98.5447" stroke="black" stroke-width="0.683968" stroke-linecap="round"/>
<path d="M40.6178 80.5793L40.6426 81.571L40.1538 128.857M16.8614 116.413L32.8324 113.191" stroke="black" stroke-width="0.974447"/>
<path d="M49.5438 93.5871L55.1224 91.7937L62.6413 108.234" stroke="black" stroke-width="1.01367"/>
<path d="M52.4635 110.715C52.4565 110.436 52.224 110.214 51.9442 110.221C51.6643 110.228 51.4432 110.461 51.4502 110.741L51.9568 110.728L52.4635 110.715ZM51.5658 115.369C51.5728 115.649 51.8054 115.87 52.0852 115.863C52.365 115.856 52.5862 115.623 52.5792 115.344L52.0725 115.356L51.5658 115.369ZM56.7859 111.6C56.7789 111.32 56.5464 111.099 56.2666 111.106C55.9867 111.113 55.7656 111.345 55.7725 111.625L56.2792 111.612L56.7859 111.6ZM55.88 115.923C55.887 116.202 56.1195 116.424 56.3993 116.417C56.6791 116.41 56.9003 116.177 56.8933 115.897L56.3866 115.91L55.88 115.923ZM52.8933 101.443C52.8863 101.163 52.6538 100.942 52.374 100.949C52.0942 100.956 51.873 101.188 51.88 101.468L52.3867 101.455L52.8933 101.443ZM51.9296 103.451C51.9366 103.731 52.1691 103.952 52.4489 103.945C52.7287 103.938 52.9499 103.706 52.9429 103.426L52.4362 103.439L51.9296 103.451ZM57.2074 101.996C57.2005 101.716 56.9679 101.495 56.6881 101.502C56.4083 101.509 56.1871 101.742 56.1941 102.022L56.7008 102.009L57.2074 101.996ZM56.2437 104.005C56.2507 104.285 56.4832 104.506 56.763 104.499C57.0428 104.492 57.264 104.26 57.257 103.98L56.7503 103.992L56.2437 104.005ZM51.9568 110.728L51.4502 110.741L51.5658 115.369L52.0725 115.356L52.5792 115.344L52.4635 110.715L51.9568 110.728ZM56.2792 111.612L55.7725 111.625L55.88 115.923L56.3866 115.91L56.8933 115.897L56.7859 111.6L56.2792 111.612ZM52.3867 101.455L51.88 101.468L51.9296 103.451L52.4362 103.439L52.9429 103.426L52.8933 101.443L52.3867 101.455ZM56.7008 102.009L56.1941 102.022C56.1941 102.023 56.1942 102.025 56.1942 102.026C56.1942 102.028 56.1943 102.029 56.1943 102.031C56.1944 102.032 56.1944 102.034 56.1944 102.035C56.1945 102.037 56.1945 102.038 56.1945 102.04C56.1946 102.041 56.1946 102.043 56.1947 102.044C56.1947 102.046 56.1947 102.047 56.1948 102.049C56.1948 102.05 56.1948 102.052 56.1949 102.053C56.1949 102.055 56.195 102.056 56.195 102.058C56.195 102.059 56.1951 102.061 56.1951 102.062C56.1951 102.064 56.1952 102.065 56.1952 102.067C56.1953 102.068 56.1953 102.07 56.1953 102.071C56.1954 102.073 56.1954 102.074 56.1954 102.076C56.1955 102.077 56.1955 102.078 56.1956 102.08C56.1956 102.081 56.1956 102.083 56.1957 102.084C56.1957 102.086 56.1957 102.087 56.1958 102.089C56.1958 102.09 56.1959 102.092 56.1959 102.093C56.1959 102.095 56.196 102.096 56.196 102.098C56.196 102.099 56.1961 102.101 56.1961 102.102C56.1961 102.104 56.1962 102.105 56.1962 102.106C56.1963 102.108 56.1963 102.109 56.1963 102.111C56.1964 102.112 56.1964 102.114 56.1964 102.115C56.1965 102.117 56.1965 102.118 56.1965 102.12C56.1966 102.121 56.1966 102.123 56.1967 102.124C56.1967 102.125 56.1967 102.127 56.1968 102.128C56.1968 102.13 56.1968 102.131 56.1969 102.133C56.1969 102.134 56.1969 102.136 56.197 102.137C56.197 102.139 56.1971 102.14 56.1971 102.141C56.1971 102.143 56.1972 102.144 56.1972 102.146C56.1972 102.147 56.1973 102.149 56.1973 102.15C56.1973 102.152 56.1974 102.153 56.1974 102.154C56.1975 102.156 56.1975 102.157 56.1975 102.159C56.1976 102.16 56.1976 102.162 56.1976 102.163C56.1977 102.164 56.1977 102.166 56.1977 102.167C56.1978 102.169 56.1978 102.17 56.1978 102.172C56.1979 102.173 56.1979 102.174 56.198 102.176C56.198 102.177 56.198 102.179 56.1981 102.18C56.1981 102.182 56.1981 102.183 56.1982 102.184C56.1982 102.186 56.1982 102.187 56.1983 102.189C56.1983 102.19 56.1983 102.192 56.1984 102.193C56.1984 102.194 56.1985 102.196 56.1985 102.197C56.1985 102.199 56.1986 102.2 56.1986 102.202C56.1986 102.203 56.1987 102.204 56.1987 102.206C56.1987 102.207 56.1988 102.209 56.1988 102.21C56.1988 102.211 56.1989 102.213 56.1989 102.214C56.1989 102.216 56.199 102.217 56.199 102.218C56.1991 102.22 56.1991 102.221 56.1991 102.223C56.1992 102.224 56.1992 102.225 56.1992 102.227C56.1993 102.228 56.1993 102.23 56.1993 102.231C56.1994 102.232 56.1994 102.234 56.1994 102.235C56.1995 102.237 56.1995 102.238 56.1995 102.239C56.1996 102.241 56.1996 102.242 56.1996 102.244C56.1997 102.245 56.1997 102.246 56.1998 102.248C56.1998 102.249 56.1998 102.251 56.1999 102.252C56.1999 102.253 56.1999 102.255 56.2 102.256C56.2 102.258 56.2 102.259 56.2001 102.26C56.2001 102.262 56.2001 102.263 56.2002 102.264C56.2002 102.266 56.2002 102.267 56.2003 102.269C56.2003 102.27 56.2003 102.271 56.2004 102.273C56.2004 102.274 56.2004 102.276 56.2005 102.277C56.2005 102.278 56.2005 102.28 56.2006 102.281C56.2006 102.282 56.2006 102.284 56.2007 102.285C56.2007 102.287 56.2008 102.288 56.2008 102.289C56.2008 102.291 56.2009 102.292 56.2009 102.293C56.2009 102.295 56.201 102.296 56.201 102.297C56.201 102.299 56.2011 102.3 56.2011 102.302C56.2011 102.303 56.2012 102.304 56.2012 102.306C56.2012 102.307 56.2013 102.308 56.2013 102.31C56.2013 102.311 56.2014 102.312 56.2014 102.314C56.2014 102.315 56.2015 102.317 56.2015 102.318C56.2015 102.319 56.2016 102.321 56.2016 102.322C56.2016 102.323 56.2017 102.325 56.2017 102.326C56.2017 102.327 56.2018 102.329 56.2018 102.33C56.2018 102.331 56.2019 102.333 56.2019 102.334C56.2019 102.336 56.202 102.337 56.202 102.338C56.202 102.34 56.2021 102.341 56.2021 102.342C56.2021 102.344 56.2022 102.345 56.2022 102.346C56.2022 102.348 56.2023 102.349 56.2023 102.35C56.2023 102.352 56.2024 102.353 56.2024 102.354C56.2024 102.356 56.2025 102.357 56.2025 102.358C56.2025 102.36 56.2026 102.361 56.2026 102.362C56.2026 102.364 56.2027 102.365 56.2027 102.366C56.2027 102.368 56.2028 102.369 56.2028 102.37C56.2028 102.372 56.2029 102.373 56.2029 102.374C56.2029 102.376 56.203 102.377 56.203 102.378C56.203 102.38 56.2031 102.381 56.2031 102.382C56.2031 102.384 56.2032 102.385 56.2032 102.386C56.2032 102.388 56.2033 102.389 56.2033 102.39C56.2033 102.392 56.2034 102.393 56.2034 102.394C56.2034 102.396 56.2035 102.397 56.2035 102.398C56.2035 102.4 56.2036 102.401 56.2036 102.402C56.2036 102.404 56.2037 102.405 56.2037 102.406C56.2037 102.408 56.2038 102.409 56.2038 102.41C56.2038 102.411 56.2039 102.413 56.2039 102.414C56.2039 102.415 56.204 102.417 56.204 102.418C56.204 102.419 56.2041 102.421 56.2041 102.422C56.2041 102.423 56.2042 102.425 56.2042 102.426C56.2042 102.427 56.2043 102.429 56.2043 102.43C56.2043 102.431 56.2044 102.432 56.2044 102.434C56.2044 102.435 56.2045 102.436 56.2045 102.438C56.2045 102.439 56.2046 102.44 56.2046 102.442C56.2046 102.443 56.2047 102.444 56.2047 102.446C56.2047 102.447 56.2048 102.448 56.2048 102.449C56.2048 102.451 56.2049 102.452 56.2049 102.453C56.2049 102.455 56.205 102.456 56.205 102.457C56.205 102.459 56.205 102.46 56.2051 102.461C56.2051 102.462 56.2051 102.464 56.2052 102.465C56.2052 102.466 56.2052 102.468 56.2053 102.469C56.2053 102.47 56.2053 102.471 56.2054 102.473C56.2054 102.474 56.2054 102.475 56.2055 102.477C56.2055 102.478 56.2055 102.479 56.2056 102.48C56.2056 102.482 56.2056 102.483 56.2057 102.484C56.2057 102.486 56.2057 102.487 56.2058 102.488C56.2058 102.49 56.2058 102.491 56.2059 102.492C56.2059 102.493 56.2059 102.495 56.206 102.496C56.206 102.497 56.206 102.498 56.206 102.5C56.2061 102.501 56.2061 102.502 56.2061 102.504C56.2062 102.505 56.2062 102.506 56.2062 102.507C56.2063 102.509 56.2063 102.51 56.2063 102.511C56.2064 102.513 56.2064 102.514 56.2064 102.515C56.2065 102.516 56.2065 102.518 56.2065 102.519C56.2066 102.52 56.2066 102.521 56.2066 102.523C56.2067 102.524 56.2067 102.525 56.2067 102.527C56.2068 102.528 56.2068 102.529 56.2068 102.53C56.2068 102.532 56.2069 102.533 56.2069 102.534C56.2069 102.535 56.207 102.537 56.207 102.538C56.207 102.539 56.2071 102.541 56.2071 102.542C56.2071 102.543 56.2072 102.544 56.2072 102.546C56.2072 102.547 56.2073 102.548 56.2073 102.549C56.2073 102.551 56.2074 102.552 56.2074 102.553C56.2074 102.554 56.2074 102.556 56.2075 102.557C56.2075 102.558 56.2075 102.559 56.2076 102.561C56.2076 102.562 56.2076 102.563 56.2077 102.565C56.2077 102.566 56.2077 102.567 56.2078 102.568C56.2078 102.57 56.2078 102.571 56.2079 102.572C56.2079 102.573 56.2079 102.575 56.2079 102.576C56.208 102.577 56.208 102.578 56.208 102.58C56.2081 102.581 56.2081 102.582 56.2081 102.583C56.2082 102.585 56.2082 102.586 56.2082 102.587C56.2083 102.588 56.2083 102.59 56.2083 102.591C56.2084 102.592 56.2084 102.593 56.2084 102.595C56.2084 102.596 56.2085 102.597 56.2085 102.598C56.2085 102.6 56.2086 102.601 56.2086 102.602C56.2086 102.603 56.2087 102.605 56.2087 102.606C56.2087 102.607 56.2088 102.608 56.2088 102.61C56.2088 102.611 56.2089 102.612 56.2089 102.613C56.2089 102.615 56.2089 102.616 56.209 102.617C56.209 102.618 56.209 102.62 56.2091 102.621C56.2091 102.622 56.2091 102.623 56.2092 102.624C56.2092 102.626 56.2092 102.627 56.2093 102.628C56.2093 102.629 56.2093 102.631 56.2094 102.632C56.2094 102.633 56.2094 102.634 56.2094 102.636C56.2095 102.637 56.2095 102.638 56.2095 102.639C56.2096 102.641 56.2096 102.642 56.2096 102.643C56.2097 102.644 56.2097 102.646 56.2097 102.647C56.2098 102.648 56.2098 102.649 56.2098 102.65C56.2098 102.652 56.2099 102.653 56.2099 102.654C56.2099 102.655 56.21 102.657 56.21 102.658C56.21 102.659 56.2101 102.66 56.2101 102.662C56.2101 102.663 56.2102 102.664 56.2102 102.665C56.2102 102.666 56.2102 102.668 56.2103 102.669C56.2103 102.67 56.2103 102.671 56.2104 102.673C56.2104 102.674 56.2104 102.675 56.2105 102.676C56.2105 102.677 56.2105 102.679 56.2106 102.68C56.2106 102.681 56.2106 102.682 56.2106 102.684C56.2107 102.685 56.2107 102.686 56.2107 102.687C56.2108 102.688 56.2108 102.69 56.2108 102.691C56.2109 102.692 56.2109 102.693 56.2109 102.695C56.2109 102.696 56.211 102.697 56.211 102.698C56.211 102.699 56.2111 102.701 56.2111 102.702C56.2111 102.703 56.2112 102.704 56.2112 102.706C56.2112 102.707 56.2113 102.708 56.2113 102.709C56.2113 102.71 56.2113 102.712 56.2114 102.713C56.2114 102.714 56.2114 102.715 56.2115 102.717C56.2115 102.718 56.2115 102.719 56.2116 102.72C56.2116 102.721 56.2116 102.723 56.2116 102.724C56.2117 102.725 56.2117 102.726 56.2117 102.727C56.2118 102.729 56.2118 102.73 56.2118 102.731C56.2119 102.732 56.2119 102.733 56.2119 102.735C56.212 102.736 56.212 102.737 56.212 102.738C56.212 102.74 56.2121 102.741 56.2121 102.742C56.2121 102.743 56.2122 102.744 56.2122 102.746C56.2122 102.747 56.2123 102.748 56.2123 102.749C56.2123 102.75 56.2123 102.752 56.2124 102.753C56.2124 102.754 56.2124 102.755 56.2125 102.756C56.2125 102.758 56.2125 102.759 56.2126 102.76C56.2126 102.761 56.2126 102.763 56.2126 102.764C56.2127 102.765 56.2127 102.766 56.2127 102.767C56.2128 102.769 56.2128 102.77 56.2128 102.771C56.2129 102.772 56.2129 102.773 56.2129 102.775C56.2129 102.776 56.213 102.777 56.213 102.778C56.213 102.779 56.2131 102.781 56.2131 102.782C56.2131 102.783 56.2132 102.784 56.2132 102.785C56.2132 102.787 56.2132 102.788 56.2133 102.789C56.2133 102.79 56.2133 102.791 56.2134 102.793C56.2134 102.794 56.2134 102.795 56.2135 102.796C56.2135 102.797 56.2135 102.799 56.2135 102.8C56.2136 102.801 56.2136 102.802 56.2136 102.803C56.2137 102.805 56.2137 102.806 56.2137 102.807C56.2138 102.808 56.2138 102.809 56.2138 102.811C56.2138 102.812 56.2139 102.813 56.2139 102.814C56.2139 102.815 56.214 102.817 56.214 102.818C56.214 102.819 56.2141 102.82 56.2141 102.821C56.2141 102.823 56.2141 102.824 56.2142 102.825C56.2142 102.826 56.2142 102.827 56.2143 102.828C56.2143 102.83 56.2143 102.831 56.2144 102.832C56.2144 102.833 56.2144 102.834 56.2144 102.836C56.2145 102.837 56.2145 102.838 56.2145 102.839C56.2146 102.84 56.2146 102.842 56.2146 102.843C56.2147 102.844 56.2147 102.845 56.2147 102.846C56.2147 102.848 56.2148 102.849 56.2148 102.85C56.2148 102.851 56.2149 102.852 56.2149 102.854C56.2149 102.855 56.2149 102.856 56.215 102.857C56.215 102.858 56.215 102.859 56.2151 102.861C56.2151 102.862 56.2151 102.863 56.2152 102.864C56.2152 102.865 56.2152 102.867 56.2152 102.868C56.2153 102.869 56.2153 102.87 56.2153 102.871C56.2154 102.873 56.2154 102.874 56.2154 102.875C56.2155 102.876 56.2155 102.877 56.2155 102.879C56.2155 102.88 56.2156 102.881 56.2156 102.882C56.2156 102.883 56.2157 102.884 56.2157 102.886C56.2157 102.887 56.2158 102.888 56.2158 102.889C56.2158 102.89 56.2158 102.892 56.2159 102.893C56.2159 102.894 56.2159 102.895 56.216 102.896C56.216 102.897 56.216 102.899 56.216 102.9C56.2161 102.901 56.2161 102.902 56.2161 102.903C56.2162 102.905 56.2162 102.906 56.2162 102.907C56.2163 102.908 56.2163 102.909 56.2163 102.911C56.2163 102.912 56.2164 102.913 56.2164 102.914C56.2164 102.915 56.2165 102.916 56.2165 102.918C56.2165 102.919 56.2166 102.92 56.2166 102.921C56.2166 102.922 56.2166 102.924 56.2167 102.925C56.2167 102.926 56.2167 102.927 56.2168 102.928C56.2168 102.929 56.2168 102.931 56.2168 102.932C56.2169 102.933 56.2169 102.934 56.2169 102.935C56.217 102.937 56.217 102.938 56.217 102.939C56.2171 102.94 56.2171 102.941 56.2171 102.942C56.2171 102.944 56.2172 102.945 56.2172 102.946C56.2172 102.947 56.2173 102.948 56.2173 102.95C56.2173 102.951 56.2174 102.952 56.2174 102.953C56.2174 102.954 56.2174 102.955 56.2175 102.957C56.2175 102.958 56.2175 102.959 56.2176 102.96C56.2176 102.961 56.2176 102.963 56.2176 102.964C56.2177 102.965 56.2177 102.966 56.2177 102.967C56.2178 102.968 56.2178 102.97 56.2178 102.971C56.2179 102.972 56.2179 102.973 56.2179 102.974C56.2179 102.976 56.218 102.977 56.218 102.978C56.218 102.979 56.2181 102.98 56.2181 102.981C56.2181 102.983 56.2181 102.984 56.2182 102.985C56.2182 102.986 56.2182 102.987 56.2183 102.989C56.2183 102.99 56.2183 102.991 56.2184 102.992C56.2184 102.993 56.2184 102.994 56.2184 102.996C56.2185 102.997 56.2185 102.998 56.2185 102.999C56.2186 103 56.2186 103.002 56.2186 103.003C56.2186 103.004 56.2187 103.005 56.2187 103.006C56.2187 103.007 56.2188 103.009 56.2188 103.01C56.2188 103.011 56.2189 103.012 56.2189 103.013C56.2189 103.015 56.2189 103.016 56.219 103.017C56.219 103.018 56.219 103.019 56.2191 103.02C56.2191 103.022 56.2191 103.023 56.2192 103.024C56.2192 103.025 56.2192 103.026 56.2192 103.028C56.2193 103.029 56.2193 103.03 56.2193 103.031C56.2194 103.032 56.2194 103.033 56.2194 103.035C56.2194 103.036 56.2195 103.037 56.2195 103.038C56.2195 103.039 56.2196 103.041 56.2196 103.042C56.2196 103.043 56.2197 103.044 56.2197 103.045C56.2197 103.046 56.2197 103.048 56.2198 103.049C56.2198 103.05 56.2198 103.051 56.2199 103.052C56.2199 103.054 56.2199 103.055 56.2199 103.056C56.22 103.057 56.22 103.058 56.22 103.059C56.2201 103.061 56.2201 103.062 56.2201 103.063C56.2202 103.064 56.2202 103.065 56.2202 103.067C56.2202 103.068 56.2203 103.069 56.2203 103.07C56.2203 103.071 56.2204 103.072 56.2204 103.074C56.2204 103.075 56.2204 103.076 56.2205 103.077C56.2205 103.078 56.2205 103.08 56.2206 103.081C56.2206 103.082 56.2206 103.083 56.2207 103.084C56.2207 103.085 56.2207 103.087 56.2207 103.088C56.2208 103.089 56.2208 103.09 56.2208 103.091C56.2209 103.093 56.2209 103.094 56.2209 103.095C56.221 103.096 56.221 103.097 56.221 103.098C56.221 103.1 56.2211 103.101 56.2211 103.102C56.2211 103.103 56.2212 103.104 56.2212 103.106C56.2212 103.107 56.2212 103.108 56.2213 103.109C56.2213 103.11 56.2213 103.111 56.2214 103.113C56.2214 103.114 56.2214 103.115 56.2215 103.116C56.2215 103.117 56.2215 103.119 56.2215 103.12C56.2216 103.121 56.2216 103.122 56.2216 103.123C56.2217 103.124 56.2217 103.126 56.2217 103.127C56.2218 103.128 56.2218 103.129 56.2218 103.13C56.2218 103.132 56.2219 103.133 56.2219 103.134C56.2219 103.135 56.222 103.136 56.222 103.138C56.222 103.139 56.222 103.14 56.2221 103.141C56.2221 103.142 56.2221 103.143 56.2222 103.145C56.2222 103.146 56.2222 103.147 56.2223 103.148C56.2223 103.149 56.2223 103.151 56.2223 103.152C56.2224 103.153 56.2224 103.154 56.2224 103.155C56.2225 103.157 56.2225 103.158 56.2225 103.159C56.2226 103.16 56.2226 103.161 56.2226 103.162C56.2226 103.164 56.2227 103.165 56.2227 103.166C56.2227 103.167 56.2228 103.168 56.2228 103.17C56.2228 103.171 56.2229 103.172 56.2229 103.173C56.2229 103.174 56.2229 103.176 56.223 103.177C56.223 103.178 56.223 103.179 56.2231 103.18C56.2231 103.182 56.2231 103.183 56.2231 103.184C56.2232 103.185 56.2232 103.186 56.2232 103.188C56.2233 103.189 56.2233 103.19 56.2233 103.191C56.2234 103.192 56.2234 103.193 56.2234 103.195C56.2234 103.196 56.2235 103.197 56.2235 103.198C56.2235 103.199 56.2236 103.201 56.2236 103.202C56.2236 103.203 56.2237 103.204 56.2237 103.205C56.2237 103.207 56.2237 103.208 56.2238 103.209C56.2238 103.21 56.2238 103.211 56.2239 103.213C56.2239 103.214 56.2239 103.215 56.224 103.216C56.224 103.217 56.224 103.219 56.224 103.22C56.2241 103.221 56.2241 103.222 56.2241 103.223C56.2242 103.225 56.2242 103.226 56.2242 103.227C56.2243 103.228 56.2243 103.229 56.2243 103.231C56.2243 103.232 56.2244 103.233 56.2244 103.234C56.2244 103.235 56.2245 103.237 56.2245 103.238C56.2245 103.239 56.2246 103.24 56.2246 103.241C56.2246 103.243 56.2246 103.244 56.2247 103.245C56.2247 103.246 56.2247 103.247 56.2248 103.249C56.2248 103.25 56.2248 103.251 56.2249 103.252C56.2249 103.253 56.2249 103.255 56.2249 103.256C56.225 103.257 56.225 103.258 56.225 103.259C56.2251 103.261 56.2251 103.262 56.2251 103.263C56.2252 103.264 56.2252 103.265 56.2252 103.267C56.2252 103.268 56.2253 103.269 56.2253 103.27C56.2253 103.271 56.2254 103.273 56.2254 103.274C56.2254 103.275 56.2255 103.276 56.2255 103.278C56.2255 103.279 56.2255 103.28 56.2256 103.281C56.2256 103.282 56.2256 103.284 56.2257 103.285C56.2257 103.286 56.2257 103.287 56.2258 103.288C56.2258 103.29 56.2258 103.291 56.2258 103.292C56.2259 103.293 56.2259 103.294 56.2259 103.296C56.226 103.297 56.226 103.298 56.226 103.299C56.2261 103.301 56.2261 103.302 56.2261 103.303C56.2262 103.304 56.2262 103.305 56.2262 103.307C56.2262 103.308 56.2263 103.309 56.2263 103.31C56.2263 103.311 56.2264 103.313 56.2264 103.314C56.2264 103.315 56.2265 103.316 56.2265 103.318C56.2265 103.319 56.2265 103.32 56.2266 103.321C56.2266 103.322 56.2266 103.324 56.2267 103.325C56.2267 103.326 56.2267 103.327 56.2268 103.328C56.2268 103.33 56.2268 103.331 56.2269 103.332C56.2269 103.333 56.2269 103.335 56.2269 103.336C56.227 103.337 56.227 103.338 56.227 103.339C56.2271 103.341 56.2271 103.342 56.2271 103.343C56.2272 103.344 56.2272 103.346 56.2272 103.347C56.2273 103.348 56.2273 103.349 56.2273 103.35C56.2273 103.352 56.2274 103.353 56.2274 103.354C56.2274 103.355 56.2275 103.357 56.2275 103.358C56.2275 103.359 56.2276 103.36 56.2276 103.362C56.2276 103.363 56.2276 103.364 56.2277 103.365C56.2277 103.366 56.2277 103.368 56.2278 103.369C56.2278 103.37 56.2278 103.371 56.2279 103.373C56.2279 103.374 56.2279 103.375 56.228 103.376C56.228 103.378 56.228 103.379 56.228 103.38C56.2281 103.381 56.2281 103.382 56.2281 103.384C56.2282 103.385 56.2282 103.386 56.2282 103.387C56.2283 103.389 56.2283 103.39 56.2283 103.391C56.2284 103.392 56.2284 103.394 56.2284 103.395C56.2285 103.396 56.2285 103.397 56.2285 103.399C56.2285 103.4 56.2286 103.401 56.2286 103.402C56.2286 103.403 56.2287 103.405 56.2287 103.406C56.2287 103.407 56.2288 103.408 56.2288 103.41C56.2288 103.411 56.2289 103.412 56.2289 103.413C56.2289 103.415 56.2289 103.416 56.229 103.417C56.229 103.418 56.229 103.42 56.2291 103.421C56.2291 103.422 56.2291 103.423 56.2292 103.425C56.2292 103.426 56.2292 103.427 56.2293 103.428C56.2293 103.43 56.2293 103.431 56.2294 103.432C56.2294 103.433 56.2294 103.435 56.2294 103.436C56.2295 103.437 56.2295 103.438 56.2295 103.44C56.2296 103.441 56.2296 103.442 56.2296 103.443C56.2297 103.445 56.2297 103.446 56.2297 103.447C56.2298 103.448 56.2298 103.45 56.2298 103.451C56.2299 103.452 56.2299 103.453 56.2299 103.455C56.2299 103.456 56.23 103.457 56.23 103.458C56.23 103.46 56.2301 103.461 56.2301 103.462C56.2301 103.463 56.2302 103.465 56.2302 103.466C56.2302 103.467 56.2303 103.469 56.2303 103.47C56.2303 103.471 56.2304 103.472 56.2304 103.474C56.2304 103.475 56.2305 103.476 56.2305 103.477C56.2305 103.479 56.2305 103.48 56.2306 103.481C56.2306 103.482 56.2306 103.484 56.2307 103.485C56.2307 103.486 56.2307 103.487 56.2308 103.489C56.2308 103.49 56.2308 103.491 56.2309 103.493C56.2309 103.494 56.2309 103.495 56.231 103.496C56.231 103.498 56.231 103.499 56.2311 103.5C56.2311 103.501 56.2311 103.503 56.2311 103.504C56.2312 103.505 56.2312 103.507 56.2312 103.508C56.2313 103.509 56.2313 103.51 56.2313 103.512C56.2314 103.513 56.2314 103.514 56.2314 103.515C56.2315 103.517 56.2315 103.518 56.2315 103.519C56.2316 103.521 56.2316 103.522 56.2316 103.523C56.2317 103.524 56.2317 103.526 56.2317 103.527C56.2318 103.528 56.2318 103.53 56.2318 103.531C56.2319 103.532 56.2319 103.533 56.2319 103.535C56.2319 103.536 56.232 103.537 56.232 103.539C56.232 103.54 56.2321 103.541 56.2321 103.542C56.2321 103.544 56.2322 103.545 56.2322 103.546C56.2322 103.548 56.2323 103.549 56.2323 103.55C56.2323 103.551 56.2324 103.553 56.2324 103.554C56.2324 103.555 56.2325 103.557 56.2325 103.558C56.2325 103.559 56.2326 103.56 56.2326 103.562C56.2326 103.563 56.2327 103.564 56.2327 103.566C56.2327 103.567 56.2328 103.568 56.2328 103.57C56.2328 103.571 56.2329 103.572 56.2329 103.573C56.2329 103.575 56.2329 103.576 56.233 103.577C56.233 103.579 56.233 103.58 56.2331 103.581C56.2331 103.583 56.2331 103.584 56.2332 103.585C56.2332 103.586 56.2332 103.588 56.2333 103.589C56.2333 103.59 56.2333 103.592 56.2334 103.593C56.2334 103.594 56.2334 103.596 56.2335 103.597C56.2335 103.598 56.2335 103.599 56.2336 103.601C56.2336 103.602 56.2336 103.603 56.2337 103.605C56.2337 103.606 56.2337 103.607 56.2338 103.609C56.2338 103.61 56.2338 103.611 56.2339 103.613C56.2339 103.614 56.2339 103.615 56.234 103.617C56.234 103.618 56.234 103.619 56.2341 103.621C56.2341 103.622 56.2341 103.623 56.2342 103.624C56.2342 103.626 56.2342 103.627 56.2343 103.628C56.2343 103.63 56.2343 103.631 56.2344 103.632C56.2344 103.634 56.2344 103.635 56.2345 103.636C56.2345 103.638 56.2345 103.639 56.2346 103.64C56.2346 103.642 56.2346 103.643 56.2347 103.644C56.2347 103.646 56.2347 103.647 56.2348 103.648C56.2348 103.65 56.2348 103.651 56.2349 103.652C56.2349 103.654 56.2349 103.655 56.235 103.656C56.235 103.658 56.235 103.659 56.2351 103.66C56.2351 103.662 56.2351 103.663 56.2352 103.664C56.2352 103.666 56.2352 103.667 56.2353 103.668C56.2353 103.67 56.2353 103.671 56.2354 103.672C56.2354 103.674 56.2354 103.675 56.2355 103.676C56.2355 103.678 56.2355 103.679 56.2356 103.68C56.2356 103.682 56.2356 103.683 56.2357 103.684C56.2357 103.686 56.2357 103.687 56.2358 103.689C56.2358 103.69 56.2358 103.691 56.2359 103.693C56.2359 103.694 56.2359 103.695 56.236 103.697C56.236 103.698 56.236 103.699 56.2361 103.701C56.2361 103.702 56.2361 103.703 56.2362 103.705C56.2362 103.706 56.2362 103.707 56.2363 103.709C56.2363 103.71 56.2363 103.712 56.2364 103.713C56.2364 103.714 56.2364 103.716 56.2365 103.717C56.2365 103.718 56.2365 103.72 56.2366 103.721C56.2366 103.722 56.2366 103.724 56.2367 103.725C56.2367 103.727 56.2367 103.728 56.2368 103.729C56.2368 103.731 56.2368 103.732 56.2369 103.733C56.2369 103.735 56.2369 103.736 56.237 103.737C56.237 103.739 56.2371 103.74 56.2371 103.742C56.2371 103.743 56.2372 103.744 56.2372 103.746C56.2372 103.747 56.2373 103.748 56.2373 103.75C56.2373 103.751 56.2374 103.753 56.2374 103.754C56.2374 103.755 56.2375 103.757 56.2375 103.758C56.2375 103.76 56.2376 103.761 56.2376 103.762C56.2376 103.764 56.2377 103.765 56.2377 103.766C56.2377 103.768 56.2378 103.769 56.2378 103.771C56.2378 103.772 56.2379 103.773 56.2379 103.775C56.238 103.776 56.238 103.778 56.238 103.779C56.2381 103.78 56.2381 103.782 56.2381 103.783C56.2382 103.784 56.2382 103.786 56.2382 103.787C56.2383 103.789 56.2383 103.79 56.2383 103.791C56.2384 103.793 56.2384 103.794 56.2384 103.796C56.2385 103.797 56.2385 103.798 56.2385 103.8C56.2386 103.801 56.2386 103.803 56.2386 103.804C56.2387 103.805 56.2387 103.807 56.2388 103.808C56.2388 103.81 56.2388 103.811 56.2389 103.813C56.2389 103.814 56.2389 103.815 56.239 103.817C56.239 103.818 56.239 103.82 56.2391 103.821C56.2391 103.822 56.2391 103.824 56.2392 103.825C56.2392 103.827 56.2392 103.828 56.2393 103.829C56.2393 103.831 56.2394 103.832 56.2394 103.834C56.2394 103.835 56.2395 103.837 56.2395 103.838C56.2395 103.839 56.2396 103.841 56.2396 103.842C56.2396 103.844 56.2397 103.845 56.2397 103.847C56.2397 103.848 56.2398 103.849 56.2398 103.851C56.2399 103.852 56.2399 103.854 56.2399 103.855C56.24 103.857 56.24 103.858 56.24 103.859C56.2401 103.861 56.2401 103.862 56.2401 103.864C56.2402 103.865 56.2402 103.867 56.2402 103.868C56.2403 103.869 56.2403 103.871 56.2404 103.872C56.2404 103.874 56.2404 103.875 56.2405 103.877C56.2405 103.878 56.2405 103.88 56.2406 103.881C56.2406 103.882 56.2406 103.884 56.2407 103.885C56.2407 103.887 56.2408 103.888 56.2408 103.89C56.2408 103.891 56.2409 103.893 56.2409 103.894C56.2409 103.895 56.241 103.897 56.241 103.898C56.241 103.9 56.2411 103.901 56.2411 103.903C56.2412 103.904 56.2412 103.906 56.2412 103.907C56.2413 103.909 56.2413 103.91 56.2413 103.911C56.2414 103.913 56.2414 103.914 56.2414 103.916C56.2415 103.917 56.2415 103.919 56.2416 103.92C56.2416 103.922 56.2416 103.923 56.2417 103.925C56.2417 103.926 56.2417 103.928 56.2418 103.929C56.2418 103.931 56.2418 103.932 56.2419 103.933C56.2419 103.935 56.242 103.936 56.242 103.938C56.242 103.939 56.2421 103.941 56.2421 103.942C56.2421 103.944 56.2422 103.945 56.2422 103.947C56.2423 103.948 56.2423 103.95 56.2423 103.951C56.2424 103.953 56.2424 103.954 56.2424 103.956C56.2425 103.957 56.2425 103.959 56.2425 103.96C56.2426 103.962 56.2426 103.963 56.2427 103.965C56.2427 103.966 56.2427 103.968 56.2428 103.969C56.2428 103.971 56.2428 103.972 56.2429 103.974C56.2429 103.975 56.243 103.977 56.243 103.978C56.243 103.98 56.2431 103.981 56.2431 103.983C56.2431 103.984 56.2432 103.986 56.2432 103.987C56.2433 103.989 56.2433 103.99 56.2433 103.992C56.2434 103.993 56.2434 103.995 56.2434 103.996C56.2435 103.998 56.2435 103.999 56.2436 104.001C56.2436 104.002 56.2436 104.004 56.2437 104.005L56.7503 103.992L57.257 103.98C57.257 103.978 57.257 103.977 57.2569 103.975C57.2569 103.974 57.2568 103.972 57.2568 103.971C57.2568 103.969 57.2567 103.968 57.2567 103.966C57.2566 103.965 57.2566 103.963 57.2566 103.962C57.2565 103.96 57.2565 103.959 57.2565 103.957C57.2564 103.956 57.2564 103.954 57.2563 103.953C57.2563 103.951 57.2563 103.95 57.2562 103.948C57.2562 103.947 57.2562 103.945 57.2561 103.944C57.2561 103.942 57.256 103.941 57.256 103.939C57.256 103.938 57.2559 103.936 57.2559 103.935C57.2559 103.933 57.2558 103.932 57.2558 103.93C57.2558 103.929 57.2557 103.927 57.2557 103.926C57.2556 103.924 57.2556 103.923 57.2556 103.921C57.2555 103.92 57.2555 103.918 57.2555 103.917C57.2554 103.916 57.2554 103.914 57.2553 103.913C57.2553 103.911 57.2553 103.91 57.2552 103.908C57.2552 103.907 57.2552 103.905 57.2551 103.904C57.2551 103.902 57.2551 103.901 57.255 103.899C57.255 103.898 57.2549 103.896 57.2549 103.895C57.2549 103.893 57.2548 103.892 57.2548 103.891C57.2548 103.889 57.2547 103.888 57.2547 103.886C57.2546 103.885 57.2546 103.883 57.2546 103.882C57.2545 103.88 57.2545 103.879 57.2545 103.877C57.2544 103.876 57.2544 103.874 57.2544 103.873C57.2543 103.872 57.2543 103.87 57.2542 103.869C57.2542 103.867 57.2542 103.866 57.2541 103.864C57.2541 103.863 57.2541 103.861 57.254 103.86C57.254 103.859 57.254 103.857 57.2539 103.856C57.2539 103.854 57.2539 103.853 57.2538 103.851C57.2538 103.85 57.2537 103.848 57.2537 103.847C57.2537 103.846 57.2536 103.844 57.2536 103.843C57.2536 103.841 57.2535 103.84 57.2535 103.838C57.2535 103.837 57.2534 103.836 57.2534 103.834C57.2533 103.833 57.2533 103.831 57.2533 103.83C57.2532 103.828 57.2532 103.827 57.2532 103.825C57.2531 103.824 57.2531 103.823 57.2531 103.821C57.253 103.82 57.253 103.818 57.253 103.817C57.2529 103.816 57.2529 103.814 57.2528 103.813C57.2528 103.811 57.2528 103.81 57.2527 103.808C57.2527 103.807 57.2527 103.806 57.2526 103.804C57.2526 103.803 57.2526 103.801 57.2525 103.8C57.2525 103.798 57.2525 103.797 57.2524 103.796C57.2524 103.794 57.2524 103.793 57.2523 103.791C57.2523 103.79 57.2522 103.789 57.2522 103.787C57.2522 103.786 57.2521 103.784 57.2521 103.783C57.2521 103.782 57.252 103.78 57.252 103.779C57.252 103.777 57.2519 103.776 57.2519 103.775C57.2519 103.773 57.2518 103.772 57.2518 103.77C57.2518 103.769 57.2517 103.768 57.2517 103.766C57.2517 103.765 57.2516 103.763 57.2516 103.762C57.2515 103.761 57.2515 103.759 57.2515 103.758C57.2514 103.756 57.2514 103.755 57.2514 103.754C57.2513 103.752 57.2513 103.751 57.2513 103.749C57.2512 103.748 57.2512 103.747 57.2512 103.745C57.2511 103.744 57.2511 103.742 57.2511 103.741C57.251 103.74 57.251 103.738 57.251 103.737C57.2509 103.736 57.2509 103.734 57.2509 103.733C57.2508 103.731 57.2508 103.73 57.2507 103.729C57.2507 103.727 57.2507 103.726 57.2506 103.725C57.2506 103.723 57.2506 103.722 57.2505 103.72C57.2505 103.719 57.2505 103.718 57.2504 103.716C57.2504 103.715 57.2504 103.714 57.2503 103.712C57.2503 103.711 57.2503 103.709 57.2502 103.708C57.2502 103.707 57.2502 103.705 57.2501 103.704C57.2501 103.703 57.2501 103.701 57.25 103.7C57.25 103.698 57.25 103.697 57.2499 103.696C57.2499 103.694 57.2499 103.693 57.2498 103.692C57.2498 103.69 57.2498 103.689 57.2497 103.688C57.2497 103.686 57.2497 103.685 57.2496 103.683C57.2496 103.682 57.2496 103.681 57.2495 103.679C57.2495 103.678 57.2495 103.677 57.2494 103.675C57.2494 103.674 57.2493 103.673 57.2493 103.671C57.2493 103.67 57.2492 103.669 57.2492 103.667C57.2492 103.666 57.2491 103.665 57.2491 103.663C57.2491 103.662 57.249 103.661 57.249 103.659C57.249 103.658 57.2489 103.656 57.2489 103.655C57.2489 103.654 57.2488 103.652 57.2488 103.651C57.2488 103.65 57.2487 103.648 57.2487 103.647C57.2487 103.646 57.2486 103.644 57.2486 103.643C57.2486 103.642 57.2485 103.64 57.2485 103.639C57.2485 103.638 57.2484 103.636 57.2484 103.635C57.2484 103.634 57.2483 103.632 57.2483 103.631C57.2483 103.63 57.2482 103.628 57.2482 103.627C57.2482 103.626 57.2481 103.624 57.2481 103.623C57.2481 103.622 57.248 103.62 57.248 103.619C57.248 103.618 57.2479 103.616 57.2479 103.615C57.2479 103.614 57.2478 103.612 57.2478 103.611C57.2478 103.61 57.2477 103.608 57.2477 103.607C57.2477 103.606 57.2476 103.604 57.2476 103.603C57.2476 103.602 57.2475 103.6 57.2475 103.599C57.2475 103.598 57.2474 103.597 57.2474 103.595C57.2474 103.594 57.2473 103.593 57.2473 103.591C57.2473 103.59 57.2472 103.589 57.2472 103.587C57.2472 103.586 57.2471 103.585 57.2471 103.583C57.2471 103.582 57.2471 103.581 57.247 103.579C57.247 103.578 57.247 103.577 57.2469 103.575C57.2469 103.574 57.2469 103.573 57.2468 103.572C57.2468 103.57 57.2468 103.569 57.2467 103.568C57.2467 103.566 57.2467 103.565 57.2466 103.564C57.2466 103.562 57.2466 103.561 57.2465 103.56C57.2465 103.558 57.2465 103.557 57.2464 103.556C57.2464 103.555 57.2464 103.553 57.2463 103.552C57.2463 103.551 57.2463 103.549 57.2462 103.548C57.2462 103.547 57.2462 103.545 57.2461 103.544C57.2461 103.543 57.2461 103.542 57.246 103.54C57.246 103.539 57.246 103.538 57.2459 103.536C57.2459 103.535 57.2459 103.534 57.2458 103.533C57.2458 103.531 57.2458 103.53 57.2457 103.529C57.2457 103.527 57.2457 103.526 57.2457 103.525C57.2456 103.523 57.2456 103.522 57.2456 103.521C57.2455 103.52 57.2455 103.518 57.2455 103.517C57.2454 103.516 57.2454 103.514 57.2454 103.513C57.2453 103.512 57.2453 103.511 57.2453 103.509C57.2452 103.508 57.2452 103.507 57.2452 103.505C57.2451 103.504 57.2451 103.503 57.2451 103.502C57.245 103.5 57.245 103.499 57.245 103.498C57.2449 103.497 57.2449 103.495 57.2449 103.494C57.2449 103.493 57.2448 103.491 57.2448 103.49C57.2448 103.489 57.2447 103.488 57.2447 103.486C57.2447 103.485 57.2446 103.484 57.2446 103.482C57.2446 103.481 57.2445 103.48 57.2445 103.479C57.2445 103.477 57.2444 103.476 57.2444 103.475C57.2444 103.474 57.2443 103.472 57.2443 103.471C57.2443 103.47 57.2442 103.468 57.2442 103.467C57.2442 103.466 57.2442 103.465 57.2441 103.463C57.2441 103.462 57.2441 103.461 57.244 103.46C57.244 103.458 57.244 103.457 57.2439 103.456C57.2439 103.455 57.2439 103.453 57.2438 103.452C57.2438 103.451 57.2438 103.449 57.2437 103.448C57.2437 103.447 57.2437 103.446 57.2436 103.444C57.2436 103.443 57.2436 103.442 57.2436 103.441C57.2435 103.439 57.2435 103.438 57.2435 103.437C57.2434 103.436 57.2434 103.434 57.2434 103.433C57.2433 103.432 57.2433 103.431 57.2433 103.429C57.2432 103.428 57.2432 103.427 57.2432 103.426C57.2431 103.424 57.2431 103.423 57.2431 103.422C57.243 103.421 57.243 103.419 57.243 103.418C57.243 103.417 57.2429 103.416 57.2429 103.414C57.2429 103.413 57.2428 103.412 57.2428 103.411C57.2428 103.409 57.2427 103.408 57.2427 103.407C57.2427 103.406 57.2426 103.404 57.2426 103.403C57.2426 103.402 57.2425 103.401 57.2425 103.399C57.2425 103.398 57.2425 103.397 57.2424 103.396C57.2424 103.394 57.2424 103.393 57.2423 103.392C57.2423 103.391 57.2423 103.389 57.2422 103.388C57.2422 103.387 57.2422 103.386 57.2421 103.384C57.2421 103.383 57.2421 103.382 57.2421 103.381C57.242 103.379 57.242 103.378 57.242 103.377C57.2419 103.376 57.2419 103.374 57.2419 103.373C57.2418 103.372 57.2418 103.371 57.2418 103.369C57.2417 103.368 57.2417 103.367 57.2417 103.366C57.2416 103.365 57.2416 103.363 57.2416 103.362C57.2416 103.361 57.2415 103.36 57.2415 103.358C57.2415 103.357 57.2414 103.356 57.2414 103.355C57.2414 103.353 57.2413 103.352 57.2413 103.351C57.2413 103.35 57.2412 103.349 57.2412 103.347C57.2412 103.346 57.2412 103.345 57.2411 103.344C57.2411 103.342 57.2411 103.341 57.241 103.34C57.241 103.339 57.241 103.337 57.2409 103.336C57.2409 103.335 57.2409 103.334 57.2408 103.333C57.2408 103.331 57.2408 103.33 57.2408 103.329C57.2407 103.328 57.2407 103.326 57.2407 103.325C57.2406 103.324 57.2406 103.323 57.2406 103.321C57.2405 103.32 57.2405 103.319 57.2405 103.318C57.2404 103.317 57.2404 103.315 57.2404 103.314C57.2404 103.313 57.2403 103.312 57.2403 103.31C57.2403 103.309 57.2402 103.308 57.2402 103.307C57.2402 103.306 57.2401 103.304 57.2401 103.303C57.2401 103.302 57.2401 103.301 57.24 103.3C57.24 103.298 57.24 103.297 57.2399 103.296C57.2399 103.295 57.2399 103.293 57.2398 103.292C57.2398 103.291 57.2398 103.29 57.2397 103.289C57.2397 103.287 57.2397 103.286 57.2397 103.285C57.2396 103.284 57.2396 103.282 57.2396 103.281C57.2395 103.28 57.2395 103.279 57.2395 103.278C57.2394 103.276 57.2394 103.275 57.2394 103.274C57.2394 103.273 57.2393 103.272 57.2393 103.27C57.2393 103.269 57.2392 103.268 57.2392 103.267C57.2392 103.265 57.2391 103.264 57.2391 103.263C57.2391 103.262 57.2391 103.261 57.239 103.259C57.239 103.258 57.239 103.257 57.2389 103.256C57.2389 103.255 57.2389 103.253 57.2388 103.252C57.2388 103.251 57.2388 103.25 57.2387 103.249C57.2387 103.247 57.2387 103.246 57.2387 103.245C57.2386 103.244 57.2386 103.243 57.2386 103.241C57.2385 103.24 57.2385 103.239 57.2385 103.238C57.2384 103.236 57.2384 103.235 57.2384 103.234C57.2384 103.233 57.2383 103.232 57.2383 103.23C57.2383 103.229 57.2382 103.228 57.2382 103.227C57.2382 103.226 57.2381 103.224 57.2381 103.223C57.2381 103.222 57.2381 103.221 57.238 103.22C57.238 103.218 57.238 103.217 57.2379 103.216C57.2379 103.215 57.2379 103.214 57.2378 103.212C57.2378 103.211 57.2378 103.21 57.2378 103.209C57.2377 103.208 57.2377 103.206 57.2377 103.205C57.2376 103.204 57.2376 103.203 57.2376 103.202C57.2375 103.2 57.2375 103.199 57.2375 103.198C57.2375 103.197 57.2374 103.196 57.2374 103.194C57.2374 103.193 57.2373 103.192 57.2373 103.191C57.2373 103.19 57.2372 103.188 57.2372 103.187C57.2372 103.186 57.2372 103.185 57.2371 103.184C57.2371 103.182 57.2371 103.181 57.237 103.18C57.237 103.179 57.237 103.178 57.2369 103.177C57.2369 103.175 57.2369 103.174 57.2369 103.173C57.2368 103.172 57.2368 103.171 57.2368 103.169C57.2367 103.168 57.2367 103.167 57.2367 103.166C57.2366 103.165 57.2366 103.163 57.2366 103.162C57.2366 103.161 57.2365 103.16 57.2365 103.159C57.2365 103.157 57.2364 103.156 57.2364 103.155C57.2364 103.154 57.2364 103.153 57.2363 103.151C57.2363 103.15 57.2363 103.149 57.2362 103.148C57.2362 103.147 57.2362 103.145 57.2361 103.144C57.2361 103.143 57.2361 103.142 57.2361 103.141C57.236 103.14 57.236 103.138 57.236 103.137C57.2359 103.136 57.2359 103.135 57.2359 103.134C57.2358 103.132 57.2358 103.131 57.2358 103.13C57.2358 103.129 57.2357 103.128 57.2357 103.126C57.2357 103.125 57.2356 103.124 57.2356 103.123C57.2356 103.122 57.2355 103.121 57.2355 103.119C57.2355 103.118 57.2355 103.117 57.2354 103.116C57.2354 103.115 57.2354 103.113 57.2353 103.112C57.2353 103.111 57.2353 103.11 57.2353 103.109C57.2352 103.107 57.2352 103.106 57.2352 103.105C57.2351 103.104 57.2351 103.103 57.2351 103.102C57.235 103.1 57.235 103.099 57.235 103.098C57.235 103.097 57.2349 103.096 57.2349 103.094C57.2349 103.093 57.2348 103.092 57.2348 103.091C57.2348 103.09 57.2347 103.089 57.2347 103.087C57.2347 103.086 57.2347 103.085 57.2346 103.084C57.2346 103.083 57.2346 103.081 57.2345 103.08C57.2345 103.079 57.2345 103.078 57.2345 103.077C57.2344 103.075 57.2344 103.074 57.2344 103.073C57.2343 103.072 57.2343 103.071 57.2343 103.07C57.2342 103.068 57.2342 103.067 57.2342 103.066C57.2342 103.065 57.2341 103.064 57.2341 103.062C57.2341 103.061 57.234 103.06 57.234 103.059C57.234 103.058 57.2339 103.057 57.2339 103.055C57.2339 103.054 57.2339 103.053 57.2338 103.052C57.2338 103.051 57.2338 103.049 57.2337 103.048C57.2337 103.047 57.2337 103.046 57.2337 103.045C57.2336 103.044 57.2336 103.042 57.2336 103.041C57.2335 103.04 57.2335 103.039 57.2335 103.038C57.2334 103.036 57.2334 103.035 57.2334 103.034C57.2334 103.033 57.2333 103.032 57.2333 103.031C57.2333 103.029 57.2332 103.028 57.2332 103.027C57.2332 103.026 57.2332 103.025 57.2331 103.023C57.2331 103.022 57.2331 103.021 57.233 103.02C57.233 103.019 57.233 103.018 57.2329 103.016C57.2329 103.015 57.2329 103.014 57.2329 103.013C57.2328 103.012 57.2328 103.01 57.2328 103.009C57.2327 103.008 57.2327 103.007 57.2327 103.006C57.2327 103.005 57.2326 103.003 57.2326 103.002C57.2326 103.001 57.2325 103 57.2325 102.999C57.2325 102.997 57.2324 102.996 57.2324 102.995C57.2324 102.994 57.2324 102.993 57.2323 102.992C57.2323 102.99 57.2323 102.989 57.2322 102.988C57.2322 102.987 57.2322 102.986 57.2321 102.984C57.2321 102.983 57.2321 102.982 57.2321 102.981C57.232 102.98 57.232 102.979 57.232 102.977C57.2319 102.976 57.2319 102.975 57.2319 102.974C57.2319 102.973 57.2318 102.972 57.2318 102.97C57.2318 102.969 57.2317 102.968 57.2317 102.967C57.2317 102.966 57.2316 102.964 57.2316 102.963C57.2316 102.962 57.2316 102.961 57.2315 102.96C57.2315 102.959 57.2315 102.957 57.2314 102.956C57.2314 102.955 57.2314 102.954 57.2314 102.953C57.2313 102.951 57.2313 102.95 57.2313 102.949C57.2312 102.948 57.2312 102.947 57.2312 102.946C57.2311 102.944 57.2311 102.943 57.2311 102.942C57.2311 102.941 57.231 102.94 57.231 102.938C57.231 102.937 57.2309 102.936 57.2309 102.935C57.2309 102.934 57.2309 102.933 57.2308 102.931C57.2308 102.93 57.2308 102.929 57.2307 102.928C57.2307 102.927 57.2307 102.925 57.2306 102.924C57.2306 102.923 57.2306 102.922 57.2306 102.921C57.2305 102.92 57.2305 102.918 57.2305 102.917C57.2304 102.916 57.2304 102.915 57.2304 102.914C57.2303 102.912 57.2303 102.911 57.2303 102.91C57.2303 102.909 57.2302 102.908 57.2302 102.907C57.2302 102.905 57.2301 102.904 57.2301 102.903C57.2301 102.902 57.2301 102.901 57.23 102.899C57.23 102.898 57.23 102.897 57.2299 102.896C57.2299 102.895 57.2299 102.893 57.2298 102.892C57.2298 102.891 57.2298 102.89 57.2298 102.889C57.2297 102.888 57.2297 102.886 57.2297 102.885C57.2296 102.884 57.2296 102.883 57.2296 102.882C57.2295 102.88 57.2295 102.879 57.2295 102.878C57.2295 102.877 57.2294 102.876 57.2294 102.875C57.2294 102.873 57.2293 102.872 57.2293 102.871C57.2293 102.87 57.2293 102.869 57.2292 102.867C57.2292 102.866 57.2292 102.865 57.2291 102.864C57.2291 102.863 57.2291 102.861 57.229 102.86C57.229 102.859 57.229 102.858 57.229 102.857C57.2289 102.856 57.2289 102.854 57.2289 102.853C57.2288 102.852 57.2288 102.851 57.2288 102.85C57.2287 102.848 57.2287 102.847 57.2287 102.846C57.2287 102.845 57.2286 102.844 57.2286 102.842C57.2286 102.841 57.2285 102.84 57.2285 102.839C57.2285 102.838 57.2285 102.837 57.2284 102.835C57.2284 102.834 57.2284 102.833 57.2283 102.832C57.2283 102.831 57.2283 102.829 57.2282 102.828C57.2282 102.827 57.2282 102.826 57.2282 102.825C57.2281 102.823 57.2281 102.822 57.2281 102.821C57.228 102.82 57.228 102.819 57.228 102.817C57.2279 102.816 57.2279 102.815 57.2279 102.814C57.2279 102.813 57.2278 102.812 57.2278 102.81C57.2278 102.809 57.2277 102.808 57.2277 102.807C57.2277 102.806 57.2276 102.804 57.2276 102.803C57.2276 102.802 57.2276 102.801 57.2275 102.8C57.2275 102.798 57.2275 102.797 57.2274 102.796C57.2274 102.795 57.2274 102.794 57.2273 102.792C57.2273 102.791 57.2273 102.79 57.2273 102.789C57.2272 102.788 57.2272 102.786 57.2272 102.785C57.2271 102.784 57.2271 102.783 57.2271 102.782C57.227 102.78 57.227 102.779 57.227 102.778C57.227 102.777 57.2269 102.776 57.2269 102.774C57.2269 102.773 57.2268 102.772 57.2268 102.771C57.2268 102.77 57.2267 102.768 57.2267 102.767C57.2267 102.766 57.2267 102.765 57.2266 102.764C57.2266 102.762 57.2266 102.761 57.2265 102.76C57.2265 102.759 57.2265 102.758 57.2264 102.756C57.2264 102.755 57.2264 102.754 57.2264 102.753C57.2263 102.752 57.2263 102.75 57.2263 102.749C57.2262 102.748 57.2262 102.747 57.2262 102.746C57.2261 102.744 57.2261 102.743 57.2261 102.742C57.2261 102.741 57.226 102.74 57.226 102.738C57.226 102.737 57.2259 102.736 57.2259 102.735C57.2259 102.734 57.2258 102.732 57.2258 102.731C57.2258 102.73 57.2258 102.729 57.2257 102.728C57.2257 102.726 57.2257 102.725 57.2256 102.724C57.2256 102.723 57.2256 102.721 57.2255 102.72C57.2255 102.719 57.2255 102.718 57.2255 102.717C57.2254 102.715 57.2254 102.714 57.2254 102.713C57.2253 102.712 57.2253 102.711 57.2253 102.709C57.2252 102.708 57.2252 102.707 57.2252 102.706C57.2252 102.705 57.2251 102.703 57.2251 102.702C57.2251 102.701 57.225 102.7 57.225 102.698C57.225 102.697 57.2249 102.696 57.2249 102.695C57.2249 102.694 57.2248 102.692 57.2248 102.691C57.2248 102.69 57.2248 102.689 57.2247 102.688C57.2247 102.686 57.2247 102.685 57.2246 102.684C57.2246 102.683 57.2246 102.681 57.2245 102.68C57.2245 102.679 57.2245 102.678 57.2245 102.677C57.2244 102.675 57.2244 102.674 57.2244 102.673C57.2243 102.672 57.2243 102.67 57.2243 102.669C57.2242 102.668 57.2242 102.667 57.2242 102.666C57.2241 102.664 57.2241 102.663 57.2241 102.662C57.2241 102.661 57.224 102.659 57.224 102.658C57.224 102.657 57.2239 102.656 57.2239 102.655C57.2239 102.653 57.2238 102.652 57.2238 102.651C57.2238 102.65 57.2238 102.648 57.2237 102.647C57.2237 102.646 57.2237 102.645 57.2236 102.644C57.2236 102.642 57.2236 102.641 57.2235 102.64C57.2235 102.639 57.2235 102.637 57.2234 102.636C57.2234 102.635 57.2234 102.634 57.2234 102.632C57.2233 102.631 57.2233 102.63 57.2233 102.629C57.2232 102.628 57.2232 102.626 57.2232 102.625C57.2231 102.624 57.2231 102.623 57.2231 102.621C57.223 102.62 57.223 102.619 57.223 102.618C57.223 102.616 57.2229 102.615 57.2229 102.614C57.2229 102.613 57.2228 102.612 57.2228 102.61C57.2228 102.609 57.2227 102.608 57.2227 102.607C57.2227 102.605 57.2226 102.604 57.2226 102.603C57.2226 102.602 57.2225 102.6 57.2225 102.599C57.2225 102.598 57.2225 102.597 57.2224 102.595C57.2224 102.594 57.2224 102.593 57.2223 102.592C57.2223 102.59 57.2223 102.589 57.2222 102.588C57.2222 102.587 57.2222 102.585 57.2221 102.584C57.2221 102.583 57.2221 102.582 57.2221 102.581C57.222 102.579 57.222 102.578 57.222 102.577C57.2219 102.576 57.2219 102.574 57.2219 102.573C57.2218 102.572 57.2218 102.571 57.2218 102.569C57.2217 102.568 57.2217 102.567 57.2217 102.566C57.2216 102.564 57.2216 102.563 57.2216 102.562C57.2216 102.561 57.2215 102.559 57.2215 102.558C57.2215 102.557 57.2214 102.556 57.2214 102.554C57.2214 102.553 57.2213 102.552 57.2213 102.551C57.2213 102.549 57.2212 102.548 57.2212 102.547C57.2212 102.545 57.2211 102.544 57.2211 102.543C57.2211 102.542 57.2211 102.54 57.221 102.539C57.221 102.538 57.221 102.537 57.2209 102.535C57.2209 102.534 57.2209 102.533 57.2208 102.532C57.2208 102.53 57.2208 102.529 57.2207 102.528C57.2207 102.527 57.2207 102.525 57.2206 102.524C57.2206 102.523 57.2206 102.522 57.2205 102.52C57.2205 102.519 57.2205 102.518 57.2205 102.516C57.2204 102.515 57.2204 102.514 57.2204 102.513C57.2203 102.511 57.2203 102.51 57.2203 102.509C57.2202 102.508 57.2202 102.506 57.2202 102.505C57.2201 102.504 57.2201 102.503 57.2201 102.501C57.22 102.5 57.22 102.499 57.22 102.497C57.2199 102.496 57.2199 102.495 57.2199 102.494C57.2198 102.492 57.2198 102.491 57.2198 102.49C57.2198 102.489 57.2197 102.487 57.2197 102.486C57.2197 102.485 57.2196 102.483 57.2196 102.482C57.2196 102.481 57.2195 102.48 57.2195 102.478C57.2195 102.477 57.2194 102.476 57.2194 102.474C57.2194 102.473 57.2193 102.472 57.2193 102.471C57.2193 102.469 57.2192 102.468 57.2192 102.467C57.2192 102.465 57.2191 102.464 57.2191 102.463C57.2191 102.462 57.219 102.46 57.219 102.459C57.219 102.458 57.219 102.456 57.2189 102.455C57.2189 102.454 57.2189 102.453 57.2188 102.451C57.2188 102.45 57.2188 102.449 57.2187 102.447C57.2187 102.446 57.2187 102.445 57.2186 102.444C57.2186 102.442 57.2186 102.441 57.2185 102.44C57.2185 102.438 57.2185 102.437 57.2184 102.436C57.2184 102.434 57.2184 102.433 57.2183 102.432C57.2183 102.431 57.2183 102.429 57.2182 102.428C57.2182 102.427 57.2182 102.425 57.2181 102.424C57.2181 102.423 57.2181 102.421 57.218 102.42C57.218 102.419 57.218 102.418 57.2179 102.416C57.2179 102.415 57.2179 102.414 57.2178 102.412C57.2178 102.411 57.2178 102.41 57.2178 102.408C57.2177 102.407 57.2177 102.406 57.2177 102.405C57.2176 102.403 57.2176 102.402 57.2176 102.401C57.2175 102.399 57.2175 102.398 57.2175 102.397C57.2174 102.395 57.2174 102.394 57.2174 102.393C57.2173 102.391 57.2173 102.39 57.2173 102.389C57.2172 102.387 57.2172 102.386 57.2172 102.385C57.2171 102.384 57.2171 102.382 57.2171 102.381C57.217 102.38 57.217 102.378 57.217 102.377C57.2169 102.376 57.2169 102.374 57.2169 102.373C57.2168 102.372 57.2168 102.37 57.2168 102.369C57.2167 102.368 57.2167 102.366 57.2167 102.365C57.2166 102.364 57.2166 102.362 57.2166 102.361C57.2165 102.36 57.2165 102.358 57.2165 102.357C57.2164 102.356 57.2164 102.354 57.2164 102.353C57.2163 102.352 57.2163 102.35 57.2163 102.349C57.2162 102.348 57.2162 102.346 57.2162 102.345C57.2161 102.344 57.2161 102.342 57.2161 102.341C57.216 102.34 57.216 102.338 57.216 102.337C57.2159 102.336 57.2159 102.334 57.2159 102.333C57.2158 102.332 57.2158 102.33 57.2158 102.329C57.2157 102.328 57.2157 102.326 57.2157 102.325C57.2156 102.324 57.2156 102.322 57.2156 102.321C57.2155 102.32 57.2155 102.318 57.2155 102.317C57.2154 102.316 57.2154 102.314 57.2154 102.313C57.2153 102.312 57.2153 102.31 57.2153 102.309C57.2152 102.307 57.2152 102.306 57.2152 102.305C57.2151 102.303 57.2151 102.302 57.2151 102.301C57.215 102.299 57.215 102.298 57.215 102.297C57.2149 102.295 57.2149 102.294 57.2149 102.293C57.2148 102.291 57.2148 102.29 57.2148 102.289C57.2147 102.287 57.2147 102.286 57.2147 102.284C57.2146 102.283 57.2146 102.282 57.2145 102.28C57.2145 102.279 57.2145 102.278 57.2144 102.276C57.2144 102.275 57.2144 102.274 57.2143 102.272C57.2143 102.271 57.2143 102.269 57.2142 102.268C57.2142 102.267 57.2142 102.265 57.2141 102.264C57.2141 102.263 57.2141 102.261 57.214 102.26C57.214 102.258 57.214 102.257 57.2139 102.256C57.2139 102.254 57.2139 102.253 57.2138 102.252C57.2138 102.25 57.2138 102.249 57.2137 102.247C57.2137 102.246 57.2137 102.245 57.2136 102.243C57.2136 102.242 57.2136 102.241 57.2135 102.239C57.2135 102.238 57.2135 102.236 57.2134 102.235C57.2134 102.234 57.2133 102.232 57.2133 102.231C57.2133 102.229 57.2132 102.228 57.2132 102.227C57.2132 102.225 57.2131 102.224 57.2131 102.222C57.2131 102.221 57.213 102.22 57.213 102.218C57.213 102.217 57.2129 102.216 57.2129 102.214C57.2129 102.213 57.2128 102.211 57.2128 102.21C57.2128 102.209 57.2127 102.207 57.2127 102.206C57.2126 102.204 57.2126 102.203 57.2126 102.202C57.2125 102.2 57.2125 102.199 57.2125 102.197C57.2124 102.196 57.2124 102.195 57.2124 102.193C57.2123 102.192 57.2123 102.19 57.2123 102.189C57.2122 102.187 57.2122 102.186 57.2122 102.185C57.2121 102.183 57.2121 102.182 57.2121 102.18C57.212 102.179 57.212 102.178 57.2119 102.176C57.2119 102.175 57.2119 102.173 57.2118 102.172C57.2118 102.171 57.2118 102.169 57.2117 102.168C57.2117 102.166 57.2117 102.165 57.2116 102.163C57.2116 102.162 57.2116 102.161 57.2115 102.159C57.2115 102.158 57.2114 102.156 57.2114 102.155C57.2114 102.153 57.2113 102.152 57.2113 102.151C57.2113 102.149 57.2112 102.148 57.2112 102.146C57.2112 102.145 57.2111 102.143 57.2111 102.142C57.2111 102.141 57.211 102.139 57.211 102.138C57.2109 102.136 57.2109 102.135 57.2109 102.133C57.2108 102.132 57.2108 102.131 57.2108 102.129C57.2107 102.128 57.2107 102.126 57.2107 102.125C57.2106 102.123 57.2106 102.122 57.2106 102.12C57.2105 102.119 57.2105 102.118 57.2104 102.116C57.2104 102.115 57.2104 102.113 57.2103 102.112C57.2103 102.11 57.2103 102.109 57.2102 102.107C57.2102 102.106 57.2102 102.104 57.2101 102.103C57.2101 102.102 57.21 102.1 57.21 102.099C57.21 102.097 57.2099 102.096 57.2099 102.094C57.2099 102.093 57.2098 102.091 57.2098 102.09C57.2098 102.088 57.2097 102.087 57.2097 102.086C57.2096 102.084 57.2096 102.083 57.2096 102.081C57.2095 102.08 57.2095 102.078 57.2095 102.077C57.2094 102.075 57.2094 102.074 57.2094 102.072C57.2093 102.071 57.2093 102.069 57.2092 102.068C57.2092 102.066 57.2092 102.065 57.2091 102.064C57.2091 102.062 57.2091 102.061 57.209 102.059C57.209 102.058 57.2089 102.056 57.2089 102.055C57.2089 102.053 57.2088 102.052 57.2088 102.05C57.2088 102.049 57.2087 102.047 57.2087 102.046C57.2086 102.044 57.2086 102.043 57.2086 102.041C57.2085 102.04 57.2085 102.038 57.2085 102.037C57.2084 102.035 57.2084 102.034 57.2084 102.032C57.2083 102.031 57.2083 102.029 57.2082 102.028C57.2082 102.026 57.2082 102.025 57.2081 102.023C57.2081 102.022 57.2081 102.02 57.208 102.019C57.208 102.017 57.2079 102.016 57.2079 102.014C57.2079 102.013 57.2078 102.011 57.2078 102.01C57.2078 102.008 57.2077 102.007 57.2077 102.005C57.2076 102.004 57.2076 102.002 57.2076 102.001C57.2075 101.999 57.2075 101.998 57.2074 101.996L56.7008 102.009ZM55.1223 91.7939L54.7037 91.5081L48.9598 99.9215L49.3784 100.207L49.7969 100.493L55.5409 92.0797L55.1223 91.7939Z" fill="black"/>
<path d="M33.204 97.7295L24.2579 100.229L17.0213 110.35M32.8156 128.059L33.6661 83.9681L32.8404 83.1827C33.452 82.9935 34.2585 82.564 34.6925 81.7187C35.2351 80.6621 35.9267 78.38 37.5852 78.3385C37.0695 78.1708 36.6881 76.9284 37.1885 75.7021C37.814 74.1692 39.4884 74.1028 39.6045 73.0568L39.5926 72.583C39.396 72.3034 39.0553 71.5723 39.2657 70.8843C39.5287 70.0243 40.2655 69.1524 39.7265 68.4547L39.1828 67.5674L39.6945 67.1753C39.6993 66.7327 39.822 65.8256 40.275 65.7384C40.8412 65.6294 40.0208 65.0542 40.0097 64.6071C39.9919 63.8964 40.5937 63.3124 41.8268 63.329" stroke="black" stroke-width="1.01603"/>
<path d="M49.3938 129.655L49.3938 84.1609L50.2359 83.3932C49.6284 83.1911 48.6709 82.5656 48.2548 81.7112C47.7347 80.6434 47.8499 78.7443 45.8581 78.4632C46.3234 77.9786 46.8524 77.5431 46.2594 75.9974C45.6665 74.4516 43.7813 74.1748 43.6873 73.1266L43.7092 72.6531C43.9117 72.3778 44.2677 71.654 44.0719 70.9617C43.8272 70.0963 43.109 69.2091 43.6626 68.5229L44.2249 67.6474L43.7216 67.2445C43.7262 66.8019 43.6227 65.8924 43.1716 65.7957C42.6078 65.6748 43.4402 65.1169 43.4608 64.6702C43.4936 63.9601 42.9043 63.3635 41.6711 63.354" stroke="black" stroke-width="1.01603"/>
<circle cx="54.6183" cy="98.0912" r="0.661375" transform="rotate(-1.43176 54.6183 98.0912)" fill="black" stroke="black" stroke-width="0.568427"/>
<path d="M49.6181 83.3311L46.2792 82.0914C46.2594 81.298 45.5877 80.8956 45.2544 80.7937C44.4544 80.549 43.8246 80.9398 43.618 81.4963L40.9485 80.5706L38.651 81.2898C38.6344 80.6285 37.965 80.3145 37.3121 80.6616C37.0972 80.8875 36.6708 81.4716 36.684 82.0005L33.4029 83.0748" stroke="black" stroke-width="0.893243"/>
<ellipse cx="41.7793" cy="59.4122" rx="1.21211" ry="1.24241" transform="rotate(-4.51073 41.7793 59.4122)" stroke="black" stroke-width="1.01441"/>
<path d="M36.1219 85.6557L36.0833 88.9607M37.5078 85.3179L37.4692 88.6229M35.7591 97.8199L35.7273 100.185M37.2707 97.6609L37.2684 99.995M35.5621 109.343L35.5553 111.496M37.104 109.184L37.0972 111.336M35.5969 118.012L35.5658 119.195M37.0479 117.854L37.0169 119.037" stroke="black" stroke-width="1.01398" stroke-linecap="round"/>
<path d="M45.5875 86.1191L45.6086 89.3897M44.2034 85.7767L44.2245 89.0473M45.8856 98.1582L45.9048 100.499M44.3748 97.9919L44.3647 100.302M46.0212 109.562L46.0165 111.692M44.4801 109.395L44.4755 111.525M45.9402 118.14L45.965 119.311M44.49 117.975L44.5148 119.146" stroke="black" stroke-width="1.01398" stroke-linecap="round"/>
<path d="M52.9745 130.174L52.9746 124.606L52.6285 124.099L53.7796 122.858L55.2375 122.973L56.3636 124.37L56.044 124.923L56.044 129.655" stroke="black" stroke-width="1.13685"/>
<path d="M45.7607 78.5671L44.3429 78.4363" stroke="black" stroke-width="0.730835" stroke-linecap="round"/>
<path d="M41.0893 70.2109L40.9733 71.8779" stroke="black" stroke-width="0.649631" stroke-linecap="round"/>
<path d="M42.2734 70.2291L42.2749 71.9085" stroke="black" stroke-width="0.649631" stroke-linecap="round"/>
<path d="M82.9272 137.321V128.386V128.722V127.607L83.8335 125.597V101.547V99.3981H82.3881L81.2541 97.7124H79.7204L79.7204 94.7148L80.557 90.2532H84.8201C85.0644 88.7869 87.0302 84.7222 91.711 84.4253C91.8917 84.4138 92.0775 84.4079 92.2687 84.4079V83.7805L92.9658 83.0834L92.2687 82.3863V81.7588H91.711L96.1029 78.1338" stroke="black" stroke-width="0.974447"/>
<path d="M96.2064 78.1338L100.598 81.7588H100.041V82.3863L99.3434 83.0834L100.041 83.7805V84.4079C100.232 84.4079 100.418 84.4138 100.598 84.4253C101.725 84.4968 102.694 84.7865 103.52 85.2057C104.204 85.5529 104.78 85.9712 105.261 86.4195" stroke="black" stroke-width="0.974447"/>
<path d="M81.1328 97.8631L96.2068 89.3319" stroke="black" stroke-width="1.17721"/>
<path d="M95.896 89.3308L105.246 94.0776" stroke="black" stroke-width="1.17721"/>
<path d="M83.9041 125.495H91.4187M83.7544 101.292H105.406M100.898 125.183H105.406" stroke="black" stroke-width="0.974447"/>
<path d="M96.2065 78.4443L96.2065 75.3337" stroke="black" stroke-width="0.974447"/>
<path d="M96.2597 72.6515L96.2597 69.8278" stroke="black" stroke-width="0.974447" stroke-linecap="round"/>
<circle cx="96.2074" cy="74.089" r="1.04362" stroke="black" stroke-width="1.02329"/>
<rect x="93.0966" y="111.417" width="6.22107" height="6.22107" rx="1.29704" stroke="black" stroke-width="0.93673"/>
<path d="M96.2074 123.548H91.5416V125.959L92.689 127.514H94.0657V133.113L92.689 134.357V139.378H96.2074" stroke="black" stroke-width="1.17721"/>
<path d="M96.2069 123.548H100.873V125.959L99.7254 127.514H98.3486V133.113L99.7254 134.357V139.378H96.2069" stroke="black" stroke-width="1.17721"/>
<path d="M92.3459 84.4017H99.6846" stroke="black" stroke-width="0.974447"/>
<path d="M96.1751 84.5616V86.8085" stroke="black" stroke-width="0.974447" stroke-linecap="round"/>
<path d="M84.0416 93.2861C84.0416 93.5552 84.2597 93.7734 84.5288 93.7734C84.7979 93.7734 85.016 93.5552 85.016 93.2861H84.5288H84.0416ZM84.8479 90.1453L84.3731 90.0357C84.2057 90.7611 84.0416 92.0209 84.0416 93.0169H84.5288H85.016C85.016 92.0985 85.1709 90.9121 85.3226 90.2548L84.8479 90.1453ZM84.5288 93.0169H84.0416V93.2861H84.5288H85.016V93.0169H84.5288Z" fill="black"/>
<path d="M85.9643 98.1222L85.9643 99.3985" stroke="black" stroke-width="1.17643" stroke-linecap="round"/>
<path d="M87.2635 101.279L87.2635 125.22" stroke="black" stroke-width="0.974447" stroke-linecap="round"/>
<path d="M88.5174 98.1222L88.5174 99.3985" stroke="black" stroke-width="1.17643" stroke-linecap="round"/>
<path d="M91.0697 98.1222L91.0697 99.3985" stroke="black" stroke-width="1.17643" stroke-linecap="round"/>
<path d="M91.0697 104.185V105.142" stroke="black" stroke-width="1.17643" stroke-linecap="round"/>
<path d="M87.2635 127.569H82.945" stroke="black" stroke-width="0.730835" stroke-linecap="round"/>
<path d="M93.6222 98.1222L93.6222 99.3985" stroke="black" stroke-width="1.17643" stroke-linecap="round"/>
<path d="M93.6222 104.185V105.142" stroke="black" stroke-width="1.17643" stroke-linecap="round"/>
<path d="M98.7275 98.1222L98.7275 99.3985" stroke="black" stroke-width="1.17643" stroke-linecap="round"/>
<path d="M98.7275 104.185V105.142" stroke="black" stroke-width="1.17643" stroke-linecap="round"/>
<path d="M103.833 98.1222L103.833 99.3985" stroke="black" stroke-width="1.17643" stroke-linecap="round"/>
<path d="M96.1751 98.1222L96.1751 99.3985" stroke="black" stroke-width="1.17643" stroke-linecap="round"/>
<path d="M96.1751 104.185V105.142" stroke="black" stroke-width="1.17643" stroke-linecap="round"/>
<path d="M96.1445 115.08L96.1445 115.954" stroke="black" stroke-width="1.17643" stroke-linecap="round"/>
<path d="M101.281 98.1222L101.281 99.3985" stroke="black" stroke-width="1.17643" stroke-linecap="round"/>
<path d="M101.281 104.185V105.142" stroke="black" stroke-width="1.17643" stroke-linecap="round"/>
<path d="M55.1504 129.496L68.8831 129.536" stroke="black" stroke-width="1.17721"/>
<path d="M55.6384 130.706C50.1184 130.085 34.5873 127.355 17.0412 127.355" stroke="black" stroke-width="1.17721"/>
<path d="M68.5893 134.386C74.324 135.233 85.7935 139.146 85.7935 148.029C85.7935 148.628 85.7053 149.826 85.3546 149.826" stroke="black" stroke-width="1.17721"/>
<path d="M68.5891 131.96C71.7388 132.245 76.8934 133.617 81.3224 136.074C87.0196 139.23 91.9537 144.06 91.9537 148.203C92.064 148.948 91.5986 149.826 90.6259 149.826H79.5535" stroke="black" stroke-width="1.17721"/>
<path d="M68.588 139.68C70.3526 140.236 73.8816 142.808 73.8816 148.644C73.8816 149.039 73.8552 149.826 73.7471 149.826" stroke="black" stroke-width="1.17721"/>
<path d="M68.589 137.034C72.3386 137.735 79.8379 140.978 79.8379 148.338C79.8379 148.834 79.7805 149.827 79.5511 149.827H17.3305" stroke="black" stroke-width="1.17721"/>
<path d="M68.5449 129.341V141.312L68.5382 141.665V141.905C68.5427 141.978 68.5449 142.051 68.5449 142.126C68.5449 145.139 65.6665 147.64 62.0382 147.64C58.4098 147.64 55.5314 145.139 55.5314 142.126C55.5314 142.051 55.5337 141.978 55.5381 141.905V141.528L55.5314 141.283V129.34" stroke="black" stroke-width="1.17721"/>
<path d="M87.6951 108.088H91.191" stroke="black" stroke-width="0.649631" stroke-linecap="round"/>
<path d="M79.8294 94.3955H81.5774" stroke="black" stroke-width="0.649631" stroke-linecap="round"/>
<path d="M93.5219 127.316H95.2698" stroke="black" stroke-width="0.749384" stroke-linecap="round"/>
<path d="M103.718 120.033L105.175 120.033" stroke="black" stroke-width="0.649631" stroke-linecap="round"/>
<path d="M96.1274 96.2787L105.068 96.2787" stroke="black" stroke-width="0.649631" stroke-linecap="round"/>
<path d="M87.7174 120.144L89.46 120.144" stroke="black" stroke-width="0.649631" stroke-linecap="round"/>
<path d="M84.1995 114.498L85.3648 114.498" stroke="black" stroke-width="0.649631" stroke-linecap="round"/>
<path d="M101.679 108.088L104.884 108.088" stroke="black" stroke-width="0.649631" stroke-linecap="round"/>
<path d="M87.7174 118.478L91.051 118.478" stroke="black" stroke-width="0.649631" stroke-linecap="round"/>
<path d="M101.734 131.434L105.37 131.434" stroke="black" stroke-width="0.649631" stroke-linecap="round"/>
<path d="M86.2387 131.434L88.5116 131.434" stroke="black" stroke-width="0.649631" stroke-linecap="round"/>
<path d="M22.4382 143.339H26.5168" stroke="black" stroke-width="0.624487" stroke-linecap="round"/>
<path d="M49.5312 136.347L50.9879 136.347" stroke="black" stroke-width="0.649631" stroke-linecap="round"/>
<path d="M26.2252 139.26L29.4298 139.26" stroke="black" stroke-width="0.649631" stroke-linecap="round"/>
<mask id="mask0_698_782" style="mask-type:alpha" maskUnits="userSpaceOnUse" x="54" y="93" width="30" height="44">
<path d="M83.7396 125.448V101.733L72.1477 93.5509L57.5631 112.037L54.1158 131.66L82.8683 136.471V127.91L83.7396 125.448Z" fill="#D9D9D9"/>
</mask>
<g mask="url(#mask0_698_782)">
<path d="M77.9437 124.084C78.3941 124.533 79.5909 125.384 80.7749 125.195C81.9589 125.006 81.0537 125.79 80.4532 126.205" stroke="black" stroke-width="0.893243" stroke-linecap="round"/>
<path d="M62.5145 129.107C61.6404 129.717 60.4644 130.212 59.3117 129.686C58.5875 129.356 57.8529 129.07 57.153 128.628C56.9723 128.514 56.7441 128.437 56.6146 128.197C56.3918 127.786 56.6171 127.403 56.8681 127.223C57.1987 126.987 57.5249 126.735 57.8429 126.463C58.4449 125.95 59.0224 125.37 59.5587 124.71C59.0618 124.495 58.5755 124.236 58.103 123.937C57.9334 123.83 57.7142 123.749 57.5973 123.517C57.4185 123.162 57.5842 122.79 57.8024 122.622C58.7764 121.871 59.7042 121.071 60.5139 119.943C59.9684 119.732 59.4439 119.466 58.9471 119.15C58.792 119.051 58.5792 118.953 58.4806 118.718C58.2927 118.268 58.5825 117.96 58.8151 117.791C59.6958 117.148 60.5308 116.326 61.2182 115.267C60.7976 115.103 60.3881 114.897 59.9925 114.646C59.8394 114.55 59.6454 114.447 59.5665 114.206C59.4745 113.924 59.5726 113.572 59.7586 113.448C60.7831 112.728 61.5901 111.794 62.1238 110.72C61.7768 110.599 61.4422 110.437 61.1241 110.234C60.8231 110.041 60.5192 109.415 60.9516 109.092C61.7468 108.533 62.3354 107.797 62.6765 106.948C62.6765 106.948 63.3442 105.242 63.3455 105.239C63.4868 104.878 63.8438 104.87 63.9924 105.225C63.9924 105.225 64.7084 106.939 64.7084 106.94C65.0725 107.811 65.6296 108.391 66.1994 108.918C66.3762 109.083 66.6045 109.255 66.6045 109.618C66.6045 110.004 66.3541 110.155 66.155 110.278C65.8717 110.452 65.5785 110.592 65.2808 110.701L65.7355 111.499C66.2639 112.31 66.8882 112.88 67.5453 113.418C67.8398 113.659 67.8842 114.251 67.5832 114.499C67.1613 114.847 66.6562 115.06 66.1942 115.243C66.8553 116.286 67.6869 117.182 68.6299 117.862C68.8626 118.029 69.0152 118.447 68.8325 118.79C68.5906 119.245 68.0844 119.351 67.7322 119.541C67.6284 119.597 66.905 119.919 66.905 119.919C67.6385 120.973 68.5288 121.891 69.5146 122.603C69.9174 122.894 69.8538 123.523 69.4884 123.784C68.9679 124.156 68.4103 124.44 67.8589 124.683C68.6364 125.681 69.5252 126.54 70.5077 127.246C70.9776 127.584 70.8629 128.196 70.4449 128.474C69.7083 128.962 68.9572 129.399 68.1765 129.694C67.7296 129.863 67.3513 129.938 67.0096 129.938C66.4668 129.938 66.0148 129.749 65.5199 129.452C65.0704 129.181 65.3435 128.109 65.7996 128.384C66.4935 128.802 67.0235 128.946 67.9935 128.58C68.4818 128.395 68.9873 128.142 69.5512 127.799C68.5851 127.011 67.7144 126.072 66.9534 124.997C66.3606 125.167 65.7819 124.831 65.3344 124.506C64.9427 125.077 64.4019 125.398 63.8604 125.398C63.6448 125.398 63.4291 125.347 63.2227 125.241C62.7699 125.008 62.9992 123.917 63.4658 124.153C63.9797 124.418 64.6144 124.117 64.9384 123.454C65.0482 123.23 65.2491 123.157 65.4141 123.284C65.9346 123.683 66.4373 124.026 66.8802 123.845C67.4375 123.617 67.993 123.441 68.5398 123.129C67.5146 122.264 66.6074 121.187 65.8845 119.974C65.6919 119.65 65.8077 119.114 66.0883 119.027C66.6279 118.86 67.1478 118.639 67.6407 118.369C66.6707 117.527 65.834 116.462 65.1932 115.25C65.0171 114.918 65.1426 114.406 65.418 114.327C65.8031 114.217 66.1758 114.07 66.5326 113.89C65.6376 113.065 64.8962 111.991 64.4053 110.792C64.2476 110.421 64.2005 109.82 64.5908 109.732C64.8452 109.674 65.0925 109.594 65.3304 109.492C64.8047 108.949 64.3691 108.283 64.0668 107.547L63.6827 106.627L63.3259 107.537C63.0269 108.281 62.5863 108.944 62.031 109.495C62.2807 109.602 62.5391 109.683 62.8046 109.738C63.1772 109.815 63.1536 110.412 63.0071 110.784C62.5287 111.985 61.7837 113.044 60.8288 113.893C61.2086 114.086 61.6007 114.238 61.9996 114.346C62.2776 114.421 62.4057 114.937 62.2283 115.271C61.5941 116.464 60.7518 117.504 59.7194 118.371C60.2228 118.646 60.7537 118.869 61.3031 119.035C61.4609 119.03 61.7301 118.996 62.0075 118.902C62.3071 118.801 62.6153 118.631 62.8019 118.352C62.9459 118.135 63.1768 118.131 63.3259 118.338C63.5119 118.599 64.0487 118.919 64.3674 118.894C64.8563 118.854 64.8896 120.007 64.4014 120.04C64.0123 120.066 63.4667 119.823 63.0816 119.477C62.5309 120.026 61.7788 120.149 61.4377 120.176C60.7326 121.296 59.8548 122.287 58.8204 123.13C59.3448 123.429 59.8861 123.675 60.4355 123.864C60.7266 123.964 60.8288 124.535 60.6106 124.844C59.8298 125.948 58.8932 126.936 57.8207 127.787C58.2137 128.003 58.6199 128.182 59.0438 128.368C59.2061 128.44 59.3682 128.511 59.5312 128.586C61.3549 129.419 63.4133 126.966 63.437 126.938C63.8228 126.48 64.2905 127.371 63.91 127.834C63.8805 127.87 63.6463 128.15 63.2724 128.493L62.5158 129.105L62.5145 129.107Z" fill="black"/>
<path d="M72.7409 120.514C71.9476 121.115 70.8809 121.603 69.8347 121.085C69.1775 120.76 68.5095 120.478 67.8746 120.043C67.711 119.931 67.5042 119.854 67.3859 119.617C67.1835 119.212 67.3879 118.835 67.6159 118.658C67.9162 118.425 68.2114 118.177 68.5005 117.909C69.0467 117.403 69.5712 116.831 70.0582 116.182C69.6073 115.969 69.1655 115.714 68.7371 115.419C68.5833 115.313 68.3836 115.234 68.2771 115.005C68.1148 114.655 68.2655 114.289 68.464 114.124C69.3479 113.384 70.1904 112.596 70.9245 111.484C70.4297 111.276 69.9536 111.014 69.5028 110.702C69.3622 110.605 69.1688 110.508 69.0794 110.276C68.9086 109.834 69.1723 109.53 69.3839 109.363C70.183 108.73 70.9405 107.92 71.5648 106.876C71.183 106.716 70.811 106.511 70.4515 106.265C70.3128 106.169 70.1376 106.069 70.066 105.831C69.9825 105.553 70.0709 105.206 70.2398 105.084C71.1697 104.374 71.9017 103.454 72.3854 102.396C72.07 102.277 71.7671 102.117 71.4786 101.918C71.2052 101.728 70.9294 101.111 71.3218 100.794C72.044 100.242 72.579 99.5173 72.8885 98.6814C72.8885 98.6814 73.4935 97.0008 73.4948 96.9979C73.623 96.6423 73.9468 96.6346 74.0816 96.9834C74.0816 96.9834 74.7316 98.6727 74.7323 98.6727C75.0622 99.5309 75.5689 100.102 76.0861 100.622C76.2471 100.783 76.4546 100.953 76.4546 101.312C76.4546 101.692 76.2256 101.842 76.0456 101.962C75.7879 102.134 75.5225 102.273 75.2524 102.379L75.6666 103.166C76.1463 103.965 76.7118 104.526 77.3078 105.056C77.5747 105.293 77.6152 105.876 77.3418 106.121C76.9593 106.464 76.5001 106.673 76.0808 106.853C76.6808 107.882 77.4362 108.765 78.2918 109.434C78.5028 109.599 78.6417 110.011 78.4761 110.349C78.2566 110.797 77.7984 110.901 77.479 111.088C77.3851 111.143 76.7264 111.461 76.7264 111.461C77.3921 112.5 78.201 113.405 79.0954 114.105C79.4608 114.391 79.4031 115.012 79.0719 115.269C78.5994 115.635 78.0948 115.915 77.594 116.156C78.2998 117.139 79.1053 117.985 79.9971 118.681C80.4236 119.013 80.3201 119.617 79.9409 119.89C79.2725 120.371 78.5899 120.802 77.8815 121.093C77.476 121.259 77.1332 121.333 76.8231 121.333C76.3302 121.333 75.9195 121.147 75.4706 120.854C75.0625 120.588 75.3094 119.532 75.7228 119.803C76.353 120.215 76.8343 120.358 77.7142 119.996C78.1572 119.815 78.6162 119.565 79.1281 119.227C78.2514 118.451 77.4602 117.525 76.7695 116.467C76.2312 116.633 75.7075 116.303 75.3007 115.983C74.9452 116.545 74.4529 116.861 73.9613 116.861C73.7662 116.861 73.5704 116.811 73.3838 116.708C72.9724 116.479 73.1814 115.403 73.6046 115.636C74.0712 115.897 74.647 115.601 74.9414 114.948C75.0413 114.727 75.2241 114.655 75.3739 114.78C75.8464 115.173 76.3039 115.511 76.7054 115.332C77.2115 115.109 77.7146 114.934 78.2108 114.628C77.2802 113.776 76.4564 112.714 75.8012 111.519C75.6264 111.2 75.7318 110.672 75.9868 110.586C76.4764 110.42 76.9479 110.203 77.3954 109.937C76.5154 109.108 75.7556 108.059 75.174 106.865C75.0143 106.537 75.1287 106.033 75.3791 105.955C75.7281 105.847 76.0659 105.702 76.3892 105.524C75.577 104.712 74.9048 103.653 74.4592 102.473C74.3159 102.107 74.2722 101.515 74.6265 101.428C74.8571 101.371 75.0826 101.292 75.2981 101.19C74.821 100.656 74.4255 99.9986 74.1508 99.2748L73.8019 98.3683L73.4792 99.2642C73.2077 99.9967 72.8072 100.651 72.3031 101.194C72.5298 101.298 72.7649 101.379 73.0061 101.433C73.3446 101.509 73.3218 102.097 73.1891 102.463C72.7547 103.646 72.0795 104.69 71.2133 105.525C71.5583 105.716 71.9129 105.866 72.2757 105.972C72.528 106.046 72.6444 106.554 72.4834 106.883C71.9077 108.059 71.143 109.084 70.2058 109.937C70.6626 110.209 71.1444 110.427 71.6432 110.59C71.7865 110.586 72.0311 110.552 72.2835 110.46C72.5556 110.36 72.8359 110.192 73.0048 109.917C73.1356 109.704 73.3438 109.699 73.4792 109.904C73.6481 110.161 74.1354 110.477 74.4239 110.451C74.8675 110.413 74.8982 111.548 74.4553 111.581C74.1024 111.607 73.6066 111.367 73.257 111.027C72.7569 111.567 72.0743 111.689 71.7647 111.715C71.1246 112.819 70.3282 113.795 69.3891 114.626C69.8649 114.92 70.3578 115.162 70.8566 115.349C71.1214 115.447 71.2131 116.01 71.0147 116.314C70.3056 117.403 69.4555 118.376 68.4823 119.215C68.8391 119.427 69.2072 119.603 69.5917 119.788C69.7389 119.858 69.8874 119.929 70.0346 120.001C71.6901 120.822 73.5574 118.406 73.5785 118.379C73.9287 117.927 74.3541 118.806 74.0084 119.261C73.9814 119.296 73.7699 119.572 73.4308 119.91L72.7435 120.513L72.7409 120.514Z" fill="black"/>
<path d="M76.6284 108.687C77.3263 108.072 77.3899 107.855 77.6646 106.994C77.6646 106.994 78.2016 105.264 78.203 105.26C78.3166 104.893 78.6379 104.857 78.7871 105.194C78.7871 105.194 79.5051 106.822 79.5058 106.823C79.8705 107.651 80.399 108.175 80.9366 108.649C81.1035 108.796 81.3174 108.947 81.3325 109.305C81.3483 109.684 81.1265 109.854 80.951 109.99C80.7013 110.184 80.4416 110.346 80.1761 110.476L80.6217 111.225C81.133 111.98 81.7203 112.491 82.3374 112.968C82.6134 113.18 82.6774 113.759 82.4145 114.028C82.0465 114.405 81.5976 114.653 81.1862 114.871C81.8276 115.844 82.6172 116.658 83.4991 117.251C83.7166 117.397 83.8717 117.796 83.7199 118.148C83.5188 118.614 83.0658 118.758 82.7543 118.974C82.6623 119.038 82.0186 119.413 82.0186 119.413C82.7257 120.391 84.4909 121.842 84.4909 121.842L83.6298 122.44C83.6298 122.44 81.7992 120.685 81.096 119.551C80.9087 119.248 80.9926 118.711 81.2437 118.603C81.7254 118.395 82.1866 118.136 82.6223 117.831C81.7101 117.081 80.9102 116.101 80.2806 114.96C80.1078 114.647 80.2008 114.133 80.4479 114.035C80.7923 113.895 81.1236 113.721 81.4397 113.515C80.5959 112.776 79.8797 111.779 79.3868 110.64C79.2291 110.288 79.1627 109.7 79.5123 109.582C79.7403 109.505 79.9612 109.407 80.1722 109.286C79.674 108.795 79.2527 108.173 78.9491 107.475L78.5623 106.601L78.2774 107.524C78.0362 108.28 77.883 108.683 77.4019 109.269C77.6326 109.353 77.6501 109.697 77.8933 109.73L77.6829 109.786L77.0975 109.235L76.6284 108.686V108.687Z" fill="black"/>
<path d="M63.2411 118.801V117.028" stroke="black" stroke-width="0.728522" stroke-linecap="round"/>
<path d="M74.4712 126.485V124.711" stroke="black" stroke-width="0.728522" stroke-linecap="round"/>
<path d="M73.2892 110.526V109.344" stroke="black" stroke-width="0.728522" stroke-linecap="round"/>
<path d="M75.3578 115.55L74.9145 113.777" stroke="black" stroke-width="0.728522" stroke-linecap="round"/>
<path d="M65.3098 123.825L64.7187 122.347" stroke="black" stroke-width="0.728522" stroke-linecap="round"/>
</g>
<path d="M70.4053 127.077C71.0114 127.431 73.0949 127.646 74.6102 126.168C75.4815 127.267 77.3756 127.911 78.4363 127.267" stroke="black" stroke-width="0.974447" stroke-linecap="round"/>
<path d="M76.0911 131.611C76.9995 131.798 78.0487 131.642 78.775 130.597C80.6885 131.625 81.5504 131.498 82.5832 130.972" stroke="black" stroke-width="0.974447" stroke-linecap="round"/>
<defs>
<linearGradient id="paint0_linear_698_782" x1="138.924" y1="91.0024" x2="75.7591" y2="4.0528" gradientUnits="userSpaceOnUse">
<stop stop-color="#C5B8AB"/>
<stop offset="1" stop-color="#A59482"/>
</linearGradient>
<linearGradient id="paint1_linear_698_782" x1="28.9403" y1="72.4792" x2="27.1494" y2="72.4349" gradientUnits="userSpaceOnUse">
<stop stop-color="#C5B8AB"/>
<stop offset="1" stop-color="#A59482"/>
</linearGradient>
<linearGradient id="paint2_linear_698_782" x1="39.7756" y1="79.8883" x2="37.9842" y2="79.855" gradientUnits="userSpaceOnUse">
<stop stop-color="#C5B8AB"/>
<stop offset="1" stop-color="#A59482"/>
</linearGradient>
<linearGradient id="paint3_linear_698_782" x1="51.0636" y1="83.9633" x2="49.272" y2="83.9341" gradientUnits="userSpaceOnUse">
<stop stop-color="#C5B8AB"/>
<stop offset="1" stop-color="#A59482"/>
</linearGradient>
<linearGradient id="paint4_linear_698_782" x1="62.3509" y1="85.0744" x2="60.5593" y2="85.0461" gradientUnits="userSpaceOnUse">
<stop stop-color="#C5B8AB"/>
<stop offset="1" stop-color="#A59482"/>
</linearGradient>
<linearGradient id="paint5_linear_698_782" x1="73.1867" y1="83.9633" x2="71.3951" y2="83.9341" gradientUnits="userSpaceOnUse">
<stop stop-color="#C5B8AB"/>
<stop offset="1" stop-color="#A59482"/>
</linearGradient>
<linearGradient id="paint6_linear_698_782" x1="84.0227" y1="80.2588" x2="82.2313" y2="80.226" gradientUnits="userSpaceOnUse">
<stop stop-color="#C5B8AB"/>
<stop offset="1" stop-color="#A59482"/>
</linearGradient>
<linearGradient id="paint7_linear_698_782" x1="95.3105" y1="73.2204" x2="93.5195" y2="73.1775" gradientUnits="userSpaceOnUse">
<stop stop-color="#C5B8AB"/>
<stop offset="1" stop-color="#A59482"/>
</linearGradient>
<linearGradient id="paint8_linear_698_782" x1="151.599" y1="275.766" x2="-14.1151" y2="185.156" gradientUnits="userSpaceOnUse">
<stop stop-color="#C5B8AB"/>
<stop offset="1" stop-color="#A59482"/>
</linearGradient>
</defs>
</svg>
