<svg width="22" height="18" viewBox="0 0 22 18" fill="none" xmlns="http://www.w3.org/2000/svg">
<path d="M19 0H3C2.20435 0 1.44129 0.315969 0.878679 0.878397C0.316069 1.44082 0 2.20364 0 2.99903V10.9965C0 11.7919 0.316069 12.5547 0.878679 13.1171C1.44129 13.6795 2.20435 13.9955 3 13.9955H10.34C11.1354 13.9962 11.8979 14.3126 12.46 14.8752L15.29 17.7043C15.383 17.798 15.4936 17.8724 15.6154 17.9231C15.7373 17.9739 15.868 18 16 18C16.132 18 16.2627 17.9739 16.3846 17.9231C16.5064 17.8724 16.617 17.798 16.71 17.7043C16.8037 17.6114 16.8781 17.5008 16.9289 17.379C16.9797 17.2572 17.0058 17.1265 17.0058 16.9945C17.0058 16.8626 16.9797 16.7319 16.9289 16.6101C16.8781 16.4883 16.8037 16.3777 16.71 16.2848L13.88 13.4557C13.4148 12.9918 12.8627 12.6241 12.2553 12.3737C11.6479 12.1233 10.9971 11.995 10.34 11.9961H3C2.73478 11.9961 2.48043 11.8908 2.29289 11.7033C2.10536 11.5159 2 11.2616 2 10.9965V2.99903C2 2.7339 2.10536 2.47963 2.29289 2.29215C2.48043 2.10468 2.73478 1.99936 3 1.99936H19C19.2652 1.99936 19.5196 2.10468 19.7071 2.29215C19.8946 2.47963 20 2.7339 20 2.99903V10.9965C20 11.2616 19.8946 11.5159 19.7071 11.7033C19.5196 11.8908 19.2652 11.9961 19 11.9961H17C16.7348 11.9961 16.4804 12.1015 16.2929 12.2889C16.1054 12.4764 16 12.7307 16 12.9958C16 13.2609 16.1054 13.5152 16.2929 13.7027C16.4804 13.8902 16.7348 13.9955 17 13.9955H19C19.7956 13.9955 20.5587 13.6795 21.1213 13.1171C21.6839 12.5547 22 11.7919 22 10.9965V2.99903C22 2.20364 21.6839 1.44082 21.1213 0.878397C20.5587 0.315969 19.7956 0 19 0Z" fill="#5E1DE1"/>
<path d="M6 6.99775C6 7.19546 6.05865 7.38874 6.16853 7.55314C6.27841 7.71753 6.43459 7.84566 6.61732 7.92133C6.80005 7.99699 7.00111 8.01679 7.19509 7.97822C7.38907 7.93964 7.56726 7.84443 7.70711 7.70463C7.84697 7.56482 7.9422 7.38669 7.98079 7.19277C8.01938 6.99886 7.99957 6.79785 7.92388 6.61519C7.8482 6.43252 7.72002 6.27639 7.55557 6.16655C7.39113 6.0567 7.19778 5.99807 7 5.99807C6.73478 5.99807 6.48043 6.10339 6.29289 6.29087C6.10535 6.47834 6 6.73262 6 6.99775Z" fill="#5E1DE1"/>
<path d="M10.1685 7.55314C10.0587 7.38874 10 7.19546 10 6.99775C10 6.73262 10.1054 6.47834 10.2929 6.29087C10.4804 6.10339 10.7348 5.99807 11 5.99807C11.1978 5.99807 11.3911 6.0567 11.5556 6.16655C11.72 6.27639 11.8482 6.43252 11.9239 6.61519C11.9996 6.79785 12.0194 6.99886 11.9808 7.19277C11.9422 7.38669 11.847 7.56482 11.7071 7.70463C11.5673 7.84443 11.3891 7.93964 11.1951 7.97822C11.0011 8.01679 10.8 7.99699 10.6173 7.92133C10.4346 7.84566 10.2784 7.71753 10.1685 7.55314Z" fill="#5E1DE1"/>
<path d="M14 6.99775C14 7.19546 14.0586 7.38874 14.1685 7.55314C14.2784 7.71753 14.4346 7.84566 14.6173 7.92133C14.8 7.99699 15.0011 8.01679 15.1951 7.97822C15.3891 7.93964 15.5673 7.84443 15.7071 7.70463C15.847 7.56482 15.9422 7.38669 15.9808 7.19277C16.0194 6.99886 15.9996 6.79785 15.9239 6.61519C15.8482 6.43252 15.72 6.27639 15.5556 6.16655C15.3911 6.0567 15.1978 5.99807 15 5.99807C14.7348 5.99807 14.4804 6.10339 14.2929 6.29087C14.1054 6.47834 14 6.73262 14 6.99775Z" fill="#5E1DE1"/>
</svg>
