<svg width="18" height="18" viewBox="0 0 18 18" fill="none" xmlns="http://www.w3.org/2000/svg">
<path d="M17.6196 15.1818C18.0761 15.697 18.1217 16.1667 17.7566 16.5909L16.7067 17.6364C16.1589 18.1212 15.6416 18.1212 15.1547 17.6364L10.8183 13.3182C9.69231 13.9545 8.50549 14.2727 7.25782 14.2727C5.31023 14.2727 3.60609 13.5606 2.14539 12.1364C0.715131 10.6818 0 8.98485 0 7.04545C0 5.10606 0.6847 3.45455 2.0541 2.09091C3.4235 0.69697 5.08199 0 7.02959 0C8.97718 0 10.6813 0.727273 12.142 2.18182C13.6027 3.60606 14.3331 5.28788 14.3331 7.22727C14.3331 8.56061 13.9831 9.78788 13.2832 10.9091L17.6196 15.1818ZM3.56044 3.63636C2.61708 4.57576 2.14539 5.71212 2.14539 7.04545C2.14539 8.37879 2.66272 9.56061 3.69738 10.5909C4.73204 11.6212 5.91885 12.1364 7.25782 12.1364C8.59679 12.1364 9.73795 11.6667 10.6813 10.7273C11.6551 9.75758 12.142 8.59091 12.142 7.22727C12.142 5.89394 11.6247 4.72727 10.59 3.72727C9.55537 2.69697 8.36855 2.18182 7.02959 2.18182C5.69062 2.18182 4.53424 2.66667 3.56044 3.63636Z" fill="#5E1DE1"/>
</svg>
