<svg width="28" height="29" viewBox="0 0 28 29" fill="none" xmlns="http://www.w3.org/2000/svg">
<path d="M14.0029 25.1895C13.4943 25.1895 13.082 25.6017 13.082 26.1104C13.0821 26.619 13.4943 27.0312 14.0029 27.0313C14.5116 27.0313 14.9238 26.619 14.9238 26.1104C14.9238 25.6017 14.5116 25.1895 14.0029 25.1895ZM14.0029 24.084C15.122 24.084 16.0293 24.9912 16.0293 26.1104C16.0293 27.2294 15.122 28.1367 14.0029 28.1367C12.8839 28.1367 11.9766 27.2294 11.9766 26.1104C11.9766 24.9913 12.8838 24.084 14.0029 24.084Z" fill="#5E1DE1" stroke="#5E1DE1" stroke-width="0.3" stroke-linecap="round" stroke-linejoin="round"/>
<path d="M9.68262 19.2949C9.17396 19.2949 8.76172 19.7072 8.76172 20.2158C8.76175 20.7245 9.17397 21.1367 9.68262 21.1367C10.1913 21.1367 10.6035 20.7245 10.6035 20.2158C10.6035 19.7071 10.1913 19.2949 9.68262 19.2949ZM9.68262 18.1895C10.8017 18.1895 11.709 19.0967 11.709 20.2158C11.709 21.3349 10.8017 22.2422 9.68262 22.2422C8.56355 22.2422 7.65628 21.3349 7.65625 20.2158C7.65625 19.0967 8.56354 18.1895 9.68262 18.1895Z" fill="#5E1DE1" stroke="#5E1DE1" stroke-width="0.3" stroke-linecap="round" stroke-linejoin="round"/>
<path d="M18.3154 19.2949C17.8068 19.2949 17.3945 19.7072 17.3945 20.2158C17.3946 20.7245 17.8068 21.1367 18.3154 21.1367C18.8241 21.1367 19.2363 20.7245 19.2363 20.2158C19.2363 19.7071 18.8241 19.2949 18.3154 19.2949ZM18.3154 18.1895C19.4345 18.1895 20.3418 19.0967 20.3418 20.2158C20.3418 21.3349 19.4345 22.2422 18.3154 22.2422C17.1964 22.2422 16.2891 21.3349 16.2891 20.2158C16.2891 19.0967 17.1963 18.1895 18.3154 18.1895Z" fill="#5E1DE1" stroke="#5E1DE1" stroke-width="0.3" stroke-linecap="round" stroke-linejoin="round"/>
<path d="M14.423 25.1709C14.0717 25.0113 13.9649 24.6746 14.1844 24.4191L16.6839 21.5103C16.9034 21.2549 17.3665 21.1773 17.7177 21.3368C18.0689 21.4964 18.1758 21.8331 17.9562 22.0886L15.4567 24.9974C15.2372 25.2529 14.7742 25.3306 14.423 25.1709Z" fill="#5E1DE1" stroke="#5E1DE1" stroke-width="0.3" stroke-linecap="round" stroke-linejoin="round"/>
<path d="M10.1844 22.0887C9.96486 21.8332 10.0717 21.4965 10.4229 21.3369C10.7742 21.1772 11.2372 21.2549 11.4567 21.5104L13.9562 24.4192C14.1758 24.6747 14.0689 25.0114 13.7177 25.171C13.3665 25.3305 12.9034 25.2529 12.6839 24.9975L10.1844 22.0887Z" fill="#5E1DE1" stroke="#5E1DE1" stroke-width="0.3" stroke-linecap="round" stroke-linejoin="round"/>
<path fill-rule="evenodd" clip-rule="evenodd" d="M5.89391 4.24733C4.74938 4.24733 3.82155 5.17516 3.82155 6.3197C3.82155 7.46423 4.74938 8.39206 5.89391 8.39206C7.03845 8.39206 7.96628 7.46423 7.96628 6.3197C7.96628 5.17516 7.03845 4.24733 5.89391 4.24733ZM2.57812 6.3197C2.57812 4.48844 4.06265 3.00391 5.89391 3.00391C7.72517 3.00391 9.2097 4.48844 9.2097 6.3197C9.2097 8.15096 7.72517 9.63549 5.89391 9.63549C4.06265 9.63549 2.57812 8.15096 2.57812 6.3197Z" fill="#5E1DE1" stroke="#5E1DE1" stroke-width="0.3" stroke-linecap="round" stroke-linejoin="round"/>
<path fill-rule="evenodd" clip-rule="evenodd" d="M22.1049 4.24733C20.9603 4.24733 20.0325 5.17516 20.0325 6.3197C20.0325 7.46423 20.9603 8.39206 22.1049 8.39206C23.2494 8.39206 24.1772 7.46423 24.1772 6.3197C24.1772 5.17516 23.2494 4.24733 22.1049 4.24733ZM18.7891 6.3197C18.7891 4.48844 20.2736 3.00391 22.1049 3.00391C23.9361 3.00391 25.4206 4.48844 25.4206 6.3197C25.4206 8.15096 23.9361 9.63549 22.1049 9.63549C20.2736 9.63549 18.7891 8.15096 18.7891 6.3197Z" fill="#5E1DE1" stroke="#5E1DE1" stroke-width="0.3" stroke-linecap="round" stroke-linejoin="round"/>
<path fill-rule="evenodd" clip-rule="evenodd" d="M7.87375 10.9397C8.66832 10.1054 9.74597 9.63672 10.8697 9.63672H17.1328C18.2565 9.63672 19.3342 10.1054 20.1287 10.9397C20.9233 11.774 21.3697 12.9055 21.3697 14.0854V15.688C21.3697 16.0085 21.1222 16.2683 20.817 16.2683C20.5118 16.2683 20.2644 16.0085 20.2644 15.688V14.0854C20.2644 13.2133 19.9345 12.377 19.3472 11.7603C18.7599 11.1437 17.9634 10.7972 17.1328 10.7972H10.8697C10.0391 10.7972 9.24258 11.1437 8.65529 11.7603C8.06801 12.377 7.73808 13.2133 7.73808 14.0854V15.688C7.73808 16.0085 7.49065 16.2683 7.18544 16.2683C6.88023 16.2683 6.63281 16.0085 6.63281 15.688V14.0854C6.63281 12.9055 7.07919 11.774 7.87375 10.9397Z" fill="#5E1DE1" stroke="#5E1DE1" stroke-width="0.3" stroke-linecap="round" stroke-linejoin="round"/>
<path d="M6.14972 11.8477H3.97555C3.02866 11.8477 2.1145 12.2315 1.43563 12.9249C0.755672 13.6193 0.367188 14.5689 0.367188 15.567V17.1108C0.367188 17.4596 0.629163 17.7424 0.952327 17.7424C1.27549 17.7424 1.53747 17.4596 1.53747 17.1108V15.567C1.53747 14.9272 1.78602 14.306 2.23998 13.8424C2.69504 13.3776 3.31881 13.1108 3.97555 13.1108H5.68368C5.78888 12.672 5.94532 12.2477 6.14972 11.8477Z" fill="#5E1DE1" stroke="#5E1DE1" stroke-width="0.3" stroke-linecap="round" stroke-linejoin="round"/>
<path d="M22.3176 13.1108H23.6573C24.3141 13.1108 24.9378 13.3776 25.3929 13.8424C25.8468 14.306 26.0954 14.9272 26.0954 15.567V17.1108C26.0954 17.4596 26.3574 17.7424 26.6805 17.7424C27.0037 17.7424 27.2657 17.4596 27.2657 17.1108V15.567C27.2657 14.5689 26.8772 13.6193 26.1972 12.9249C25.5184 12.2315 24.6042 11.8477 23.6573 11.8477H21.8516C22.056 12.2477 22.2124 12.672 22.3176 13.1108Z" fill="#5E1DE1" stroke="#5E1DE1" stroke-width="0.3" stroke-linecap="round" stroke-linejoin="round"/>
<path d="M16.6709 4.1084C16.6707 2.63338 15.4741 1.4375 13.999 1.4375C12.5241 1.43769 11.3283 2.6335 11.3281 4.1084C11.3281 5.58346 12.524 6.78008 13.999 6.78027C15.4742 6.78027 16.6709 5.58358 16.6709 4.1084ZM17.96 4.1084C17.96 6.29574 16.1864 8.06934 13.999 8.06934C11.8119 8.06914 10.0391 6.29562 10.0391 4.1084C10.0393 1.92135 11.812 0.148632 13.999 0.148438C16.1862 0.148438 17.9598 1.92123 17.96 4.1084Z" fill="#5E1DE1" stroke="#5E1DE1" stroke-width="0.3" stroke-linecap="round" stroke-linejoin="round"/>
</svg>
