<svg width="28" height="28" viewBox="0 0 28 28" fill="none" xmlns="http://www.w3.org/2000/svg">
<path fill-rule="evenodd" clip-rule="evenodd" d="M2.0702 20.0249C2.0702 18.8843 2.99378 17.9598 4.13308 17.9598C5.27237 17.9598 6.19595 18.8843 6.19595 20.0249C6.19595 21.1654 5.27237 22.09 4.13308 22.09C2.99378 22.09 2.0702 21.1654 2.0702 20.0249ZM4.13308 18.9129C3.51961 18.9129 3.0223 19.4107 3.0223 20.0249C3.0223 20.639 3.51961 21.1368 4.13308 21.1368C4.74654 21.1368 5.24385 20.639 5.24385 20.0249C5.24385 19.4107 4.74654 18.9129 4.13308 18.9129Z" fill="#5E1DE1"/>
<path d="M0.80239 23.756C1.21517 23.3052 1.78435 23.0431 2.38757 23.0431H5.87858C6.4818 23.0431 7.05098 23.3052 7.46376 23.756C7.87528 24.2054 8.10014 24.8067 8.10014 25.4259V26.3795C8.10014 26.6425 7.887 26.8556 7.62409 26.8556C7.36118 26.8556 7.14804 26.6425 7.14804 26.3795V25.4259C7.14804 25.034 7.0051 24.6656 6.76192 24.4C6.52001 24.1358 6.20124 23.9962 5.87858 23.9962H2.38757C2.06492 23.9962 1.74614 24.1358 1.50423 24.4C1.26105 24.6656 1.11811 25.034 1.11811 25.4259V26.379C1.11811 26.6422 0.904977 26.8556 0.642063 26.8556C0.379149 26.8556 0.166016 26.6422 0.166016 26.379V25.4259C0.166016 24.8067 0.390878 24.2054 0.80239 23.756Z" fill="#5E1DE1"/>
<path d="M10.4948 26.3795C10.4948 26.6425 10.2817 26.8556 10.0188 26.8556C9.75584 26.8556 9.54271 26.6425 9.54271 26.3795V25.4259C9.54271 24.8067 9.76757 24.2054 10.1791 23.756C10.5919 23.3052 11.161 23.0431 11.7643 23.0431H15.2553C15.8585 23.0431 16.4277 23.3052 16.8405 23.756C17.252 24.2054 17.4768 24.8067 17.4768 25.4259V26.3795C17.4768 26.6425 17.2637 26.8556 17.0008 26.8556C16.7379 26.8556 16.5247 26.6425 16.5247 26.3795V25.4259C16.5247 25.034 16.3818 24.6656 16.1386 24.4C15.8967 24.1358 15.5779 23.9962 15.2553 23.9962H11.7643C11.4416 23.9962 11.1228 24.1358 10.8809 24.4C10.6377 24.6656 10.4948 25.034 10.4948 25.4259V26.3795Z" fill="#5E1DE1"/>
<path d="M18.9194 26.3795C18.9194 26.6425 19.1325 26.8556 19.3954 26.8556C19.6584 26.8556 19.8715 26.6425 19.8715 26.3795V25.4259C19.8715 25.034 20.0144 24.6656 20.2576 24.4C20.4995 24.1358 20.8183 23.9962 21.141 23.9962H24.632C24.9546 23.9962 25.2734 24.1358 25.5153 24.4C25.7585 24.6656 25.9014 25.034 25.9014 25.4259V26.379C25.9014 26.6422 26.1146 26.8556 26.3775 26.8556C26.6404 26.8556 26.8535 26.6422 26.8535 26.379V25.4259C26.8535 24.8067 26.6287 24.2054 26.2171 23.756C25.8044 23.3052 25.2352 23.0431 24.632 23.0431H21.141C20.5377 23.0431 19.9686 23.3052 19.5558 23.756C19.1443 24.2054 18.9194 24.8067 18.9194 25.4259V26.3795Z" fill="#5E1DE1"/>
<path fill-rule="evenodd" clip-rule="evenodd" d="M22.8865 17.9598C21.7472 17.9598 20.8236 18.8843 20.8236 20.0249C20.8236 21.1654 21.7472 22.09 22.8865 22.09C24.0258 22.09 24.9493 21.1654 24.9493 20.0249C24.9493 18.8843 24.0258 17.9598 22.8865 17.9598ZM21.7757 20.0249C21.7757 19.4107 22.273 18.9129 22.8865 18.9129C23.4999 18.9129 23.9972 19.4107 23.9972 20.0249C23.9972 20.639 23.4999 21.1368 22.8865 21.1368C22.273 21.1368 21.7757 20.639 21.7757 20.0249Z" fill="#5E1DE1"/>
<path fill-rule="evenodd" clip-rule="evenodd" d="M13.5098 17.9598C12.3705 17.9598 11.4469 18.8843 11.4469 20.0249C11.4469 21.1654 12.3705 22.09 13.5098 22.09C14.6491 22.09 15.5726 21.1654 15.5726 20.0249C15.5726 18.8843 14.6491 17.9598 13.5098 17.9598ZM12.399 20.0249C12.399 19.4107 12.8963 18.9129 13.5098 18.9129C14.1232 18.9129 14.6205 19.4107 14.6205 20.0249C14.6205 20.639 14.1232 21.1368 13.5098 21.1368C12.8963 21.1368 12.399 20.639 12.399 20.0249Z" fill="#5E1DE1"/>
<path fill-rule="evenodd" clip-rule="evenodd" d="M10.9336 5.71741C10.9336 4.5919 11.8397 3.67948 12.9574 3.67948C14.0752 3.67948 14.9812 4.5919 14.9812 5.71741C14.9812 6.84293 14.0752 7.75535 12.9574 7.75535C11.8397 7.75535 10.9336 6.84293 10.9336 5.71741ZM12.9574 4.62007C12.3556 4.62007 11.8677 5.11137 11.8677 5.71741C11.8677 6.32346 12.3556 6.81476 12.9574 6.81476C13.5593 6.81476 14.0472 6.32346 14.0472 5.71741C14.0472 5.11137 13.5593 4.62007 12.9574 4.62007Z" fill="#5E1DE1"/>
<path fill-rule="evenodd" clip-rule="evenodd" d="M1.28165 0.870271C1.28165 0.4824 1.59847 0.167969 1.98927 0.167969H23.9256C24.3164 0.167969 24.6332 0.4824 24.6332 0.870271V12.8094C24.6332 13.1973 24.3164 13.5117 23.9256 13.5117H1.98927C1.59846 13.5117 1.28165 13.1973 1.28165 12.8094V0.870271ZM2.34309 12.4583V1.22142H23.5718V12.4583H16.8494V11.0474C16.8494 10.4363 16.6288 9.84291 16.225 9.39942C15.8201 8.95455 15.2617 8.69593 14.6699 8.69593H11.245C10.6532 8.69593 10.0948 8.95455 9.68983 9.39942C9.28611 9.84291 9.06551 10.4363 9.06551 11.0474V12.4583H2.34309ZM9.99957 12.4583H15.9153V11.0474C15.9153 10.6606 15.7751 10.2971 15.5365 10.035C15.2992 9.77428 14.9864 9.63651 14.6699 9.63651H11.245C10.9284 9.63651 10.6157 9.77428 10.3784 10.035C10.1398 10.2971 9.99957 10.6606 9.99957 11.0474V12.4583Z" fill="#5E1DE1"/>
<path d="M3.50561 3.50391C3.50561 2.88978 4.00346 2.39193 4.61759 2.39193C5.23172 2.39193 5.72957 2.88978 5.72957 3.50391C5.72957 4.11804 5.23172 4.61589 4.61759 4.61589C4.00346 4.61589 3.50561 4.11804 3.50561 3.50391Z" fill="#5E1DE1"/>
<path d="M0.80239 23.756L0.679374 23.6433H0.679374L0.80239 23.756ZM7.46376 23.756L7.58678 23.6433H7.58678L7.46376 23.756ZM6.76192 24.4L6.63891 24.5126V24.5126L6.76192 24.4ZM1.50423 24.4L1.62725 24.5126L1.62725 24.5126L1.50423 24.4ZM10.1791 23.756L10.0561 23.6433V23.6433L10.1791 23.756ZM16.8405 23.756L16.9635 23.6433H16.9635L16.8405 23.756ZM16.1386 24.4L16.0156 24.5126V24.5126L16.1386 24.4ZM10.8809 24.4L11.0039 24.5126V24.5126L10.8809 24.4ZM20.2576 24.4L20.3806 24.5126L20.3806 24.5126L20.2576 24.4ZM25.5153 24.4L25.3923 24.5126V24.5126L25.5153 24.4ZM26.2171 23.756L26.3402 23.6433V23.6433L26.2171 23.756ZM19.5558 23.756L19.6788 23.8686V23.8686L19.5558 23.756ZM2.34309 1.22142V1.05463H2.17629V1.22142H2.34309ZM2.34309 12.4583H2.17629V12.6251H2.34309V12.4583ZM23.5718 1.22142H23.7386V1.05463H23.5718V1.22142ZM23.5718 12.4583V12.6251H23.7386V12.4583H23.5718ZM16.8494 12.4583H16.6826V12.6251H16.8494V12.4583ZM16.225 9.39942L16.3484 9.28713V9.28713L16.225 9.39942ZM9.68983 9.39942L9.56648 9.28713V9.28713L9.68983 9.39942ZM9.06551 12.4583V12.6251H9.2323V12.4583H9.06551ZM9.99957 12.4583H9.83277V12.6251H9.99957V12.4583ZM15.9153 12.4583V12.6251H16.0821V12.4583H15.9153ZM15.5365 10.035L15.4131 10.1473V10.1473L15.5365 10.035ZM10.3784 10.035L10.5017 10.1473V10.1473L10.3784 10.035ZM4.13308 17.9598V17.793C2.90149 17.793 1.90341 18.7924 1.90341 20.0249H2.0702H2.237C2.237 18.9763 3.08607 18.1266 4.13308 18.1266V17.9598ZM6.19595 20.0249H6.36275C6.36275 18.7924 5.36466 17.793 4.13308 17.793V17.9598V18.1266C5.18008 18.1266 6.02915 18.9763 6.02915 20.0249H6.19595ZM4.13308 22.09V22.2568C5.36466 22.2568 6.36275 21.2573 6.36275 20.0249H6.19595H6.02915C6.02915 21.0734 5.18008 21.9232 4.13308 21.9232V22.09ZM2.0702 20.0249H1.90341C1.90341 21.2573 2.90149 22.2568 4.13308 22.2568V22.09V21.9232C3.08607 21.9232 2.237 21.0734 2.237 20.0249H2.0702ZM3.0223 20.0249H3.1891C3.1891 19.5027 3.6119 19.0797 4.13308 19.0797V18.9129V18.7461C3.42732 18.7461 2.8555 19.3188 2.8555 20.0249H3.0223ZM4.13308 21.1368V20.97C3.6119 20.97 3.1891 20.547 3.1891 20.0249H3.0223H2.8555C2.8555 20.7309 3.42732 21.3036 4.13308 21.3036V21.1368ZM5.24385 20.0249H5.07706C5.07706 20.547 4.65425 20.97 4.13308 20.97V21.1368V21.3036C4.83883 21.3036 5.41065 20.7309 5.41065 20.0249H5.24385ZM4.13308 18.9129V19.0797C4.65425 19.0797 5.07706 19.5027 5.07706 20.0249H5.24385H5.41065C5.41065 19.3188 4.83883 18.7461 4.13308 18.7461V18.9129ZM2.38757 23.0431V22.8763C1.7351 22.8763 1.12205 23.1599 0.679374 23.6433L0.80239 23.756L0.925406 23.8686C1.3083 23.4504 1.8336 23.2099 2.38757 23.2099V23.0431ZM5.87858 23.0431V22.8763H2.38757V23.0431V23.2099H5.87858V23.0431ZM7.46376 23.756L7.58678 23.6433C7.14411 23.1599 6.53106 22.8763 5.87858 22.8763V23.0431V23.2099C6.43255 23.2099 6.95786 23.4504 7.34075 23.8686L7.46376 23.756ZM8.10014 25.4259H8.26694C8.26694 24.767 8.02777 24.1249 7.58678 23.6433L7.46376 23.756L7.34075 23.8686C7.72278 24.2858 7.93334 24.8464 7.93334 25.4259H8.10014ZM8.10014 26.3795H8.26694V25.4259H8.10014H7.93334V26.3795H8.10014ZM7.14804 25.4259H6.98125V26.3795H7.14804H7.31484V25.4259H7.14804ZM6.76192 24.4L6.63891 24.5126C6.85264 24.7461 6.98125 25.0737 6.98125 25.4259H7.14804H7.31484C7.31484 24.9942 7.15756 24.5851 6.88494 24.2874L6.76192 24.4ZM5.87858 23.9962V24.163C6.15209 24.163 6.42696 24.2812 6.63891 24.5126L6.76192 24.4L6.88494 24.2874C6.61307 23.9905 6.25039 23.8294 5.87858 23.8294V23.9962ZM2.38757 23.9962V24.163H5.87858V23.9962V23.8294H2.38757V23.9962ZM1.50423 24.4L1.62725 24.5126C1.83919 24.2812 2.11407 24.163 2.38757 24.163V23.9962V23.8294C2.01576 23.8294 1.65309 23.9905 1.38121 24.2874L1.50423 24.4ZM1.11811 25.4259H1.28491C1.28491 25.0737 1.41351 24.7461 1.62725 24.5126L1.50423 24.4L1.38121 24.2874C1.10859 24.5851 0.951313 24.9942 0.951313 25.4259H1.11811ZM1.11811 26.379H1.28491V25.4259H1.11811H0.951313V26.379H1.11811ZM0.642063 26.8556V27.0224C0.997266 27.0224 1.28491 26.7342 1.28491 26.379H1.11811H0.951313C0.951313 26.5503 0.812687 26.6888 0.642063 26.6888V26.8556ZM0.166016 26.379H-0.000781283C-0.000781283 26.7342 0.28686 27.0224 0.642063 27.0224V26.8556V26.6888C0.471439 26.6888 0.332813 26.5503 0.332813 26.379H0.166016ZM0.166016 25.4259H-0.000781283V26.379H0.166016H0.332813V25.4259H0.166016ZM0.80239 23.756L0.679374 23.6433C0.238383 24.1249 -0.000781283 24.767 -0.000781283 25.4259H0.166016H0.332813C0.332813 24.8464 0.543372 24.2858 0.925406 23.8686L0.80239 23.756ZM9.54271 25.4259H9.37591V26.3795H9.54271H9.7095V25.4259H9.54271ZM10.1791 23.756L10.0561 23.6433C9.61507 24.1249 9.37591 24.767 9.37591 25.4259H9.54271H9.7095C9.7095 24.8464 9.92006 24.2858 10.3021 23.8686L10.1791 23.756ZM11.7643 23.0431V22.8763C11.1118 22.8763 10.4987 23.1599 10.0561 23.6433L10.1791 23.756L10.3021 23.8686C10.685 23.4504 11.2103 23.2099 11.7643 23.2099V23.0431ZM15.2553 23.0431V22.8763H11.7643V23.0431V23.2099H15.2553V23.0431ZM16.8405 23.756L16.9635 23.6433C16.5208 23.1599 15.9077 22.8763 15.2553 22.8763V23.0431V23.2099C15.8092 23.2099 16.3345 23.4504 16.7174 23.8686L16.8405 23.756ZM17.4768 25.4259H17.6436C17.6436 24.767 17.4045 24.1249 16.9635 23.6433L16.8405 23.756L16.7174 23.8686C17.0995 24.2858 17.31 24.8464 17.31 25.4259H17.4768ZM17.4768 26.3795H17.6436V25.4259H17.4768H17.31V26.3795H17.4768ZM16.5247 25.4259H16.3579V26.3795H16.5247H16.6915V25.4259H16.5247ZM16.1386 24.4L16.0156 24.5126C16.2293 24.7461 16.3579 25.0737 16.3579 25.4259H16.5247H16.6915C16.6915 24.9942 16.5343 24.5851 16.2616 24.2874L16.1386 24.4ZM15.2553 23.9962V24.163C15.5288 24.163 15.8037 24.2812 16.0156 24.5126L16.1386 24.4L16.2616 24.2874C15.9898 23.9905 15.6271 23.8294 15.2553 23.8294V23.9962ZM11.7643 23.9962V24.163H15.2553V23.9962V23.8294H11.7643V23.9962ZM10.8809 24.4L11.0039 24.5126C11.2159 24.2812 11.4908 24.163 11.7643 24.163V23.9962V23.8294C11.3925 23.8294 11.0298 23.9905 10.7579 24.2874L10.8809 24.4ZM10.4948 25.4259H10.6616C10.6616 25.0737 10.7902 24.7461 11.0039 24.5126L10.8809 24.4L10.7579 24.2874C10.4853 24.5851 10.328 24.9942 10.328 25.4259H10.4948ZM10.4948 26.3795H10.6616V25.4259H10.4948H10.328V26.3795H10.4948ZM19.8715 25.4259H19.7047V26.3795H19.8715H20.0383V25.4259H19.8715ZM20.2576 24.4L20.1346 24.2874C19.862 24.5851 19.7047 24.9942 19.7047 25.4259H19.8715H20.0383C20.0383 25.0737 20.1669 24.7461 20.3806 24.5126L20.2576 24.4ZM21.141 23.9962V23.8294C20.7691 23.8294 20.4065 23.9905 20.1346 24.2874L20.2576 24.4L20.3806 24.5126C20.5926 24.2812 20.8674 24.163 21.141 24.163V23.9962ZM24.632 23.9962V23.8294H21.141V23.9962V24.163H24.632V23.9962ZM25.5153 24.4L25.6383 24.2874C25.3664 23.9905 25.0038 23.8294 24.632 23.8294V23.9962V24.163C24.9055 24.163 25.1803 24.2812 25.3923 24.5126L25.5153 24.4ZM25.9014 25.4259H26.0682C26.0682 24.9942 25.9109 24.5851 25.6383 24.2874L25.5153 24.4L25.3923 24.5126C25.606 24.7461 25.7346 25.0737 25.7346 25.4259H25.9014ZM25.9014 26.379H26.0682V25.4259H25.9014H25.7346V26.379H25.9014ZM26.3775 26.8556V26.6888C26.2069 26.6888 26.0682 26.5503 26.0682 26.379H25.9014H25.7346C25.7346 26.7342 26.0223 27.0224 26.3775 27.0224V26.8556ZM26.8535 26.379H26.6867C26.6867 26.5503 26.5481 26.6888 26.3775 26.6888V26.8556V27.0224C26.7327 27.0224 27.0203 26.7342 27.0203 26.379H26.8535ZM26.8535 25.4259H26.6867V26.379H26.8535H27.0203V25.4259H26.8535ZM26.2171 23.756L26.0941 23.8686C26.4762 24.2858 26.6867 24.8464 26.6867 25.4259H26.8535H27.0203C27.0203 24.767 26.7812 24.1249 26.3402 23.6433L26.2171 23.756ZM24.632 23.0431V23.2099C25.1859 23.2099 25.7112 23.4504 26.0941 23.8686L26.2171 23.756L26.3402 23.6433C25.8975 23.1599 25.2844 22.8763 24.632 22.8763V23.0431ZM21.141 23.0431V23.2099H24.632V23.0431V22.8763H21.141V23.0431ZM19.5558 23.756L19.6788 23.8686C20.0617 23.4504 20.587 23.2099 21.141 23.2099V23.0431V22.8763C20.4885 22.8763 19.8754 23.1599 19.4328 23.6433L19.5558 23.756ZM18.9194 25.4259H19.0862C19.0862 24.8464 19.2968 24.2858 19.6788 23.8686L19.5558 23.756L19.4328 23.6433C18.9918 24.1249 18.7526 24.767 18.7526 25.4259H18.9194ZM18.9194 26.3795H19.0862V25.4259H18.9194H18.7526V26.3795H18.9194ZM20.8236 20.0249H20.9904C20.9904 18.9763 21.8395 18.1266 22.8865 18.1266V17.9598V17.793C21.6549 17.793 20.6568 18.7924 20.6568 20.0249H20.8236ZM22.8865 22.09V21.9232C21.8395 21.9232 20.9904 21.0734 20.9904 20.0249H20.8236H20.6568C20.6568 21.2573 21.6549 22.2568 22.8865 22.2568V22.09ZM24.9493 20.0249H24.7825C24.7825 21.0734 23.9335 21.9232 22.8865 21.9232V22.09V22.2568C24.118 22.2568 25.1161 21.2573 25.1161 20.0249H24.9493ZM22.8865 17.9598V18.1266C23.9335 18.1266 24.7825 18.9763 24.7825 20.0249H24.9493H25.1161C25.1161 18.7924 24.118 17.793 22.8865 17.793V17.9598ZM22.8865 18.9129V18.7461C22.1807 18.7461 21.6089 19.3188 21.6089 20.0249H21.7757H21.9425C21.9425 19.5027 22.3653 19.0797 22.8865 19.0797V18.9129ZM23.9972 20.0249H24.164C24.164 19.3188 23.5922 18.7461 22.8865 18.7461V18.9129V19.0797C23.4076 19.0797 23.8304 19.5027 23.8304 20.0249H23.9972ZM22.8865 21.1368V21.3036C23.5922 21.3036 24.164 20.7309 24.164 20.0249H23.9972H23.8304C23.8304 20.547 23.4076 20.97 22.8865 20.97V21.1368ZM21.7757 20.0249H21.6089C21.6089 20.7309 22.1807 21.3036 22.8865 21.3036V21.1368V20.97C22.3653 20.97 21.9425 20.547 21.9425 20.0249H21.7757ZM11.4469 20.0249H11.6137C11.6137 18.9763 12.4628 18.1266 13.5098 18.1266V17.9598V17.793C12.2782 17.793 11.2801 18.7924 11.2801 20.0249H11.4469ZM13.5098 22.09V21.9232C12.4628 21.9232 11.6137 21.0734 11.6137 20.0249H11.4469H11.2801C11.2801 21.2573 12.2782 22.2568 13.5098 22.2568V22.09ZM15.5726 20.0249H15.4058C15.4058 21.0734 14.5568 21.9232 13.5098 21.9232V22.09V22.2568C14.7413 22.2568 15.7394 21.2573 15.7394 20.0249H15.5726ZM13.5098 17.9598V18.1266C14.5568 18.1266 15.4058 18.9763 15.4058 20.0249H15.5726H15.7394C15.7394 18.7924 14.7413 17.793 13.5098 17.793V17.9598ZM13.5098 18.9129V18.7461C12.804 18.7461 12.2322 19.3188 12.2322 20.0249H12.399H12.5658C12.5658 19.5027 12.9886 19.0797 13.5098 19.0797V18.9129ZM14.6205 20.0249H14.7873C14.7873 19.3188 14.2155 18.7461 13.5098 18.7461V18.9129V19.0797C14.0309 19.0797 14.4537 19.5027 14.4537 20.0249H14.6205ZM13.5098 21.1368V21.3036C14.2155 21.3036 14.7873 20.7309 14.7873 20.0249H14.6205H14.4537C14.4537 20.547 14.0309 20.97 13.5098 20.97V21.1368ZM12.399 20.0249H12.2322C12.2322 20.7309 12.804 21.3036 13.5098 21.3036V21.1368V20.97C12.9886 20.97 12.5658 20.547 12.5658 20.0249H12.399ZM19.3954 26.8556V26.6888C19.2246 26.6888 19.0862 26.5503 19.0862 26.3795H18.9194H18.7526C18.7526 26.7346 19.0404 27.0224 19.3954 27.0224V26.8556ZM19.3954 26.8556V27.0224C19.7505 27.0224 20.0383 26.7346 20.0383 26.3795H19.8715H19.7047C19.7047 26.5503 19.5662 26.6888 19.3954 26.6888V26.8556ZM17.0008 26.8556V26.6888C16.83 26.6888 16.6915 26.5503 16.6915 26.3795H16.5247H16.3579C16.3579 26.7346 16.6457 27.0224 17.0008 27.0224V26.8556ZM10.0188 26.8556V27.0224C10.3738 27.0224 10.6616 26.7346 10.6616 26.3795H10.4948H10.328C10.328 26.5503 10.1895 26.6888 10.0188 26.6888V26.8556ZM10.0188 26.8556V26.6888C9.84796 26.6888 9.7095 26.5503 9.7095 26.3795H9.54271H9.37591C9.37591 26.7346 9.66372 27.0224 10.0188 27.0224V26.8556ZM7.14804 26.3795H6.98125C6.98125 26.7346 7.26906 27.0224 7.62409 27.0224V26.8556V26.6888C7.4533 26.6888 7.31484 26.5503 7.31484 26.3795H7.14804ZM17.4768 26.3795H17.31C17.31 26.5503 17.1716 26.6888 17.0008 26.6888V26.8556V27.0224C17.3558 27.0224 17.6436 26.7346 17.6436 26.3795H17.4768ZM8.10014 26.3795H7.93334C7.93334 26.5503 7.79489 26.6888 7.62409 26.6888V26.8556V27.0224C7.97912 27.0224 8.26694 26.7346 8.26694 26.3795H8.10014ZM2.34309 1.22142H2.17629V12.4583H2.34309H2.50988V1.22142H2.34309ZM23.5718 1.22142V1.05463H2.34309V1.22142V1.38822H23.5718V1.22142ZM23.5718 12.4583H23.7386V1.22142H23.5718H23.405V12.4583H23.5718ZM16.8494 12.4583V12.6251H23.5718V12.4583V12.2915H16.8494V12.4583ZM16.8494 11.0474H16.6826V12.4583H16.8494H17.0162V11.0474H16.8494ZM16.225 9.39942L16.1017 9.5117C16.4761 9.92296 16.6826 10.4757 16.6826 11.0474H16.8494H17.0162C17.0162 10.3969 16.7815 9.76287 16.3484 9.28713L16.225 9.39942ZM14.6699 8.69593V8.86273C15.2121 8.86273 15.7265 9.09955 16.1017 9.5117L16.225 9.39942L16.3484 9.28713C15.9136 8.80955 15.3113 8.52913 14.6699 8.52913V8.69593ZM11.245 8.69593V8.86273H14.6699V8.69593V8.52913H11.245V8.69593ZM9.68983 9.39942L9.81317 9.5117C10.1884 9.09955 10.7028 8.86273 11.245 8.86273V8.69593V8.52913C10.6036 8.52913 10.0012 8.80955 9.56648 9.28713L9.68983 9.39942ZM9.06551 11.0474H9.2323C9.2323 10.4757 9.4388 9.92296 9.81317 9.5117L9.68983 9.39942L9.56648 9.28713C9.13342 9.76287 8.89871 10.3969 8.89871 11.0474H9.06551ZM9.06551 12.4583H9.2323V11.0474H9.06551H8.89871V12.4583H9.06551ZM2.34309 12.4583V12.6251H9.06551V12.4583V12.2915H2.34309V12.4583ZM9.99957 12.4583V12.6251H15.9153V12.4583V12.2915H9.99957V12.4583ZM15.9153 12.4583H16.0821V11.0474H15.9153H15.7485V12.4583H15.9153ZM15.9153 11.0474H16.0821C16.0821 10.6212 15.9277 10.217 15.6598 9.92271L15.5365 10.035L15.4131 10.1473C15.6224 10.3772 15.7485 10.7001 15.7485 11.0474H15.9153ZM15.5365 10.035L15.6598 9.92271C15.3927 9.6292 15.0359 9.46972 14.6699 9.46972V9.63651V9.80331C14.9369 9.80331 15.2057 9.91936 15.4131 10.1473L15.5365 10.035ZM14.6699 9.63651V9.46972H11.245V9.63651V9.80331H14.6699V9.63651ZM11.245 9.63651V9.46972C10.8789 9.46972 10.5222 9.6292 10.255 9.92271L10.3784 10.035L10.5017 10.1473C10.7092 9.91936 10.9779 9.80331 11.245 9.80331V9.63651ZM10.3784 10.035L10.255 9.92271C9.98715 10.217 9.83277 10.6212 9.83277 11.0474H9.99957H10.1664C10.1664 10.7001 10.2925 10.3772 10.5017 10.1473L10.3784 10.035ZM9.99957 11.0474H9.83277V12.4583H9.99957H10.1664V11.0474H9.99957ZM1.98927 0.167969V0.00117184C1.50753 0.00117184 1.11485 0.389096 1.11485 0.870271H1.28165H1.44845C1.44845 0.575704 1.6894 0.334766 1.98927 0.334766V0.167969ZM23.9256 0.167969V0.00117184H1.98927V0.167969V0.334766H23.9256V0.167969ZM24.6332 0.870272H24.8C24.8 0.389096 24.4073 0.00117184 23.9256 0.00117184V0.167969V0.334766C24.2255 0.334766 24.4664 0.575705 24.4664 0.870272H24.6332ZM24.6332 12.8094H24.8V0.870272H24.6332H24.4664V12.8094H24.6332ZM23.9256 13.5117V13.6785C24.4073 13.6785 24.8 13.2906 24.8 12.8094H24.6332H24.4664C24.4664 13.104 24.2255 13.3449 23.9256 13.3449V13.5117ZM1.98927 13.5117V13.6785H23.9256V13.5117V13.3449H1.98927V13.5117ZM1.28165 12.8094H1.11485C1.11485 13.2906 1.50753 13.6785 1.98927 13.6785V13.5117V13.3449C1.6894 13.3449 1.44845 13.104 1.44845 12.8094H1.28165ZM1.28165 0.870271H1.11485V12.8094H1.28165H1.44845V0.870271H1.28165ZM12.9574 3.67948V3.51269C11.7465 3.51269 10.7668 4.50087 10.7668 5.71741H10.9336H11.1004C11.1004 4.68292 11.9329 3.84628 12.9574 3.84628V3.67948ZM14.9812 5.71741H15.148C15.148 4.50087 14.1684 3.51269 12.9574 3.51269V3.67948V3.84628C13.9819 3.84628 14.8144 4.68292 14.8144 5.71741H14.9812ZM12.9574 7.75535V7.92214C14.1684 7.92214 15.148 6.93396 15.148 5.71741H14.9812H14.8144C14.8144 6.75191 13.9819 7.58855 12.9574 7.58855V7.75535ZM10.9336 5.71741H10.7668C10.7668 6.93396 11.7465 7.92214 12.9574 7.92214V7.75535V7.58855C11.9329 7.58855 11.1004 6.75191 11.1004 5.71741H10.9336ZM11.8677 5.71741H12.0345C12.0345 5.20239 12.4488 4.78686 12.9574 4.78686V4.62007V4.45327C12.2624 4.45327 11.7009 5.02034 11.7009 5.71741H11.8677ZM12.9574 6.81476V6.64797C12.4488 6.64797 12.0345 6.23244 12.0345 5.71741H11.8677H11.7009C11.7009 6.41449 12.2624 6.98156 12.9574 6.98156V6.81476ZM14.0472 5.71741H13.8804C13.8804 6.23244 13.4661 6.64797 12.9574 6.64797V6.81476V6.98156C13.6525 6.98156 14.214 6.41449 14.214 5.71741H14.0472ZM12.9574 4.62007V4.78686C13.4661 4.78686 13.8804 5.20239 13.8804 5.71741H14.0472H14.214C14.214 5.02034 13.6525 4.45327 12.9574 4.45327V4.62007ZM4.61759 4.61589V4.44909C4.09558 4.44909 3.67241 4.02592 3.67241 3.50391H3.50561H3.33881C3.33881 4.21016 3.91134 4.78268 4.61759 4.78268V4.61589ZM5.72957 3.50391H5.56277C5.56277 4.02592 5.1396 4.44909 4.61759 4.44909V4.61589V4.78268C5.32384 4.78268 5.89637 4.21016 5.89637 3.50391H5.72957ZM4.61759 2.39193V2.55872C5.1396 2.55872 5.56277 2.9819 5.56277 3.50391H5.72957H5.89637C5.89637 2.79766 5.32384 2.22513 4.61759 2.22513V2.39193ZM4.61759 2.39193V2.22513C3.91134 2.22513 3.33881 2.79766 3.33881 3.50391H3.50561H3.67241C3.67241 2.9819 4.09558 2.55872 4.61759 2.55872V2.39193Z" fill="#5E1DE1"/>
</svg>
