<svg width="21" height="24" viewBox="0 0 21 24" fill="none" xmlns="http://www.w3.org/2000/svg">
<path d="M18.5996 0H2.37229C1.06246 0 0 1.11437 0 2.48908V21.057C0 22.4317 1.06246 23.5461 2.37229 23.5461H18.5996C19.9102 23.5461 20.9727 22.4317 20.9727 21.057V2.48908C20.9727 1.11437 19.9102 0 18.5996 0ZM10.4859 22.7927C10.0415 22.7927 9.68137 22.4326 9.68137 21.9881C9.68137 21.5437 10.0415 21.1836 10.4859 21.1836C10.9304 21.1836 11.2905 21.5437 11.2905 21.9881C11.2905 22.4326 10.9304 22.7927 10.4859 22.7927ZM19.1567 20.4252H1.81592V4.8265H1.8143V1.81511H7.21987H13.7049H19.1105H19.1567V2.48259C19.1567 2.48259 19.1567 2.48665 19.1567 2.48908V20.4252Z" fill="#6335C3"/>
<path d="M16.9844 7.37184C16.9662 6.76802 16.55 6.17616 15.8423 5.74815C15.1787 5.34683 14.3342 5.125 13.4638 5.125C12.5934 5.125 11.7498 5.34591 11.0853 5.74815C10.8543 5.88806 10.6527 6.04638 10.4848 6.21942C10.317 6.04638 10.1154 5.88806 9.88434 5.74815C9.22072 5.34683 8.37539 5.125 7.50584 5.125C6.63629 5.125 5.79183 5.34591 5.12734 5.74815C4.41958 6.17616 4.00341 6.76802 3.98611 7.36539C3.98524 7.37828 3.98438 7.39117 3.98438 7.40405V16.5746C3.98438 16.8783 4.2275 17.125 4.52687 17.125C4.62551 17.125 4.73539 17.0495 4.99755 16.8636C5.49506 16.5111 6.42171 15.8538 7.49373 15.8538C8.56574 15.8538 9.50451 16.5101 10.0081 16.8636C10.2434 17.0284 10.3559 17.1048 10.4467 17.1204C10.4589 17.1232 10.471 17.1241 10.4839 17.1241C10.5506 17.1241 10.6111 17.1029 10.6596 17.0624C10.7375 17.0182 10.8361 16.9492 10.959 16.8627C11.4634 16.5101 12.4013 15.8529 13.4733 15.8529C14.5453 15.8529 15.472 16.5092 15.9695 16.8627C16.2316 17.0486 16.3415 17.1241 16.4401 17.1241C16.7395 17.1241 16.9826 16.8774 16.9826 16.5736V7.40313C16.9826 7.39117 16.9826 7.38012 16.9826 7.37184H16.9844ZM15.9011 7.42614V14.6517C15.8821 14.6398 15.8622 14.6278 15.8423 14.6158C15.1787 14.2145 14.3342 13.9927 13.4646 13.9927C12.5951 13.9927 11.7506 14.2136 11.0861 14.6158C11.0662 14.6278 11.0472 14.6398 11.0273 14.6517V7.4289V7.40957C11.0316 6.99261 11.96 6.22679 13.4638 6.22679C14.9675 6.22679 15.8959 6.99261 15.9002 7.41234C15.9002 7.41694 15.9011 7.42154 15.9011 7.42614ZM9.94404 14.6517C9.92501 14.6398 9.90511 14.6278 9.88521 14.6158C9.22071 14.2145 8.37626 13.9927 7.5067 13.9927C6.63715 13.9927 5.79269 14.2136 5.1282 14.6158C5.1083 14.6278 5.08927 14.6398 5.06937 14.6517V7.4289C5.06937 7.42154 5.06937 7.4151 5.06937 7.40957C5.07369 6.99261 6.00208 6.22679 7.50584 6.22679C9.0096 6.22679 9.93799 6.99261 9.94231 7.40865V14.6517H9.94404Z" fill="#6335C3" stroke="#6335C3" stroke-width="0.5"/>
</svg>
