<svg width="14" height="21" viewBox="0 0 14 21" fill="none" xmlns="http://www.w3.org/2000/svg">
<path d="M13.5625 7.602C13.8542 7.602 14 7.742 14 8.022V10.92C14 12.208 13.4896 13.356 12.4687 14.364C11.4771 15.372 10.0188 15.96 8.09375 16.128V18.9H10.9375C11.2292 18.9 11.375 19.04 11.375 19.32V20.58C11.375 20.86 11.2292 21 10.9375 21H3.0625C2.77083 21 2.625 20.86 2.625 20.58V19.32C2.625 19.04 2.77083 18.9 3.0625 18.9H5.90625V16.128C3.98125 15.96 2.50833 15.372 1.4875 14.364C0.495833 13.356 0 12.208 0 10.92V8.022C0 7.742 0.145833 7.602 0.4375 7.602H1.09375C1.38542 7.602 1.53125 7.742 1.53125 8.022V10.92C1.53125 11.844 1.95417 12.712 2.8 13.524C3.675 14.308 5.075 14.7 7 14.7C8.925 14.7 10.3104 14.308 11.1562 13.524C12.0312 12.712 12.4687 11.844 12.4687 10.92V8.022C12.4687 7.742 12.6146 7.602 12.9063 7.602H13.5625ZM9.49375 12.096C8.99792 12.432 8.16667 12.6 7 12.6C5.83333 12.6 4.9875 12.432 4.4625 12.096C3.96667 11.732 3.71875 11.34 3.71875 10.92V7.602H10.2812V10.92C10.2812 11.34 10.0188 11.732 9.49375 12.096ZM10.2812 1.68V6.132H3.71875V1.68C3.71875 1.26 3.96667 0.881999 4.4625 0.545999C4.9875 0.182 5.83333 0 7 0C8.16667 0 8.99792 0.182 9.49375 0.545999C10.0188 0.881999 10.2812 1.26 10.2812 1.68Z" fill="#5E1DE1"/>
</svg>
