<svg width="28" height="28" viewBox="0 0 28 28" fill="none" xmlns="http://www.w3.org/2000/svg">
<path fill-rule="evenodd" clip-rule="evenodd" d="M2.07118 20.0236C2.07118 18.8831 2.99476 17.9585 4.13405 17.9585C5.27335 17.9585 6.19693 18.8831 6.19693 20.0236C6.19693 21.1642 5.27335 22.0887 4.13405 22.0887C2.99476 22.0887 2.07118 21.1642 2.07118 20.0236ZM4.13405 18.9117C3.52059 18.9117 3.02328 19.4095 3.02328 20.0236C3.02328 20.6378 3.52059 21.1356 4.13405 21.1356C4.74752 21.1356 5.24483 20.6378 5.24483 20.0236C5.24483 19.4095 4.74752 18.9117 4.13405 18.9117Z" fill="#5E1DE1"/>
<path d="M0.803366 23.7547C1.21615 23.3039 1.78533 23.0419 2.38855 23.0419H5.87956C6.48278 23.0419 7.05196 23.3039 7.46474 23.7547C7.87625 24.2041 8.10111 24.8055 8.10111 25.4247V26.3783C8.10111 26.6412 7.88798 26.8544 7.62507 26.8544C7.36215 26.8544 7.14902 26.6412 7.14902 26.3783V25.4247C7.14902 25.0328 7.00608 24.6644 6.7629 24.3988C6.52099 24.1346 6.20221 23.995 5.87956 23.995H2.38855C2.06589 23.995 1.74712 24.1346 1.50521 24.3988C1.26203 24.6644 1.11909 25.0328 1.11909 25.4247V26.3778C1.11909 26.641 0.905953 26.8544 0.64304 26.8544C0.380126 26.8544 0.166992 26.641 0.166992 26.3778V25.4247C0.166992 24.8055 0.391854 24.2041 0.803366 23.7547Z" fill="#5E1DE1"/>
<path d="M10.4958 26.3783C10.4958 26.6412 10.2826 26.8544 10.0197 26.8544C9.75682 26.8544 9.54368 26.6412 9.54368 26.3783V25.4247C9.54368 24.8055 9.76854 24.2041 10.1801 23.7547C10.5928 23.3039 11.162 23.0419 11.7652 23.0419H15.2563C15.8595 23.0419 16.4286 23.3039 16.8414 23.7547C17.2529 24.2041 17.4778 24.8055 17.4778 25.4247V26.3783C17.4778 26.6412 17.2647 26.8544 17.0018 26.8544C16.7388 26.8544 16.5257 26.6412 16.5257 26.3783V25.4247C16.5257 25.0328 16.3828 24.6644 16.1396 24.3988C15.8977 24.1346 15.5789 23.995 15.2563 23.995H11.7652C11.4426 23.995 11.1238 24.1346 10.8819 24.3988C10.6387 24.6644 10.4958 25.0328 10.4958 25.4247V26.3783Z" fill="#5E1DE1"/>
<path d="M18.9204 26.3783C18.9204 26.6412 19.1335 26.8544 19.3964 26.8544C19.6593 26.8544 19.8725 26.6412 19.8725 26.3783V25.4247C19.8725 25.0328 20.0154 24.6644 20.2586 24.3988C20.5005 24.1346 20.8193 23.995 21.1419 23.995H24.6329C24.9556 23.995 25.2744 24.1346 25.5163 24.3988C25.7595 24.6644 25.9024 25.0328 25.9024 25.4247V26.3778C25.9024 26.641 26.1155 26.8544 26.3785 26.8544C26.6414 26.8544 26.8545 26.641 26.8545 26.3778V25.4247C26.8545 24.8055 26.6296 24.2041 26.2181 23.7547C25.8053 23.3039 25.2362 23.0419 24.6329 23.0419H21.1419C20.5387 23.0419 19.9695 23.3039 19.5567 23.7547C19.1452 24.2041 18.9204 24.8055 18.9204 25.4247V26.3783Z" fill="#5E1DE1"/>
<path fill-rule="evenodd" clip-rule="evenodd" d="M22.8874 17.9585C21.7481 17.9585 20.8246 18.8831 20.8246 20.0236C20.8246 21.1642 21.7481 22.0887 22.8874 22.0887C24.0267 22.0887 24.9503 21.1642 24.9503 20.0236C24.9503 18.8831 24.0267 17.9585 22.8874 17.9585ZM21.7767 20.0236C21.7767 19.4095 22.274 18.9117 22.8874 18.9117C23.5009 18.9117 23.9982 19.4095 23.9982 20.0236C23.9982 20.6378 23.5009 21.1356 22.8874 21.1356C22.274 21.1356 21.7767 20.6378 21.7767 20.0236Z" fill="#5E1DE1"/>
<path fill-rule="evenodd" clip-rule="evenodd" d="M13.5107 17.9585C12.3715 17.9585 11.4479 18.8831 11.4479 20.0236C11.4479 21.1642 12.3715 22.0887 13.5107 22.0887C14.65 22.0887 15.5736 21.1642 15.5736 20.0236C15.5736 18.8831 14.65 17.9585 13.5107 17.9585ZM12.4 20.0236C12.4 19.4095 12.8973 18.9117 13.5107 18.9117C14.1242 18.9117 14.6215 19.4095 14.6215 20.0236C14.6215 20.6378 14.1242 21.1356 13.5107 21.1356C12.8973 21.1356 12.4 20.6378 12.4 20.0236Z" fill="#5E1DE1"/>
<path fill-rule="evenodd" clip-rule="evenodd" d="M10.9346 5.71619C10.9346 4.59068 11.8407 3.67826 12.9584 3.67826C14.0761 3.67826 14.9822 4.59068 14.9822 5.71619C14.9822 6.84171 14.0761 7.75413 12.9584 7.75413C11.8407 7.75413 10.9346 6.84171 10.9346 5.71619ZM12.9584 4.61885C12.3566 4.61885 11.8687 5.11015 11.8687 5.71619C11.8687 6.32224 12.3566 6.81354 12.9584 6.81354C13.5603 6.81354 14.0482 6.32224 14.0482 5.71619C14.0482 5.11015 13.5603 4.61885 12.9584 4.61885Z" fill="#5E1DE1"/>
<path fill-rule="evenodd" clip-rule="evenodd" d="M1.28263 0.869051C1.28263 0.481179 1.59944 0.166748 1.99025 0.166748H23.9266C24.3174 0.166748 24.6342 0.48118 24.6342 0.869051V12.8082C24.6342 13.1961 24.3174 13.5105 23.9266 13.5105H1.99025C1.59944 13.5105 1.28263 13.1961 1.28263 12.8082V0.869051ZM2.34406 12.457V1.2202H23.5728V12.457H16.8503V11.0462C16.8503 10.4351 16.6297 9.84169 16.226 9.3982C15.8211 8.95333 15.2627 8.69471 14.6709 8.69471H11.246C10.6542 8.69471 10.0958 8.95333 9.69081 9.3982C9.28709 9.84169 9.06648 10.4351 9.06648 11.0462V12.457H2.34406ZM10.0005 12.457H15.9163V11.0462C15.9163 10.6594 15.776 10.2959 15.5375 10.0338C15.3001 9.77306 14.9874 9.63529 14.6709 9.63529H11.246C10.9294 9.63529 10.6167 9.77306 10.3794 10.0338C10.1408 10.2959 10.0005 10.6594 10.0005 11.0462V12.457Z" fill="#5E1DE1"/>
<path d="M3.50659 3.50269C3.50659 2.88856 4.00444 2.39071 4.61857 2.39071C5.2327 2.39071 5.73055 2.88856 5.73055 3.50269C5.73055 4.11682 5.2327 4.61467 4.61857 4.61467C4.00444 4.61467 3.50659 4.11682 3.50659 3.50269Z" fill="#5E1DE1"/>
<path d="M0.803366 23.7547L0.680351 23.6421H0.680351L0.803366 23.7547ZM7.46474 23.7547L7.58776 23.6421H7.58776L7.46474 23.7547ZM6.7629 24.3988L6.63988 24.5114V24.5114L6.7629 24.3988ZM1.50521 24.3988L1.62822 24.5114L1.62822 24.5114L1.50521 24.3988ZM10.1801 23.7547L10.057 23.6421V23.6421L10.1801 23.7547ZM16.8414 23.7547L16.9644 23.6421H16.9644L16.8414 23.7547ZM16.1396 24.3988L16.0166 24.5114V24.5114L16.1396 24.3988ZM10.8819 24.3988L11.0049 24.5114V24.5114L10.8819 24.3988ZM20.2586 24.3988L20.3816 24.5114L20.3816 24.5114L20.2586 24.3988ZM25.5163 24.3988L25.3933 24.5114V24.5114L25.5163 24.3988ZM26.2181 23.7547L26.3411 23.6421V23.6421L26.2181 23.7547ZM19.5567 23.7547L19.6798 23.8674V23.8674L19.5567 23.7547ZM2.34406 1.2202V1.05341H2.17727V1.2202H2.34406ZM2.34406 12.457H2.17727V12.6238H2.34406V12.457ZM23.5728 1.2202H23.7396V1.05341H23.5728V1.2202ZM23.5728 12.457V12.6238H23.7396V12.457H23.5728ZM16.8503 12.457H16.6835V12.6238H16.8503V12.457ZM16.226 9.3982L16.3494 9.28591V9.28591L16.226 9.3982ZM9.69081 9.3982L9.56746 9.28591V9.28591L9.69081 9.3982ZM9.06648 12.457V12.6238H9.23328V12.457H9.06648ZM10.0005 12.457H9.83375V12.6238H10.0005V12.457ZM15.9163 12.457V12.6238H16.0831V12.457H15.9163ZM15.5375 10.0338L15.4141 10.1461V10.1461L15.5375 10.0338ZM10.3794 10.0338L10.5027 10.1461V10.1461L10.3794 10.0338ZM4.13405 17.9585V17.7917C2.90247 17.7917 1.90438 18.7912 1.90438 20.0236H2.07118H2.23798C2.23798 18.9751 3.08705 18.1253 4.13405 18.1253V17.9585ZM6.19693 20.0236H6.36372C6.36372 18.7912 5.36564 17.7917 4.13405 17.7917V17.9585V18.1253C5.18106 18.1253 6.03013 18.9751 6.03013 20.0236H6.19693ZM4.13405 22.0887V22.2555C5.36564 22.2555 6.36372 21.2561 6.36372 20.0236H6.19693H6.03013C6.03013 21.0722 5.18106 21.9219 4.13405 21.9219V22.0887ZM2.07118 20.0236H1.90438C1.90438 21.2561 2.90247 22.2555 4.13405 22.2555V22.0887V21.9219C3.08705 21.9219 2.23798 21.0722 2.23798 20.0236H2.07118ZM3.02328 20.0236H3.19007C3.19007 19.5015 3.61288 19.0785 4.13405 19.0785V18.9117V18.7449C3.4283 18.7449 2.85648 19.3176 2.85648 20.0236H3.02328ZM4.13405 21.1356V20.9688C3.61288 20.9688 3.19007 20.5458 3.19007 20.0236H3.02328H2.85648C2.85648 20.7297 3.4283 21.3024 4.13405 21.3024V21.1356ZM5.24483 20.0236H5.07803C5.07803 20.5458 4.65523 20.9688 4.13405 20.9688V21.1356V21.3024C4.83981 21.3024 5.41163 20.7297 5.41163 20.0236H5.24483ZM4.13405 18.9117V19.0785C4.65523 19.0785 5.07803 19.5015 5.07803 20.0236H5.24483H5.41163C5.41163 19.3176 4.83981 18.7449 4.13405 18.7449V18.9117ZM2.38855 23.0419V22.8751C1.73607 22.8751 1.12302 23.1587 0.680351 23.6421L0.803366 23.7547L0.926382 23.8674C1.30928 23.4492 1.83458 23.2087 2.38855 23.2087V23.0419ZM5.87956 23.0419V22.8751H2.38855V23.0419V23.2087H5.87956V23.0419ZM7.46474 23.7547L7.58776 23.6421C7.14508 23.1587 6.53203 22.8751 5.87956 22.8751V23.0419V23.2087C6.43353 23.2087 6.95883 23.4492 7.34173 23.8674L7.46474 23.7547ZM8.10111 25.4247H8.26791C8.26791 24.7657 8.02875 24.1237 7.58776 23.6421L7.46474 23.7547L7.34173 23.8674C7.72376 24.2846 7.93432 24.8452 7.93432 25.4247H8.10111ZM8.10111 26.3783H8.26791V25.4247H8.10111H7.93432V26.3783H8.10111ZM7.14902 25.4247H6.98222V26.3783H7.14902H7.31582V25.4247H7.14902ZM6.7629 24.3988L6.63988 24.5114C6.85362 24.7448 6.98222 25.0725 6.98222 25.4247H7.14902H7.31582C7.31582 24.993 7.15854 24.5839 6.88592 24.2861L6.7629 24.3988ZM5.87956 23.995V24.1618C6.15306 24.1618 6.42794 24.28 6.63988 24.5114L6.7629 24.3988L6.88592 24.2861C6.61405 23.9892 6.25137 23.8282 5.87956 23.8282V23.995ZM2.38855 23.995V24.1618H5.87956V23.995V23.8282H2.38855V23.995ZM1.50521 24.3988L1.62822 24.5114C1.84017 24.28 2.11504 24.1618 2.38855 24.1618V23.995V23.8282C2.01674 23.8282 1.65406 23.9892 1.38219 24.2861L1.50521 24.3988ZM1.11909 25.4247H1.28588C1.28588 25.0725 1.41449 24.7448 1.62822 24.5114L1.50521 24.3988L1.38219 24.2861C1.10957 24.5839 0.95229 24.993 0.95229 25.4247H1.11909ZM1.11909 26.3778H1.28588V25.4247H1.11909H0.95229V26.3778H1.11909ZM0.64304 26.8544V27.0212C0.998243 27.0212 1.28588 26.733 1.28588 26.3778H1.11909H0.95229C0.95229 26.5491 0.813664 26.6876 0.64304 26.6876V26.8544ZM0.166992 26.3778H0.00019528C0.00019528 26.733 0.287836 27.0212 0.64304 27.0212V26.8544V26.6876C0.472415 26.6876 0.333789 26.5491 0.333789 26.3778H0.166992ZM0.166992 25.4247H0.00019528V26.3778H0.166992H0.333789V25.4247H0.166992ZM0.803366 23.7547L0.680351 23.6421C0.239359 24.1237 0.00019528 24.7657 0.00019528 25.4247H0.166992H0.333789C0.333789 24.8452 0.544349 24.2846 0.926382 23.8674L0.803366 23.7547ZM9.54368 25.4247H9.37689V26.3783H9.54368H9.71048V25.4247H9.54368ZM10.1801 23.7547L10.057 23.6421C9.61605 24.1237 9.37689 24.7657 9.37689 25.4247H9.54368H9.71048C9.71048 24.8452 9.92104 24.2846 10.3031 23.8674L10.1801 23.7547ZM11.7652 23.0419V22.8751C11.1128 22.8751 10.4997 23.1587 10.057 23.6421L10.1801 23.7547L10.3031 23.8674C10.686 23.4492 11.2113 23.2087 11.7652 23.2087V23.0419ZM15.2563 23.0419V22.8751H11.7652V23.0419V23.2087H15.2563V23.0419ZM16.8414 23.7547L16.9644 23.6421C16.5218 23.1587 15.9087 22.8751 15.2563 22.8751V23.0419V23.2087C15.8102 23.2087 16.3355 23.4492 16.7184 23.8674L16.8414 23.7547ZM17.4778 25.4247H17.6446C17.6446 24.7657 17.4054 24.1237 16.9644 23.6421L16.8414 23.7547L16.7184 23.8674C17.1004 24.2846 17.311 24.8452 17.311 25.4247H17.4778ZM17.4778 26.3783H17.6446V25.4247H17.4778H17.311V26.3783H17.4778ZM16.5257 25.4247H16.3589V26.3783H16.5257H16.6925V25.4247H16.5257ZM16.1396 24.3988L16.0166 24.5114C16.2303 24.7448 16.3589 25.0725 16.3589 25.4247H16.5257H16.6925C16.6925 24.993 16.5352 24.5839 16.2626 24.2861L16.1396 24.3988ZM15.2563 23.995V24.1618C15.5298 24.1618 15.8046 24.28 16.0166 24.5114L16.1396 24.3988L16.2626 24.2861C15.9907 23.9892 15.6281 23.8282 15.2563 23.8282V23.995ZM11.7652 23.995V24.1618H15.2563V23.995V23.8282H11.7652V23.995ZM10.8819 24.3988L11.0049 24.5114C11.2169 24.28 11.4917 24.1618 11.7652 24.1618V23.995V23.8282C11.3934 23.8282 11.0308 23.9892 10.7589 24.2861L10.8819 24.3988ZM10.4958 25.4247H10.6626C10.6626 25.0725 10.7912 24.7448 11.0049 24.5114L10.8819 24.3988L10.7589 24.2861C10.4863 24.5839 10.329 24.993 10.329 25.4247H10.4958ZM10.4958 26.3783H10.6626V25.4247H10.4958H10.329V26.3783H10.4958ZM19.8725 25.4247H19.7057V26.3783H19.8725H20.0393V25.4247H19.8725ZM20.2586 24.3988L20.1356 24.2861C19.8629 24.5839 19.7057 24.993 19.7057 25.4247H19.8725H20.0393C20.0393 25.0725 20.1679 24.7448 20.3816 24.5114L20.2586 24.3988ZM21.1419 23.995V23.8282C20.7701 23.8282 20.4074 23.9892 20.1356 24.2861L20.2586 24.3988L20.3816 24.5114C20.5936 24.28 20.8684 24.1618 21.1419 24.1618V23.995ZM24.6329 23.995V23.8282H21.1419V23.995V24.1618H24.6329V23.995ZM25.5163 24.3988L25.6393 24.2861C25.3674 23.9892 25.0047 23.8282 24.6329 23.8282V23.995V24.1618C24.9064 24.1618 25.1813 24.28 25.3933 24.5114L25.5163 24.3988ZM25.9024 25.4247H26.0692C26.0692 24.993 25.9119 24.5839 25.6393 24.2861L25.5163 24.3988L25.3933 24.5114C25.607 24.7448 25.7356 25.0725 25.7356 25.4247H25.9024ZM25.9024 26.3778H26.0692V25.4247H25.9024H25.7356V26.3778H25.9024ZM26.3785 26.8544V26.6876C26.2078 26.6876 26.0692 26.5491 26.0692 26.3778H25.9024H25.7356C25.7356 26.733 26.0232 27.0212 26.3785 27.0212V26.8544ZM26.8545 26.3778H26.6877C26.6877 26.5491 26.5491 26.6876 26.3785 26.6876V26.8544V27.0212C26.7337 27.0212 27.0213 26.733 27.0213 26.3778H26.8545ZM26.8545 25.4247H26.6877V26.3778H26.8545H27.0213V25.4247H26.8545ZM26.2181 23.7547L26.0951 23.8674C26.4771 24.2846 26.6877 24.8452 26.6877 25.4247H26.8545H27.0213C27.0213 24.7657 26.7821 24.1237 26.3411 23.6421L26.2181 23.7547ZM24.6329 23.0419V23.2087C25.1869 23.2087 25.7122 23.4492 26.0951 23.8674L26.2181 23.7547L26.3411 23.6421C25.8985 23.1587 25.2854 22.8751 24.6329 22.8751V23.0419ZM21.1419 23.0419V23.2087H24.6329V23.0419V22.8751H21.1419V23.0419ZM19.5567 23.7547L19.6798 23.8674C20.0627 23.4492 20.588 23.2087 21.1419 23.2087V23.0419V22.8751C20.4895 22.8751 19.8764 23.1587 19.4337 23.6421L19.5567 23.7547ZM18.9204 25.4247H19.0872C19.0872 24.8452 19.2977 24.2846 19.6798 23.8674L19.5567 23.7547L19.4337 23.6421C18.9927 24.1237 18.7536 24.7657 18.7536 25.4247H18.9204ZM18.9204 26.3783H19.0872V25.4247H18.9204H18.7536V26.3783H18.9204ZM20.8246 20.0236H20.9914C20.9914 18.9751 21.8404 18.1253 22.8874 18.1253V17.9585V17.7917C21.6559 17.7917 20.6578 18.7912 20.6578 20.0236H20.8246ZM22.8874 22.0887V21.9219C21.8404 21.9219 20.9914 21.0722 20.9914 20.0236H20.8246H20.6578C20.6578 21.2561 21.6559 22.2555 22.8874 22.2555V22.0887ZM24.9503 20.0236H24.7835C24.7835 21.0722 23.9344 21.9219 22.8874 21.9219V22.0887V22.2555C24.119 22.2555 25.1171 21.2561 25.1171 20.0236H24.9503ZM22.8874 17.9585V18.1253C23.9344 18.1253 24.7835 18.9751 24.7835 20.0236H24.9503H25.1171C25.1171 18.7912 24.119 17.7917 22.8874 17.7917V17.9585ZM22.8874 18.9117V18.7449C22.1817 18.7449 21.6099 19.3176 21.6099 20.0236H21.7767H21.9435C21.9435 19.5015 22.3663 19.0785 22.8874 19.0785V18.9117ZM23.9982 20.0236H24.165C24.165 19.3176 23.5932 18.7449 22.8874 18.7449V18.9117V19.0785C23.4086 19.0785 23.8314 19.5015 23.8314 20.0236H23.9982ZM22.8874 21.1356V21.3024C23.5932 21.3024 24.165 20.7297 24.165 20.0236H23.9982H23.8314C23.8314 20.5458 23.4086 20.9688 22.8874 20.9688V21.1356ZM21.7767 20.0236H21.6099C21.6099 20.7297 22.1817 21.3024 22.8874 21.3024V21.1356V20.9688C22.3663 20.9688 21.9435 20.5458 21.9435 20.0236H21.7767ZM11.4479 20.0236H11.6147C11.6147 18.9751 12.4637 18.1253 13.5107 18.1253V17.9585V17.7917C12.2792 17.7917 11.2811 18.7912 11.2811 20.0236H11.4479ZM13.5107 22.0887V21.9219C12.4637 21.9219 11.6147 21.0722 11.6147 20.0236H11.4479H11.2811C11.2811 21.2561 12.2792 22.2555 13.5107 22.2555V22.0887ZM15.5736 20.0236H15.4068C15.4068 21.0722 14.5577 21.9219 13.5107 21.9219V22.0887V22.2555C14.7423 22.2555 15.7404 21.2561 15.7404 20.0236H15.5736ZM13.5107 17.9585V18.1253C14.5577 18.1253 15.4068 18.9751 15.4068 20.0236H15.5736H15.7404C15.7404 18.7912 14.7423 17.7917 13.5107 17.7917V17.9585ZM13.5107 18.9117V18.7449C12.805 18.7449 12.2332 19.3176 12.2332 20.0236H12.4H12.5668C12.5668 19.5015 12.9896 19.0785 13.5107 19.0785V18.9117ZM14.6215 20.0236H14.7883C14.7883 19.3176 14.2165 18.7449 13.5107 18.7449V18.9117V19.0785C14.0319 19.0785 14.4547 19.5015 14.4547 20.0236H14.6215ZM13.5107 21.1356V21.3024C14.2165 21.3024 14.7883 20.7297 14.7883 20.0236H14.6215H14.4547C14.4547 20.5458 14.0319 20.9688 13.5107 20.9688V21.1356ZM12.4 20.0236H12.2332C12.2332 20.7297 12.805 21.3024 13.5107 21.3024V21.1356V20.9688C12.9896 20.9688 12.5668 20.5458 12.5668 20.0236H12.4ZM19.3964 26.8544V26.6876C19.2256 26.6876 19.0872 26.5491 19.0872 26.3783H18.9204H18.7536C18.7536 26.7334 19.0414 27.0212 19.3964 27.0212V26.8544ZM19.3964 26.8544V27.0212C19.7515 27.0212 20.0393 26.7334 20.0393 26.3783H19.8725H19.7057C19.7057 26.5491 19.5672 26.6876 19.3964 26.6876V26.8544ZM17.0018 26.8544V26.6876C16.831 26.6876 16.6925 26.5491 16.6925 26.3783H16.5257H16.3589C16.3589 26.7334 16.6467 27.0212 17.0018 27.0212V26.8544ZM10.0197 26.8544V27.0212C10.3748 27.0212 10.6626 26.7334 10.6626 26.3783H10.4958H10.329C10.329 26.5491 10.1905 26.6876 10.0197 26.6876V26.8544ZM10.0197 26.8544V26.6876C9.84894 26.6876 9.71048 26.5491 9.71048 26.3783H9.54368H9.37689C9.37689 26.7334 9.6647 27.0212 10.0197 27.0212V26.8544ZM7.14902 26.3783H6.98222C6.98222 26.7334 7.27003 27.0212 7.62507 27.0212V26.8544V26.6876C7.45427 26.6876 7.31582 26.5491 7.31582 26.3783H7.14902ZM17.4778 26.3783H17.311C17.311 26.5491 17.1726 26.6876 17.0018 26.6876V26.8544V27.0212C17.3568 27.0212 17.6446 26.7334 17.6446 26.3783H17.4778ZM8.10111 26.3783H7.93432C7.93432 26.5491 7.79586 26.6876 7.62507 26.6876V26.8544V27.0212C7.9801 27.0212 8.26791 26.7334 8.26791 26.3783H8.10111ZM2.34406 1.2202H2.17727V12.457H2.34406H2.51086V1.2202H2.34406ZM23.5728 1.2202V1.05341H2.34406V1.2202V1.387H23.5728V1.2202ZM23.5728 12.457H23.7396V1.2202H23.5728H23.406V12.457H23.5728ZM16.8503 12.457V12.6238H23.5728V12.457V12.2902H16.8503V12.457ZM16.8503 11.0462H16.6835V12.457H16.8503H17.0171V11.0462H16.8503ZM16.226 9.3982L16.1027 9.51048C16.477 9.92173 16.6835 10.4745 16.6835 11.0462H16.8503H17.0171C17.0171 10.3957 16.7824 9.76165 16.3494 9.28591L16.226 9.3982ZM14.6709 8.69471V8.86151C15.2131 8.86151 15.7275 9.09833 16.1027 9.51048L16.226 9.3982L16.3494 9.28591C15.9146 8.80833 15.3123 8.52791 14.6709 8.52791V8.69471ZM11.246 8.69471V8.86151H14.6709V8.69471V8.52791H11.246V8.69471ZM9.69081 9.3982L9.81415 9.51048C10.1893 9.09833 10.7038 8.86151 11.246 8.86151V8.69471V8.52791C10.6046 8.52791 10.0022 8.80833 9.56746 9.28591L9.69081 9.3982ZM9.06648 11.0462H9.23328C9.23328 10.4745 9.43978 9.92174 9.81415 9.51048L9.69081 9.3982L9.56746 9.28591C9.1344 9.76165 8.89969 10.3957 8.89969 11.0462H9.06648ZM9.06648 12.457H9.23328V11.0462H9.06648H8.89969V12.457H9.06648ZM2.34406 12.457V12.6238H9.06648V12.457V12.2902H2.34406V12.457ZM10.0005 12.457V12.6238H15.9163V12.457V12.2902H10.0005V12.457ZM15.9163 12.457H16.0831V11.0462H15.9163H15.7495V12.457H15.9163ZM15.9163 11.0462H16.0831C16.0831 10.6199 15.9287 10.2158 15.6608 9.92149L15.5375 10.0338L15.4141 10.1461C15.6234 10.3759 15.7495 10.6989 15.7495 11.0462H15.9163ZM15.5375 10.0338L15.6608 9.92149C15.3936 9.62798 15.0369 9.4685 14.6709 9.4685V9.63529V9.80209C14.9379 9.80209 15.2066 9.91814 15.4141 10.1461L15.5375 10.0338ZM14.6709 9.63529V9.4685H11.246V9.63529V9.80209H14.6709V9.63529ZM11.246 9.63529V9.4685C10.8799 9.4685 10.5232 9.62798 10.256 9.92149L10.3794 10.0338L10.5027 10.1461C10.7102 9.91814 10.9789 9.80209 11.246 9.80209V9.63529ZM10.3794 10.0338L10.256 9.92149C9.98812 10.2158 9.83375 10.6199 9.83375 11.0462H10.0005H10.1673C10.1673 10.6989 10.2934 10.3759 10.5027 10.1461L10.3794 10.0338ZM10.0005 11.0462H9.83375V12.457H10.0005H10.1673V11.0462H10.0005ZM1.99025 0.166748V-4.88609e-05C1.50851 -4.88609e-05 1.11583 0.387875 1.11583 0.869051H1.28263H1.44942C1.44942 0.574484 1.69037 0.333545 1.99025 0.333545V0.166748ZM23.9266 0.166748V-4.88609e-05H1.99025V0.166748V0.333545H23.9266V0.166748ZM24.6342 0.869051H24.801C24.801 0.387876 24.4083 -4.88609e-05 23.9266 -4.88609e-05V0.166748V0.333545C24.2264 0.333545 24.4674 0.574484 24.4674 0.869051H24.6342ZM24.6342 12.8082H24.801V0.869051H24.6342H24.4674V12.8082H24.6342ZM23.9266 13.5105V13.6773C24.4083 13.6773 24.801 13.2894 24.801 12.8082H24.6342H24.4674C24.4674 13.1028 24.2264 13.3437 23.9266 13.3437V13.5105ZM1.99025 13.5105V13.6773H23.9266V13.5105V13.3437H1.99025V13.5105ZM1.28263 12.8082H1.11583C1.11583 13.2894 1.50851 13.6773 1.99025 13.6773V13.5105V13.3437C1.69037 13.3437 1.44942 13.1028 1.44942 12.8082H1.28263ZM1.28263 0.869051H1.11583V12.8082H1.28263H1.44942V0.869051H1.28263ZM12.9584 3.67826V3.51146C11.7475 3.51146 10.7678 4.49965 10.7678 5.71619H10.9346H11.1014C11.1014 4.6817 11.9339 3.84506 12.9584 3.84506V3.67826ZM14.9822 5.71619H15.149C15.149 4.49965 14.1693 3.51146 12.9584 3.51146V3.67826V3.84506C13.9829 3.84506 14.8154 4.6817 14.8154 5.71619H14.9822ZM12.9584 7.75413V7.92092C14.1693 7.92092 15.149 6.93274 15.149 5.71619H14.9822H14.8154C14.8154 6.75069 13.9829 7.58733 12.9584 7.58733V7.75413ZM10.9346 5.71619H10.7678C10.7678 6.93274 11.7475 7.92092 12.9584 7.92092V7.75413V7.58733C11.9339 7.58733 11.1014 6.75069 11.1014 5.71619H10.9346ZM11.8687 5.71619H12.0355C12.0355 5.20117 12.4498 4.78564 12.9584 4.78564V4.61885V4.45205C12.2634 4.45205 11.7019 5.01912 11.7019 5.71619H11.8687ZM12.9584 6.81354V6.64675C12.4498 6.64675 12.0355 6.23122 12.0355 5.71619H11.8687H11.7019C11.7019 6.41327 12.2634 6.98034 12.9584 6.98034V6.81354ZM14.0482 5.71619H13.8814C13.8814 6.23122 13.467 6.64675 12.9584 6.64675V6.81354V6.98034C13.6535 6.98034 14.2149 6.41327 14.2149 5.71619H14.0482ZM12.9584 4.61885V4.78564C13.467 4.78564 13.8814 5.20117 13.8814 5.71619H14.0482H14.2149C14.2149 5.01912 13.6535 4.45205 12.9584 4.45205V4.61885ZM4.61857 4.61467V4.44787C4.09656 4.44787 3.67338 4.0247 3.67338 3.50269H3.50659H3.33979C3.33979 4.20893 3.91232 4.78146 4.61857 4.78146V4.61467ZM5.73055 3.50269H5.56375C5.56375 4.0247 5.14058 4.44787 4.61857 4.44787V4.61467V4.78146C5.32481 4.78146 5.89734 4.20893 5.89734 3.50269H5.73055ZM4.61857 2.39071V2.5575C5.14058 2.5575 5.56375 2.98068 5.56375 3.50269H5.73055H5.89734C5.89734 2.79644 5.32481 2.22391 4.61857 2.22391V2.39071ZM4.61857 2.39071V2.22391C3.91232 2.22391 3.33979 2.79644 3.33979 3.50269H3.50659H3.67338C3.67338 2.98068 4.09656 2.5575 4.61857 2.5575V2.39071Z" fill="#5E1DE1"/>
</svg>
