<svg width="19" height="26" viewBox="0 0 19 26" fill="none" xmlns="http://www.w3.org/2000/svg">
<path fill-rule="evenodd" clip-rule="evenodd" d="M1.8749 13.7076C2.80901 12.7268 4.07593 12.1758 5.39696 12.1758H12.7601C14.0811 12.1758 15.3481 12.7268 16.2822 13.7076C17.2163 14.6884 17.7411 16.0187 17.7411 17.4058V21.0224C17.7411 21.3991 17.4502 21.7046 17.0914 21.7046C16.7326 21.7046 16.4417 21.3991 16.4417 21.0224V17.4058C16.4417 16.3805 16.0538 15.3973 15.3634 14.6724C14.6729 13.9474 13.7365 13.5401 12.7601 13.5401H5.39696C4.42055 13.5401 3.48413 13.9474 2.7937 14.6724C2.10327 15.3973 1.71539 16.3805 1.71539 17.4058V21.0224C1.71539 21.3991 1.42452 21.7046 1.0657 21.7046C0.706891 21.7046 0.416016 21.3991 0.416016 21.0224V17.4058C0.416016 16.0187 0.940793 14.6884 1.8749 13.7076Z" fill="#5E1DE1" stroke="#5E1DE1" stroke-width="0.833977" stroke-linecap="round" stroke-linejoin="round"/>
<path d="M9.07931 9.58049C11.4714 9.58049 13.4106 7.64132 13.4106 5.24923C13.4106 2.85714 11.4714 0.917969 9.07931 0.917969C6.68722 0.917969 4.74805 2.85714 4.74805 5.24923C4.74805 7.64132 6.68722 9.58049 9.07931 9.58049Z" stroke="#5E1DE1" stroke-width="1.83475" stroke-linecap="round" stroke-linejoin="round"/>
<path d="M8.21387 18.0762V21.0947H5.27148V22.8447H8.21387V25.8438H10.1143V22.8447H13.0391V21.0947H10.1143V18.0762H8.21387Z" fill="#5E1DE1" stroke="#5E1DE1" stroke-width="0.3"/>
</svg>
