<svg width="26" height="26" viewBox="0 0 26 26" fill="none" xmlns="http://www.w3.org/2000/svg">
<path d="M6.58124 3.91928C8.23373 2.24046 10.4715 1.3001 12.8017 1.3001C15.1319 1.3001 17.3697 2.24046 19.0222 3.91928C19.2556 4.15637 19.6385 4.16089 19.8775 3.92939C20.1165 3.69788 20.1211 3.31801 19.8877 3.08092C18.0107 1.17406 15.4622 0.100098 12.8017 0.100098C10.1412 0.100098 7.5927 1.17405 5.71573 3.08092C5.48236 3.31801 5.48692 3.69788 5.72593 3.92939C5.96493 4.16089 6.34786 4.15637 6.58124 3.91928Z" fill="#5E1DE1"/>
<path d="M9.41352 6.30919C10.2665 5.40135 11.4137 4.9001 12.6001 4.9001C13.7865 4.9001 14.9337 5.40136 15.7867 6.30919C16.0144 6.5516 16.3972 6.56495 16.6415 6.33901C16.8859 6.11308 16.8993 5.73341 16.6716 5.49101C15.5994 4.34989 14.1359 3.7001 12.6001 3.7001C11.0643 3.7001 9.60079 4.34989 8.52861 5.49101C8.30086 5.73341 8.31431 6.11307 8.55867 6.33901C8.80303 6.56495 9.18576 6.5516 9.41352 6.30919Z" fill="#5E1DE1"/>
<path d="M12.2594 9.08289C12.3725 8.94746 12.4987 8.9001 12.6001 8.9001C12.7015 8.9001 12.8277 8.94746 12.9408 9.08289C13.1539 9.33806 13.5352 9.37354 13.7924 9.16213C14.0497 8.95072 14.0854 8.57248 13.8723 8.31731C13.5576 7.94049 13.1037 7.7001 12.6001 7.7001C12.0965 7.7001 11.6426 7.94049 11.3279 8.31731C11.1148 8.57248 11.1505 8.95072 11.4078 9.16213C11.665 9.37354 12.0463 9.33806 12.2594 9.08289Z" fill="#5E1DE1"/>
<path d="M16.0679 14.8585C15.9614 14.7588 15.8343 14.7089 15.6864 14.7089C15.5859 14.7089 15.4913 14.7382 15.4026 14.7969C15.3139 14.8556 15.2458 14.9377 15.1985 15.0433L13.5663 19.2057L11.7832 15.0433C11.7359 14.9318 11.6679 14.8468 11.5792 14.7881C11.4905 14.7294 11.3958 14.7001 11.2953 14.7001C11.1711 14.7001 11.0499 14.75 10.9316 14.8497C10.8133 14.9436 10.7542 15.0697 10.7542 15.2281C10.7542 15.3161 10.769 15.3894 10.7985 15.4481L12.9897 20.5521C13.037 20.6577 13.102 20.7398 13.1848 20.7985C13.2735 20.8513 13.3682 20.8806 13.4687 20.8865C13.5751 20.8865 13.6757 20.8572 13.7703 20.7985C13.8649 20.7398 13.9389 20.6548 13.9921 20.5433L16.1832 15.4569C16.2187 15.3748 16.2364 15.2956 16.2364 15.2193C16.2364 15.0785 16.1803 14.9582 16.0679 14.8585Z" fill="#5E1DE1"/>
<path d="M7.15332 19.8569C7.30709 19.8569 7.43424 19.9068 7.53477 20.0065C7.64123 20.1004 7.69445 20.2236 7.69445 20.3761C7.69445 20.5228 7.64123 20.646 7.53477 20.7457C7.43424 20.8396 7.30709 20.8865 7.15332 20.8865H4.27026C4.1165 20.8865 3.98639 20.8366 3.87994 20.7369C3.7794 20.6313 3.72913 20.5022 3.72913 20.3497V15.2633C3.72913 15.1108 3.78236 14.9846 3.88881 14.8849C3.99526 14.7793 4.13128 14.7265 4.29687 14.7265C4.44472 14.7265 4.57187 14.7793 4.67832 14.8849C4.78478 14.9846 4.838 15.1108 4.838 15.2633V19.8569H7.15332Z" fill="#5E1DE1"/>
<path d="M9.81926 20.3497C9.81926 20.5022 9.76307 20.6313 9.65071 20.7369C9.53834 20.8366 9.40824 20.8865 9.26039 20.8865C9.10071 20.8865 8.96764 20.8366 8.86119 20.7369C8.76066 20.6313 8.71039 20.5022 8.71039 20.3497V15.2633C8.71039 15.1108 8.76361 14.9846 8.87006 14.8849C8.97651 14.7793 9.11254 14.7265 9.27813 14.7265C9.42598 14.7265 9.55313 14.7793 9.65958 14.8849C9.76603 14.9846 9.81926 15.1108 9.81926 15.2633V20.3497Z" fill="#5E1DE1"/>
<path d="M20.6784 19.8745C20.8322 19.8745 20.9593 19.9273 21.0599 20.0329C21.1663 20.1326 21.2196 20.25 21.2196 20.3849C21.2196 20.5316 21.1663 20.6518 21.0599 20.7457C20.9593 20.8396 20.8322 20.8865 20.6784 20.8865H17.7067C17.5529 20.8865 17.4228 20.8366 17.3163 20.7369C17.2158 20.6313 17.1655 20.5022 17.1655 20.3497V15.2633C17.1655 15.1108 17.2158 14.9846 17.3163 14.8849C17.4228 14.7793 17.5529 14.7265 17.7067 14.7265H20.6784C20.8322 14.7265 20.9593 14.7764 21.0599 14.8761C21.1663 14.97 21.2196 15.0932 21.2196 15.2457C21.2196 15.3924 21.1693 15.5126 21.0688 15.6065C20.9682 15.6945 20.8381 15.7385 20.6784 15.7385H18.2744V17.2345H20.2792C20.433 17.2345 20.5602 17.2844 20.6607 17.3841C20.7671 17.478 20.8204 17.6012 20.8204 17.7537C20.8204 17.9004 20.7701 18.0206 20.6696 18.1145C20.569 18.2025 20.4389 18.2465 20.2792 18.2465H18.2744V19.8745H20.6784Z" fill="#5E1DE1"/>
<path fill-rule="evenodd" clip-rule="evenodd" d="M1.713 10.7001C0.822219 10.7001 0.100098 11.4164 0.100098 12.3001V23.5001C0.100098 24.3838 0.822219 25.1001 1.713 25.1001H23.4872C24.378 25.1001 25.1001 24.3838 25.1001 23.5001V12.3001C25.1001 11.4164 24.378 10.7001 23.4872 10.7001H1.713ZM23.8904 12.3001C23.8904 12.0792 23.7099 11.9001 23.4872 11.9001H1.713C1.49031 11.9001 1.30978 12.0792 1.30978 12.3001V23.5001C1.30978 23.721 1.49031 23.9001 1.713 23.9001H23.4872C23.7099 23.9001 23.8904 23.721 23.8904 23.5001V12.3001Z" fill="#5E1DE1"/>
<path d="M6.58124 3.91928C8.23373 2.24046 10.4715 1.3001 12.8017 1.3001C15.1319 1.3001 17.3697 2.24046 19.0222 3.91928C19.2556 4.15637 19.6385 4.16089 19.8775 3.92939C20.1165 3.69788 20.1211 3.31801 19.8877 3.08092C18.0107 1.17406 15.4622 0.100098 12.8017 0.100098C10.1412 0.100098 7.5927 1.17405 5.71573 3.08092C5.48236 3.31801 5.48692 3.69788 5.72593 3.92939C5.96493 4.16089 6.34786 4.15637 6.58124 3.91928Z" stroke="#5E1DE1" stroke-width="0.2" stroke-linecap="round" stroke-linejoin="round"/>
<path d="M9.41352 6.30919C10.2665 5.40135 11.4137 4.9001 12.6001 4.9001C13.7865 4.9001 14.9337 5.40136 15.7867 6.30919C16.0144 6.5516 16.3972 6.56495 16.6415 6.33901C16.8859 6.11308 16.8993 5.73341 16.6716 5.49101C15.5994 4.34989 14.1359 3.7001 12.6001 3.7001C11.0643 3.7001 9.60079 4.34989 8.52861 5.49101C8.30086 5.73341 8.31431 6.11307 8.55867 6.33901C8.80303 6.56495 9.18576 6.5516 9.41352 6.30919Z" stroke="#5E1DE1" stroke-width="0.2" stroke-linecap="round" stroke-linejoin="round"/>
<path d="M12.2594 9.08289C12.3725 8.94746 12.4987 8.9001 12.6001 8.9001C12.7015 8.9001 12.8277 8.94746 12.9408 9.08289C13.1539 9.33806 13.5352 9.37354 13.7924 9.16213C14.0497 8.95072 14.0854 8.57248 13.8723 8.31731C13.5576 7.94049 13.1037 7.7001 12.6001 7.7001C12.0965 7.7001 11.6426 7.94049 11.3279 8.31731C11.1148 8.57248 11.1505 8.95072 11.4078 9.16213C11.665 9.37354 12.0463 9.33806 12.2594 9.08289Z" stroke="#5E1DE1" stroke-width="0.2" stroke-linecap="round" stroke-linejoin="round"/>
<path d="M16.0679 14.8585C15.9614 14.7588 15.8343 14.7089 15.6864 14.7089C15.5859 14.7089 15.4913 14.7382 15.4026 14.7969C15.3139 14.8556 15.2458 14.9377 15.1985 15.0433L13.5663 19.2057L11.7832 15.0433C11.7359 14.9318 11.6679 14.8468 11.5792 14.7881C11.4905 14.7294 11.3958 14.7001 11.2953 14.7001C11.1711 14.7001 11.0499 14.75 10.9316 14.8497C10.8133 14.9436 10.7542 15.0697 10.7542 15.2281C10.7542 15.3161 10.769 15.3894 10.7985 15.4481L12.9897 20.5521C13.037 20.6577 13.102 20.7398 13.1848 20.7985C13.2735 20.8513 13.3682 20.8806 13.4687 20.8865C13.5751 20.8865 13.6757 20.8572 13.7703 20.7985C13.8649 20.7398 13.9389 20.6548 13.9921 20.5433L16.1832 15.4569C16.2187 15.3748 16.2364 15.2956 16.2364 15.2193C16.2364 15.0785 16.1803 14.9582 16.0679 14.8585Z" stroke="#5E1DE1" stroke-width="0.2" stroke-linecap="round" stroke-linejoin="round"/>
<path d="M7.15332 19.8569C7.30709 19.8569 7.43424 19.9068 7.53477 20.0065C7.64123 20.1004 7.69445 20.2236 7.69445 20.3761C7.69445 20.5228 7.64123 20.646 7.53477 20.7457C7.43424 20.8396 7.30709 20.8865 7.15332 20.8865H4.27026C4.1165 20.8865 3.98639 20.8366 3.87994 20.7369C3.7794 20.6313 3.72913 20.5022 3.72913 20.3497V15.2633C3.72913 15.1108 3.78236 14.9846 3.88881 14.8849C3.99526 14.7793 4.13128 14.7265 4.29687 14.7265C4.44472 14.7265 4.57187 14.7793 4.67832 14.8849C4.78478 14.9846 4.838 15.1108 4.838 15.2633V19.8569H7.15332Z" stroke="#5E1DE1" stroke-width="0.2" stroke-linecap="round" stroke-linejoin="round"/>
<path d="M9.81926 20.3497C9.81926 20.5022 9.76307 20.6313 9.65071 20.7369C9.53834 20.8366 9.40824 20.8865 9.26039 20.8865C9.10071 20.8865 8.96764 20.8366 8.86119 20.7369C8.76066 20.6313 8.71039 20.5022 8.71039 20.3497V15.2633C8.71039 15.1108 8.76361 14.9846 8.87006 14.8849C8.97651 14.7793 9.11254 14.7265 9.27813 14.7265C9.42598 14.7265 9.55313 14.7793 9.65958 14.8849C9.76603 14.9846 9.81926 15.1108 9.81926 15.2633V20.3497Z" stroke="#5E1DE1" stroke-width="0.2" stroke-linecap="round" stroke-linejoin="round"/>
<path d="M20.6784 19.8745C20.8322 19.8745 20.9593 19.9273 21.0599 20.0329C21.1663 20.1326 21.2196 20.25 21.2196 20.3849C21.2196 20.5316 21.1663 20.6518 21.0599 20.7457C20.9593 20.8396 20.8322 20.8865 20.6784 20.8865H17.7067C17.5529 20.8865 17.4228 20.8366 17.3163 20.7369C17.2158 20.6313 17.1655 20.5022 17.1655 20.3497V15.2633C17.1655 15.1108 17.2158 14.9846 17.3163 14.8849C17.4228 14.7793 17.5529 14.7265 17.7067 14.7265H20.6784C20.8322 14.7265 20.9593 14.7764 21.0599 14.8761C21.1663 14.97 21.2196 15.0932 21.2196 15.2457C21.2196 15.3924 21.1693 15.5126 21.0688 15.6065C20.9682 15.6945 20.8381 15.7385 20.6784 15.7385H18.2744V17.2345H20.2792C20.433 17.2345 20.5602 17.2844 20.6607 17.3841C20.7671 17.478 20.8204 17.6012 20.8204 17.7537C20.8204 17.9004 20.7701 18.0206 20.6696 18.1145C20.569 18.2025 20.4389 18.2465 20.2792 18.2465H18.2744V19.8745H20.6784Z" stroke="#5E1DE1" stroke-width="0.2" stroke-linecap="round" stroke-linejoin="round"/>
<path fill-rule="evenodd" clip-rule="evenodd" d="M1.713 10.7001C0.822219 10.7001 0.100098 11.4164 0.100098 12.3001V23.5001C0.100098 24.3838 0.822219 25.1001 1.713 25.1001H23.4872C24.378 25.1001 25.1001 24.3838 25.1001 23.5001V12.3001C25.1001 11.4164 24.378 10.7001 23.4872 10.7001H1.713ZM23.8904 12.3001C23.8904 12.0792 23.7099 11.9001 23.4872 11.9001H1.713C1.49031 11.9001 1.30978 12.0792 1.30978 12.3001V23.5001C1.30978 23.721 1.49031 23.9001 1.713 23.9001H23.4872C23.7099 23.9001 23.8904 23.721 23.8904 23.5001V12.3001Z" stroke="#5E1DE1" stroke-width="0.2" stroke-linecap="round" stroke-linejoin="round"/>
</svg>
