<svg width="20" height="23" viewBox="0 0 20 23" fill="none" xmlns="http://www.w3.org/2000/svg">
<path fill-rule="evenodd" clip-rule="evenodd" d="M7.35325 0.737168C8.02316 0.258664 8.83795 0 9.67534 0C10.5127 0 11.3275 0.258665 11.9974 0.737168L17.8026 4.88374C18.7771 5.57983 19.3507 6.67227 19.3507 7.83241V16.5863C19.3507 18.113 18.0511 19.3507 16.4481 19.3507H2.9026C1.29954 19.3507 0 18.113 0 16.5863V7.83241C0 6.67227 0.573531 5.57983 1.54805 4.88374L7.35325 0.737168ZM9.67534 1.84292C9.25664 1.84292 8.84925 1.97225 8.51429 2.21151L2.70909 6.35808C2.22183 6.70612 1.93507 7.25234 1.93507 7.83241V16.5863C1.93507 17.0952 2.36825 17.5078 2.9026 17.5078H16.4481C16.9824 17.5078 17.4156 17.0952 17.4156 16.5863V7.83241C17.4156 7.25234 17.1288 6.70612 16.6416 6.35808L10.8364 2.21151C10.5014 1.97225 10.094 1.84292 9.67534 1.84292Z" fill="#5E1DE1"/>
<rect x="4.07422" y="17.3164" width="11.203" height="2.03691" fill="#EEE7E7"/>
<path d="M5.62884 19.3633H8.6262V22.4181H10.6273V19.3633H13.6055V17.5115H10.6273V14.4375L8.6262 14.4375V17.5115H5.62884V19.3633Z" fill="#5E1DE1"/>
<rect x="4.88477" y="9.09766" width="2.05085" height="3.52428" fill="#5E1DE1"/>
<rect x="8.62891" y="5.79688" width="2.03094" height="6.80962" fill="#5E1DE1"/>
<rect x="12.4336" y="7.625" width="2.03094" height="4.9977" fill="#5E1DE1"/>
</svg>
