<svg width="28" height="28" viewBox="0 0 28 28" fill="none" xmlns="http://www.w3.org/2000/svg">
<path fill-rule="evenodd" clip-rule="evenodd" d="M2.07094 20.0236C2.07094 18.8831 2.99452 17.9585 4.13381 17.9585C5.2731 17.9585 6.19668 18.8831 6.19668 20.0236C6.19668 21.1642 5.2731 22.0887 4.13381 22.0887C2.99452 22.0887 2.07094 21.1642 2.07094 20.0236ZM4.13381 18.9117C3.52034 18.9117 3.02303 19.4095 3.02303 20.0236C3.02303 20.6378 3.52034 21.1356 4.13381 21.1356C4.74727 21.1356 5.24459 20.6378 5.24459 20.0236C5.24459 19.4095 4.74727 18.9117 4.13381 18.9117Z" fill="#5E1DE1"/>
<path d="M0.803122 23.7547C1.21591 23.3039 1.78508 23.0419 2.3883 23.0419H5.87932C6.48254 23.0419 7.05171 23.3039 7.4645 23.7547C7.87601 24.2041 8.10087 24.8055 8.10087 25.4247V26.3783C8.10087 26.6412 7.88774 26.8544 7.62482 26.8544C7.36191 26.8544 7.14878 26.6412 7.14878 26.3783V25.4247C7.14878 25.0328 7.00584 24.6644 6.76266 24.3988C6.52075 24.1346 6.20197 23.995 5.87932 23.995H2.3883C2.06565 23.995 1.74687 24.1346 1.50496 24.3988C1.26178 24.6644 1.11884 25.0328 1.11884 25.4247V26.3778C1.11884 26.641 0.905709 26.8544 0.642795 26.8544C0.379882 26.8544 0.166748 26.641 0.166748 26.3778V25.4247C0.166748 24.8055 0.39161 24.2041 0.803122 23.7547Z" fill="#5E1DE1"/>
<path d="M10.4955 26.3783C10.4955 26.6412 10.2824 26.8544 10.0195 26.8544C9.75657 26.8544 9.54344 26.6412 9.54344 26.3783V25.4247C9.54344 24.8055 9.7683 24.2041 10.1798 23.7547C10.5926 23.3039 11.1618 23.0419 11.765 23.0419H15.256C15.8592 23.0419 16.4284 23.3039 16.8412 23.7547C17.2527 24.2041 17.4776 24.8055 17.4776 25.4247V26.3783C17.4776 26.6412 17.2644 26.8544 17.0015 26.8544C16.7386 26.8544 16.5255 26.6412 16.5255 26.3783V25.4247C16.5255 25.0328 16.3825 24.6644 16.1393 24.3988C15.8974 24.1346 15.5787 23.995 15.256 23.995H11.765C11.4423 23.995 11.1236 24.1346 10.8817 24.3988C10.6385 24.6644 10.4955 25.0328 10.4955 25.4247V26.3783Z" fill="#5E1DE1"/>
<path d="M18.9201 26.3783C18.9201 26.6412 19.1333 26.8544 19.3962 26.8544C19.6591 26.8544 19.8722 26.6412 19.8722 26.3783V25.4247C19.8722 25.0328 20.0152 24.6644 20.2583 24.3988C20.5003 24.1346 20.819 23.995 21.1417 23.995H24.6327C24.9554 23.995 25.2741 24.1346 25.516 24.3988C25.7592 24.6644 25.9022 25.0328 25.9022 25.4247V26.3778C25.9022 26.641 26.1153 26.8544 26.3782 26.8544C26.6411 26.8544 26.8542 26.641 26.8542 26.3778V25.4247C26.8542 24.8055 26.6294 24.2041 26.2179 23.7547C25.8051 23.3039 25.2359 23.0419 24.6327 23.0419H21.1417C20.5385 23.0419 19.9693 23.3039 19.5565 23.7547C19.145 24.2041 18.9201 24.8055 18.9201 25.4247V26.3783Z" fill="#5E1DE1"/>
<path fill-rule="evenodd" clip-rule="evenodd" d="M22.8872 17.9585C21.7479 17.9585 20.8243 18.8831 20.8243 20.0236C20.8243 21.1642 21.7479 22.0887 22.8872 22.0887C24.0265 22.0887 24.9501 21.1642 24.9501 20.0236C24.9501 18.8831 24.0265 17.9585 22.8872 17.9585ZM21.7764 20.0236C21.7764 19.4095 22.2737 18.9117 22.8872 18.9117C23.5007 18.9117 23.998 19.4095 23.998 20.0236C23.998 20.6378 23.5007 21.1356 22.8872 21.1356C22.2737 21.1356 21.7764 20.6378 21.7764 20.0236Z" fill="#5E1DE1"/>
<path fill-rule="evenodd" clip-rule="evenodd" d="M13.5105 17.9585C12.3712 17.9585 11.4476 18.8831 11.4476 20.0236C11.4476 21.1642 12.3712 22.0887 13.5105 22.0887C14.6498 22.0887 15.5734 21.1642 15.5734 20.0236C15.5734 18.8831 14.6498 17.9585 13.5105 17.9585ZM12.3997 20.0236C12.3997 19.4095 12.897 18.9117 13.5105 18.9117C14.124 18.9117 14.6213 19.4095 14.6213 20.0236C14.6213 20.6378 14.124 21.1356 13.5105 21.1356C12.897 21.1356 12.3997 20.6378 12.3997 20.0236Z" fill="#5E1DE1"/>
<path fill-rule="evenodd" clip-rule="evenodd" d="M10.9344 5.71619C10.9344 4.59068 11.8405 3.67826 12.9582 3.67826C14.0759 3.67826 14.982 4.59068 14.982 5.71619C14.982 6.84171 14.0759 7.75413 12.9582 7.75413C11.8405 7.75413 10.9344 6.84171 10.9344 5.71619ZM12.9582 4.61885C12.3563 4.61885 11.8684 5.11015 11.8684 5.71619C11.8684 6.32224 12.3563 6.81354 12.9582 6.81354C13.56 6.81354 14.0479 6.32224 14.0479 5.71619C14.0479 5.11015 13.56 4.61885 12.9582 4.61885Z" fill="#5E1DE1"/>
<path fill-rule="evenodd" clip-rule="evenodd" d="M1.28238 0.869051C1.28238 0.481179 1.5992 0.166748 1.99001 0.166748H23.9263C24.3171 0.166748 24.634 0.48118 24.634 0.869051V12.8082C24.634 13.1961 24.3171 13.5105 23.9263 13.5105H1.99001C1.5992 13.5105 1.28238 13.1961 1.28238 12.8082V0.869051ZM2.34382 12.457V1.2202H23.5725V12.457H16.8501V11.0462C16.8501 10.4351 16.6295 9.84169 16.2258 9.3982C15.8208 8.95333 15.2624 8.69471 14.6706 8.69471H11.2457C10.6539 8.69471 10.0955 8.95333 9.69056 9.3982C9.28684 9.84169 9.06624 10.4351 9.06624 11.0462V12.457H2.34382ZM10.0003 12.457H15.916V11.0462C15.916 10.6594 15.7758 10.2959 15.5372 10.0338C15.2999 9.77306 14.9872 9.63529 14.6706 9.63529H11.2457C10.9292 9.63529 10.6164 9.77306 10.3791 10.0338C10.1405 10.2959 10.0003 10.6594 10.0003 11.0462V12.457Z" fill="#5E1DE1"/>
<path d="M3.50634 3.50269C3.50634 2.88856 4.00419 2.39071 4.61832 2.39071C5.23245 2.39071 5.7303 2.88856 5.7303 3.50269C5.7303 4.11682 5.23245 4.61467 4.61832 4.61467C4.00419 4.61467 3.50634 4.11682 3.50634 3.50269Z" fill="#5E1DE1"/>
<path d="M0.803122 23.7547L0.680107 23.6421H0.680107L0.803122 23.7547ZM7.4645 23.7547L7.58751 23.6421H7.58751L7.4645 23.7547ZM6.76266 24.3988L6.63964 24.5114V24.5114L6.76266 24.3988ZM1.50496 24.3988L1.62798 24.5114L1.62798 24.5114L1.50496 24.3988ZM10.1798 23.7547L10.0568 23.6421V23.6421L10.1798 23.7547ZM16.8412 23.7547L16.9642 23.6421H16.9642L16.8412 23.7547ZM16.1393 24.3988L16.0163 24.5114V24.5114L16.1393 24.3988ZM10.8817 24.3988L11.0047 24.5114V24.5114L10.8817 24.3988ZM20.2583 24.3988L20.3814 24.5114L20.3814 24.5114L20.2583 24.3988ZM25.516 24.3988L25.393 24.5114V24.5114L25.516 24.3988ZM26.2179 23.7547L26.3409 23.6421V23.6421L26.2179 23.7547ZM19.5565 23.7547L19.6795 23.8674V23.8674L19.5565 23.7547ZM2.34382 1.2202V1.05341H2.17702V1.2202H2.34382ZM2.34382 12.457H2.17702V12.6238H2.34382V12.457ZM23.5725 1.2202H23.7393V1.05341H23.5725V1.2202ZM23.5725 12.457V12.6238H23.7393V12.457H23.5725ZM16.8501 12.457H16.6833V12.6238H16.8501V12.457ZM16.2258 9.3982L16.3491 9.28591V9.28591L16.2258 9.3982ZM9.69056 9.3982L9.56722 9.28591V9.28591L9.69056 9.3982ZM9.06624 12.457V12.6238H9.23304V12.457H9.06624ZM10.0003 12.457H9.83351V12.6238H10.0003V12.457ZM15.916 12.457V12.6238H16.0828V12.457H15.916ZM15.5372 10.0338L15.4139 10.1461V10.1461L15.5372 10.0338ZM10.3791 10.0338L10.5025 10.1461V10.1461L10.3791 10.0338ZM4.13381 17.9585V17.7917C2.90223 17.7917 1.90414 18.7912 1.90414 20.0236H2.07094H2.23773C2.23773 18.9751 3.08681 18.1253 4.13381 18.1253V17.9585ZM6.19668 20.0236H6.36348C6.36348 18.7912 5.36539 17.7917 4.13381 17.7917V17.9585V18.1253C5.18081 18.1253 6.02988 18.9751 6.02988 20.0236H6.19668ZM4.13381 22.0887V22.2555C5.36539 22.2555 6.36348 21.2561 6.36348 20.0236H6.19668H6.02988C6.02988 21.0722 5.18081 21.9219 4.13381 21.9219V22.0887ZM2.07094 20.0236H1.90414C1.90414 21.2561 2.90223 22.2555 4.13381 22.2555V22.0887V21.9219C3.08681 21.9219 2.23773 21.0722 2.23773 20.0236H2.07094ZM3.02303 20.0236H3.18983C3.18983 19.5015 3.61263 19.0785 4.13381 19.0785V18.9117V18.7449C3.42805 18.7449 2.85624 19.3176 2.85624 20.0236H3.02303ZM4.13381 21.1356V20.9688C3.61263 20.9688 3.18983 20.5458 3.18983 20.0236H3.02303H2.85624C2.85624 20.7297 3.42805 21.3024 4.13381 21.3024V21.1356ZM5.24459 20.0236H5.07779C5.07779 20.5458 4.65499 20.9688 4.13381 20.9688V21.1356V21.3024C4.83956 21.3024 5.41138 20.7297 5.41138 20.0236H5.24459ZM4.13381 18.9117V19.0785C4.65499 19.0785 5.07779 19.5015 5.07779 20.0236H5.24459H5.41138C5.41138 19.3176 4.83956 18.7449 4.13381 18.7449V18.9117ZM2.3883 23.0419V22.8751C1.73583 22.8751 1.12278 23.1587 0.680107 23.6421L0.803122 23.7547L0.926138 23.8674C1.30903 23.4492 1.83433 23.2087 2.3883 23.2087V23.0419ZM5.87932 23.0419V22.8751H2.3883V23.0419V23.2087H5.87932V23.0419ZM7.4645 23.7547L7.58751 23.6421C7.14484 23.1587 6.53179 22.8751 5.87932 22.8751V23.0419V23.2087C6.43328 23.2087 6.95859 23.4492 7.34148 23.8674L7.4645 23.7547ZM8.10087 25.4247H8.26767C8.26767 24.7657 8.0285 24.1237 7.58751 23.6421L7.4645 23.7547L7.34148 23.8674C7.72351 24.2846 7.93407 24.8452 7.93407 25.4247H8.10087ZM8.10087 26.3783H8.26767V25.4247H8.10087H7.93407V26.3783H8.10087ZM7.14878 25.4247H6.98198V26.3783H7.14878H7.31557V25.4247H7.14878ZM6.76266 24.3988L6.63964 24.5114C6.85338 24.7448 6.98198 25.0725 6.98198 25.4247H7.14878H7.31557C7.31557 24.993 7.1583 24.5839 6.88567 24.2861L6.76266 24.3988ZM5.87932 23.995V24.1618C6.15282 24.1618 6.42769 24.28 6.63964 24.5114L6.76266 24.3988L6.88567 24.2861C6.6138 23.9892 6.25112 23.8282 5.87932 23.8282V23.995ZM2.3883 23.995V24.1618H5.87932V23.995V23.8282H2.3883V23.995ZM1.50496 24.3988L1.62798 24.5114C1.83993 24.28 2.1148 24.1618 2.3883 24.1618V23.995V23.8282C2.0165 23.8282 1.65382 23.9892 1.38195 24.2861L1.50496 24.3988ZM1.11884 25.4247H1.28564C1.28564 25.0725 1.41424 24.7448 1.62798 24.5114L1.50496 24.3988L1.38195 24.2861C1.10932 24.5839 0.952046 24.993 0.952046 25.4247H1.11884ZM1.11884 26.3778H1.28564V25.4247H1.11884H0.952046V26.3778H1.11884ZM0.642795 26.8544V27.0212C0.997999 27.0212 1.28564 26.733 1.28564 26.3778H1.11884H0.952046C0.952046 26.5491 0.81342 26.6876 0.642795 26.6876V26.8544ZM0.166748 26.3778H-4.88609e-05C-4.88609e-05 26.733 0.287592 27.0212 0.642795 27.0212V26.8544V26.6876C0.472171 26.6876 0.333545 26.5491 0.333545 26.3778H0.166748ZM0.166748 25.4247H-4.88609e-05V26.3778H0.166748H0.333545V25.4247H0.166748ZM0.803122 23.7547L0.680107 23.6421C0.239115 24.1237 -4.88609e-05 24.7657 -4.88609e-05 25.4247H0.166748H0.333545C0.333545 24.8452 0.544105 24.2846 0.926138 23.8674L0.803122 23.7547ZM9.54344 25.4247H9.37664V26.3783H9.54344H9.71024V25.4247H9.54344ZM10.1798 23.7547L10.0568 23.6421C9.61581 24.1237 9.37664 24.7657 9.37664 25.4247H9.54344H9.71024C9.71024 24.8452 9.92079 24.2846 10.3028 23.8674L10.1798 23.7547ZM11.765 23.0419V22.8751C11.1125 22.8751 10.4995 23.1587 10.0568 23.6421L10.1798 23.7547L10.3028 23.8674C10.6857 23.4492 11.211 23.2087 11.765 23.2087V23.0419ZM15.256 23.0419V22.8751H11.765V23.0419V23.2087H15.256V23.0419ZM16.8412 23.7547L16.9642 23.6421C16.5215 23.1587 15.9085 22.8751 15.256 22.8751V23.0419V23.2087C15.81 23.2087 16.3353 23.4492 16.7182 23.8674L16.8412 23.7547ZM17.4776 25.4247H17.6444C17.6444 24.7657 17.4052 24.1237 16.9642 23.6421L16.8412 23.7547L16.7182 23.8674C17.1002 24.2846 17.3108 24.8452 17.3108 25.4247H17.4776ZM17.4776 26.3783H17.6444V25.4247H17.4776H17.3108V26.3783H17.4776ZM16.5255 25.4247H16.3587V26.3783H16.5255H16.6923V25.4247H16.5255ZM16.1393 24.3988L16.0163 24.5114C16.2301 24.7448 16.3587 25.0725 16.3587 25.4247H16.5255H16.6923C16.6923 24.993 16.535 24.5839 16.2624 24.2861L16.1393 24.3988ZM15.256 23.995V24.1618C15.5295 24.1618 15.8044 24.28 16.0163 24.5114L16.1393 24.3988L16.2624 24.2861C15.9905 23.9892 15.6278 23.8282 15.256 23.8282V23.995ZM11.765 23.995V24.1618H15.256V23.995V23.8282H11.765V23.995ZM10.8817 24.3988L11.0047 24.5114C11.2166 24.28 11.4915 24.1618 11.765 24.1618V23.995V23.8282C11.3932 23.8282 11.0305 23.9892 10.7586 24.2861L10.8817 24.3988ZM10.4955 25.4247H10.6623C10.6623 25.0725 10.7909 24.7448 11.0047 24.5114L10.8817 24.3988L10.7586 24.2861C10.486 24.5839 10.3287 24.993 10.3287 25.4247H10.4955ZM10.4955 26.3783H10.6623V25.4247H10.4955H10.3287V26.3783H10.4955ZM19.8722 25.4247H19.7054V26.3783H19.8722H20.039V25.4247H19.8722ZM20.2583 24.3988L20.1353 24.2861C19.8627 24.5839 19.7054 24.993 19.7054 25.4247H19.8722H20.039C20.039 25.0725 20.1676 24.7448 20.3814 24.5114L20.2583 24.3988ZM21.1417 23.995V23.8282C20.7699 23.8282 20.4072 23.9892 20.1353 24.2861L20.2583 24.3988L20.3814 24.5114C20.5933 24.28 20.8682 24.1618 21.1417 24.1618V23.995ZM24.6327 23.995V23.8282H21.1417V23.995V24.1618H24.6327V23.995ZM25.516 24.3988L25.6391 24.2861C25.3672 23.9892 25.0045 23.8282 24.6327 23.8282V23.995V24.1618C24.9062 24.1618 25.1811 24.28 25.393 24.5114L25.516 24.3988ZM25.9022 25.4247H26.069C26.069 24.993 25.9117 24.5839 25.6391 24.2861L25.516 24.3988L25.393 24.5114C25.6068 24.7448 25.7354 25.0725 25.7354 25.4247H25.9022ZM25.9022 26.3778H26.069V25.4247H25.9022H25.7354V26.3778H25.9022ZM26.3782 26.8544V26.6876C26.2076 26.6876 26.069 26.5491 26.069 26.3778H25.9022H25.7354C25.7354 26.733 26.023 27.0212 26.3782 27.0212V26.8544ZM26.8542 26.3778H26.6875C26.6875 26.5491 26.5488 26.6876 26.3782 26.6876V26.8544V27.0212C26.7334 27.0212 27.021 26.733 27.021 26.3778H26.8542ZM26.8542 25.4247H26.6875V26.3778H26.8542H27.021V25.4247H26.8542ZM26.2179 23.7547L26.0949 23.8674C26.4769 24.2846 26.6875 24.8452 26.6875 25.4247H26.8542H27.021C27.021 24.7657 26.7819 24.1237 26.3409 23.6421L26.2179 23.7547ZM24.6327 23.0419V23.2087C25.1867 23.2087 25.712 23.4492 26.0949 23.8674L26.2179 23.7547L26.3409 23.6421C25.8982 23.1587 25.2852 22.8751 24.6327 22.8751V23.0419ZM21.1417 23.0419V23.2087H24.6327V23.0419V22.8751H21.1417V23.0419ZM19.5565 23.7547L19.6795 23.8674C20.0624 23.4492 20.5877 23.2087 21.1417 23.2087V23.0419V22.8751C20.4892 22.8751 19.8762 23.1587 19.4335 23.6421L19.5565 23.7547ZM18.9201 25.4247H19.0869C19.0869 24.8452 19.2975 24.2846 19.6795 23.8674L19.5565 23.7547L19.4335 23.6421C18.9925 24.1237 18.7533 24.7657 18.7533 25.4247H18.9201ZM18.9201 26.3783H19.0869V25.4247H18.9201H18.7533V26.3783H18.9201ZM20.8243 20.0236H20.9911C20.9911 18.9751 21.8402 18.1253 22.8872 18.1253V17.9585V17.7917C21.6556 17.7917 20.6575 18.7912 20.6575 20.0236H20.8243ZM22.8872 22.0887V21.9219C21.8402 21.9219 20.9911 21.0722 20.9911 20.0236H20.8243H20.6575C20.6575 21.2561 21.6556 22.2555 22.8872 22.2555V22.0887ZM24.9501 20.0236H24.7833C24.7833 21.0722 23.9342 21.9219 22.8872 21.9219V22.0887V22.2555C24.1188 22.2555 25.1169 21.2561 25.1169 20.0236H24.9501ZM22.8872 17.9585V18.1253C23.9342 18.1253 24.7833 18.9751 24.7833 20.0236H24.9501H25.1169C25.1169 18.7912 24.1188 17.7917 22.8872 17.7917V17.9585ZM22.8872 18.9117V18.7449C22.1814 18.7449 21.6096 19.3176 21.6096 20.0236H21.7764H21.9432C21.9432 19.5015 22.366 19.0785 22.8872 19.0785V18.9117ZM23.998 20.0236H24.1648C24.1648 19.3176 23.5929 18.7449 22.8872 18.7449V18.9117V19.0785C23.4084 19.0785 23.8312 19.5015 23.8312 20.0236H23.998ZM22.8872 21.1356V21.3024C23.5929 21.3024 24.1648 20.7297 24.1648 20.0236H23.998H23.8312C23.8312 20.5458 23.4084 20.9688 22.8872 20.9688V21.1356ZM21.7764 20.0236H21.6096C21.6096 20.7297 22.1814 21.3024 22.8872 21.3024V21.1356V20.9688C22.366 20.9688 21.9432 20.5458 21.9432 20.0236H21.7764ZM11.4476 20.0236H11.6144C11.6144 18.9751 12.4635 18.1253 13.5105 18.1253V17.9585V17.7917C12.2789 17.7917 11.2808 18.7912 11.2808 20.0236H11.4476ZM13.5105 22.0887V21.9219C12.4635 21.9219 11.6144 21.0722 11.6144 20.0236H11.4476H11.2808C11.2808 21.2561 12.2789 22.2555 13.5105 22.2555V22.0887ZM15.5734 20.0236H15.4066C15.4066 21.0722 14.5575 21.9219 13.5105 21.9219V22.0887V22.2555C14.7421 22.2555 15.7402 21.2561 15.7402 20.0236H15.5734ZM13.5105 17.9585V18.1253C14.5575 18.1253 15.4066 18.9751 15.4066 20.0236H15.5734H15.7402C15.7402 18.7912 14.7421 17.7917 13.5105 17.7917V17.9585ZM13.5105 18.9117V18.7449C12.8047 18.7449 12.2329 19.3176 12.2329 20.0236H12.3997H12.5665C12.5665 19.5015 12.9893 19.0785 13.5105 19.0785V18.9117ZM14.6213 20.0236H14.7881C14.7881 19.3176 14.2163 18.7449 13.5105 18.7449V18.9117V19.0785C14.0317 19.0785 14.4545 19.5015 14.4545 20.0236H14.6213ZM13.5105 21.1356V21.3024C14.2163 21.3024 14.7881 20.7297 14.7881 20.0236H14.6213H14.4545C14.4545 20.5458 14.0317 20.9688 13.5105 20.9688V21.1356ZM12.3997 20.0236H12.2329C12.2329 20.7297 12.8047 21.3024 13.5105 21.3024V21.1356V20.9688C12.9893 20.9688 12.5665 20.5458 12.5665 20.0236H12.3997ZM19.3962 26.8544V26.6876C19.2254 26.6876 19.0869 26.5491 19.0869 26.3783H18.9201H18.7533C18.7533 26.7334 19.0411 27.0212 19.3962 27.0212V26.8544ZM19.3962 26.8544V27.0212C19.7512 27.0212 20.039 26.7334 20.039 26.3783H19.8722H19.7054C19.7054 26.5491 19.567 26.6876 19.3962 26.6876V26.8544ZM17.0015 26.8544V26.6876C16.8307 26.6876 16.6923 26.5491 16.6923 26.3783H16.5255H16.3587C16.3587 26.7334 16.6465 27.0212 17.0015 27.0212V26.8544ZM10.0195 26.8544V27.0212C10.3745 27.0212 10.6623 26.7334 10.6623 26.3783H10.4955H10.3287C10.3287 26.5491 10.1903 26.6876 10.0195 26.6876V26.8544ZM10.0195 26.8544V26.6876C9.84869 26.6876 9.71024 26.5491 9.71024 26.3783H9.54344H9.37664C9.37664 26.7334 9.66445 27.0212 10.0195 27.0212V26.8544ZM7.14878 26.3783H6.98198C6.98198 26.7334 7.26979 27.0212 7.62482 27.0212V26.8544V26.6876C7.45403 26.6876 7.31557 26.5491 7.31557 26.3783H7.14878ZM17.4776 26.3783H17.3108C17.3108 26.5491 17.1723 26.6876 17.0015 26.6876V26.8544V27.0212C17.3565 27.0212 17.6444 26.7334 17.6444 26.3783H17.4776ZM8.10087 26.3783H7.93407C7.93407 26.5491 7.79562 26.6876 7.62482 26.6876V26.8544V27.0212C7.97986 27.0212 8.26767 26.7334 8.26767 26.3783H8.10087ZM2.34382 1.2202H2.17702V12.457H2.34382H2.51062V1.2202H2.34382ZM23.5725 1.2202V1.05341H2.34382V1.2202V1.387H23.5725V1.2202ZM23.5725 12.457H23.7393V1.2202H23.5725H23.4057V12.457H23.5725ZM16.8501 12.457V12.6238H23.5725V12.457V12.2902H16.8501V12.457ZM16.8501 11.0462H16.6833V12.457H16.8501H17.0169V11.0462H16.8501ZM16.2258 9.3982L16.1024 9.51048C16.4768 9.92173 16.6833 10.4745 16.6833 11.0462H16.8501H17.0169C17.0169 10.3957 16.7822 9.76165 16.3491 9.28591L16.2258 9.3982ZM14.6706 8.69471V8.86151C15.2128 8.86151 15.7272 9.09833 16.1024 9.51048L16.2258 9.3982L16.3491 9.28591C15.9144 8.80833 15.312 8.52791 14.6706 8.52791V8.69471ZM11.2457 8.69471V8.86151H14.6706V8.69471V8.52791H11.2457V8.69471ZM9.69056 9.3982L9.81391 9.51048C10.1891 9.09833 10.7035 8.86151 11.2457 8.86151V8.69471V8.52791C10.6043 8.52791 10.002 8.80833 9.56722 9.28591L9.69056 9.3982ZM9.06624 11.0462H9.23304C9.23304 10.4745 9.43953 9.92174 9.81391 9.51048L9.69056 9.3982L9.56722 9.28591C9.13415 9.76165 8.89944 10.3957 8.89944 11.0462H9.06624ZM9.06624 12.457H9.23304V11.0462H9.06624H8.89944V12.457H9.06624ZM2.34382 12.457V12.6238H9.06624V12.457V12.2902H2.34382V12.457ZM10.0003 12.457V12.6238H15.916V12.457V12.2902H10.0003V12.457ZM15.916 12.457H16.0828V11.0462H15.916H15.7492V12.457H15.916ZM15.916 11.0462H16.0828C16.0828 10.6199 15.9285 10.2158 15.6606 9.92149L15.5372 10.0338L15.4139 10.1461C15.6231 10.3759 15.7492 10.6989 15.7492 11.0462H15.916ZM15.5372 10.0338L15.6606 9.92149C15.3934 9.62798 15.0367 9.4685 14.6706 9.4685V9.63529V9.80209C14.9377 9.80209 15.2064 9.91814 15.4139 10.1461L15.5372 10.0338ZM14.6706 9.63529V9.4685H11.2457V9.63529V9.80209H14.6706V9.63529ZM11.2457 9.63529V9.4685C10.8797 9.4685 10.5229 9.62798 10.2558 9.92149L10.3791 10.0338L10.5025 10.1461C10.7099 9.91814 10.9787 9.80209 11.2457 9.80209V9.63529ZM10.3791 10.0338L10.2558 9.92149C9.98788 10.2158 9.83351 10.6199 9.83351 11.0462H10.0003H10.1671C10.1671 10.6989 10.2932 10.3759 10.5025 10.1461L10.3791 10.0338ZM10.0003 11.0462H9.83351V12.457H10.0003H10.1671V11.0462H10.0003ZM1.99001 0.166748V-4.88609e-05C1.50827 -4.88609e-05 1.11559 0.387875 1.11559 0.869051H1.28238H1.44918C1.44918 0.574484 1.69013 0.333545 1.99001 0.333545V0.166748ZM23.9263 0.166748V-4.88609e-05H1.99001V0.166748V0.333545H23.9263V0.166748ZM24.634 0.869051H24.8007C24.8007 0.387876 24.4081 -4.88609e-05 23.9263 -4.88609e-05V0.166748V0.333545C24.2262 0.333545 24.4672 0.574484 24.4672 0.869051H24.634ZM24.634 12.8082H24.8007V0.869051H24.634H24.4672V12.8082H24.634ZM23.9263 13.5105V13.6773C24.4081 13.6773 24.8007 13.2894 24.8007 12.8082H24.634H24.4672C24.4672 13.1028 24.2262 13.3437 23.9263 13.3437V13.5105ZM1.99001 13.5105V13.6773H23.9263V13.5105V13.3437H1.99001V13.5105ZM1.28238 12.8082H1.11559C1.11559 13.2894 1.50827 13.6773 1.99001 13.6773V13.5105V13.3437C1.69013 13.3437 1.44918 13.1028 1.44918 12.8082H1.28238ZM1.28238 0.869051H1.11559V12.8082H1.28238H1.44918V0.869051H1.28238ZM12.9582 3.67826V3.51146C11.7472 3.51146 10.7676 4.49965 10.7676 5.71619H10.9344H11.1012C11.1012 4.6817 11.9337 3.84506 12.9582 3.84506V3.67826ZM14.982 5.71619H15.1488C15.1488 4.49965 14.1691 3.51146 12.9582 3.51146V3.67826V3.84506C13.9827 3.84506 14.8152 4.6817 14.8152 5.71619H14.982ZM12.9582 7.75413V7.92092C14.1691 7.92092 15.1488 6.93274 15.1488 5.71619H14.982H14.8152C14.8152 6.75069 13.9827 7.58733 12.9582 7.58733V7.75413ZM10.9344 5.71619H10.7676C10.7676 6.93274 11.7472 7.92092 12.9582 7.92092V7.75413V7.58733C11.9337 7.58733 11.1012 6.75069 11.1012 5.71619H10.9344ZM11.8684 5.71619H12.0352C12.0352 5.20117 12.4495 4.78564 12.9582 4.78564V4.61885V4.45205C12.2631 4.45205 11.7016 5.01912 11.7016 5.71619H11.8684ZM12.9582 6.81354V6.64675C12.4495 6.64675 12.0352 6.23122 12.0352 5.71619H11.8684H11.7016C11.7016 6.41327 12.2631 6.98034 12.9582 6.98034V6.81354ZM14.0479 5.71619H13.8811C13.8811 6.23122 13.4668 6.64675 12.9582 6.64675V6.81354V6.98034C13.6532 6.98034 14.2147 6.41327 14.2147 5.71619H14.0479ZM12.9582 4.61885V4.78564C13.4668 4.78564 13.8811 5.20117 13.8811 5.71619H14.0479H14.2147C14.2147 5.01912 13.6532 4.45205 12.9582 4.45205V4.61885ZM4.61832 4.61467V4.44787C4.09631 4.44787 3.67314 4.0247 3.67314 3.50269H3.50634H3.33955C3.33955 4.20893 3.91207 4.78146 4.61832 4.78146V4.61467ZM5.7303 3.50269H5.5635C5.5635 4.0247 5.14033 4.44787 4.61832 4.44787V4.61467V4.78146C5.32457 4.78146 5.8971 4.20893 5.8971 3.50269H5.7303ZM4.61832 2.39071V2.5575C5.14033 2.5575 5.5635 2.98068 5.5635 3.50269H5.7303H5.8971C5.8971 2.79644 5.32457 2.22391 4.61832 2.22391V2.39071ZM4.61832 2.39071V2.22391C3.91207 2.22391 3.33955 2.79644 3.33955 3.50269H3.50634H3.67314C3.67314 2.98068 4.09631 2.5575 4.61832 2.5575V2.39071Z" fill="#5E1DE1"/>
</svg>
