<svg width="24" height="24" viewBox="0 0 24 24" fill="none" xmlns="http://www.w3.org/2000/svg">
<path fill-rule="evenodd" clip-rule="evenodd" d="M2 3.1C2 2.49249 2.49746 2 3.11111 2H20.8889C21.5025 2 22 2.49249 22 3.1V22.9C22 23.5075 21.5025 24 20.8889 24H3.11111C2.49746 24 2 23.5075 2 22.9V3.1ZM4.22222 4.2V21.8H19.7778V4.2H4.22222Z" fill="#5E1DE1"/>
<path fill-rule="evenodd" clip-rule="evenodd" d="M9 1V6H7V1H9Z" fill="#5E1DE1"/>
<path fill-rule="evenodd" clip-rule="evenodd" d="M13 1V6H11V1H13Z" fill="#5E1DE1"/>
<path fill-rule="evenodd" clip-rule="evenodd" d="M17 1V6H15V1H17Z" fill="#5E1DE1"/>
<path fill-rule="evenodd" clip-rule="evenodd" d="M14 11H7V9H14V11Z" fill="#5E1DE1"/>
<path fill-rule="evenodd" clip-rule="evenodd" d="M17.5 15H7V13H17.5V15Z" fill="#5E1DE1"/>
<path fill-rule="evenodd" clip-rule="evenodd" d="M15 19H7V17H15V19Z" fill="#5E1DE1"/>
</svg>
