<svg width="28" height="28" viewBox="0 0 28 28" fill="none" xmlns="http://www.w3.org/2000/svg">
<g clip-path="url(#clip0_68_485)">
<path d="M6.2041 19.6328C6.82033 19.6328 7.40155 19.9044 7.82324 20.3711C8.24358 20.8364 8.47362 21.4585 8.47363 22.0996V24.1992C8.47344 24.4676 8.25577 24.6855 7.9873 24.6855C7.71887 24.6855 7.50116 24.4676 7.50098 24.1992V22.0996C7.50096 21.6939 7.35486 21.3121 7.10645 21.0371C6.85935 20.7638 6.5336 20.6191 6.2041 20.6191H2.6377C2.3082 20.6192 1.98241 20.7637 1.73535 21.0371C1.48694 21.3121 1.34083 21.6939 1.34082 22.0996V24.1914C1.34082 24.4639 1.12308 24.6855 0.854492 24.6855C0.586024 24.6854 0.368164 24.4638 0.368164 24.1914V22.0996C0.368176 21.4586 0.598315 20.8364 1.01855 20.3711C1.44019 19.9044 2.02154 19.6329 2.6377 19.6328H6.2041ZM15.7832 19.6328C16.3994 19.6328 16.9807 19.9044 17.4023 20.3711C17.8226 20.8364 18.0527 21.4586 18.0527 22.0996V24.1992C18.0525 24.4676 17.8348 24.6855 17.5664 24.6855C17.2979 24.6855 17.0803 24.4676 17.0801 24.1992V22.0996C17.0801 21.6939 16.934 21.3121 16.6855 21.0371C16.4385 20.7637 16.1127 20.6192 15.7832 20.6191H12.2168C11.8873 20.6192 11.5615 20.7637 11.3145 21.0371C11.066 21.3121 10.9199 21.6939 10.9199 22.0996V24.1992C10.9197 24.4676 10.7021 24.6855 10.4336 24.6855C10.1652 24.6855 9.94745 24.4676 9.94727 24.1992V22.0996C9.94728 21.4586 10.1774 20.8364 10.5977 20.3711C11.0193 19.9044 11.6006 19.6328 12.2168 19.6328H15.7832ZM25.3623 19.6328C25.9785 19.6329 26.5598 19.9044 26.9814 20.3711C27.4017 20.8364 27.6318 21.4586 27.6318 22.0996V24.1914C27.6318 24.4638 27.414 24.6854 27.1455 24.6855C26.8769 24.6855 26.6592 24.4639 26.6592 24.1914V22.0996C26.6592 21.6939 26.5131 21.3121 26.2646 21.0371C26.0176 20.7637 25.6918 20.6192 25.3623 20.6191H21.7959C21.4664 20.6191 21.1407 20.7638 20.8936 21.0371C20.6451 21.3121 20.499 21.6939 20.499 22.0996V24.1992C20.4988 24.4676 20.2811 24.6855 20.0127 24.6855C19.7442 24.6855 19.5266 24.4676 19.5264 24.1992V22.0996C19.5264 21.4585 19.7564 20.8364 20.1768 20.3711C20.5984 19.9044 21.1797 19.6328 21.7959 19.6328H25.3623ZM4.4209 14.3691C5.58477 14.3691 6.52832 15.3269 6.52832 16.5078C6.52818 17.6886 5.58468 18.6455 4.4209 18.6455C3.25719 18.6454 2.31361 17.6885 2.31348 16.5078C2.31348 15.327 3.25711 14.3692 4.4209 14.3691ZM14 14.3691C15.1639 14.3691 16.1074 15.3269 16.1074 16.5078C16.1073 17.6886 15.1638 18.6455 14 18.6455C12.8362 18.6455 11.8927 17.6886 11.8926 16.5078C11.8926 15.3269 12.8361 14.3691 14 14.3691ZM23.5791 14.3691C24.7429 14.3692 25.6865 15.327 25.6865 16.5078C25.6864 17.6885 24.7428 18.6454 23.5791 18.6455C22.4153 18.6455 21.4718 17.6886 21.4717 16.5078C21.4717 15.3269 22.4152 14.3691 23.5791 14.3691ZM4.4209 15.3564C3.79428 15.3565 3.28613 15.872 3.28613 16.5078C3.28627 17.1435 3.79436 17.6591 4.4209 17.6592C5.04751 17.6592 5.55553 17.1435 5.55566 16.5078C5.55566 15.872 5.0476 15.3564 4.4209 15.3564ZM14 15.3564C13.3733 15.3565 12.8652 15.872 12.8652 16.5078C12.8654 17.1435 13.3734 17.6592 14 17.6592C14.6266 17.6592 15.1346 17.1435 15.1348 16.5078C15.1348 15.872 14.6267 15.3564 14 15.3564ZM23.5791 15.3564C22.9524 15.3564 22.4443 15.872 22.4443 16.5078C22.4445 17.1435 22.9525 17.6592 23.5791 17.6592C24.2056 17.6591 24.7137 17.1435 24.7139 16.5078C24.7139 15.872 24.2057 15.3565 23.5791 15.3564ZM9.51172 3.31641C9.90997 3.31641 10.2926 3.47631 10.5742 3.76074C10.8559 4.04527 11.0137 4.4316 11.0137 4.83398V8.87988C11.0137 9.28228 10.8559 9.66859 10.5742 9.95312C10.2926 10.2376 9.91 10.3975 9.51172 10.3975H8.41602C8.01817 10.3979 7.63673 10.5576 7.35547 10.8418L5.93848 12.2734C5.89199 12.3208 5.83631 12.3581 5.77539 12.3838C5.71445 12.4094 5.64902 12.4228 5.58301 12.4229C5.51697 12.4229 5.45159 12.4094 5.39062 12.3838C5.32964 12.3581 5.27407 12.3208 5.22754 12.2734C5.18074 12.2265 5.14358 12.1708 5.11816 12.1094C5.09275 12.0477 5.0791 11.9808 5.0791 11.9141C5.07915 11.8474 5.0928 11.7812 5.11816 11.7197C5.14357 11.6583 5.18072 11.6026 5.22754 11.5557L6.64453 10.124C6.87737 9.88946 7.15402 9.7038 7.45801 9.57715C7.76191 9.45057 8.0873 9.3852 8.41602 9.38574H9.51172C9.6445 9.38574 9.77232 9.33215 9.86621 9.2373C9.95999 9.14248 10.0127 9.01393 10.0127 8.87988V4.83398C10.0127 4.69992 9.96002 4.57139 9.86621 4.47656C9.77232 4.38172 9.6445 4.32812 9.51172 4.32812H1.50195C1.36918 4.32812 1.24135 4.38172 1.14746 4.47656C1.05377 4.57137 1.00098 4.70001 1.00098 4.83398V8.87988C1.00098 9.01384 1.05381 9.14249 1.14746 9.2373C1.24135 9.33215 1.36918 9.38574 1.50195 9.38574H5.08203C5.21481 9.38574 5.34264 9.43933 5.43652 9.53418C5.5302 9.62899 5.58301 9.75763 5.58301 9.8916C5.58298 10.0256 5.53025 10.1542 5.43652 10.249C5.34264 10.3439 5.21481 10.3975 5.08203 10.3975H1.50195C1.10362 10.3975 0.721117 10.2377 0.439453 9.95312C0.157839 9.66859 0 9.28224 0 8.87988V4.83398C5.90627e-06 4.4316 0.157806 4.04527 0.439453 3.76074C0.721117 3.4762 1.10362 3.31641 1.50195 3.31641H9.51172ZM22.3516 9.33691C22.6224 9.33702 22.8416 9.55635 22.8418 9.82715C22.8418 10.0981 22.6225 10.3182 22.3516 10.3184H18.0684C17.6709 10.3188 17.2897 10.4739 17.0088 10.75L15.5947 12.1387C15.5483 12.1847 15.4925 12.2212 15.4316 12.2461C15.3707 12.271 15.3052 12.2842 15.2393 12.2842C15.1734 12.2841 15.1077 12.271 15.0469 12.2461C14.9862 12.2212 14.9311 12.1845 14.8848 12.1387C14.838 12.0931 14.8007 12.0392 14.7754 11.9795C14.7501 11.9198 14.7374 11.8556 14.7373 11.791C14.7373 11.7262 14.75 11.6614 14.7754 11.6016C14.8007 11.5419 14.838 11.4879 14.8848 11.4424L16.2988 10.0537C16.5313 9.82602 16.8078 9.6454 17.1113 9.52246C17.4148 9.39956 17.74 9.33638 18.0684 9.33691H22.3516ZM26.4941 3.31641C26.8933 3.31641 27.2763 3.47476 27.5586 3.75586C27.8409 4.03708 27.9999 4.41871 28 4.81641V8.81641C28 9.21422 27.8409 9.59565 27.5586 9.87695C27.2762 10.1583 26.8935 10.3164 26.4941 10.3164H25.7891C25.3917 10.3169 25.0269 10.4671 24.7461 10.7432L23.3311 12.1318C23.2847 12.1777 23.2297 12.2144 23.1689 12.2393C23.1081 12.2642 23.0425 12.2763 22.9766 12.2764C22.9106 12.2764 22.8451 12.2642 22.7842 12.2393C22.7233 12.2143 22.6676 12.1778 22.6211 12.1318C22.5743 12.0862 22.5371 12.0314 22.5117 11.9717C22.4864 11.912 22.4736 11.8479 22.4736 11.7832C22.4736 11.7186 22.4865 11.6544 22.5117 11.5947C22.5371 11.535 22.5743 11.4802 22.6211 11.4346L24.0361 10.0459C24.2686 9.8182 24.545 9.63758 24.8486 9.51465C25.0763 9.4225 25.3462 9.35683 25.6055 9.33008L25.8594 9.31641H26.4941C26.6273 9.31641 26.7555 9.26369 26.8496 9.16992C26.9435 9.07619 26.9961 8.94883 26.9961 8.81641V4.81641C26.996 4.68394 26.9436 4.55657 26.8496 4.46289C26.7555 4.36912 26.6272 4.31641 26.4941 4.31641H13.6631C13.5302 4.31653 13.4026 4.36931 13.3086 4.46289C13.2146 4.55657 13.1622 4.68393 13.1621 4.81641V8.81641C13.1621 8.9489 13.2146 9.07618 13.3086 9.16992C13.4026 9.26358 13.5302 9.31628 13.6631 9.31641H14.6318C14.9077 9.31665 15.1316 9.54058 15.1318 9.81641C15.1318 10.0924 14.9078 10.3162 14.6318 10.3164H13.6631C13.2639 10.3163 12.8809 10.1581 12.5986 9.87695C12.3165 9.59568 12.1582 9.21406 12.1582 8.81641V4.81641C12.1583 4.41872 12.3164 4.03708 12.5986 3.75586C12.8809 3.47467 13.2639 3.31653 13.6631 3.31641H26.4941ZM3.50488 6.35156C3.63741 6.35167 3.76463 6.40441 3.8584 6.49902C3.95229 6.59387 4.00488 6.72329 4.00488 6.85742C4.0048 6.95719 3.97572 7.0547 3.9209 7.1377C3.86593 7.2208 3.78768 7.28593 3.69629 7.32422C3.60491 7.36246 3.50425 7.37197 3.40723 7.35254C3.31015 7.33303 3.22039 7.28553 3.15039 7.21484C3.08047 7.14421 3.03304 7.054 3.01367 6.95605C2.99435 6.85795 3.0041 6.7555 3.04199 6.66309C3.0799 6.57082 3.14433 6.49203 3.22656 6.43652C3.30886 6.38101 3.40592 6.35156 3.50488 6.35156ZM7.50977 6.35156C7.64232 6.35161 7.76947 6.40443 7.86328 6.49902C7.95717 6.59387 8.00977 6.72329 8.00977 6.85742C8.00968 6.95724 7.98065 7.05468 7.92578 7.1377C7.87077 7.22086 7.79265 7.28594 7.70117 7.32422C7.60972 7.36249 7.50919 7.37203 7.41211 7.35254C7.31499 7.33302 7.22529 7.28557 7.15527 7.21484C7.08537 7.14421 7.03792 7.054 7.01855 6.95605C6.99924 6.85795 7.00898 6.7555 7.04688 6.66309C7.08478 6.57079 7.1492 6.49204 7.23145 6.43652C7.31378 6.38095 7.41075 6.35156 7.50977 6.35156ZM16.0312 6.35156C16.13 6.35165 16.2264 6.38113 16.3086 6.43652C16.3908 6.49202 16.4553 6.57083 16.4932 6.66309C16.5311 6.7555 16.5408 6.85795 16.5215 6.95605C16.5021 7.05399 16.4547 7.14422 16.3848 7.21484C16.3149 7.28537 16.2258 7.33297 16.1289 7.35254C16.0318 7.37205 15.9303 7.3625 15.8389 7.32422C15.7475 7.28592 15.6692 7.22077 15.6143 7.1377C15.5595 7.05471 15.5304 6.95717 15.5303 6.85742C15.5303 6.72329 15.5829 6.59387 15.6768 6.49902C15.7706 6.40428 15.8985 6.35156 16.0312 6.35156ZM20.0361 6.35156C20.1351 6.35161 20.2322 6.381 20.3145 6.43652C20.3965 6.49199 20.4602 6.57098 20.498 6.66309C20.5359 6.7555 20.5467 6.85795 20.5273 6.95605C20.508 7.05404 20.4596 7.14419 20.3896 7.21484C20.3197 7.28537 20.2307 7.33301 20.1338 7.35254C20.0368 7.37203 19.9361 7.36238 19.8447 7.32422C19.7533 7.28594 19.6751 7.22085 19.6201 7.1377C19.5652 7.05464 19.5352 6.9573 19.5352 6.85742C19.5352 6.72329 19.5878 6.59387 19.6816 6.49902C19.7755 6.40421 19.9034 6.35156 20.0361 6.35156ZM24.0322 6.35156C24.1312 6.3516 24.2283 6.38098 24.3105 6.43652C24.3926 6.49199 24.4563 6.57097 24.4941 6.66309C24.532 6.7555 24.5428 6.85795 24.5234 6.95605C24.5041 7.05404 24.4557 7.14419 24.3857 7.21484C24.3158 7.28536 24.2268 7.33302 24.1299 7.35254C24.0329 7.37203 23.9322 7.3624 23.8408 7.32422C23.7493 7.28594 23.6712 7.22086 23.6162 7.1377C23.5613 7.05464 23.5313 6.9573 23.5312 6.85742C23.5312 6.72329 23.5838 6.59387 23.6777 6.49902C23.7716 6.40419 23.8995 6.35156 24.0322 6.35156Z" fill="#5E1DE1"/>
<path d="M7.82324 20.3711L7.93455 20.2705L7.93454 20.2705L7.82324 20.3711ZM8.47363 22.0996H8.62363V22.0996L8.47363 22.0996ZM8.47363 24.1992L8.62363 24.1993V24.1992H8.47363ZM7.9873 24.6855L7.98728 24.8355H7.9873V24.6855ZM7.50098 24.1992H7.35098V24.1993L7.50098 24.1992ZM7.50098 22.0996H7.65098V22.0996L7.50098 22.0996ZM7.10645 21.0371L7.21775 20.9366L7.21772 20.9365L7.10645 21.0371ZM2.6377 20.6191V20.4691H2.63767L2.6377 20.6191ZM1.73535 21.0371L1.62406 20.9365L1.62405 20.9366L1.73535 21.0371ZM1.34082 22.0996L1.19082 22.0996V22.0996H1.34082ZM0.854492 24.6855L0.854414 24.8355H0.854492V24.6855ZM0.368164 22.0996L0.218164 22.0996V22.0996H0.368164ZM1.01855 20.3711L0.907253 20.2705L0.907239 20.2706L1.01855 20.3711ZM2.6377 19.6328V19.4828H2.63768L2.6377 19.6328ZM15.7832 19.6328L15.7832 19.4828H15.7832V19.6328ZM17.4023 20.3711L17.5137 20.2705L17.5136 20.2705L17.4023 20.3711ZM18.0527 22.0996H18.2027V22.0996L18.0527 22.0996ZM18.0527 24.1992L18.2027 24.1993V24.1992H18.0527ZM17.5664 24.6855V24.8355H17.5664L17.5664 24.6855ZM17.0801 24.1992H16.9301V24.1993L17.0801 24.1992ZM17.0801 22.0996H17.2301V22.0996L17.0801 22.0996ZM16.6855 21.0371L16.7968 20.9366L16.7968 20.9365L16.6855 21.0371ZM15.7832 20.6191L15.7832 20.4691H15.7832V20.6191ZM12.2168 20.6191V20.4691H12.2168L12.2168 20.6191ZM11.3145 21.0371L11.2032 20.9365L11.2032 20.9366L11.3145 21.0371ZM10.9199 22.0996L10.7699 22.0996V22.0996H10.9199ZM10.9199 24.1992L11.0699 24.1993V24.1992H10.9199ZM10.4336 24.6855L10.4336 24.8355H10.4336V24.6855ZM9.94727 24.1992H9.79727V24.1993L9.94727 24.1992ZM9.94727 22.0996L9.79727 22.0996V22.0996H9.94727ZM10.5977 20.3711L10.4864 20.2705L10.4863 20.2705L10.5977 20.3711ZM12.2168 19.6328V19.4828H12.2168L12.2168 19.6328ZM25.3623 19.6328L25.3623 19.4828H25.3623V19.6328ZM26.9814 20.3711L27.0928 20.2705L27.0927 20.2705L26.9814 20.3711ZM27.6318 22.0996H27.7818V22.0996L27.6318 22.0996ZM27.1455 24.6855V24.8355H27.1456L27.1455 24.6855ZM26.6592 22.0996H26.8092V22.0996L26.6592 22.0996ZM26.2646 21.0371L26.3759 20.9366L26.3759 20.9365L26.2646 21.0371ZM25.3623 20.6191L25.3623 20.4691H25.3623V20.6191ZM20.8936 21.0371L20.7823 20.9365L20.7823 20.9366L20.8936 21.0371ZM20.499 22.0996L20.349 22.0996V22.0996H20.499ZM20.499 24.1992L20.649 24.1993V24.1992H20.499ZM20.0127 24.6855V24.8355H20.0127L20.0127 24.6855ZM19.5264 24.1992H19.3764V24.1993L19.5264 24.1992ZM19.5264 22.0996L19.3764 22.0996V22.0996H19.5264ZM20.1768 20.3711L20.0655 20.2705L20.0655 20.2705L20.1768 20.3711ZM4.4209 14.3691V14.2191H4.42089L4.4209 14.3691ZM6.52832 16.5078L6.67832 16.5078V16.5078H6.52832ZM4.4209 18.6455L4.42089 18.7955H4.4209V18.6455ZM2.31348 16.5078H2.16348V16.5078L2.31348 16.5078ZM14 14.3691V14.2191H14L14 14.3691ZM16.1074 16.5078L16.2574 16.5078V16.5078H16.1074ZM14 18.6455L14 18.7955H14V18.6455ZM11.8926 16.5078H11.7426V16.5078L11.8926 16.5078ZM23.5791 14.3691L23.5791 14.2191H23.5791V14.3691ZM25.6865 16.5078L25.8365 16.5078V16.5078H25.6865ZM23.5791 18.6455V18.7955H23.5791L23.5791 18.6455ZM21.4717 16.5078H21.3217V16.5078L21.4717 16.5078ZM4.4209 15.3564V15.2064H4.42088L4.4209 15.3564ZM3.28613 16.5078H3.13613V16.5078L3.28613 16.5078ZM4.4209 17.6592L4.42088 17.8092H4.4209V17.6592ZM5.55566 16.5078L5.70566 16.5078V16.5078H5.55566ZM14 15.3564V15.2064H14L14 15.3564ZM12.8652 16.5078H12.7152V16.5078L12.8652 16.5078ZM14 17.6592L14 17.8092H14V17.6592ZM15.1348 16.5078L15.2848 16.5078V16.5078H15.1348ZM23.5791 15.3564L23.5791 15.2064H23.5791V15.3564ZM22.4443 16.5078H22.2943V16.5078L22.4443 16.5078ZM23.5791 17.6592V17.8092H23.5791L23.5791 17.6592ZM24.7139 16.5078L24.8639 16.5078V16.5078H24.7139ZM9.51172 3.31641V3.16641V3.31641ZM10.5742 3.76074L10.6808 3.65522L10.6808 3.6552L10.5742 3.76074ZM11.0137 4.83398H11.1637V4.83398L11.0137 4.83398ZM10.5742 9.95312L10.6808 10.0587L10.6808 10.0587L10.5742 9.95312ZM8.41602 10.3975V10.2475H8.41584L8.41602 10.3975ZM7.35547 10.8418L7.46208 10.9473L7.46209 10.9473L7.35547 10.8418ZM5.93848 12.2734L5.83187 12.1679L5.83144 12.1683L5.93848 12.2734ZM5.77539 12.3838L5.83358 12.522L5.83365 12.522L5.77539 12.3838ZM5.58301 12.4229V12.5729H5.58308L5.58301 12.4229ZM5.39062 12.3838L5.33244 12.522L5.33248 12.5221L5.39062 12.3838ZM5.22754 12.2734L5.33456 12.1683L5.33371 12.1675L5.22754 12.2734ZM5.11816 12.1094L4.97949 12.1666L4.97955 12.1667L5.11816 12.1094ZM5.0791 11.9141L4.9291 11.9139V11.9141H5.0791ZM5.11816 11.7197L4.97954 11.6624L4.97949 11.6625L5.11816 11.7197ZM5.22754 11.5557L5.33372 11.6616L5.33415 11.6612L5.22754 11.5557ZM6.64453 10.124L6.53808 10.0183L6.53792 10.0185L6.64453 10.124ZM7.45801 9.57715L7.40034 9.43868L7.40032 9.43869L7.45801 9.57715ZM8.41602 9.38574L8.41577 9.53574H8.41602V9.38574ZM9.86621 9.2373L9.97281 9.34283L9.97287 9.34278L9.86621 9.2373ZM10.0127 4.83398H10.1627V4.83398L10.0127 4.83398ZM9.86621 4.47656L9.97285 4.37107L9.97281 4.37104L9.86621 4.47656ZM9.51172 4.32812V4.17813V4.32812ZM1.50195 4.32812V4.17813V4.32812ZM1.14746 4.47656L1.04086 4.37104L1.04077 4.37113L1.14746 4.47656ZM1.00098 4.83398L0.850977 4.83398V4.83398H1.00098ZM1.14746 9.2373L1.04075 9.34272L1.04086 9.34283L1.14746 9.2373ZM5.43652 9.53418L5.54323 9.42876L5.54313 9.42865L5.43652 9.53418ZM5.58301 9.8916L5.73301 9.89164V9.8916H5.58301ZM5.43652 10.249L5.54313 10.3545L5.54319 10.3545L5.43652 10.249ZM1.50195 10.3975V10.5475V10.3975ZM0.439453 9.95312L0.332842 10.0586L0.33285 10.0587L0.439453 9.95312ZM0 4.83398L-0.15 4.83398V4.83398H0ZM0.439453 3.76074L0.33285 3.65522L0.332848 3.65522L0.439453 3.76074ZM22.3516 9.33691L22.3516 9.18691H22.3516V9.33691ZM22.8418 9.82715H22.9918V9.82704L22.8418 9.82715ZM22.3516 10.3184V10.4684H22.3516L22.3516 10.3184ZM18.0684 10.3184V10.1684H18.0682L18.0684 10.3184ZM17.0088 10.75L17.1139 10.857L17.1139 10.857L17.0088 10.75ZM15.5947 12.1387L15.4896 12.0316L15.4892 12.0321L15.5947 12.1387ZM15.4316 12.2461L15.4884 12.3849L15.4884 12.3849L15.4316 12.2461ZM15.2393 12.2842L15.2392 12.4342H15.2393V12.2842ZM15.0469 12.2461L14.9899 12.3849L14.9901 12.3849L15.0469 12.2461ZM14.8848 12.1387L14.9903 12.0321L14.9894 12.0312L14.8848 12.1387ZM14.7754 11.9795L14.6373 12.0381L14.6373 12.0382L14.7754 11.9795ZM14.7373 11.791L14.5873 11.791V11.7912L14.7373 11.791ZM14.7754 11.6016L14.6373 11.5429L14.6373 11.543L14.7754 11.6016ZM14.8848 11.4424L14.9894 11.5498L14.9899 11.5494L14.8848 11.4424ZM16.2988 10.0537L16.1939 9.94654L16.1937 9.94669L16.2988 10.0537ZM17.1113 9.52246L17.055 9.38343L17.055 9.38343L17.1113 9.52246ZM18.0684 9.33691L18.0681 9.48691H18.0684V9.33691ZM27.5586 3.75586L27.6645 3.64959L27.6644 3.64956L27.5586 3.75586ZM28 4.81641H28.15V4.81637L28 4.81641ZM27.5586 9.87695L27.6645 9.98322L27.6645 9.98322L27.5586 9.87695ZM25.7891 10.3164V10.1664H25.7889L25.7891 10.3164ZM24.7461 10.7432L24.8512 10.8502L24.8512 10.8501L24.7461 10.7432ZM23.3311 12.1318L23.226 12.0248L23.2256 12.0252L23.3311 12.1318ZM23.1689 12.2393L23.2257 12.3781L23.2258 12.3781L23.1689 12.2393ZM22.9766 12.2764V12.4264H22.9766L22.9766 12.2764ZM22.7842 12.2393L22.7274 12.3781L22.7274 12.3781L22.7842 12.2393ZM22.6211 12.1318L22.7266 12.0252L22.7258 12.0244L22.6211 12.1318ZM22.5117 11.9717L22.3736 12.0302L22.3736 12.0303L22.5117 11.9717ZM22.4736 11.7832L22.3236 11.7832V11.7832L22.4736 11.7832ZM22.5117 11.5947L22.3736 11.5361L22.3736 11.5363L22.5117 11.5947ZM22.6211 11.4346L22.7258 11.542L22.7262 11.5416L22.6211 11.4346ZM24.0361 10.0459L23.9312 9.93873L23.9311 9.93884L24.0361 10.0459ZM24.8486 9.51465L24.7924 9.3756L24.7923 9.37561L24.8486 9.51465ZM25.6055 9.33008L25.5974 9.18011L25.5901 9.18087L25.6055 9.33008ZM25.8594 9.31641V9.16619L25.8513 9.16662L25.8594 9.31641ZM26.8496 9.16992L26.9555 9.27619L26.9556 9.27607L26.8496 9.16992ZM26.9961 4.81641H27.1461V4.8163L26.9961 4.81641ZM26.8496 4.46289L26.9555 4.35663L26.9555 4.35662L26.8496 4.46289ZM13.6631 4.31641V4.16641L13.6629 4.16641L13.6631 4.31641ZM13.3086 4.46289L13.2028 4.35659L13.2027 4.35662L13.3086 4.46289ZM13.1621 4.81641L13.0121 4.8163V4.81641H13.1621ZM13.3086 9.16992L13.2027 9.27612L13.2027 9.27619L13.3086 9.16992ZM13.6631 9.31641L13.6629 9.46641H13.6631V9.31641ZM14.6318 9.31641L14.632 9.16641H14.6318V9.31641ZM15.1318 9.81641H15.2818V9.8163L15.1318 9.81641ZM14.6318 10.3164V10.4664H14.632L14.6318 10.3164ZM13.6631 10.3164L13.663 10.4664H13.6631V10.3164ZM12.5986 9.87695L12.4927 9.98318L12.4928 9.98322L12.5986 9.87695ZM12.1582 4.81641L12.0082 4.81637V4.81641H12.1582ZM12.5986 3.75586L12.4928 3.64959L12.4928 3.64959L12.5986 3.75586ZM13.6631 3.31641V3.16641L13.663 3.16641L13.6631 3.31641ZM3.50488 6.35156L3.50501 6.20156H3.50488V6.35156ZM3.8584 6.49902L3.965 6.3935L3.96494 6.39343L3.8584 6.49902ZM4.00488 6.85742L4.15488 6.85755V6.85742H4.00488ZM3.9209 7.1377L4.04601 7.22045L4.04606 7.22037L3.9209 7.1377ZM3.69629 7.32422L3.75419 7.46259L3.75425 7.46257L3.69629 7.32422ZM3.40723 7.35254L3.37768 7.4996L3.37777 7.49962L3.40723 7.35254ZM3.15039 7.21484L3.04379 7.32037L3.04381 7.32039L3.15039 7.21484ZM3.01367 6.95605L2.8665 6.98503L2.86652 6.98516L3.01367 6.95605ZM3.04199 6.66309L2.90325 6.60608L2.90321 6.60618L3.04199 6.66309ZM3.22656 6.43652L3.14268 6.31217L3.14264 6.3122L3.22656 6.43652ZM7.50977 6.35156L7.50982 6.20156H7.50977V6.35156ZM7.86328 6.49902L7.96988 6.3935L7.96979 6.3934L7.86328 6.49902ZM8.00977 6.85742L8.15977 6.85755V6.85742H8.00977ZM7.92578 7.1377L8.05089 7.22045L8.05092 7.2204L7.92578 7.1377ZM7.70117 7.32422L7.75907 7.46259L7.75908 7.46259L7.70117 7.32422ZM7.41211 7.35254L7.38256 7.4996L7.38259 7.49961L7.41211 7.35254ZM7.15527 7.21484L7.04866 7.32036L7.04867 7.32037L7.15527 7.21484ZM7.01855 6.95605L6.87138 6.98503L6.8714 6.98514L7.01855 6.95605ZM7.04688 6.66309L6.90812 6.6061L6.90809 6.60618L7.04688 6.66309ZM7.23145 6.43652L7.14752 6.3122L7.14752 6.3122L7.23145 6.43652ZM16.0312 6.35156L16.0314 6.20156H16.0312V6.35156ZM16.3086 6.43652L16.3925 6.3122L16.3925 6.31215L16.3086 6.43652ZM16.4932 6.66309L16.632 6.60618L16.6319 6.60607L16.4932 6.66309ZM16.5215 6.95605L16.6686 6.98516L16.6687 6.98503L16.5215 6.95605ZM16.3848 7.21484L16.4913 7.32041L16.4914 7.32037L16.3848 7.21484ZM16.1289 7.35254L16.1585 7.4996L16.1586 7.49957L16.1289 7.35254ZM15.8389 7.32422L15.7809 7.46256L15.781 7.46259L15.8389 7.32422ZM15.6143 7.1377L15.4891 7.22035L15.4891 7.22045L15.6143 7.1377ZM15.5303 6.85742H15.3803V6.85755L15.5303 6.85742ZM15.6768 6.49902L15.5702 6.39345L15.5702 6.3935L15.6768 6.49902ZM20.0361 6.35156L20.0362 6.20156H20.0361V6.35156ZM20.3145 6.43652L20.3985 6.31226L20.3984 6.3122L20.3145 6.43652ZM20.498 6.66309L20.6368 6.60618L20.6368 6.60605L20.498 6.66309ZM20.5273 6.95605L20.6745 6.98512L20.6745 6.98503L20.5273 6.95605ZM20.3896 7.21484L20.4962 7.32044L20.4963 7.32037L20.3896 7.21484ZM20.1338 7.35254L20.1633 7.4996L20.1634 7.49958L20.1338 7.35254ZM19.8447 7.32422L19.7868 7.46259L19.7869 7.46264L19.8447 7.32422ZM19.6201 7.1377L19.495 7.22045L19.495 7.22046L19.6201 7.1377ZM19.5352 6.85742H19.3852V6.85755L19.5352 6.85742ZM19.6816 6.49902L19.5751 6.39348L19.575 6.3935L19.6816 6.49902ZM24.0322 6.35156L24.0323 6.20156H24.0322V6.35156ZM24.3105 6.43652L24.3945 6.31225L24.3945 6.3122L24.3105 6.43652ZM24.4941 6.66309L24.6329 6.60618L24.6329 6.60604L24.4941 6.66309ZM24.5234 6.95605L24.6706 6.98513L24.6706 6.98503L24.5234 6.95605ZM24.3857 7.21484L24.4923 7.32045L24.4923 7.32037L24.3857 7.21484ZM24.1299 7.35254L24.1594 7.4996L24.1595 7.49958L24.1299 7.35254ZM23.8408 7.32422L23.7829 7.46259L23.783 7.46263L23.8408 7.32422ZM23.6162 7.1377L23.4911 7.22045V7.22045L23.6162 7.1377ZM23.5312 6.85742H23.3813V6.85755L23.5312 6.85742ZM23.6777 6.49902L23.5711 6.39349L23.5711 6.3935L23.6777 6.49902ZM6.2041 19.6328V19.7828C6.77527 19.7828 7.31687 20.0344 7.71194 20.4717L7.82324 20.3711L7.93454 20.2705C7.48623 19.7743 6.86539 19.4828 6.2041 19.4828V19.6328ZM7.82324 20.3711L7.71194 20.4716C8.10609 20.908 8.32362 21.4937 8.32363 22.0996L8.47363 22.0996L8.62363 22.0996C8.62362 21.4233 8.38106 20.7648 7.93455 20.2705L7.82324 20.3711ZM8.47363 22.0996H8.32363V24.1992H8.47363H8.62363V22.0996H8.47363ZM8.47363 24.1992L8.32363 24.1991C8.3235 24.3849 8.17283 24.5355 7.9873 24.5355V24.6855V24.8355C8.33872 24.8355 8.62339 24.5504 8.62363 24.1993L8.47363 24.1992ZM7.9873 24.6855L7.98733 24.5355C7.8018 24.5355 7.65111 24.3848 7.65098 24.1991L7.50098 24.1992L7.35098 24.1993C7.35122 24.5504 7.63594 24.8355 7.98728 24.8355L7.9873 24.6855ZM7.50098 24.1992H7.65098V22.0996H7.50098H7.35098V24.1992H7.50098ZM7.50098 22.0996L7.65098 22.0996C7.65096 21.6587 7.49237 21.2405 7.21775 20.9366L7.10645 21.0371L6.99514 21.1377C7.21735 21.3836 7.35097 21.729 7.35098 22.0996L7.50098 22.0996ZM7.10645 21.0371L7.21772 20.9365C6.94392 20.6336 6.57853 20.4691 6.2041 20.4691V20.6191V20.7691C6.48867 20.7691 6.77478 20.8939 6.99517 21.1377L7.10645 21.0371ZM6.2041 20.6191V20.4691H2.6377V20.6191V20.7691H6.2041V20.6191ZM2.6377 20.6191L2.63767 20.4691C2.2633 20.4692 1.89786 20.6336 1.62406 20.9365L1.73535 21.0371L1.84664 21.1377C2.06697 20.8939 2.3531 20.7692 2.63772 20.7691L2.6377 20.6191ZM1.73535 21.0371L1.62405 20.9366C1.34942 21.2405 1.19083 21.6587 1.19082 22.0996L1.34082 22.0996L1.49082 22.0996C1.49083 21.729 1.62445 21.3836 1.84665 21.1377L1.73535 21.0371ZM1.34082 22.0996H1.19082V24.1914H1.34082H1.49082V22.0996H1.34082ZM1.34082 24.1914H1.19082C1.19082 24.3834 1.03791 24.5355 0.854492 24.5355V24.6855V24.8355C1.20824 24.8355 1.49082 24.5444 1.49082 24.1914H1.34082ZM0.854492 24.6855L0.85457 24.5355C0.671128 24.5355 0.518164 24.3832 0.518164 24.1914H0.368164H0.218164C0.218164 24.5444 0.50092 24.8354 0.854414 24.8355L0.854492 24.6855ZM0.368164 24.1914H0.518164V22.0996H0.368164H0.218164V24.1914H0.368164ZM0.368164 22.0996L0.518164 22.0996C0.518176 21.4938 0.735794 20.9079 1.12987 20.4716L1.01855 20.3711L0.907239 20.2706C0.460835 20.7648 0.218177 21.4234 0.218164 22.0996L0.368164 22.0996ZM1.01855 20.3711L1.12986 20.4717C1.52487 20.0344 2.0666 19.7829 2.63771 19.7828L2.6377 19.6328L2.63768 19.4828C1.97649 19.4829 1.35552 19.7744 0.907253 20.2705L1.01855 20.3711ZM2.6377 19.6328V19.7828H6.2041V19.6328V19.4828H2.6377V19.6328ZM15.7832 19.6328L15.7832 19.7828C16.3544 19.7828 16.896 20.0344 17.291 20.4717L17.4023 20.3711L17.5136 20.2705C17.0653 19.7743 16.4445 19.4828 15.7832 19.4828L15.7832 19.6328ZM17.4023 20.3711L17.291 20.4716C17.6852 20.9079 17.9027 21.4938 17.9027 22.0996L18.0527 22.0996L18.2027 22.0996C18.2027 21.4234 17.9601 20.7648 17.5137 20.2705L17.4023 20.3711ZM18.0527 22.0996H17.9027V24.1992H18.0527H18.2027V22.0996H18.0527ZM18.0527 24.1992L17.9027 24.1991C17.9026 24.3848 17.7519 24.5355 17.5664 24.5355L17.5664 24.6855L17.5664 24.8355C17.9178 24.8355 18.2025 24.5504 18.2027 24.1993L18.0527 24.1992ZM17.5664 24.6855V24.5355C17.3809 24.5355 17.2302 24.3849 17.2301 24.1991L17.0801 24.1992L16.9301 24.1993C16.9303 24.5504 17.215 24.8355 17.5664 24.8355V24.6855ZM17.0801 24.1992H17.2301V22.0996H17.0801H16.9301V24.1992H17.0801ZM17.0801 22.0996L17.2301 22.0996C17.2301 21.6587 17.0715 21.2405 16.7968 20.9366L16.6855 21.0371L16.5742 21.1377C16.7964 21.3836 16.9301 21.729 16.9301 22.0996L17.0801 22.0996ZM16.6855 21.0371L16.7968 20.9365C16.523 20.6336 16.1576 20.4692 15.7832 20.4691L15.7832 20.6191L15.7832 20.7691C16.0678 20.7691 16.3539 20.8939 16.5743 21.1377L16.6855 21.0371ZM15.7832 20.6191V20.4691H12.2168V20.6191V20.7691H15.7832V20.6191ZM12.2168 20.6191L12.2168 20.4691C11.8424 20.4692 11.477 20.6336 11.2032 20.9365L11.3145 21.0371L11.4257 21.1377C11.6461 20.8939 11.9322 20.7692 12.2168 20.7691L12.2168 20.6191ZM11.3145 21.0371L11.2032 20.9366C10.9285 21.2405 10.7699 21.6587 10.7699 22.0996L10.9199 22.0996L11.0699 22.0996C11.0699 21.729 11.2036 21.3836 11.4258 21.1377L11.3145 21.0371ZM10.9199 22.0996H10.7699V24.1992H10.9199H11.0699V22.0996H10.9199ZM10.9199 24.1992L10.7699 24.1991C10.7698 24.3849 10.6191 24.5355 10.4336 24.5355V24.6855V24.8355C10.785 24.8355 11.0697 24.5504 11.0699 24.1993L10.9199 24.1992ZM10.4336 24.6855L10.4336 24.5355C10.2481 24.5355 10.0974 24.3848 10.0973 24.1991L9.94727 24.1992L9.79727 24.1993C9.79751 24.5504 10.0822 24.8355 10.4336 24.8355L10.4336 24.6855ZM9.94727 24.1992H10.0973V22.0996H9.94727H9.79727V24.1992H9.94727ZM9.94727 22.0996L10.0973 22.0996C10.0973 21.4938 10.3149 20.9079 10.709 20.4716L10.5977 20.3711L10.4863 20.2705C10.0399 20.7648 9.79728 21.4234 9.79727 22.0996L9.94727 22.0996ZM10.5977 20.3711L10.709 20.4717C11.104 20.0344 11.6456 19.7828 12.2168 19.7828L12.2168 19.6328L12.2168 19.4828C11.5555 19.4828 10.9347 19.7743 10.4864 20.2705L10.5977 20.3711ZM12.2168 19.6328V19.7828H15.7832V19.6328V19.4828H12.2168V19.6328ZM25.3623 19.6328L25.3623 19.7828C25.9334 19.7829 26.4751 20.0344 26.8701 20.4717L26.9814 20.3711L27.0927 20.2705C26.6445 19.7744 26.0235 19.4829 25.3623 19.4828L25.3623 19.6328ZM26.9814 20.3711L26.8701 20.4716C27.2642 20.9079 27.4818 21.4938 27.4818 22.0996L27.6318 22.0996L27.7818 22.0996C27.7818 21.4234 27.5392 20.7648 27.0928 20.2705L26.9814 20.3711ZM27.6318 22.0996H27.4818V24.1914H27.6318H27.7818V22.0996H27.6318ZM27.6318 24.1914H27.4818C27.4818 24.3833 27.3289 24.5355 27.1454 24.5355L27.1455 24.6855L27.1456 24.8355C27.4991 24.8354 27.7818 24.5444 27.7818 24.1914H27.6318ZM27.1455 24.6855V24.5355C26.9621 24.5355 26.8092 24.3834 26.8092 24.1914H26.6592H26.5092C26.5092 24.5444 26.7918 24.8355 27.1455 24.8355V24.6855ZM26.6592 24.1914H26.8092V22.0996H26.6592H26.5092V24.1914H26.6592ZM26.6592 22.0996L26.8092 22.0996C26.8092 21.6587 26.6506 21.2405 26.3759 20.9366L26.2646 21.0371L26.1533 21.1377C26.3755 21.3836 26.5092 21.729 26.5092 22.0996L26.6592 22.0996ZM26.2646 21.0371L26.3759 20.9365C26.1021 20.6336 25.7367 20.4692 25.3623 20.4691L25.3623 20.6191L25.3623 20.7691C25.6469 20.7692 25.933 20.8939 26.1534 21.1377L26.2646 21.0371ZM25.3623 20.6191V20.4691H21.7959V20.6191V20.7691H25.3623V20.6191ZM21.7959 20.6191V20.4691C21.4215 20.4691 21.0561 20.6336 20.7823 20.9365L20.8936 21.0371L21.0048 21.1377C21.2252 20.8939 21.5113 20.7691 21.7959 20.7691V20.6191ZM20.8936 21.0371L20.7823 20.9366C20.5076 21.2405 20.349 21.6587 20.349 22.0996L20.499 22.0996L20.649 22.0996C20.649 21.729 20.7827 21.3836 21.0049 21.1377L20.8936 21.0371ZM20.499 22.0996H20.349V24.1992H20.499H20.649V22.0996H20.499ZM20.499 24.1992L20.349 24.1991C20.3489 24.3848 20.1982 24.5355 20.0127 24.5355L20.0127 24.6855L20.0127 24.8355C20.3641 24.8355 20.6488 24.5504 20.649 24.1993L20.499 24.1992ZM20.0127 24.6855V24.5355C19.8272 24.5355 19.6765 24.3849 19.6764 24.1991L19.5264 24.1992L19.3764 24.1993C19.3766 24.5504 19.6613 24.8355 20.0127 24.8355V24.6855ZM19.5264 24.1992H19.6764V22.0996H19.5264H19.3764V24.1992H19.5264ZM19.5264 22.0996L19.6764 22.0996C19.6764 21.4937 19.8939 20.908 20.2881 20.4716L20.1768 20.3711L20.0655 20.2705C19.6189 20.7648 19.3764 21.4233 19.3764 22.0996L19.5264 22.0996ZM20.1768 20.3711L20.2881 20.4717C20.6831 20.0344 21.2247 19.7828 21.7959 19.7828V19.6328V19.4828C21.1346 19.4828 20.5138 19.7743 20.0655 20.2705L20.1768 20.3711ZM21.7959 19.6328V19.7828H25.3623V19.6328V19.4828H21.7959V19.6328ZM4.4209 14.3691V14.5191C5.49984 14.5191 6.37832 15.4077 6.37832 16.5078H6.52832H6.67832C6.67832 15.2462 5.66969 14.2191 4.4209 14.2191V14.3691ZM6.52832 16.5078L6.37832 16.5078C6.37819 17.6077 5.49982 18.4955 4.4209 18.4955V18.6455V18.7955C5.66954 18.7955 6.67817 17.7694 6.67832 16.5078L6.52832 16.5078ZM4.4209 18.6455L4.42091 18.4955C3.34204 18.4954 2.4636 17.6077 2.46348 16.5078L2.31348 16.5078L2.16348 16.5078C2.16362 17.7693 3.17234 18.7954 4.42089 18.7955L4.4209 18.6455ZM2.31348 16.5078H2.46348C2.46348 15.4077 3.34203 14.5192 4.42091 14.5191L4.4209 14.3691L4.42089 14.2191C3.17219 14.2192 2.16348 15.2462 2.16348 16.5078H2.31348ZM14 14.3691V14.5191C15.0789 14.5191 15.9574 15.4077 15.9574 16.5078H16.1074H16.2574C16.2574 15.2462 15.2488 14.2191 14 14.2191V14.3691ZM16.1074 16.5078L15.9574 16.5078C15.9573 17.6077 15.0789 18.4955 14 18.4955V18.6455V18.7955C15.2486 18.7955 16.2573 17.7694 16.2574 16.5078L16.1074 16.5078ZM14 18.6455L14 18.4955C12.9211 18.4955 12.0427 17.6077 12.0426 16.5078L11.8926 16.5078L11.7426 16.5078C11.7427 17.7694 12.7514 18.7955 14 18.7955L14 18.6455ZM11.8926 16.5078H12.0426C12.0426 15.4077 12.9211 14.5191 14 14.5191L14 14.3691L14 14.2191C12.7512 14.2191 11.7426 15.2462 11.7426 16.5078H11.8926ZM23.5791 14.3691L23.5791 14.5191C24.658 14.5192 25.5365 15.4077 25.5365 16.5078H25.6865H25.8365C25.8365 15.2462 24.8278 14.2192 23.5791 14.2191L23.5791 14.3691ZM25.6865 16.5078L25.5365 16.5078C25.5364 17.6077 24.658 18.4954 23.5791 18.4955L23.5791 18.6455L23.5791 18.7955C24.8277 18.7954 25.8364 17.7693 25.8365 16.5078L25.6865 16.5078ZM23.5791 18.6455V18.4955C22.5002 18.4955 21.6218 17.6077 21.6217 16.5078L21.4717 16.5078L21.3217 16.5078C21.3218 17.7694 22.3305 18.7955 23.5791 18.7955V18.6455ZM21.4717 16.5078H21.6217C21.6217 15.4077 22.5002 14.5191 23.5791 14.5191V14.3691V14.2191C22.3303 14.2191 21.3217 15.2462 21.3217 16.5078H21.4717ZM4.4209 15.3564L4.42088 15.2064C3.7094 15.2065 3.13613 15.7912 3.13613 16.5078H3.28613H3.43613C3.43613 15.9528 3.87915 15.5065 4.42092 15.5064L4.4209 15.3564ZM3.28613 16.5078L3.13613 16.5078C3.13629 17.2243 3.70945 17.8091 4.42088 17.8092L4.4209 17.6592L4.42092 17.5092C3.87927 17.5091 3.43625 17.0627 3.43613 16.5078L3.28613 16.5078ZM4.4209 17.6592V17.8092C5.13243 17.8092 5.70551 17.2243 5.70566 16.5078L5.55566 16.5078L5.40566 16.5078C5.40554 17.0628 4.96259 17.5092 4.4209 17.5092V17.6592ZM5.55566 16.5078H5.70566C5.70566 15.7912 5.13249 15.2064 4.4209 15.2064V15.3564V15.5064C4.96271 15.5064 5.40566 15.9527 5.40566 16.5078H5.55566ZM14 15.3564L14 15.2064C13.2884 15.2065 12.7152 15.7912 12.7152 16.5078H12.8652H13.0152C13.0152 15.9527 13.4582 15.5064 14 15.5064L14 15.3564ZM12.8652 16.5078L12.7152 16.5078C12.7154 17.2243 13.2885 17.8092 14 17.8092L14 17.6592L14 17.5092C13.4583 17.5092 13.0154 17.0628 13.0152 16.5078L12.8652 16.5078ZM14 17.6592V17.8092C14.7115 17.8092 15.2846 17.2243 15.2848 16.5078L15.1348 16.5078L14.9848 16.5078C14.9846 17.0628 14.5417 17.5092 14 17.5092V17.6592ZM15.1348 16.5078H15.2848C15.2848 15.7912 14.7116 15.2064 14 15.2064V15.3564V15.5064C14.5418 15.5064 14.9848 15.9527 14.9848 16.5078H15.1348ZM23.5791 15.3564V15.2064C22.8675 15.2064 22.2943 15.7912 22.2943 16.5078H22.4443H22.5943C22.5943 15.9527 23.0373 15.5064 23.5791 15.5064V15.3564ZM22.4443 16.5078L22.2943 16.5078C22.2945 17.2243 22.8676 17.8092 23.5791 17.8092V17.6592V17.5092C23.0374 17.5092 22.5945 17.0628 22.5943 16.5078L22.4443 16.5078ZM23.5791 17.6592L23.5791 17.8092C24.2906 17.8091 24.8637 17.2243 24.8639 16.5078L24.7139 16.5078L24.5639 16.5078C24.5637 17.0627 24.1207 17.5091 23.5791 17.5092L23.5791 17.6592ZM24.7139 16.5078H24.8639C24.8639 15.7912 24.2906 15.2065 23.5791 15.2064L23.5791 15.3564L23.5791 15.5064C24.1209 15.5065 24.5639 15.9528 24.5639 16.5078H24.7139ZM9.51172 3.31641V3.46641C9.86974 3.46641 10.214 3.61017 10.4676 3.86629L10.5742 3.76074L10.6808 3.6552C10.3711 3.34246 9.9502 3.16641 9.51172 3.16641V3.31641ZM10.5742 3.76074L10.4676 3.86627C10.7212 4.12245 10.8637 4.47073 10.8637 4.83399L11.0137 4.83398L11.1637 4.83398C11.1637 4.39246 10.9905 3.9681 10.6808 3.65522L10.5742 3.76074ZM11.0137 4.83398H10.8637V8.87988H11.0137H11.1637V4.83398H11.0137ZM11.0137 8.87988H10.8637C10.8637 9.24314 10.7212 9.59141 10.4676 9.8476L10.5742 9.95312L10.6808 10.0587C10.9906 9.74576 11.1637 9.32142 11.1637 8.87988H11.0137ZM10.5742 9.95312L10.4676 9.84759C10.214 10.1037 9.86978 10.2475 9.51172 10.2475V10.3975V10.5475C9.95022 10.5475 10.3711 10.3715 10.6808 10.0587L10.5742 9.95312ZM9.51172 10.3975V10.2475H8.41602V10.3975V10.5475H9.51172V10.3975ZM8.41602 10.3975L8.41584 10.2475C7.97784 10.248 7.55813 10.4237 7.24884 10.7363L7.35547 10.8418L7.46209 10.9473C7.71533 10.6914 8.0585 10.5479 8.41619 10.5475L8.41602 10.3975ZM7.35547 10.8418L7.24886 10.7363L5.83187 12.1679L5.93848 12.2734L6.04509 12.379L7.46208 10.9473L7.35547 10.8418ZM5.93848 12.2734L5.83144 12.1683C5.79928 12.2011 5.76031 12.2274 5.71714 12.2456L5.77539 12.3838L5.83365 12.522C5.9123 12.4889 5.98471 12.4405 6.04551 12.3785L5.93848 12.2734ZM5.77539 12.3838L5.7172 12.2455C5.67442 12.2635 5.62873 12.2728 5.58294 12.2729L5.58301 12.4229L5.58308 12.5729C5.66931 12.5728 5.75448 12.5553 5.83358 12.522L5.77539 12.3838ZM5.58301 12.4229V12.2729C5.53732 12.2729 5.49168 12.2636 5.44877 12.2455L5.39062 12.3838L5.33248 12.5221C5.4115 12.5553 5.49662 12.5729 5.58301 12.5729V12.4229ZM5.39062 12.3838L5.44881 12.2455C5.40567 12.2274 5.36682 12.2012 5.33456 12.1683L5.22754 12.2734L5.12052 12.3785C5.18132 12.4405 5.2536 12.4889 5.33244 12.522L5.39062 12.3838ZM5.22754 12.2734L5.33371 12.1675C5.30085 12.1346 5.27469 12.0953 5.25677 12.052L5.11816 12.1094L4.97955 12.1667C5.01246 12.2463 5.06063 12.3185 5.12137 12.3794L5.22754 12.2734ZM5.11816 12.1094L5.25683 12.0522C5.23868 12.0082 5.2291 11.9606 5.2291 11.9141H5.0791H4.9291C4.9291 12.001 4.94681 12.0873 4.97949 12.1666L5.11816 12.1094ZM5.0791 11.9141L5.2291 11.9142C5.22914 11.8679 5.23865 11.821 5.25683 11.7769L5.11816 11.7197L4.97949 11.6625C4.94695 11.7415 4.92917 11.827 4.9291 11.9139L5.0791 11.9141ZM5.11816 11.7197L5.25679 11.777C5.27468 11.7337 5.3008 11.6946 5.33372 11.6616L5.22754 11.5557L5.12136 11.4497C5.06064 11.5106 5.01246 11.5828 4.97954 11.6624L5.11816 11.7197ZM5.22754 11.5557L5.33415 11.6612L6.75114 10.2295L6.64453 10.124L6.53792 10.0185L5.12093 11.4501L5.22754 11.5557ZM6.64453 10.124L6.75099 10.2297C6.96986 10.0092 7.22992 9.83468 7.5157 9.71561L7.45801 9.57715L7.40032 9.43869C7.07812 9.57293 6.78489 9.76971 6.53808 10.0183L6.64453 10.124ZM7.45801 9.57715L7.51568 9.71562C7.80141 9.59661 8.10713 9.53523 8.41577 9.53574L8.41602 9.38574L8.41626 9.23574C8.06747 9.23517 7.72241 9.30454 7.40034 9.43868L7.45801 9.57715ZM8.41602 9.38574V9.53574H9.51172V9.38574V9.23574H8.41602V9.38574ZM9.51172 9.38574V9.53574C9.68485 9.53574 9.85097 9.46592 9.97281 9.34283L9.86621 9.2373L9.75961 9.13178C9.69367 9.19838 9.60414 9.23574 9.51172 9.23574V9.38574ZM9.86621 9.2373L9.97287 9.34278C10.0945 9.21973 10.1627 9.05323 10.1627 8.87988H10.0127H9.8627C9.8627 8.97463 9.82542 9.06522 9.75955 9.13183L9.86621 9.2373ZM10.0127 8.87988H10.1627V4.83398H10.0127H9.8627V8.87988H10.0127ZM10.0127 4.83398L10.1627 4.83398C10.1627 4.66064 10.0946 4.49415 9.97285 4.37107L9.86621 4.47656L9.75957 4.58205C9.82544 4.64864 9.86269 4.73919 9.8627 4.83399L10.0127 4.83398ZM9.86621 4.47656L9.97281 4.37104C9.85097 4.24795 9.68485 4.17813 9.51172 4.17813V4.32812V4.47812C9.60414 4.47812 9.69367 4.51548 9.75961 4.58209L9.86621 4.47656ZM9.51172 4.32812V4.17813H1.50195V4.32812V4.47812H9.51172V4.32812ZM1.50195 4.32812V4.17813C1.32882 4.17813 1.1627 4.24795 1.04086 4.37104L1.14746 4.47656L1.25406 4.58209C1.32 4.51548 1.40953 4.47812 1.50195 4.47812V4.32812ZM1.14746 4.47656L1.04077 4.37113C0.919233 4.49412 0.850984 4.66067 0.850977 4.83398L1.00098 4.83398L1.15098 4.83399C1.15098 4.73934 1.18831 4.64863 1.25416 4.582L1.14746 4.47656ZM1.00098 4.83398H0.850977V8.87988H1.00098H1.15098V4.83398H1.00098ZM1.00098 8.87988H0.850977C0.850977 9.05319 0.919282 9.21976 1.04075 9.34272L1.14746 9.2373L1.25417 9.13189C1.18833 9.06523 1.15098 8.97448 1.15098 8.87988H1.00098ZM1.14746 9.2373L1.04086 9.34283C1.1627 9.46592 1.32882 9.53574 1.50195 9.53574V9.38574V9.23574C1.40953 9.23574 1.32 9.19838 1.25406 9.13178L1.14746 9.2373ZM1.50195 9.38574V9.53574H5.08203V9.38574V9.23574H1.50195V9.38574ZM5.08203 9.38574V9.53574C5.17445 9.53574 5.26399 9.5731 5.32992 9.63971L5.43652 9.53418L5.54313 9.42865C5.42128 9.30557 5.25516 9.23574 5.08203 9.23574V9.38574ZM5.43652 9.53418L5.32982 9.6396C5.39567 9.70625 5.43301 9.79698 5.43301 9.8916H5.58301H5.73301C5.73301 9.71829 5.66473 9.55173 5.54323 9.42876L5.43652 9.53418ZM5.58301 9.8916L5.43301 9.89157C5.43298 9.98629 5.39567 10.077 5.32985 10.1436L5.43652 10.249L5.54319 10.3545C5.66482 10.2315 5.73297 10.0649 5.73301 9.89164L5.58301 9.8916ZM5.43652 10.249L5.32992 10.1435C5.26399 10.2101 5.17445 10.2475 5.08203 10.2475V10.3975V10.5475C5.25516 10.5475 5.42128 10.4776 5.54313 10.3545L5.43652 10.249ZM5.08203 10.3975V10.2475H1.50195V10.3975V10.5475H5.08203V10.3975ZM1.50195 10.3975V10.2475C1.14383 10.2475 0.799663 10.1038 0.546056 9.8476L0.439453 9.95312L0.33285 10.0587C0.642571 10.3715 1.06341 10.5475 1.50195 10.5475V10.3975ZM0.439453 9.95312L0.546064 9.84761C0.292504 9.59142 0.15 9.2431 0.15 8.87988H0H-0.15C-0.15 9.32139 0.0231734 9.74577 0.332842 10.0586L0.439453 9.95312ZM0 8.87988H0.15V4.83398H0H-0.15V8.87988H0ZM0 4.83398L0.15 4.83399C0.150005 4.47074 0.292476 4.12244 0.546058 3.86627L0.439453 3.76074L0.332848 3.65522C0.0231348 3.9681 -0.149994 4.39246 -0.15 4.83398L0 4.83398ZM0.439453 3.76074L0.546056 3.86627C0.799663 3.61007 1.14383 3.46641 1.50195 3.46641V3.31641V3.16641C1.06341 3.16641 0.642571 3.34234 0.33285 3.65522L0.439453 3.76074ZM1.50195 3.31641V3.46641H9.51172V3.31641V3.16641H1.50195V3.31641ZM22.3516 9.33691L22.3515 9.48691C22.5395 9.48699 22.6917 9.63917 22.6918 9.82726L22.8418 9.82715L22.9918 9.82704C22.9915 9.47354 22.7053 9.18706 22.3516 9.18691L22.3516 9.33691ZM22.8418 9.82715H22.6918C22.6918 10.0156 22.5393 10.1683 22.3515 10.1684L22.3516 10.3184L22.3516 10.4684C22.7057 10.4682 22.9918 10.1806 22.9918 9.82715H22.8418ZM22.3516 10.3184V10.1684H18.0684V10.3184V10.4684H22.3516V10.3184ZM18.0684 10.3184L18.0682 10.1684C17.6319 10.1688 17.2129 10.339 16.9036 10.643L17.0088 10.75L17.1139 10.857C17.3665 10.6087 17.7099 10.4687 18.0685 10.4684L18.0684 10.3184ZM17.0088 10.75L16.9037 10.643L15.4896 12.0316L15.5947 12.1387L15.6998 12.2457L17.1139 10.857L17.0088 10.75ZM15.5947 12.1387L15.4892 12.0321C15.4571 12.0639 15.418 12.0896 15.3749 12.1073L15.4316 12.2461L15.4884 12.3849C15.5671 12.3528 15.6395 12.3055 15.7003 12.2453L15.5947 12.1387ZM15.4316 12.2461L15.3749 12.1073C15.3316 12.125 15.2853 12.1342 15.2393 12.1342V12.2842V12.4342C15.3251 12.4342 15.4099 12.417 15.4884 12.3849L15.4316 12.2461ZM15.2393 12.2842L15.2394 12.1342C15.1932 12.1342 15.1468 12.1249 15.1037 12.1073L15.0469 12.2461L14.9901 12.3849C15.0686 12.417 15.1535 12.4341 15.2392 12.4342L15.2393 12.2842ZM15.0469 12.2461L15.1038 12.1073C15.0614 12.0899 15.0228 12.0643 14.9903 12.0321L14.8848 12.1387L14.7792 12.2453C14.8394 12.3048 14.9109 12.3524 14.9899 12.3849L15.0469 12.2461ZM14.8848 12.1387L14.9894 12.0312C14.9566 11.9992 14.9308 11.9617 14.9134 11.9208L14.7754 11.9795L14.6373 12.0382C14.6707 12.1166 14.7195 12.187 14.7801 12.2461L14.8848 12.1387ZM14.7754 11.9795L14.9135 11.9209C14.8962 11.8802 14.8874 11.836 14.8873 11.7909L14.7373 11.791L14.5873 11.7912C14.5874 11.8753 14.6039 11.9594 14.6373 12.0381L14.7754 11.9795ZM14.7373 11.791L14.8873 11.791C14.8873 11.7456 14.8962 11.7008 14.9135 11.6602L14.7754 11.6016L14.6373 11.543C14.6038 11.622 14.5873 11.7068 14.5873 11.791L14.7373 11.791ZM14.7754 11.6016L14.9134 11.6602C14.9308 11.6193 14.9566 11.5818 14.9894 11.5498L14.8848 11.4424L14.7801 11.335C14.7195 11.394 14.6707 11.4645 14.6373 11.5429L14.7754 11.6016ZM14.8848 11.4424L14.9899 11.5494L16.4039 10.1607L16.2988 10.0537L16.1937 9.94669L14.7797 11.3354L14.8848 11.4424ZM16.2988 10.0537L16.4038 10.1609C16.6222 9.94701 16.882 9.77715 17.1676 9.66149L17.1113 9.52246L17.055 9.38343C16.7335 9.51365 16.4405 9.70503 16.1939 9.94654L16.2988 10.0537ZM17.1113 9.52246L17.1676 9.66149C17.4532 9.54586 17.7592 9.48641 18.0681 9.48691L18.0684 9.33691L18.0686 9.18691C17.7209 9.18634 17.3765 9.25325 17.055 9.38343L17.1113 9.52246ZM18.0684 9.33691V9.48691H22.3516V9.33691V9.18691H18.0684V9.33691ZM26.4941 3.31641V3.46641C26.8536 3.46641 27.1985 3.60904 27.4528 3.86216L27.5586 3.75586L27.6644 3.64956C27.354 3.34049 26.933 3.16641 26.4941 3.16641V3.31641ZM27.5586 3.75586L27.4527 3.86213C27.7069 4.11532 27.8499 4.45878 27.85 4.81644L28 4.81641L28.15 4.81637C28.1499 4.37865 27.9749 3.95884 27.6645 3.64959L27.5586 3.75586ZM28 4.81641H27.85V8.81641H28H28.15V4.81641H28ZM28 8.81641H27.85C27.85 9.17413 27.707 9.51739 27.4527 9.77069L27.5586 9.87695L27.6645 9.98322C27.9749 9.67391 28.15 9.2543 28.15 8.81641H28ZM27.5586 9.87695L27.4527 9.77069C27.1985 10.024 26.8538 10.1664 26.4941 10.1664V10.3164V10.4664C26.9331 10.4664 27.354 10.2926 27.6645 9.98322L27.5586 9.87695ZM26.4941 10.3164V10.1664H25.7891V10.3164V10.4664H26.4941V10.3164ZM25.7891 10.3164L25.7889 10.1664C25.3522 10.1669 24.9498 10.3326 24.6409 10.6362L24.7461 10.7432L24.8512 10.8501C25.1041 10.6016 25.4311 10.4668 25.7892 10.4664L25.7891 10.3164ZM24.7461 10.7432L24.641 10.6361L23.226 12.0248L23.3311 12.1318L23.4361 12.2389L24.8512 10.8502L24.7461 10.7432ZM23.3311 12.1318L23.2256 12.0252C23.1929 12.0575 23.1543 12.0832 23.1121 12.1004L23.1689 12.2393L23.2258 12.3781C23.305 12.3456 23.3765 12.2979 23.4365 12.2385L23.3311 12.1318ZM23.1689 12.2393L23.1122 12.1004C23.0703 12.1175 23.0241 12.1264 22.9765 12.1264L22.9766 12.2764L22.9766 12.4264C23.0609 12.4263 23.1458 12.4108 23.2257 12.3781L23.1689 12.2393ZM22.9766 12.2764V12.1264C22.929 12.1264 22.8829 12.1176 22.8409 12.1004L22.7842 12.2393L22.7274 12.3781C22.8073 12.4108 22.8922 12.4264 22.9766 12.4264V12.2764ZM22.7842 12.2393L22.841 12.1004C22.7978 12.0828 22.7588 12.057 22.7266 12.0252L22.6211 12.1318L22.5156 12.2384C22.5764 12.2986 22.6487 12.3459 22.7274 12.3781L22.7842 12.2393ZM22.6211 12.1318L22.7258 12.0244C22.6934 11.9929 22.6675 11.9548 22.6498 11.9131L22.5117 11.9717L22.3736 12.0303C22.4067 12.1081 22.4552 12.1796 22.5164 12.2393L22.6211 12.1318ZM22.5117 11.9717L22.6498 11.9132C22.6325 11.8723 22.6236 11.8281 22.6236 11.7832L22.4736 11.7832L22.3236 11.7832C22.3236 11.8676 22.3404 11.9517 22.3736 12.0302L22.5117 11.9717ZM22.4736 11.7832L22.6236 11.7832C22.6236 11.7384 22.6325 11.6941 22.6499 11.6532L22.5117 11.5947L22.3736 11.5363C22.3404 11.6147 22.3236 11.6988 22.3236 11.7832L22.4736 11.7832ZM22.5117 11.5947L22.6498 11.6533C22.6675 11.6117 22.6934 11.5735 22.7258 11.542L22.6211 11.4346L22.5164 11.3272C22.4552 11.3868 22.4067 11.4583 22.3736 11.5361L22.5117 11.5947ZM22.6211 11.4346L22.7262 11.5416L24.1412 10.153L24.0361 10.0459L23.9311 9.93884L22.516 11.3275L22.6211 11.4346ZM24.0361 10.0459L24.1411 10.1531C24.3595 9.93918 24.6193 9.76934 24.9049 9.65368L24.8486 9.51465L24.7923 9.37561C24.4708 9.50583 24.1778 9.69721 23.9312 9.93873L24.0361 10.0459ZM24.8486 9.51465L24.9049 9.65369C25.1187 9.56718 25.3747 9.50468 25.6209 9.47929L25.6055 9.33008L25.5901 9.18087C25.3177 9.20897 25.034 9.27782 24.7924 9.3756L24.8486 9.51465ZM25.6055 9.33008L25.6135 9.47986L25.8674 9.46619L25.8594 9.31641L25.8513 9.16662L25.5974 9.18029L25.6055 9.33008ZM25.8594 9.31641V9.46641H26.4941V9.31641V9.16641H25.8594V9.31641ZM26.4941 9.31641V9.46641C26.6667 9.46641 26.8331 9.39813 26.9555 9.27619L26.8496 9.16992L26.7437 9.06366C26.6779 9.12925 26.5878 9.16641 26.4941 9.16641V9.31641ZM26.8496 9.16992L26.9556 9.27607C27.0777 9.15412 27.1461 8.98853 27.1461 8.81641H26.9961H26.8461C26.8461 8.90913 26.8092 8.99826 26.7436 9.06377L26.8496 9.16992ZM26.9961 8.81641H27.1461V4.81641H26.9961H26.8461V8.81641H26.9961ZM26.9961 4.81641L27.1461 4.8163C27.146 4.6444 27.078 4.47872 26.9555 4.35663L26.8496 4.46289L26.7437 4.56915C26.8092 4.63442 26.846 4.72349 26.8461 4.81652L26.9961 4.81641ZM26.8496 4.46289L26.9555 4.35662C26.8331 4.23468 26.6667 4.16641 26.4941 4.16641V4.31641V4.46641C26.5878 4.46641 26.6779 4.50357 26.7437 4.56916L26.8496 4.46289ZM26.4941 4.31641V4.16641H13.6631V4.31641V4.46641H26.4941V4.31641ZM13.6631 4.31641L13.6629 4.16641C13.4905 4.16657 13.3249 4.23504 13.2028 4.35659L13.3086 4.46289L13.4144 4.56919C13.4803 4.50358 13.5699 4.4665 13.6632 4.46641L13.6631 4.31641ZM13.3086 4.46289L13.2027 4.35662C13.0802 4.47872 13.0122 4.64439 13.0121 4.8163L13.1621 4.81641L13.3121 4.81652C13.3122 4.72346 13.3489 4.63443 13.4145 4.56916L13.3086 4.46289ZM13.1621 4.81641H13.0121V8.81641H13.1621H13.3121V4.81641H13.1621ZM13.1621 8.81641H13.0121C13.0121 8.98856 13.0803 9.1541 13.2027 9.27612L13.3086 9.16992L13.4145 9.06373C13.3489 8.99826 13.3121 8.90925 13.3121 8.81641H13.1621ZM13.3086 9.16992L13.2027 9.27619C13.3249 9.39787 13.4905 9.46624 13.6629 9.46641L13.6631 9.31641L13.6632 9.16641C13.5698 9.16632 13.4803 9.12928 13.4145 9.06366L13.3086 9.16992ZM13.6631 9.31641V9.46641H14.6318V9.31641V9.16641H13.6631V9.31641ZM14.6318 9.31641L14.6317 9.46641C14.8248 9.46658 14.9817 9.62347 14.9818 9.81651L15.1318 9.81641L15.2818 9.8163C15.2816 9.45769 14.9905 9.16672 14.632 9.16641L14.6318 9.31641ZM15.1318 9.81641H14.9818C14.9818 10.0094 14.825 10.1662 14.6317 10.1664L14.6318 10.3164L14.632 10.4664C14.9905 10.4661 15.2818 10.1754 15.2818 9.81641H15.1318ZM14.6318 10.3164V10.1664H13.6631V10.3164V10.4664H14.6318V10.3164ZM13.6631 10.3164L13.6631 10.1664C13.3036 10.1663 12.9586 10.0238 12.7045 9.77069L12.5986 9.87695L12.4928 9.98322C12.8032 10.2925 13.2243 10.4663 13.663 10.4664L13.6631 10.3164ZM12.5986 9.87695L12.7045 9.77072C12.4506 9.51759 12.3082 9.17419 12.3082 8.81641H12.1582H12.0082C12.0082 9.25393 12.1824 9.67377 12.4927 9.98318L12.5986 9.87695ZM12.1582 8.81641H12.3082V4.81641H12.1582H12.0082V8.81641H12.1582ZM12.1582 4.81641L12.3082 4.81644C12.3083 4.45853 12.4505 4.11514 12.7045 3.86212L12.5986 3.75586L12.4928 3.64959C12.1822 3.95901 12.0083 4.3789 12.0082 4.81637L12.1582 4.81641ZM12.5986 3.75586L12.7045 3.86213C12.9586 3.60899 13.3036 3.46652 13.6631 3.46641L13.6631 3.31641L13.663 3.16641C13.2243 3.16655 12.8032 3.34035 12.4928 3.64959L12.5986 3.75586ZM13.6631 3.31641V3.46641H26.4941V3.31641V3.16641H13.6631V3.31641ZM3.50488 6.35156L3.50476 6.50156C3.59747 6.50164 3.68634 6.53851 3.75186 6.60462L3.8584 6.49902L3.96494 6.39343C3.84292 6.27032 3.67735 6.2017 3.50501 6.20156L3.50488 6.35156ZM3.8584 6.49902L3.7518 6.60455C3.81747 6.6709 3.85488 6.76222 3.85488 6.85742H4.00488H4.15488C4.15488 6.68435 4.0871 6.51684 3.965 6.3935L3.8584 6.49902ZM4.00488 6.85742L3.85488 6.8573C3.85482 6.92803 3.83421 6.99678 3.79574 7.05502L3.9209 7.1377L4.04606 7.22037C4.11723 7.11262 4.15478 6.98636 4.15488 6.85755L4.00488 6.85742ZM3.9209 7.1377L3.79579 7.05494C3.757 7.11358 3.70199 7.1592 3.63833 7.18587L3.69629 7.32422L3.75425 7.46257C3.87337 7.41266 3.97485 7.32802 4.04601 7.22045L3.9209 7.1377ZM3.69629 7.32422L3.63839 7.18584C3.57509 7.21233 3.50489 7.21912 3.43668 7.20546L3.40723 7.35254L3.37777 7.49962C3.5036 7.52482 3.63472 7.51258 3.75419 7.46259L3.69629 7.32422ZM3.40723 7.35254L3.43678 7.20548C3.3682 7.1917 3.30548 7.15827 3.25697 7.10929L3.15039 7.21484L3.04381 7.32039C3.13531 7.41279 3.25209 7.47437 3.37768 7.4996L3.40723 7.35254ZM3.15039 7.21484L3.25699 7.10932C3.20814 7.05996 3.17457 6.99646 3.16082 6.92695L3.01367 6.95605L2.86652 6.98516C2.89152 7.11154 2.95281 7.22847 3.04379 7.32037L3.15039 7.21484ZM3.01367 6.95605L3.16085 6.92708C3.14715 6.85752 3.15414 6.78495 3.18078 6.71999L3.04199 6.66309L2.90321 6.60618C2.85406 6.72605 2.84156 6.85838 2.8665 6.98503L3.01367 6.95605ZM3.04199 6.66309L3.18074 6.72009C3.20736 6.6553 3.25265 6.59989 3.31048 6.56085L3.22656 6.43652L3.14264 6.3122C3.03601 6.38417 2.95245 6.48633 2.90325 6.60608L3.04199 6.66309ZM3.22656 6.43652L3.31044 6.56088C3.36781 6.52218 3.43563 6.50156 3.50488 6.50156V6.35156V6.20156C3.37621 6.20156 3.24991 6.23984 3.14268 6.31217L3.22656 6.43652ZM7.50977 6.35156L7.50971 6.50156C7.60232 6.5016 7.69114 6.53847 7.75678 6.60465L7.86328 6.49902L7.96979 6.3934C7.8478 6.27039 7.68232 6.20163 7.50982 6.20156L7.50977 6.35156ZM7.86328 6.49902L7.75668 6.60455C7.82236 6.6709 7.85977 6.76222 7.85977 6.85742H8.00977H8.15977C8.15977 6.68435 8.09198 6.51684 7.96988 6.3935L7.86328 6.49902ZM8.00977 6.85742L7.85977 6.8573C7.85971 6.92809 7.83912 6.99676 7.80064 7.05499L7.92578 7.1377L8.05092 7.2204C8.12217 7.11259 8.15966 6.98638 8.15977 6.85755L8.00977 6.85742ZM7.92578 7.1377L7.80067 7.05494C7.76182 7.11368 7.70693 7.1592 7.64327 7.18585L7.70117 7.32422L7.75908 7.46259C7.87836 7.41267 7.97972 7.32804 8.05089 7.22045L7.92578 7.1377ZM7.70117 7.32422L7.64327 7.18584C7.57987 7.21238 7.50982 7.21916 7.44163 7.20547L7.41211 7.35254L7.38259 7.49961C7.50857 7.5249 7.63958 7.5126 7.75907 7.46259L7.70117 7.32422ZM7.41211 7.35254L7.44166 7.20548C7.37302 7.19169 7.31037 7.1583 7.26188 7.10932L7.15527 7.21484L7.04867 7.32037C7.14021 7.41284 7.25697 7.47436 7.38256 7.4996L7.41211 7.35254ZM7.15527 7.21484L7.26189 7.10933C7.21302 7.05995 7.17944 6.99644 7.16571 6.92696L7.01855 6.95605L6.8714 6.98514C6.89639 7.11155 6.95772 7.22847 7.04866 7.32036L7.15527 7.21484ZM7.01855 6.95605L7.16573 6.92708C7.15203 6.85752 7.15903 6.78495 7.18566 6.71999L7.04688 6.66309L6.90809 6.60618C6.85894 6.72605 6.84644 6.85838 6.87138 6.98503L7.01855 6.95605ZM7.04688 6.66309L7.18563 6.72007C7.21223 6.65529 7.2575 6.59991 7.31537 6.56085L7.23145 6.43652L7.14752 6.3122C7.0409 6.38418 6.95732 6.48629 6.90812 6.6061L7.04688 6.66309ZM7.23145 6.43652L7.31537 6.56085C7.37271 6.52214 7.44042 6.50156 7.50977 6.50156V6.35156V6.20156C7.38107 6.20156 7.25484 6.23976 7.14752 6.3122L7.23145 6.43652ZM16.0312 6.35156L16.0311 6.50156C16.1 6.50163 16.1673 6.52217 16.2247 6.56089L16.3086 6.43652L16.3925 6.31215C16.2856 6.24009 16.16 6.20168 16.0314 6.20156L16.0312 6.35156ZM16.3086 6.43652L16.2247 6.56085C16.2825 6.59988 16.3278 6.65531 16.3544 6.7201L16.4932 6.66309L16.6319 6.60607C16.5827 6.48635 16.4991 6.38417 16.3925 6.3122L16.3086 6.43652ZM16.4932 6.66309L16.3544 6.71999C16.381 6.78495 16.388 6.85752 16.3743 6.92708L16.5215 6.95605L16.6687 6.98503C16.6936 6.85838 16.6811 6.72605 16.632 6.60618L16.4932 6.66309ZM16.5215 6.95605L16.3743 6.92695C16.3606 6.99645 16.327 7.05997 16.2782 7.10932L16.3848 7.21484L16.4914 7.32037C16.5823 7.22847 16.6436 7.11153 16.6686 6.98516L16.5215 6.95605ZM16.3848 7.21484L16.2782 7.10928C16.2295 7.15839 16.1673 7.19176 16.0992 7.20551L16.1289 7.35254L16.1586 7.49957C16.2842 7.47418 16.4002 7.41235 16.4913 7.32041L16.3848 7.21484ZM16.1289 7.35254L16.0994 7.20548C16.0311 7.2192 15.9601 7.21236 15.8968 7.18584L15.8389 7.32422L15.781 7.46259C15.9006 7.51264 16.0325 7.52491 16.1585 7.4996L16.1289 7.35254ZM15.8389 7.32422L15.8969 7.18588C15.8332 7.15919 15.7781 7.11354 15.7394 7.05494L15.6143 7.1377L15.4891 7.22045C15.5603 7.32801 15.6618 7.41266 15.7809 7.46256L15.8389 7.32422ZM15.6143 7.1377L15.7394 7.05504C15.701 6.99679 15.6803 6.92799 15.6803 6.8573L15.5303 6.85742L15.3803 6.85755C15.3804 6.98635 15.418 7.11264 15.4891 7.22035L15.6143 7.1377ZM15.5303 6.85742H15.6803C15.6803 6.76222 15.7177 6.6709 15.7834 6.60455L15.6768 6.49902L15.5702 6.3935C15.4481 6.51684 15.3803 6.68435 15.3803 6.85742H15.5303ZM15.6768 6.49902L15.7833 6.6046C15.8488 6.53854 15.9382 6.50156 16.0312 6.50156V6.35156V6.20156C15.8589 6.20156 15.6925 6.27002 15.5702 6.39345L15.6768 6.49902ZM20.0361 6.35156L20.0361 6.50156C20.1054 6.5016 20.1733 6.52221 20.2305 6.56085L20.3145 6.43652L20.3984 6.3122C20.2911 6.23978 20.1647 6.20162 20.0362 6.20156L20.0361 6.35156ZM20.3145 6.43652L20.2304 6.56079C20.2875 6.5994 20.3324 6.65477 20.3593 6.72013L20.498 6.66309L20.6368 6.60605C20.5879 6.48719 20.5055 6.38459 20.3985 6.31226L20.3145 6.43652ZM20.498 6.66309L20.3593 6.71999C20.3863 6.7859 20.3937 6.85852 20.3802 6.92708L20.5273 6.95605L20.6745 6.98503C20.6997 6.85738 20.6856 6.7251 20.6368 6.60618L20.498 6.66309ZM20.5273 6.95605L20.3802 6.92699C20.3666 6.99559 20.3326 7.05927 20.283 7.10932L20.3896 7.21484L20.4963 7.32037C20.5866 7.2291 20.6493 7.11249 20.6745 6.98512L20.5273 6.95605ZM20.3896 7.21484L20.2831 7.10924C20.2344 7.15844 20.1721 7.19179 20.1041 7.2055L20.1338 7.35254L20.1634 7.49958C20.2892 7.47422 20.4051 7.41229 20.4962 7.32044L20.3896 7.21484ZM20.1338 7.35254L20.1042 7.20548C20.0363 7.21914 19.966 7.21231 19.9025 7.1858L19.8447 7.32422L19.7869 7.46264C19.9062 7.51244 20.0373 7.52492 20.1633 7.4996L20.1338 7.35254ZM19.8447 7.32422L19.9026 7.18584C19.839 7.15921 19.7841 7.11367 19.7452 7.05494L19.6201 7.1377L19.495 7.22046C19.5662 7.32803 19.6675 7.41268 19.7868 7.46259L19.8447 7.32422ZM19.6201 7.1377L19.7452 7.05494C19.7062 6.99591 19.6852 6.92721 19.6852 6.8573L19.5352 6.85742L19.3852 6.85755C19.3853 6.98739 19.4242 7.11337 19.495 7.22045L19.6201 7.1377ZM19.5352 6.85742H19.6852C19.6852 6.76222 19.7226 6.6709 19.7882 6.60455L19.6816 6.49902L19.575 6.3935C19.4529 6.51684 19.3852 6.68435 19.3852 6.85742H19.5352ZM19.6816 6.49902L19.7882 6.60457C19.8536 6.5385 19.943 6.50156 20.0361 6.50156V6.35156V6.20156C19.8638 6.20156 19.6974 6.26992 19.5751 6.39348L19.6816 6.49902ZM24.0322 6.35156L24.0322 6.50156C24.1015 6.50159 24.1694 6.52219 24.2266 6.56085L24.3105 6.43652L24.3945 6.3122C24.2872 6.23977 24.1608 6.20161 24.0323 6.20156L24.0322 6.35156ZM24.3105 6.43652L24.2265 6.5608C24.2836 6.59939 24.3285 6.65475 24.3554 6.72013L24.4941 6.66309L24.6329 6.60604C24.584 6.48719 24.5016 6.38459 24.3945 6.31225L24.3105 6.43652ZM24.4941 6.66309L24.3554 6.71999C24.3824 6.7859 24.3898 6.85852 24.3763 6.92708L24.5234 6.95605L24.6706 6.98503C24.6957 6.85738 24.6817 6.7251 24.6329 6.60618L24.4941 6.66309ZM24.5234 6.95605L24.3763 6.92698C24.3627 6.99559 24.3287 7.05927 24.2791 7.10932L24.3857 7.21484L24.4923 7.32037C24.5827 7.2291 24.6454 7.11249 24.6706 6.98513L24.5234 6.95605ZM24.3857 7.21484L24.2792 7.10923C24.2304 7.15845 24.1682 7.1918 24.1003 7.20549L24.1299 7.35254L24.1595 7.49958C24.2853 7.47423 24.4012 7.41227 24.4923 7.32045L24.3857 7.21484ZM24.1299 7.35254L24.1003 7.20548C24.0323 7.21914 23.9621 7.21233 23.8986 7.18581L23.8408 7.32422L23.783 7.46263C23.9023 7.51247 24.0334 7.52492 24.1594 7.4996L24.1299 7.35254ZM23.8408 7.32422L23.8987 7.18584C23.8351 7.1592 23.7802 7.11368 23.7413 7.05494L23.6162 7.1377L23.4911 7.22045C23.5623 7.32805 23.6636 7.41268 23.7829 7.46259L23.8408 7.32422ZM23.6162 7.1377L23.7413 7.05494C23.7023 6.99591 23.6813 6.92721 23.6812 6.8573L23.5312 6.85742L23.3813 6.85755C23.3814 6.98739 23.4203 7.11337 23.4911 7.22045L23.6162 7.1377ZM23.5312 6.85742H23.6812C23.6812 6.76222 23.7187 6.6709 23.7843 6.60455L23.6777 6.49902L23.5711 6.3935C23.449 6.51684 23.3813 6.68435 23.3813 6.85742H23.5312ZM23.6777 6.49902L23.7843 6.60456C23.8497 6.53848 23.9391 6.50156 24.0322 6.50156V6.35156V6.20156C23.8598 6.20156 23.6935 6.2699 23.5711 6.39349L23.6777 6.49902Z" fill="#5E1DE1"/>
</g>
<defs>
<clipPath id="clip0_68_485">
<rect width="28" height="28" fill="white"/>
</clipPath>
</defs>
</svg>
