<svg width="40" height="40" viewBox="0 0 40 40" fill="none" xmlns="http://www.w3.org/2000/svg">
<g clip-path="url(#clip0_266_732)">
<g clip-path="url(#clip1_266_732)">
<path d="M23.2573 12.2807C24.4568 12.5147 25.5592 13.1014 26.4234 13.9655C27.2875 14.8297 27.8742 15.9321 28.1082 17.1316M23.2573 7.36841C25.7494 7.64526 28.0733 8.76125 29.8474 10.5332C31.6216 12.3051 32.7405 14.6275 33.0205 17.1193M31.7924 26.9193V30.6035C31.7938 30.9455 31.7237 31.2841 31.5867 31.5974C31.4497 31.9108 31.2487 32.1921 30.9967 32.4233C30.7447 32.6545 30.4472 32.8306 30.1232 32.9402C29.7992 33.0497 29.4559 33.0904 29.1152 33.0596C25.3362 32.649 21.7063 31.3577 18.517 29.2895C15.5497 27.404 13.0341 24.8883 11.1486 21.921C9.07309 18.7173 7.78148 15.0696 7.37838 11.2737C7.34769 10.9341 7.38805 10.5918 7.49689 10.2686C7.60572 9.9455 7.78066 9.64855 8.01054 9.39671C8.24043 9.14488 8.52024 8.94367 8.83215 8.80589C9.14407 8.66812 9.48125 8.5968 9.82224 8.59648H13.5064C14.1024 8.59061 14.6802 8.80166 15.1321 9.19029C15.584 9.57892 15.8792 10.1186 15.9626 10.7088C16.1181 11.8878 16.4065 13.0454 16.8222 14.1596C16.9875 14.5992 17.0232 15.0769 16.9253 15.5362C16.8273 15.9954 16.5998 16.417 16.2696 16.7509L14.71 18.3105C16.4582 21.385 19.0038 23.9307 22.0784 25.6789L23.638 24.1193C23.9719 23.7891 24.3935 23.5616 24.8527 23.4636C25.312 23.3657 25.7897 23.4014 26.2293 23.5667C27.3434 23.9824 28.5011 24.2708 29.6801 24.4263C30.2767 24.5105 30.8215 24.8109 31.211 25.2706C31.6004 25.7302 31.8074 26.317 31.7924 26.9193Z" stroke="white" stroke-width="1.57895" stroke-linecap="round" stroke-linejoin="round"/>
</g>
</g>
<defs>
<clipPath id="clip0_266_732">
<rect width="40" height="40" fill="white"/>
</clipPath>
<clipPath id="clip1_266_732">
<rect width="40" height="40" fill="white"/>
</clipPath>
</defs>
</svg>
