<svg width="113" height="63" viewBox="0 0 113 63" fill="none" xmlns="http://www.w3.org/2000/svg">
<path d="M57.5697 24.6505H63.7715V24.2313H63.5529C62.2408 24.2313 61.8034 23.882 61.8034 22.3277V13.246C61.8034 11.8925 62.1533 11.4995 63.4654 11.4558V11.0454H57.8321V11.4646H58.252C59.6078 11.4646 59.9839 11.9012 59.9839 13.0626V17.3764H52.2076V13.5691C52.2076 11.8837 52.47 11.4646 54.027 11.4646V11.0454H48.8136V11.4646C50.0207 11.5519 50.3881 11.8837 50.3881 13.0189V22.6508C50.3881 23.8995 49.9507 24.2488 48.6561 24.2488H48.5249V24.6679H54.027V24.2488H53.957C52.4875 24.2488 52.2076 23.7423 52.2076 22.3277V18.171H59.9839V22.6158C59.9839 23.751 59.6778 24.2575 58.252 24.2575H57.5697V24.6505Z" fill="#999999"/>
<path d="M107.919 10.7136H107.499C107.482 10.8446 107.386 10.9319 107.255 10.9755C107.123 11.0192 106.966 11.0454 106.817 11.0454H96.4078C96.2504 11.0454 96.1017 11.0279 95.9705 10.9755C95.8393 10.9319 95.7518 10.8446 95.7255 10.7136H95.3057L95.2969 11.0017L95.052 14.2589H95.4631C95.5856 12.2243 95.953 11.8313 96.9502 11.8313H100.747V22.5984C100.747 23.7336 100.44 24.2401 99.0145 24.2401H98.3322V24.6592H104.534V24.2313H104.315C103.003 24.2313 102.566 23.882 102.566 22.3277V11.8313H106.257C107.255 11.8313 107.377 12.2243 107.499 14.2589H107.911V11.0017L107.919 10.7136Z" fill="#999999"/>
<path d="M87.608 23.0525V12.9665C87.608 11.613 87.9841 11.4558 89.4012 11.4558H90.2147V11.0454H83.7504V11.4646H84.0566C85.4387 11.4646 85.7886 11.9448 85.7886 13.1063V22.7992C85.7886 23.917 85.4124 24.2401 84.4065 24.2401H83.6805V24.6592H93.4775L94.6758 21.9958H94.2122C93.46 23.3057 93.1538 23.8733 91.7018 23.8733H88.4827C87.8442 23.8646 87.608 23.6463 87.608 23.0525Z" fill="#999999"/>
<path d="M81.3362 11.4558V11.0454H76.2102V11.4558C78.0209 11.5432 78.3446 11.9099 78.3446 14.0057C78.3446 14.0057 78.3446 18.2671 78.3446 19.4198C78.3446 22.9389 76.0878 24.0392 74.1021 24.0392C72.029 24.0392 69.8597 22.4063 69.8597 19.4198C69.8597 18.2234 69.8597 13.0888 69.8597 13.0888C69.8597 11.8226 70.3845 11.4558 71.5829 11.4558H71.7753V11.0454H66.1683V11.4558C67.6553 11.482 68.0402 11.6916 68.0402 13.0888C68.0402 13.0888 68.0402 18.4068 68.0402 19.4896C68.0402 23.882 71.4779 25.1832 73.691 25.1832C77.6973 25.1832 79.3418 22.2141 79.3418 19.4896C79.3418 18.5989 79.3418 13.4556 79.3418 13.4556C79.3505 12.0671 79.8754 11.4733 81.3362 11.4558Z" fill="#999999"/>
<path d="M49.732 35.3206V31.1116H50.2568V35.3206H49.732Z" fill="#999999"/>
<path d="M54.9891 35.3206L52.5311 31.9587V35.3206H52.0063V31.1116H52.5398L54.9716 34.4037V31.1116H55.4964V35.3206H54.9891Z" fill="#999999"/>
<path d="M58.0332 35.3206V31.5744H56.6948V31.1116H59.8964V31.5744H58.558V35.3206H58.0332Z" fill="#999999"/>
<path d="M61.1035 35.3206V31.1116H63.8676V31.5744H61.6283V32.928H63.8239V33.3995H61.6283V34.8491H63.8676V35.3119H61.1035V35.3206Z" fill="#999999"/>
<path d="M67.9002 35.3206L66.833 33.644H65.9845V35.3206H65.4597V31.1116H67.1566C67.9264 31.1116 68.4862 31.6006 68.4862 32.3778C68.4862 33.1376 67.9614 33.548 67.3841 33.6004L68.5212 35.3206H67.9002ZM67.9352 32.3778C67.9352 31.8975 67.5853 31.5744 67.0867 31.5744H65.9758V33.1812H67.0867C67.594 33.1899 67.9352 32.8581 67.9352 32.3778Z" fill="#999999"/>
<path d="M73.0523 35.3206L70.5943 31.9587V35.3206H70.0695V31.1116H70.6031L73.0349 34.4037V31.1116H73.5597V35.3206H73.0523Z" fill="#999999"/>
<path d="M78.3095 35.3206L77.9334 34.3775H75.834L75.4666 35.3206H74.863L76.56 31.1116H77.2073L78.9043 35.3206H78.3095ZM76.8837 31.653L75.9914 33.9235H77.7847L76.8837 31.653Z" fill="#999999"/>
<path d="M80.715 35.3206V31.5744H79.3767V31.1116H82.5782V31.5744H81.2398V35.3206H80.715Z" fill="#999999"/>
<path d="M84.039 35.3206V31.1116H84.5638V35.3206H84.039Z" fill="#999999"/>
<path d="M86.0159 33.2249C86.0159 31.9849 86.8644 31.0505 88.1065 31.0505C89.3486 31.0505 90.2059 31.9849 90.2059 33.2249C90.2059 34.4649 89.3486 35.3992 88.1065 35.3992C86.8644 35.3992 86.0159 34.4649 86.0159 33.2249ZM89.6635 33.2249C89.6635 32.2381 89.0512 31.5133 88.1065 31.5133C87.1531 31.5133 86.5582 32.2381 86.5582 33.2249C86.5582 34.2029 87.1618 34.9364 88.1065 34.9364C89.0512 34.9277 89.6635 34.2029 89.6635 33.2249Z" fill="#999999"/>
<path d="M94.5183 35.3206L92.0603 31.9587V35.3206H91.5355V31.1116H92.0691L94.5008 34.4037V31.1116H95.0256V35.3206H94.5183Z" fill="#999999"/>
<path d="M99.653 35.3206L99.2768 34.3775H97.1775L96.8014 35.3206H96.1978L97.8948 31.1116H98.5421L100.239 35.3206H99.653ZM98.2272 31.653L97.3349 33.9235H99.1282L98.2272 31.653Z" fill="#999999"/>
<path d="M101.621 35.3206V31.1116H102.146V34.8578H104.105V35.3206H101.621Z" fill="#999999"/>
<path d="M49.732 43.6953V39.4863H51.6126C52.3474 39.4863 52.7935 39.9316 52.7935 40.5604C52.7935 41.093 52.4436 41.4423 52.05 41.5297C52.4961 41.5995 52.8722 42.0623 52.8722 42.5688C52.8722 43.2412 52.4261 43.704 51.6476 43.704L49.732 43.6953ZM52.2512 40.6302C52.2512 40.2547 51.9975 39.9491 51.5252 39.9491H50.2568V41.3026H51.5252C51.9975 41.3026 52.2512 41.0144 52.2512 40.6302ZM52.3387 42.4989C52.3387 42.1147 52.0762 41.7742 51.5602 41.7742H50.2655V43.2237H51.5602C52.0413 43.2237 52.3387 42.9443 52.3387 42.4989Z" fill="#999999"/>
<path d="M54.0969 42.0623V39.4863H54.6305V42.0536C54.6305 42.822 55.0416 43.3111 55.8201 43.3111C56.5986 43.3111 57.0185 42.822 57.0185 42.0536V39.4863H57.5521V42.0536C57.5521 43.1015 56.966 43.7739 55.8288 43.7739C54.6742 43.7739 54.0969 43.0928 54.0969 42.0623Z" fill="#999999"/>
<path d="M58.5318 43.1015L58.8467 42.6998C59.1178 43.0142 59.5727 43.3023 60.1675 43.3023C60.9198 43.3023 61.156 42.9006 61.156 42.5688C61.156 41.486 58.6542 42.0885 58.6542 40.5866C58.6542 39.888 59.2753 39.4077 60.1063 39.4077C60.7449 39.4077 61.2434 39.626 61.6021 40.0015L61.2872 40.3857C60.9723 40.0364 60.5262 39.8792 60.0626 39.8792C59.564 39.8792 59.1966 40.1499 59.1966 40.5516C59.1966 41.4947 61.6983 40.9533 61.6983 42.5251C61.6983 43.1277 61.2784 43.7651 60.1413 43.7651C59.424 43.7739 58.8817 43.4944 58.5318 43.1015Z" fill="#999999"/>
<path d="M63.1241 43.6953V39.4863H63.649V43.6953H63.1241Z" fill="#999999"/>
<path d="M68.3725 43.6953L65.9145 40.3333V43.6953H65.3897V39.4863H65.9233L68.355 42.7784V39.4863H68.8799V43.6953H68.3725Z" fill="#999999"/>
<path d="M70.5069 43.6953V39.4863H73.271V39.9491H71.0317V41.3026H73.2273V41.7742H71.0317V43.2237H73.271V43.6866H70.5069V43.6953Z" fill="#999999"/>
<path d="M74.6094 43.1015L74.9243 42.6998C75.1954 43.0142 75.6503 43.3023 76.2451 43.3023C76.9974 43.3023 77.2336 42.9006 77.2336 42.5688C77.2336 41.486 74.7318 42.0885 74.7318 40.5866C74.7318 39.888 75.3529 39.4077 76.1839 39.4077C76.8224 39.4077 77.321 39.626 77.6797 40.0015L77.3648 40.3857C77.0499 40.0364 76.6038 39.8792 76.1402 39.8792C75.6416 39.8792 75.2742 40.1499 75.2742 40.5516C75.2742 41.4947 77.7759 40.9533 77.7759 42.5251C77.7759 43.1277 77.356 43.7651 76.2189 43.7651C75.5016 43.7739 74.9593 43.4944 74.6094 43.1015Z" fill="#999999"/>
<path d="M78.9481 43.1015L79.263 42.6998C79.5341 43.0142 79.989 43.3023 80.5838 43.3023C81.3361 43.3023 81.5723 42.9006 81.5723 42.5688C81.5723 41.486 79.0705 42.0885 79.0705 40.5866C79.0705 39.888 79.6916 39.4077 80.5226 39.4077C81.1611 39.4077 81.6597 39.626 82.0184 40.0015L81.7035 40.3857C81.3886 40.0364 80.9424 39.8792 80.4788 39.8792C79.9802 39.8792 79.6128 40.1499 79.6128 40.5516C79.6128 41.4947 82.1146 40.9533 82.1146 42.5251C82.1146 43.1277 81.6947 43.7651 80.5576 43.7651C79.8403 43.7739 79.2979 43.4944 78.9481 43.1015Z" fill="#999999"/>
<path d="M85.561 43.1015L85.8759 42.6998C86.1471 43.0142 86.602 43.3023 87.1968 43.3023C87.9491 43.3023 88.1852 42.9006 88.1852 42.5688C88.1852 41.486 85.6835 42.0885 85.6835 40.5866C85.6835 39.888 86.3046 39.4077 87.1356 39.4077C87.7741 39.4077 88.2727 39.626 88.6313 40.0015L88.3164 40.3857C88.0015 40.0364 87.5554 39.8792 87.0918 39.8792C86.5932 39.8792 86.2258 40.1499 86.2258 40.5516C86.2258 41.4947 88.7276 40.9533 88.7276 42.5251C88.7276 43.1277 88.3077 43.7651 87.1705 43.7651C86.4533 43.7739 85.9109 43.4944 85.561 43.1015Z" fill="#999999"/>
<path d="M89.7335 41.5908C89.7335 40.2984 90.687 39.4164 91.9028 39.4164C92.6464 39.4164 93.1712 39.7657 93.5036 40.246L93.0662 40.4905C92.8301 40.1325 92.3839 39.8792 91.9028 39.8792C90.9756 39.8792 90.2758 40.5778 90.2758 41.5908C90.2758 42.5863 90.9756 43.3023 91.9028 43.3023C92.3839 43.3023 92.8301 43.0404 93.0662 42.6911L93.5124 42.9268C93.1625 43.4158 92.6551 43.7651 91.9028 43.7651C90.687 43.7739 89.7335 42.8832 89.7335 41.5908Z" fill="#999999"/>
<path d="M97.8073 43.6953V41.7654H95.3406V43.6953H94.8157V39.4863H95.3406V41.2939H97.8073V39.4863H98.3321V43.6953H97.8073Z" fill="#999999"/>
<path d="M99.653 41.5908C99.653 40.3508 100.501 39.4164 101.744 39.4164C102.986 39.4164 103.843 40.3508 103.843 41.5908C103.843 42.8308 102.986 43.7651 101.744 43.7651C100.501 43.7739 99.653 42.8308 99.653 41.5908ZM103.309 41.5908C103.309 40.604 102.697 39.8792 101.752 39.8792C100.799 39.8792 100.204 40.604 100.204 41.5908C100.204 42.5688 100.808 43.3023 101.752 43.3023C102.688 43.3023 103.309 42.5688 103.309 41.5908Z" fill="#999999"/>
<path d="M104.866 41.5908C104.866 40.3508 105.715 39.4164 106.957 39.4164C108.199 39.4164 109.056 40.3508 109.056 41.5908C109.056 42.8308 108.199 43.7651 106.957 43.7651C105.715 43.7739 104.866 42.8308 104.866 41.5908ZM108.523 41.5908C108.523 40.604 107.91 39.8792 106.966 39.8792C106.012 39.8792 105.417 40.604 105.417 41.5908C105.417 42.5688 106.021 43.3023 106.966 43.3023C107.91 43.3023 108.523 42.5688 108.523 41.5908Z" fill="#999999"/>
<path d="M110.316 43.6953V39.4863H110.841V43.2325H112.8V43.6953H110.316Z" fill="#999999"/>
<path d="M26.0182 6.76609V4.98468L21.2422 0.216797L16.4661 4.98468V6.76609H0.152344V33.5309C0.152344 44.4988 9.09212 53.4233 20.0788 53.4233H21.041V59.7805C21.041 61.1252 22.1344 62.2168 23.4815 62.2168V61.8238C22.3531 61.8238 21.4346 60.9069 21.4346 59.7805V53.4233H22.4056C33.3922 53.4233 42.332 44.4988 42.332 33.5309V6.76609H26.0182ZM21.4346 0.976515L25.6158 5.1506V13.7607L21.4346 17.9348V0.976515ZM21.041 28.4399V30.9548L19.0728 32.9196L15.0228 28.8853L18.2506 25.6543L21.041 28.4399ZM18.5392 25.3836L21.041 22.8861V27.881L18.5392 25.3836ZM21.041 31.5137V34.8757L19.3527 33.1903L21.041 31.5137ZM21.4346 31.5224L23.1141 33.1991L21.4346 34.8757V31.5224ZM21.4346 30.9723V28.4748L24.225 25.6892L27.444 28.9027L23.394 32.9371L21.4346 30.9723ZM21.4346 27.9072V22.8948L23.9451 25.401L21.4346 27.9072ZM21.041 22.3272L18.2593 25.1041L7.16771 14.0314H13.7719L21.041 21.2881V22.3272ZM17.9794 25.3836L14.7429 28.6145L6.86155 20.7641V14.2934L17.9794 25.3836ZM18.7929 33.1991L14.7167 37.2683L7.58758 30.1776V23.6109L13.0372 29.0512H14.6292L18.7929 33.1991ZM20.9885 44.0796L19.6764 45.3895H14.7604L8.31361 38.9537V33.0244L12.9934 37.6875H14.5679L20.9885 44.0796ZM14.9966 37.5565L19.0728 33.4872L21.041 35.4433V43.5819L14.9966 37.5565ZM21.4346 35.4433L23.394 33.4872L27.4703 37.5565L21.4259 43.5819V35.4433H21.4346ZM27.8989 37.6962H29.4734L34.1532 33.0331V38.9537L27.7064 45.3895H22.7992L21.4871 44.0796L27.8989 37.6962ZM27.7589 37.2771L23.6827 33.2078L27.8377 29.0599H29.4209L34.8968 23.6021V30.1602L27.7589 37.2771ZM27.7239 28.6145L24.5049 25.401L35.6053 14.3196V20.7467L27.7239 28.6145ZM24.225 25.1216L21.4346 22.336V21.2881L28.7036 14.0314H35.3341L24.225 25.1216ZM16.8598 5.1506L21.041 0.976515V17.9348L16.8598 13.752V5.1506ZM20.0788 53.0303C9.3108 53.0303 0.545974 44.2805 0.545974 33.5309V7.15905H16.4574V13.9179L21.041 18.4937V20.7379L13.9294 13.6385H6.46792V20.93L14.2268 28.6669H13.1946L7.19395 22.6591V30.3436L14.1743 37.2945H13.1596L7.91998 32.0726V39.1196L14.5942 45.7824H19.8338L21.041 44.5774V53.0216L20.0788 53.0303ZM41.9384 33.5309C41.9384 44.2805 33.1735 53.0303 22.4056 53.0303H21.4346V44.5861L22.633 45.7824H27.8726L34.5556 39.1196V32.0813L29.3072 37.3033H28.2925L35.2816 30.3348V22.6591L29.246 28.6757H28.2313L35.9989 20.93V13.6472H28.5462L21.4346 20.7467V18.5024L26.0095 13.9354V7.15905H41.9384V33.5309Z" fill="#999999"/>
<path d="M57.5697 24.6505H63.7715V24.2313H63.5529C62.2408 24.2313 61.8034 23.882 61.8034 22.3277V13.246C61.8034 11.8925 62.1533 11.4995 63.4654 11.4558V11.0454H57.8321V11.4646H58.252C59.6078 11.4646 59.9839 11.9012 59.9839 13.0626V17.3764H52.2076V13.5691C52.2076 11.8837 52.47 11.4646 54.027 11.4646V11.0454H48.8136V11.4646C50.0207 11.5519 50.3881 11.8837 50.3881 13.0189V22.6508C50.3881 23.8995 49.9507 24.2488 48.6561 24.2488H48.5249V24.6679H54.027V24.2488H53.957C52.4875 24.2488 52.2076 23.7423 52.2076 22.3277V18.171H59.9839V22.6158C59.9839 23.751 59.6778 24.2575 58.252 24.2575H57.5697V24.6505Z" stroke="#999999" stroke-width="0.305634" stroke-miterlimit="10"/>
<path d="M107.919 10.7136H107.499C107.482 10.8446 107.386 10.9319 107.255 10.9755C107.123 11.0192 106.966 11.0454 106.817 11.0454H96.4078C96.2504 11.0454 96.1017 11.0279 95.9705 10.9755C95.8393 10.9319 95.7518 10.8446 95.7255 10.7136H95.3057L95.2969 11.0017L95.052 14.2589H95.4631C95.5856 12.2243 95.953 11.8313 96.9502 11.8313H100.747V22.5984C100.747 23.7336 100.44 24.2401 99.0145 24.2401H98.3322V24.6592H104.534V24.2313H104.315C103.003 24.2313 102.566 23.882 102.566 22.3277V11.8313H106.257C107.255 11.8313 107.377 12.2243 107.499 14.2589H107.911V11.0017L107.919 10.7136Z" stroke="#999999" stroke-width="0.305634" stroke-miterlimit="10"/>
<path d="M87.608 23.0525V12.9665C87.608 11.613 87.9841 11.4558 89.4012 11.4558H90.2147V11.0454H83.7504V11.4646H84.0566C85.4387 11.4646 85.7886 11.9448 85.7886 13.1063V22.7992C85.7886 23.917 85.4124 24.2401 84.4065 24.2401H83.6805V24.6592H93.4775L94.6758 21.9958H94.2122C93.46 23.3057 93.1538 23.8733 91.7018 23.8733H88.4827C87.8442 23.8646 87.608 23.6463 87.608 23.0525Z" stroke="#999999" stroke-width="0.305634" stroke-miterlimit="10"/>
<path d="M81.3362 11.4558V11.0454H76.2102V11.4558C78.0209 11.5432 78.3446 11.9099 78.3446 14.0057C78.3446 14.0057 78.3446 18.2671 78.3446 19.4198C78.3446 22.9389 76.0878 24.0392 74.1021 24.0392C72.029 24.0392 69.8597 22.4063 69.8597 19.4198C69.8597 18.2234 69.8597 13.0888 69.8597 13.0888C69.8597 11.8226 70.3845 11.4558 71.5829 11.4558H71.7753V11.0454H66.1683V11.4558C67.6553 11.482 68.0402 11.6916 68.0402 13.0888C68.0402 13.0888 68.0402 18.4068 68.0402 19.4896C68.0402 23.882 71.4779 25.1832 73.691 25.1832C77.6973 25.1832 79.3418 22.2141 79.3418 19.4896C79.3418 18.5989 79.3418 13.4556 79.3418 13.4556C79.3505 12.0671 79.8754 11.4733 81.3362 11.4558Z" stroke="#999999" stroke-width="0.305634" stroke-miterlimit="10"/>
<path d="M49.732 35.3206V31.1116H50.2568V35.3206H49.732Z" stroke="#999999" stroke-width="0.305634" stroke-miterlimit="10"/>
<path d="M54.9891 35.3206L52.5311 31.9587V35.3206H52.0063V31.1116H52.5398L54.9716 34.4037V31.1116H55.4964V35.3206H54.9891Z" stroke="#999999" stroke-width="0.305634" stroke-miterlimit="10"/>
<path d="M58.0332 35.3206V31.5744H56.6948V31.1116H59.8964V31.5744H58.558V35.3206H58.0332Z" stroke="#999999" stroke-width="0.305634" stroke-miterlimit="10"/>
<path d="M61.1035 35.3206V31.1116H63.8676V31.5744H61.6283V32.928H63.8239V33.3995H61.6283V34.8491H63.8676V35.3119H61.1035V35.3206Z" stroke="#999999" stroke-width="0.305634" stroke-miterlimit="10"/>
<path d="M67.9002 35.3206L66.833 33.644H65.9845V35.3206H65.4597V31.1116H67.1566C67.9264 31.1116 68.4862 31.6006 68.4862 32.3778C68.4862 33.1376 67.9614 33.548 67.3841 33.6004L68.5212 35.3206H67.9002ZM67.9352 32.3778C67.9352 31.8975 67.5853 31.5744 67.0867 31.5744H65.9758V33.1812H67.0867C67.594 33.1899 67.9352 32.8581 67.9352 32.3778Z" stroke="#999999" stroke-width="0.305634" stroke-miterlimit="10"/>
<path d="M73.0523 35.3206L70.5943 31.9587V35.3206H70.0695V31.1116H70.6031L73.0349 34.4037V31.1116H73.5597V35.3206H73.0523Z" stroke="#999999" stroke-width="0.305634" stroke-miterlimit="10"/>
<path d="M78.3095 35.3206L77.9334 34.3775H75.834L75.4666 35.3206H74.863L76.56 31.1116H77.2073L78.9043 35.3206H78.3095ZM76.8837 31.653L75.9914 33.9235H77.7847L76.8837 31.653Z" stroke="#999999" stroke-width="0.305634" stroke-miterlimit="10"/>
<path d="M80.715 35.3206V31.5744H79.3767V31.1116H82.5782V31.5744H81.2398V35.3206H80.715Z" stroke="#999999" stroke-width="0.305634" stroke-miterlimit="10"/>
<path d="M84.039 35.3206V31.1116H84.5638V35.3206H84.039Z" stroke="#999999" stroke-width="0.305634" stroke-miterlimit="10"/>
<path d="M86.0159 33.2249C86.0159 31.9849 86.8644 31.0505 88.1065 31.0505C89.3486 31.0505 90.2059 31.9849 90.2059 33.2249C90.2059 34.4649 89.3486 35.3992 88.1065 35.3992C86.8644 35.3992 86.0159 34.4649 86.0159 33.2249ZM89.6635 33.2249C89.6635 32.2381 89.0512 31.5133 88.1065 31.5133C87.1531 31.5133 86.5582 32.2381 86.5582 33.2249C86.5582 34.2029 87.1618 34.9364 88.1065 34.9364C89.0512 34.9277 89.6635 34.2029 89.6635 33.2249Z" stroke="#999999" stroke-width="0.305634" stroke-miterlimit="10"/>
<path d="M94.5183 35.3206L92.0603 31.9587V35.3206H91.5355V31.1116H92.0691L94.5008 34.4037V31.1116H95.0256V35.3206H94.5183Z" stroke="#999999" stroke-width="0.305634" stroke-miterlimit="10"/>
<path d="M99.653 35.3206L99.2768 34.3775H97.1775L96.8014 35.3206H96.1978L97.8948 31.1116H98.5421L100.239 35.3206H99.653ZM98.2272 31.653L97.3349 33.9235H99.1282L98.2272 31.653Z" stroke="#999999" stroke-width="0.305634" stroke-miterlimit="10"/>
<path d="M101.621 35.3206V31.1116H102.146V34.8578H104.105V35.3206H101.621Z" stroke="#999999" stroke-width="0.305634" stroke-miterlimit="10"/>
<path d="M49.732 43.6953V39.4863H51.6126C52.3474 39.4863 52.7935 39.9316 52.7935 40.5604C52.7935 41.093 52.4436 41.4423 52.05 41.5297C52.4961 41.5995 52.8722 42.0623 52.8722 42.5688C52.8722 43.2412 52.4261 43.704 51.6476 43.704L49.732 43.6953ZM52.2512 40.6302C52.2512 40.2547 51.9975 39.9491 51.5252 39.9491H50.2568V41.3026H51.5252C51.9975 41.3026 52.2512 41.0144 52.2512 40.6302ZM52.3387 42.4989C52.3387 42.1147 52.0762 41.7742 51.5602 41.7742H50.2655V43.2237H51.5602C52.0413 43.2237 52.3387 42.9443 52.3387 42.4989Z" stroke="#999999" stroke-width="0.305634" stroke-miterlimit="10"/>
<path d="M54.0969 42.0623V39.4863H54.6305V42.0536C54.6305 42.822 55.0416 43.3111 55.8201 43.3111C56.5986 43.3111 57.0185 42.822 57.0185 42.0536V39.4863H57.5521V42.0536C57.5521 43.1015 56.966 43.7739 55.8288 43.7739C54.6742 43.7739 54.0969 43.0928 54.0969 42.0623Z" stroke="#999999" stroke-width="0.305634" stroke-miterlimit="10"/>
<path d="M58.5318 43.1015L58.8467 42.6998C59.1178 43.0142 59.5727 43.3023 60.1675 43.3023C60.9198 43.3023 61.156 42.9006 61.156 42.5688C61.156 41.486 58.6542 42.0885 58.6542 40.5866C58.6542 39.888 59.2753 39.4077 60.1063 39.4077C60.7449 39.4077 61.2434 39.626 61.6021 40.0015L61.2872 40.3857C60.9723 40.0364 60.5262 39.8792 60.0626 39.8792C59.564 39.8792 59.1966 40.1499 59.1966 40.5516C59.1966 41.4947 61.6983 40.9533 61.6983 42.5251C61.6983 43.1277 61.2784 43.7651 60.1413 43.7651C59.424 43.7739 58.8817 43.4944 58.5318 43.1015Z" stroke="#999999" stroke-width="0.305634" stroke-miterlimit="10"/>
<path d="M63.1241 43.6953V39.4863H63.649V43.6953H63.1241Z" stroke="#999999" stroke-width="0.305634" stroke-miterlimit="10"/>
<path d="M68.3725 43.6953L65.9145 40.3333V43.6953H65.3897V39.4863H65.9233L68.355 42.7784V39.4863H68.8799V43.6953H68.3725Z" stroke="#999999" stroke-width="0.305634" stroke-miterlimit="10"/>
<path d="M70.5069 43.6953V39.4863H73.271V39.9491H71.0317V41.3026H73.2273V41.7742H71.0317V43.2237H73.271V43.6866H70.5069V43.6953Z" stroke="#999999" stroke-width="0.305634" stroke-miterlimit="10"/>
<path d="M74.6094 43.1015L74.9243 42.6998C75.1954 43.0142 75.6503 43.3023 76.2451 43.3023C76.9974 43.3023 77.2336 42.9006 77.2336 42.5688C77.2336 41.486 74.7318 42.0885 74.7318 40.5866C74.7318 39.888 75.3529 39.4077 76.1839 39.4077C76.8224 39.4077 77.321 39.626 77.6797 40.0015L77.3648 40.3857C77.0499 40.0364 76.6038 39.8792 76.1402 39.8792C75.6416 39.8792 75.2742 40.1499 75.2742 40.5516C75.2742 41.4947 77.7759 40.9533 77.7759 42.5251C77.7759 43.1277 77.356 43.7651 76.2189 43.7651C75.5016 43.7739 74.9593 43.4944 74.6094 43.1015Z" stroke="#999999" stroke-width="0.305634" stroke-miterlimit="10"/>
<path d="M78.9481 43.1015L79.263 42.6998C79.5341 43.0142 79.989 43.3023 80.5838 43.3023C81.3361 43.3023 81.5723 42.9006 81.5723 42.5688C81.5723 41.486 79.0705 42.0885 79.0705 40.5866C79.0705 39.888 79.6916 39.4077 80.5226 39.4077C81.1611 39.4077 81.6597 39.626 82.0184 40.0015L81.7035 40.3857C81.3886 40.0364 80.9424 39.8792 80.4788 39.8792C79.9802 39.8792 79.6128 40.1499 79.6128 40.5516C79.6128 41.4947 82.1146 40.9533 82.1146 42.5251C82.1146 43.1277 81.6947 43.7651 80.5576 43.7651C79.8403 43.7739 79.2979 43.4944 78.9481 43.1015Z" stroke="#999999" stroke-width="0.305634" stroke-miterlimit="10"/>
<path d="M85.561 43.1015L85.8759 42.6998C86.1471 43.0142 86.602 43.3023 87.1968 43.3023C87.9491 43.3023 88.1852 42.9006 88.1852 42.5688C88.1852 41.486 85.6835 42.0885 85.6835 40.5866C85.6835 39.888 86.3046 39.4077 87.1356 39.4077C87.7741 39.4077 88.2727 39.626 88.6313 40.0015L88.3164 40.3857C88.0015 40.0364 87.5554 39.8792 87.0918 39.8792C86.5932 39.8792 86.2258 40.1499 86.2258 40.5516C86.2258 41.4947 88.7276 40.9533 88.7276 42.5251C88.7276 43.1277 88.3077 43.7651 87.1705 43.7651C86.4533 43.7739 85.9109 43.4944 85.561 43.1015Z" stroke="#999999" stroke-width="0.305634" stroke-miterlimit="10"/>
<path d="M89.7335 41.5908C89.7335 40.2984 90.687 39.4164 91.9028 39.4164C92.6464 39.4164 93.1712 39.7657 93.5036 40.246L93.0662 40.4905C92.8301 40.1325 92.3839 39.8792 91.9028 39.8792C90.9756 39.8792 90.2758 40.5778 90.2758 41.5908C90.2758 42.5863 90.9756 43.3023 91.9028 43.3023C92.3839 43.3023 92.8301 43.0404 93.0662 42.6911L93.5124 42.9268C93.1625 43.4158 92.6551 43.7651 91.9028 43.7651C90.687 43.7739 89.7335 42.8832 89.7335 41.5908Z" stroke="#999999" stroke-width="0.305634" stroke-miterlimit="10"/>
<path d="M97.8073 43.6953V41.7654H95.3406V43.6953H94.8157V39.4863H95.3406V41.2939H97.8073V39.4863H98.3321V43.6953H97.8073Z" stroke="#999999" stroke-width="0.305634" stroke-miterlimit="10"/>
<path d="M99.653 41.5908C99.653 40.3508 100.501 39.4164 101.744 39.4164C102.986 39.4164 103.843 40.3508 103.843 41.5908C103.843 42.8308 102.986 43.7651 101.744 43.7651C100.501 43.7739 99.653 42.8308 99.653 41.5908ZM103.309 41.5908C103.309 40.604 102.697 39.8792 101.752 39.8792C100.799 39.8792 100.204 40.604 100.204 41.5908C100.204 42.5688 100.808 43.3023 101.752 43.3023C102.688 43.3023 103.309 42.5688 103.309 41.5908Z" stroke="#999999" stroke-width="0.305634" stroke-miterlimit="10"/>
<path d="M104.866 41.5908C104.866 40.3508 105.715 39.4164 106.957 39.4164C108.199 39.4164 109.056 40.3508 109.056 41.5908C109.056 42.8308 108.199 43.7651 106.957 43.7651C105.715 43.7739 104.866 42.8308 104.866 41.5908ZM108.523 41.5908C108.523 40.604 107.91 39.8792 106.966 39.8792C106.012 39.8792 105.417 40.604 105.417 41.5908C105.417 42.5688 106.021 43.3023 106.966 43.3023C107.91 43.3023 108.523 42.5688 108.523 41.5908Z" stroke="#999999" stroke-width="0.305634" stroke-miterlimit="10"/>
<path d="M110.316 43.6953V39.4863H110.841V43.2325H112.8V43.6953H110.316Z" stroke="#999999" stroke-width="0.305634" stroke-miterlimit="10"/>
<path d="M26.0182 6.76609V4.98468L21.2422 0.216797L16.4661 4.98468V6.76609H0.152344V33.5309C0.152344 44.4988 9.09212 53.4233 20.0788 53.4233H21.041V59.7805C21.041 61.1252 22.1344 62.2168 23.4815 62.2168V61.8238C22.3531 61.8238 21.4346 60.9069 21.4346 59.7805V53.4233H22.4056C33.3922 53.4233 42.332 44.4988 42.332 33.5309V6.76609H26.0182ZM21.4346 0.976515L25.6158 5.1506V13.7607L21.4346 17.9348V0.976515ZM21.041 28.4399V30.9548L19.0728 32.9196L15.0228 28.8853L18.2506 25.6543L21.041 28.4399ZM18.5392 25.3836L21.041 22.8861V27.881L18.5392 25.3836ZM21.041 31.5137V34.8757L19.3527 33.1903L21.041 31.5137ZM21.4346 31.5224L23.1141 33.1991L21.4346 34.8757V31.5224ZM21.4346 30.9723V28.4748L24.225 25.6892L27.444 28.9027L23.394 32.9371L21.4346 30.9723ZM21.4346 27.9072V22.8948L23.9451 25.401L21.4346 27.9072ZM21.041 22.3272L18.2593 25.1041L7.16771 14.0314H13.7719L21.041 21.2881V22.3272ZM17.9794 25.3836L14.7429 28.6145L6.86155 20.7641V14.2934L17.9794 25.3836ZM18.7929 33.1991L14.7167 37.2683L7.58758 30.1776V23.6109L13.0372 29.0512H14.6292L18.7929 33.1991ZM20.9885 44.0796L19.6764 45.3895H14.7604L8.31361 38.9537V33.0244L12.9934 37.6875H14.5679L20.9885 44.0796ZM14.9966 37.5565L19.0728 33.4872L21.041 35.4433V43.5819L14.9966 37.5565ZM21.4346 35.4433L23.394 33.4872L27.4703 37.5565L21.4259 43.5819V35.4433H21.4346ZM27.8989 37.6962H29.4734L34.1532 33.0331V38.9537L27.7064 45.3895H22.7992L21.4871 44.0796L27.8989 37.6962ZM27.7589 37.2771L23.6827 33.2078L27.8377 29.0599H29.4209L34.8968 23.6021V30.1602L27.7589 37.2771ZM27.7239 28.6145L24.5049 25.401L35.6053 14.3196V20.7467L27.7239 28.6145ZM24.225 25.1216L21.4346 22.336V21.2881L28.7036 14.0314H35.3341L24.225 25.1216ZM16.8598 5.1506L21.041 0.976515V17.9348L16.8598 13.752V5.1506ZM20.0788 53.0303C9.3108 53.0303 0.545974 44.2805 0.545974 33.5309V7.15905H16.4574V13.9179L21.041 18.4937V20.7379L13.9294 13.6385H6.46792V20.93L14.2268 28.6669H13.1946L7.19395 22.6591V30.3436L14.1743 37.2945H13.1596L7.91998 32.0726V39.1196L14.5942 45.7824H19.8338L21.041 44.5774V53.0216L20.0788 53.0303ZM41.9384 33.5309C41.9384 44.2805 33.1735 53.0303 22.4056 53.0303H21.4346V44.5861L22.633 45.7824H27.8726L34.5556 39.1196V32.0813L29.3072 37.3033H28.2925L35.2816 30.3348V22.6591L29.246 28.6757H28.2313L35.9989 20.93V13.6472H28.5462L21.4346 20.7467V18.5024L26.0095 13.9354V7.15905H41.9384V33.5309Z" stroke="#999999" stroke-width="0.305634" stroke-miterlimit="10"/>
</svg>
