<svg width="100" height="34" viewBox="0 0 100 34" fill="none" xmlns="http://www.w3.org/2000/svg">
<path d="M97.5845 27.1774C97.5845 30.9452 94.6296 34 90.9851 34C87.3406 34 84.3857 30.9452 84.3857 27.1774C84.3857 23.4095 87.3406 20.3547 90.9851 20.3547C94.6296 20.3547 97.5845 23.4095 97.5845 27.1774ZM90.5502 22.8179C86.9697 23.204 85.7037 28.4696 88.5892 30.7038C91.8042 33.1932 96.105 29.8529 94.9138 25.9582C94.3628 24.157 92.4085 22.6165 90.5502 22.8165V22.8179Z" fill="#999999"/>
<path d="M44.0211 20.7174C46.6251 20.5864 49.3732 20.1037 51.6143 21.7642C55.463 24.6149 54.8987 32.0209 50.1869 33.5049C48.6008 34.0041 45.9861 34.1186 44.3573 33.8166C44.1799 33.7835 44.0438 33.7104 43.9531 33.5449L44.0198 20.7174H44.0211ZM46.9079 23.073C46.7492 23.1185 46.7158 23.2592 46.6905 23.4068C46.6278 23.7805 46.5731 24.6342 46.5518 25.0562C46.449 27.0312 46.7639 28.9992 46.7092 30.9728C46.8172 31.3162 47.9058 31.2238 48.2313 31.2045C49.9041 31.1093 50.9286 30.5411 51.3996 28.8254C51.8785 27.0808 51.5837 24.6025 49.8494 23.7267C49.4466 23.5226 47.2161 22.9834 46.9079 23.073Z" fill="#999999"/>
<path d="M71.9034 31.061C72.0341 31.0169 72.1928 31.199 72.2369 31.199H75.1717C75.5839 31.199 75.2584 33.3353 75.161 33.6966C74.9009 33.891 69.5408 33.9159 69.3874 33.6607C69.2673 30.0184 69.4808 26.354 69.3741 22.7103C69.3647 22.3876 68.9965 20.7161 69.4354 20.7161H71.9034V31.061Z" fill="#999999"/>
<path d="M81.1147 20.7174H78.428V33.8304H81.1147V20.7174Z" fill="#999999"/>
<path d="M58.8634 31.0969C58.5472 31.4113 57.9416 33.4235 57.6307 33.6125C57.396 33.7559 55.3282 33.7807 55.2282 33.6814L55.2575 33.2291L59.8305 20.9919C60.0933 20.6775 62.3331 20.4582 62.5466 21.2195C64.2648 25.2217 65.7215 29.3619 67.221 33.4621C67.1743 33.6621 65.7389 33.8138 65.428 33.8235C64.1247 33.8648 64.3782 31.8554 63.5418 31.2238L59.429 30.9204C59.2596 30.9176 58.9861 30.9742 58.8647 31.0955L58.8634 31.0969ZM59.8305 28.4407C60.2961 28.562 61.7595 28.4407 62.3652 28.4407C62.5012 28.4407 62.8627 28.7965 62.8094 28.1262L61.2966 24.5777C61.0658 24.5473 61.0325 24.7528 60.9564 24.9156C60.6803 25.5017 60.4775 26.4106 60.2294 27.0601C60.104 27.387 59.7491 27.8945 59.6878 28.1607C59.6558 28.2986 59.7465 28.42 59.8305 28.442V28.4407Z" fill="#999999"/>
<path d="M2.60133 33.6814C2.17444 33.5435 2.52929 32.4319 2.53996 32.1009C2.65469 28.3896 2.42791 24.6563 2.5533 20.9436L2.86813 20.7175C4.18213 20.7437 5.5495 20.5588 6.8555 20.7326C9.98376 21.1477 11.1097 25.0218 8.87653 27.2063C8.49233 27.5828 7.74262 27.7842 7.72261 28.3772C8.45765 29.7784 9.39546 31.1424 10.0731 32.5767C10.2439 32.9381 10.4667 33.2525 10.404 33.6828H8.06945C8.02943 33.6828 7.74262 33.3504 7.68125 33.2566C6.83816 31.9727 6.26586 29.7964 5.31204 28.5344C5.19598 28.38 5.17998 28.249 4.93452 28.3041V33.4759C4.93452 33.4911 4.74909 33.6828 4.73442 33.6828C4.27418 33.6828 2.90548 33.7807 2.59999 33.6828L2.60133 33.6814ZM5.07592 23.2082C5.00655 24.2853 4.38357 25.9251 5.93369 25.8217C6.9182 25.7555 7.89736 25.1873 7.54385 24.0205C7.22635 22.9751 5.89367 23.1958 5.07592 23.2082Z" fill="#999999"/>
<path d="M28.2811 27.958C28.2544 27.8076 27.7515 26.6726 27.6394 26.4147C26.8257 24.5597 25.6091 22.7434 24.8127 20.8567C25.561 21.0319 26.751 20.4568 27.3873 20.8485C27.5447 20.945 28.9254 23.7902 29.1042 24.2094C29.3083 24.6894 29.2202 25.321 29.8072 25.139C29.8913 25.1128 30.3221 23.7267 30.4529 23.4468C30.6316 23.0648 31.8576 20.7174 32.0817 20.7174H34.4162C33.8719 22.9006 32.3752 24.8549 31.5201 26.8946C30.5703 29.1592 31.1212 31.2996 30.8144 33.6814H28.4799C28.4652 33.6814 28.2798 33.4897 28.2798 33.4745V27.958H28.2811Z" fill="#999999"/>
<path d="M12.8065 33.8193L17.601 20.9533C17.8504 20.6319 18.7536 20.6912 19.1484 20.7119C20.0182 20.7574 20.0943 20.774 20.4744 21.5477C21.6524 23.9502 22.9024 27.8421 23.8455 30.4749C23.9989 30.9024 24.9621 33.5242 24.8127 33.6814C24.3231 33.5118 22.8583 33.9131 22.5462 33.7573C21.9792 33.4732 22.0206 31.5658 21.2522 31.2265C19.8968 31.3658 18.3107 30.8776 17.002 31.0555C15.8387 31.2141 15.9908 33.8207 14.7409 33.8207H12.8065V33.8193ZM20.4104 28.4407C20.3184 27.1374 19.5153 25.9361 19.1845 24.6742L18.7442 24.4398L17.3422 28.4407H20.4104Z" fill="#999999"/>
<path d="M27.7475 0.444006C28.4198 0.61502 29.6845 0.0247453 30.2261 0.432973L35.286 8.44443C35.5782 8.54924 35.4954 8.12998 35.4901 7.95621C35.4794 7.56316 35.3567 7.22802 35.3447 6.86393C35.2753 4.73039 35.4074 2.57892 35.35 0.445385H37.8847V13.2714H35.5501C33.7332 10.5462 32.1711 7.62246 30.2141 4.99795C29.9926 5.10966 30.2808 5.40203 30.2808 5.47927V13.4094H27.9463C27.9316 13.4094 27.7462 13.2177 27.7462 13.2025V0.444006H27.7475Z" fill="#999999"/>
<path d="M52.8723 3.23402C52.8363 3.28643 52.951 3.42296 52.7723 3.61466C51.6904 4.76901 51.3088 3.68362 50.295 3.13196C49.0063 2.42998 47.723 2.21069 46.3543 2.7858C42.0561 4.59523 43.3168 11.6537 48.7555 11.2C49.3519 11.1503 50.2363 10.6731 50.7659 10.3214C51.1248 10.0829 51.4796 9.40018 52.0639 9.56843C52.26 9.62498 53.2965 10.8359 53.3459 11.0248C53.5033 11.6303 51.5516 12.7763 51.0287 12.9984C47.3028 14.5871 43.0286 13.2535 41.7173 9.10366C39.8097 3.06576 45.646 -1.80952 51.0927 0.652257C51.5156 0.843958 53.2432 2.07416 53.3432 2.47273C53.4673 2.96922 52.9897 3.06576 52.8736 3.23402H52.8723Z" fill="#999999"/>
<path d="M89.5123 2.78855H85.1101L84.9767 5.1331H89.5123V7.47765H85.1101C85.0581 8.12447 85.1314 8.83611 85.1101 9.46776C85.1034 9.69394 84.7619 10.9255 85.1755 10.9255H89.511V13.2701H82.7075L82.5741 0.306091H89.3109C89.3256 0.306091 89.511 0.497792 89.511 0.512963V2.78855H89.5123Z" fill="#999999"/>
<path d="M98.8104 3.15954C97.5404 4.22976 97.3257 2.44101 95.985 2.50445C95.6782 2.51962 94.8391 2.88234 94.8711 3.24643C94.9484 4.1277 98.2568 6.47777 98.9825 7.41283C100.024 8.75474 100.346 10.0153 99.5708 11.5999C98.3368 14.1238 94.5629 14.3334 92.9141 12.1695C92.5819 11.7337 92.007 10.9972 92.4512 10.4456C92.6193 10.2373 93.9626 9.47741 94.2334 9.53671C94.3095 9.55326 94.807 10.6138 95.1205 10.8552C95.9743 11.513 97.6378 11.1545 97.5178 9.90633C97.3724 8.39478 93.8559 6.53018 93.0075 4.76487C91.7828 2.21483 94.0387 -0.295217 96.6173 0.0674988C97.4044 0.177831 99.7576 1.30321 99.5014 2.27689C99.4868 2.33206 98.8598 3.12093 98.8118 3.16092L98.8104 3.15954Z" fill="#999999"/>
<path d="M76.0388 0.306091V10.9255H79.5072L79.3738 13.408L73.6376 13.2701V0.444006H75.5719C75.6386 0.444006 75.852 0.226101 76.0388 0.306091Z" fill="#999999"/>
<path d="M59.2356 0.300575H56.6956V13.4094H59.2356V0.300575Z" fill="#999999"/>
<path d="M23.7454 0.444006H21.3442V13.2701H23.7454V0.444006Z" fill="#999999"/>
<path d="M10.2719 0.306091C12.9439 0.892228 16.5831 -0.744818 17.5703 2.89751C18.1399 5.0007 17.3208 6.79635 15.3385 7.54936L18.2186 13.1253C18.3053 13.2797 18.2907 13.3818 18.1439 13.4783C18.0359 13.55 15.8441 13.3983 15.6133 13.1956L13.1921 8.25135L12.6731 8.02931V13.2701H10.2719V0.306091ZM12.6731 2.99543C12.5771 3.31539 12.6731 4.7235 12.6731 5.20206C12.6731 5.48754 15.3532 5.82267 15.3532 4.09874C15.3532 2.35274 12.7732 2.65891 12.6731 2.99543Z" fill="#999999"/>
<path d="M63.4324 13.408L63.0975 0.304712C66.1671 0.568129 70.6721 -0.491055 70.7134 4.09874C70.7374 6.79773 68.579 7.69969 66.3672 7.86243C66.1457 7.87898 65.8709 7.61694 65.6948 7.8845C65.4627 8.24583 65.7362 12.0868 65.6415 12.9322C65.6255 13.0715 65.5801 13.408 65.4347 13.408H63.4324ZM65.7669 5.40893C66.8701 5.45996 68.3802 5.51926 68.3095 3.96221C68.2495 2.64374 66.6954 2.7389 65.7669 2.78855V5.40893Z" fill="#999999"/>
<path d="M2.40123 13.2701H0V0.306091C0.775062 0.326778 1.55679 0.27575 2.33319 0.30747C3.29235 0.346086 5.31871 0.45366 6.0711 0.994285C7.60255 2.09484 7.76796 4.96209 6.67007 6.44191C5.65222 7.81416 3.93534 7.82933 2.40123 7.89001V13.2701ZM2.40123 2.78855V5.06414C2.40123 5.59649 4.06341 5.38962 4.43293 5.23378C5.08793 4.95933 5.19598 3.76775 4.86381 3.20781C4.48896 2.57479 3.03622 2.84372 2.40123 2.78855Z" fill="#999999"/>
</svg>
