<svg width="105" height="24" viewBox="0 0 105 24" fill="none" xmlns="http://www.w3.org/2000/svg">
<g clip-path="url(#clip0_62_3175)">
<path d="M20.5466 21.0393H17.0891V16.171C17.0891 11.018 9.29555 6.00728 4.13765 11.6158C5.38462 9.67987 8.19028 7.57311 11.5628 7.57311C16.8624 7.57311 20.3765 11.9859 20.5466 16.2279V21.0393ZM20.5466 12.8685C19.6397 10.7902 18.6194 9.73681 17.0891 8.56955V2.93254H20.5466V12.8685ZM6.12146 8.59802C4.61943 9.76528 3.57085 10.8187 2.66397 12.897V2.93254H6.12146V8.59802ZM2.66397 16.2279C3.11741 9.79375 10.4008 8.22792 13.9717 11.7012C10.4292 9.96457 6.12146 12.6123 6.12146 16.6265V21.0962H2.66397V16.2279ZM23.2105 0.341797H0V23.6585H23.2105V0.341797Z" fill="#999999"/>
<path d="M96.3848 23.6556V9.07907H96.4415L101.514 23.6556H105V0.310387H101.401V13.6627H101.344L96.4982 0.310387H92.7857V23.6556H96.3848ZM79.9193 18.5026H84.2836L84.9921 23.684H88.8464L84.567 0.338857H79.6359L75.3565 23.684H79.2108L79.9193 18.5026ZM82.0731 4.97943H82.1298L83.7168 15.0008H80.4861L82.0731 4.97943ZM65.3241 15.0008H67.8747V17.2499C67.8747 19.5844 67.3079 20.4954 65.6925 20.4954C64.3039 20.4954 63.8221 19.5275 63.8221 18.047V6.03281C63.8221 4.06839 64.6156 3.47053 65.5792 3.47053C67.1662 3.47053 67.8747 4.38156 67.8747 7.85487H71.6723V6.37444C71.6723 2.87266 69.6885 -0.03125 65.6925 -0.03125C61.7533 -0.03125 59.8261 2.64491 59.8261 5.9474V17.9616C59.8261 21.6912 62.0083 23.9403 65.1824 23.9403C67.0529 23.9403 68.0164 23.2855 69.2067 21.862L69.9436 23.5986H71.8707V11.8406H65.3241V15.0008ZM48.065 6.06128C48.065 4.32462 48.5751 3.47053 50.1905 3.47053C51.8059 3.47053 52.316 4.32462 52.316 6.06128V17.9047C52.316 19.6413 51.8059 20.4954 50.1905 20.4954C48.5751 20.4954 48.065 19.6413 48.065 17.9047V6.06128ZM44.0691 17.9901C44.0691 21.2926 45.9962 23.9687 50.1905 23.9687C54.3849 23.9687 56.312 21.2926 56.312 17.9901V5.97587C56.312 2.67338 54.3849 -0.00278025 50.1905 -0.00278025C45.9962 -0.00278025 44.0691 2.67338 44.0691 5.97587V17.9901ZM31.6278 23.6556V13.3211H35.8788V23.6556H39.8747V0.310387H35.8788V9.81928H31.6278V0.310387H27.6602V23.6556H31.6278Z" fill="#999999"/>
</g>
<defs>
<clipPath id="clip0_62_3175">
<rect width="105" height="24" fill="white"/>
</clipPath>
</defs>
</svg>
