<svg width="59" height="59" viewBox="0 0 59 59" fill="none" xmlns="http://www.w3.org/2000/svg">
<g clip-path="url(#clip0_62_3180)">
<path d="M38.4989 22.0586C37.5634 22.0586 36.8355 22.7865 36.7305 23.827H39.9571C39.9571 22.8915 39.4368 22.0586 38.4989 22.0586Z" fill="#999999"/>
<path d="M28.4086 14.0476C29.0339 14.0476 29.6567 13.6299 29.9694 13.0071V10.4058C29.6567 9.78047 29.0339 9.36523 28.4086 9.36523C27.263 9.36523 26.5352 10.4058 26.5352 11.7589C26.5352 13.1121 27.263 14.0476 28.4086 14.0476Z" fill="#999999"/>
<path d="M28.8231 35.0684C27.7826 35.0684 27.0547 36.0039 27.0547 37.357C27.0547 38.7102 27.7826 39.6457 28.8231 39.6457C29.8636 39.6457 30.5915 38.7078 30.5915 37.357C30.5915 36.0063 29.8636 35.0684 28.8231 35.0684Z" fill="#999999"/>
<path d="M16.1267 11.6539C16.1267 10.3007 15.3988 9.36523 14.3583 9.36523C13.3177 9.36523 12.5898 10.3007 12.5898 11.6539C12.5898 13.1121 13.3177 13.9426 14.3583 13.9426C15.3988 13.9426 16.1267 13.0071 16.1267 11.6539Z" fill="#999999"/>
<path d="M35.6903 35.0684C34.6498 35.0684 33.9219 36.0039 33.9219 37.357C33.9219 38.7102 34.6498 39.6457 35.6903 39.6457C36.7308 39.6457 37.4587 38.7078 37.4587 37.357C37.4587 36.0063 36.7308 35.0684 35.6903 35.0684Z" fill="#999999"/>
<path d="M35.4833 13.9445C36.5238 13.9445 37.2517 13.009 37.2517 11.6559C37.2517 10.3027 36.5213 9.36719 35.4833 9.36719C34.4452 9.36719 33.7148 10.3027 33.7148 11.6559C33.7148 13.009 34.4427 13.9445 35.4833 13.9445Z" fill="#999999"/>
<path d="M9.05357 23.7246H7.28516V26.6386H8.95098C10.0965 26.6386 10.8244 26.1183 10.8244 25.1804C10.8244 24.2424 10.1991 23.7246 9.05601 23.7246H9.05357Z" fill="#999999"/>
<path d="M0 0V59H59V49.8428H5.93053V48.6973H58.9976V0H0ZM35.483 8.22165C37.2515 8.22165 38.4996 9.57483 38.4996 11.6559C38.4996 13.7369 37.2515 15.0901 35.483 15.0901C33.7146 15.0901 32.464 13.7369 32.464 11.6559C32.464 9.57483 33.7122 8.22165 35.483 8.22165ZM38.7097 26.7436C39.2299 26.7436 39.7502 26.536 40.2705 26.2233H40.3755L40.7907 27.1588H40.6881C39.9603 27.6791 39.2324 27.8867 38.502 27.8867C36.6311 27.8867 35.3805 26.5335 35.3805 24.4525C35.3805 22.2664 36.9413 21.0182 38.3995 21.0182C39.2324 21.0182 39.8552 21.2258 40.2705 21.7461C40.8958 22.474 41.2084 23.5145 40.9983 24.7651H36.6286C36.7312 26.0132 37.5641 26.7411 38.7097 26.7411V26.7436ZM5.93053 5.93053H7.28371V13.7345H10.9256V14.9827H5.93053V5.93053ZM8.74192 40.7907C7.70139 40.7907 6.34821 40.1654 5.62033 39.4375L6.34821 38.502C6.9735 39.1249 7.909 39.6476 8.74192 39.6476C9.88748 39.6476 10.5103 39.1273 10.5103 38.2944C10.5103 37.4615 9.99006 37.1489 9.15715 36.8362L7.80397 36.316C7.17868 36.1083 6.03556 35.3805 6.03556 33.9223C6.03556 32.464 7.18112 31.4235 8.8445 31.4235C9.88503 31.4235 10.8205 31.8387 11.5509 32.5691L10.823 33.5046C10.1977 32.8817 9.57483 32.5691 8.84695 32.5691C7.80642 32.5691 7.28615 33.0893 7.28615 33.8172C7.28615 34.6501 8.01403 34.9628 8.63933 35.2754L9.99251 35.7957C10.8254 36.2134 11.7609 36.8362 11.7609 38.2944C11.7609 39.7526 10.5128 40.7932 8.74436 40.7932L8.74192 40.7907ZM8.94953 27.7841H5.93053V18.732H8.42683C10.4029 18.732 11.4458 19.6675 11.4458 21.2283C11.4458 22.0612 11.0282 22.684 10.3003 22.9967V23.2043C11.756 23.517 11.9637 24.5575 11.9637 25.1803C11.9637 26.8462 10.8181 27.7817 8.94709 27.7817L8.94953 27.7841ZM11.3432 11.6534C11.3432 9.57239 12.5914 8.21921 14.3622 8.21921C16.1331 8.21921 17.3788 9.67497 17.3788 11.6534C17.3788 13.7345 16.1307 15.0877 14.3622 15.0877C12.5938 15.0877 11.3432 13.7345 11.3432 11.6534ZM15.9206 40.6857C14.0472 40.6857 12.799 39.3325 12.799 37.2515C12.799 36.2109 13.1117 35.2754 13.7345 34.6501C14.2548 34.0273 15.0877 33.7146 15.9206 33.7146C16.6485 33.7146 17.2738 34.0273 17.8966 34.5475L17.2713 35.483C16.9587 35.1728 16.5434 34.9628 16.0232 34.9628C14.775 34.9628 14.0472 35.9007 14.0472 37.2515C14.0472 38.7097 14.775 39.5401 15.9206 39.5401C16.5459 39.5401 17.0662 39.3325 17.5864 38.9148L18.1067 39.8528C17.4814 40.3731 16.6485 40.6857 15.9206 40.6857ZM18.5219 27.7841H17.4814V26.9512C16.8561 27.5765 16.1282 27.8867 15.4003 27.8867C13.9421 27.8867 13.2142 27.0538 13.2142 25.493V21.2258H14.4624V25.2829C14.4624 26.2184 14.5674 26.7387 15.5029 26.7387C16.2308 26.7387 16.9587 26.2184 17.2713 25.6982V21.2234H18.5195V27.7792L18.5219 27.7841ZM18.7295 8.42927H19.7701V9.26218C20.3954 8.63689 21.1232 8.32668 21.8511 8.32668C23.3093 8.32668 24.0372 9.15959 24.0372 10.7204V14.9875H22.7891V10.928C22.7891 9.99251 22.6865 9.47224 21.7485 9.47224C21.0207 9.47224 20.2903 9.99251 19.9801 10.5128V14.9875H18.732V8.43171L18.7295 8.42927ZM24.4525 36.316V40.5831H23.2043V36.526C23.2043 35.5881 23.1017 35.0678 22.1638 35.0678C21.4359 35.0678 20.7056 35.5881 20.3954 36.1083V40.5831H19.1472V31.7386L20.3954 31.1158V34.7576C21.0207 34.2373 21.6435 33.9247 22.3714 33.9247C23.8272 33.9247 24.5575 34.7576 24.4525 36.3184V36.316ZM24.5575 26.0132C24.5575 26.9487 23.8296 27.9917 22.1638 27.9917C21.3309 27.9917 20.3954 27.574 19.6675 27.0562L20.5004 26.0157C20.9156 26.4334 21.646 26.8486 22.3738 26.8486C23.1017 26.8486 23.5194 26.4334 23.5194 25.9131C23.5194 25.2878 22.8941 25.0802 22.2712 24.8726L22.1687 24.7675C21.3357 24.4549 20.1926 24.0397 20.1926 22.7915C20.1926 21.646 21.1281 20.9181 22.4813 20.9181C23.4168 20.9181 24.2497 21.4383 24.5624 21.751L23.9371 22.6865C23.5218 22.3738 23.0016 22.0612 22.4813 22.0612C21.7534 22.0612 21.3357 22.3738 21.3357 22.8941C21.3357 23.4144 21.856 23.727 22.5839 23.9346L22.7915 24.0372C23.6244 24.3499 24.665 24.7651 24.5599 26.0132H24.5575ZM28.0967 8.32424C28.9297 8.32424 29.5525 8.63689 29.8652 9.05212V6.13815L31.1133 5.51285V14.8776H30.0728V14.1497C29.7601 14.67 29.0322 15.0852 28.1993 15.0852C26.2233 15.0852 25.2854 13.4219 25.1803 11.756C25.1803 9.36233 26.6385 8.3218 28.0943 8.3218L28.0967 8.32424ZM26.0132 20.1877V18.732H27.2614V20.1877H26.0132ZM27.2638 21.2283V27.7841H26.0157V21.2283H27.2638ZM28.8246 40.7907C27.0562 40.7907 25.8081 39.4375 25.8081 37.3565C25.8081 35.2754 27.0562 33.9223 28.8246 33.9223C30.593 33.9223 31.8436 35.2754 31.8436 37.3565C31.8436 39.4375 30.593 40.7907 28.8246 40.7907ZM30.1754 23.3093V27.7841H29.0298V21.2283H30.0703V22.0612C30.6956 21.4359 31.4235 21.1257 32.1514 21.1257C33.6096 21.1257 34.3375 21.9586 34.3375 23.5194V27.7865H32.9843V23.7295C32.9843 22.794 32.8793 22.2712 31.9413 22.2712C31.2135 22.2712 30.4856 22.7915 30.1729 23.3118L30.1754 23.3093ZM35.6907 40.7907C33.9222 40.7907 32.6741 39.4375 32.6741 37.3565C32.6741 35.2754 33.9222 33.9223 35.6907 33.9223C37.4591 33.9223 38.7097 35.2754 38.7097 37.3565C38.7097 39.4375 37.4615 40.7907 35.6907 40.7907ZM41.311 40.5831H40.0628V31.7386L41.311 31.1158V40.5856V40.5831ZM41.206 10.5103V14.9851H39.9554V8.42927H40.9959V9.15715C41.6188 8.53186 42.3491 8.22165 43.077 8.22165C44.5352 8.22165 45.2631 9.05456 45.2631 10.6154V14.8825H44.0149V10.8254C44.0149 9.99251 43.8073 9.47224 42.9744 9.47224C42.2465 9.47224 41.5186 9.99251 41.206 10.5128V10.5103ZM44.3275 27.9917C43.4946 27.9917 42.5591 27.574 41.8288 27.0562L42.5567 26.0157C42.9719 26.4334 43.7023 26.8486 44.4301 26.8486C45.158 26.8486 45.5757 26.4334 45.5757 25.9131C45.5757 25.2878 44.9528 25.0802 44.3275 24.8726L44.2225 24.7675C43.3896 24.4549 42.2465 24.0397 42.2465 22.7915C42.2465 21.646 43.1844 20.9181 44.5352 20.9181C45.4731 20.9181 46.3036 21.4383 46.6162 21.751L45.9909 22.6865C45.5757 22.3738 45.053 22.0612 44.5327 22.0612C43.8048 22.0612 43.3872 22.3738 43.3872 22.8941C43.3872 23.4144 43.9074 23.727 44.6378 23.9346L44.9504 24.0372C45.7833 24.3499 46.7188 24.6625 46.7188 26.0132C46.7188 26.9487 45.9909 27.9917 44.3251 27.9917H44.3275ZM49.9479 27.9917C49.115 27.9917 48.1795 27.574 47.4516 27.0562L48.1795 26.0157C48.5971 26.4334 49.325 26.8486 50.0529 26.8486C50.7808 26.8486 51.1985 26.4334 51.1985 25.9131C51.1985 25.2878 50.5732 25.0802 49.9479 24.8726L49.8428 24.7675C49.0099 24.4549 47.8668 24.0397 47.8668 22.7915C47.8668 21.646 48.8023 20.9181 50.1555 20.9181C51.0934 20.9181 51.9239 21.4383 52.2366 21.751L51.6113 22.6865C51.196 22.3738 50.6758 22.0612 50.1531 22.0612C49.4252 22.0612 49.0075 22.3738 49.0075 22.8941C49.0075 23.4144 49.5278 23.727 50.2581 23.9346L50.5707 24.0372C51.4036 24.3499 52.3391 24.6625 52.3391 26.0132C52.3391 26.9487 51.6088 27.9917 49.9454 27.9917H49.9479Z" fill="#999999"/>
<path d="M10.3017 21.2282C10.3017 20.2927 9.67642 19.875 8.5333 19.875H7.28516V22.5814H8.5333C9.67642 22.5814 10.3017 22.1661 10.3017 21.2282Z" fill="#999999"/>
<path d="M10.3033 23.2047V22.9971C11.0312 22.6845 11.4489 22.0616 11.4489 21.2287C11.4489 19.6679 10.4084 18.7324 8.42989 18.7324H5.93359V27.7845H8.9526C10.826 27.7845 11.9692 26.849 11.9692 25.1832C11.9692 24.5579 11.7615 23.5198 10.3058 23.2072L10.3033 23.2047ZM7.28433 19.8755H8.53248C9.67559 19.8755 10.3009 20.2908 10.3009 21.2287C10.3009 22.1667 9.67559 22.5819 8.53248 22.5819H7.28433V19.8755ZM8.95015 26.639H7.28433V23.725H9.05274C10.1983 23.725 10.8212 24.2453 10.8212 25.1808C10.8212 26.1163 10.0933 26.639 8.94771 26.639H8.95015Z" fill="white"/>
<path d="M10.9247 13.7337H7.28286V5.92969H5.92969V14.9843H10.9247V13.7337Z" fill="white"/>
<path d="M17.3754 11.653C17.3754 9.67696 16.1273 8.21875 14.3588 8.21875C12.5904 8.21875 11.3398 9.57193 11.3398 11.653C11.3398 13.734 12.588 15.0872 14.3588 15.0872C16.1297 15.0872 17.3754 13.734 17.3754 11.653ZM12.5904 11.653C12.5904 10.2998 13.3183 9.36431 14.3588 9.36431C15.3994 9.36431 16.1273 10.2998 16.1273 11.653C16.1273 13.0062 15.3994 13.9417 14.3588 13.9417C13.3183 13.9417 12.5904 13.1088 12.5904 11.653Z" fill="white"/>
<path d="M22.3726 33.9222C21.6447 33.9222 21.0194 34.2349 20.3966 34.7551V31.1133L19.1484 31.7361V40.5806H20.3966V36.1059C20.7092 35.5856 21.4371 35.0653 22.165 35.0653C23.1005 35.0653 23.2055 35.5856 23.2055 36.5235V40.5806H24.4537V36.3135C24.5563 34.7527 23.8284 33.9198 22.3726 33.9198V33.9222Z" fill="white"/>
<path d="M19.9811 10.5103C20.2937 9.99004 21.0216 9.46978 21.7495 9.46978C22.685 9.46978 22.79 9.99004 22.79 10.9255V14.9851H24.0381V10.7179C24.0381 9.15713 23.3103 8.32422 21.8521 8.32422C21.1242 8.32422 20.3963 8.63687 19.771 9.25972V8.42681H18.7305V14.9826H19.9786V10.5079L19.9811 10.5103Z" fill="white"/>
<path d="M17.2719 25.7028C16.9593 26.2231 16.2314 26.7433 15.5035 26.7433C14.568 26.7433 14.463 26.2231 14.463 25.2876V21.2305H13.2148V25.4976C13.2148 27.0584 13.9427 27.8913 15.4009 27.8913C16.1288 27.8913 16.8591 27.5787 17.482 26.9558V27.7887H18.5225V21.2329H17.2744V25.7077L17.2719 25.7028Z" fill="white"/>
<path d="M44.0166 10.8225V14.8796H45.2647V10.6125C45.2647 9.05166 44.5368 8.21875 43.0786 8.21875C42.3507 8.21875 41.6204 8.5314 40.9976 9.15425V8.42637H39.957V14.9822H41.2076V10.5074C41.5203 9.98716 42.2482 9.4669 42.976 9.4669C43.8089 9.4669 44.0166 9.98716 44.0166 10.8201V10.8225Z" fill="white"/>
<path d="M32.9858 23.7249V27.7819H34.3389V23.5148C34.3389 21.954 33.611 21.1211 32.1528 21.1211C31.425 21.1211 30.6971 21.4337 30.0718 22.0566V21.2237H29.0312V27.7795H30.1768V23.3047C30.4895 22.7845 31.2173 22.2642 31.9452 22.2642C32.8832 22.2642 32.9882 22.7845 32.9882 23.7224L32.9858 23.7249Z" fill="white"/>
<path d="M28.2002 15.088C29.0331 15.088 29.7609 14.6728 30.0736 14.1525V14.8804H31.1141V5.51562L29.866 6.14092V9.05489C29.5533 8.63966 28.9305 8.32701 28.0976 8.32701C26.6394 8.32701 25.1836 9.36754 25.1836 11.7612C25.2886 13.4271 26.2241 15.0905 28.2026 15.0905L28.2002 15.088ZM28.4078 9.3651C29.0331 9.3651 29.6559 9.78277 29.9686 10.4056V13.007C29.6559 13.6322 29.0331 14.0475 28.4078 14.0475C27.2622 14.0475 26.5343 13.112 26.5343 11.7588C26.5343 10.4056 27.2622 9.3651 28.4078 9.3651Z" fill="white"/>
<path d="M35.4838 15.0872C37.2523 15.0872 38.5004 13.734 38.5004 11.653C38.5004 9.57193 37.2523 8.21875 35.4838 8.21875C33.7154 8.21875 32.4648 9.57193 32.4648 11.653C32.4648 13.734 33.713 15.0872 35.4838 15.0872ZM35.4838 9.36431C36.5244 9.36431 37.2523 10.2998 37.2523 11.653C37.2523 13.0062 36.5219 13.9417 35.4838 13.9417C34.4458 13.9417 33.7154 13.0062 33.7154 11.653C33.7154 10.2998 34.4433 9.36431 35.4838 9.36431Z" fill="white"/>
<path d="M28.8252 33.9219C27.0567 33.9219 25.8086 35.2751 25.8086 37.3561C25.8086 39.4372 27.0567 40.7903 28.8252 40.7903C30.5936 40.7903 31.8442 39.4372 31.8442 37.3561C31.8442 35.2751 30.5936 33.9219 28.8252 33.9219ZM28.8252 39.6448C27.7846 39.6448 27.0567 38.7068 27.0567 37.3561C27.0567 36.0054 27.7846 35.0674 28.8252 35.0674C29.8657 35.0674 30.5936 36.0029 30.5936 37.3561C30.5936 38.7093 29.8657 39.6448 28.8252 39.6448Z" fill="white"/>
<path d="M35.6923 33.9219C33.9239 33.9219 32.6758 35.2751 32.6758 37.3561C32.6758 39.4372 33.9239 40.7903 35.6923 40.7903C37.4608 40.7903 38.7113 39.4372 38.7113 37.3561C38.7113 35.2751 37.4632 33.9219 35.6923 33.9219ZM35.6923 39.6448C34.6518 39.6448 33.9239 38.7068 33.9239 37.3561C33.9239 36.0054 34.6518 35.0674 35.6923 35.0674C36.7329 35.0674 37.4608 36.0029 37.4608 37.3561C37.4608 38.7093 36.7329 39.6448 35.6923 39.6448Z" fill="white"/>
<path d="M40.0625 40.5831H41.3106V31.1133L40.0625 31.7361V40.5831Z" fill="white"/>
<path d="M27.2599 21.2285H26.0117V27.7843H27.2599V21.2285Z" fill="white"/>
<path d="M27.2599 18.7305H26.0117V20.1862H27.2599V18.7305Z" fill="white"/>
<path d="M9.98937 35.796L8.63619 35.2757C8.01089 34.9631 7.28301 34.6504 7.28301 33.8175C7.28301 33.0897 7.80328 32.5694 8.84381 32.5694C9.57169 32.5694 10.197 32.882 10.8198 33.5049L11.5477 32.5694C10.8198 31.8415 9.88434 31.4238 8.84136 31.4238C7.17554 31.4238 6.03242 32.4644 6.03242 33.9226C6.03242 35.3808 7.17798 36.1062 7.80083 36.3163L9.15401 36.8365C9.98692 37.1492 10.5072 37.4618 10.5072 38.2947C10.5072 39.1277 9.88189 39.6479 8.73878 39.6479C7.90586 39.6479 6.97036 39.1277 6.34507 38.5024L5.61719 39.4379C6.34507 40.1657 7.69825 40.791 8.73878 40.791C10.5072 40.791 11.7553 39.7481 11.7553 38.2923C11.7553 36.8365 10.8198 36.2112 9.98692 35.7936L9.98937 35.796Z" fill="white"/>
<path d="M15.9224 39.5403C14.7768 39.5403 14.0489 38.7074 14.0489 37.2517C14.0489 35.8985 14.7768 34.963 16.025 34.963C16.5452 34.963 16.9605 35.1706 17.2731 35.4833L17.8984 34.5478C17.2731 34.0275 16.6503 33.7148 15.9224 33.7148C15.0895 33.7148 14.2565 34.0275 13.7363 34.6503C13.111 35.2756 12.8008 36.2111 12.8008 37.2517C12.8008 39.3327 14.0489 40.6859 15.9224 40.6859C16.6503 40.6859 17.4832 40.3733 18.1085 39.853L17.5882 38.9151C17.0679 39.3327 16.5477 39.5403 15.9224 39.5403Z" fill="white"/>
<path d="M44.9536 24.0371L44.641 23.9345C43.9106 23.7269 43.3904 23.4143 43.3904 22.894C43.3904 22.3737 43.8081 22.0611 44.5359 22.0611C45.0562 22.0611 45.5765 22.3737 45.9942 22.6864L46.6194 21.7509C46.3068 21.4382 45.4739 20.918 44.5384 20.918C43.1852 20.918 42.2497 21.6459 42.2497 22.7914C42.2497 24.0396 43.3953 24.4572 44.2257 24.7674L44.3308 24.8725C44.9561 25.0801 45.5789 25.2877 45.5789 25.913C45.5789 26.4333 45.1637 26.8485 44.4334 26.8485C43.703 26.8485 42.9752 26.4333 42.5599 26.0156L41.832 27.0561C42.5599 27.5764 43.4979 27.9916 44.3308 27.9916C45.9942 27.9916 46.7245 26.9511 46.7245 26.0131C46.7245 24.66 45.789 24.3498 44.9561 24.0371H44.9536Z" fill="white"/>
<path d="M22.7881 24.0371L22.5805 23.9345C21.8526 23.7269 21.3323 23.4143 21.3323 22.894C21.3323 22.3737 21.7476 22.0611 22.4779 22.0611C22.9982 22.0611 23.5184 22.3737 23.9337 22.6864L24.5589 21.7509C24.2463 21.4382 23.4134 20.918 22.4779 20.918C21.1247 20.918 20.1892 21.6459 20.1892 22.7914C20.1892 24.0396 21.3348 24.4572 22.1652 24.7674L22.2678 24.8725C22.8931 25.0801 23.516 25.2877 23.516 25.913C23.516 26.4333 23.1007 26.8485 22.3704 26.8485C21.6401 26.8485 20.9122 26.4333 20.497 26.0156L19.6641 27.0561C20.3919 27.5764 21.3299 27.9916 22.1604 27.9916C23.8237 27.9916 24.5541 26.9511 24.5541 26.0131C24.6591 24.765 23.6186 24.3498 22.7857 24.0371H22.7881Z" fill="white"/>
<path d="M50.5723 24.0371L50.2596 23.9345C49.5317 23.7269 49.009 23.4143 49.009 22.894C49.009 22.3737 49.4267 22.0611 50.1546 22.0611C50.6749 22.0611 51.1976 22.3737 51.6128 22.6864L52.2381 21.7509C51.9254 21.4382 51.0925 20.918 50.157 20.918C48.8039 20.918 47.8684 21.6459 47.8684 22.7914C47.8684 24.0396 49.0115 24.4572 49.8444 24.7674L49.9494 24.8725C50.5747 25.0801 51.2 25.2877 51.2 25.913C51.2 26.4333 50.7823 26.8485 50.0544 26.8485C49.3266 26.8485 48.5962 26.4333 48.181 26.0156L47.4531 27.0561C48.181 27.5764 49.1165 27.9916 49.9494 27.9916C51.6128 27.9916 52.3431 26.9511 52.3431 26.0131C52.3431 24.66 51.4052 24.3498 50.5747 24.0371H50.5723Z" fill="white"/>
<path d="M40.2689 21.7494C39.8537 21.2291 39.2284 21.0215 38.3979 21.0215C36.9397 21.0215 35.3789 22.2696 35.3789 24.4557C35.3789 26.6418 36.6295 27.89 38.5005 27.89C39.2308 27.89 39.9587 27.6823 40.6866 27.1621H40.7892L40.3739 26.2266H40.2689C39.7486 26.5392 39.2284 26.7468 38.7081 26.7468C37.5626 26.7468 36.7321 26.019 36.6271 24.7708H40.9968C41.2044 23.5227 40.8942 22.4821 40.2689 21.7518V21.7494ZM36.7296 23.8304C36.8322 22.7899 37.5626 22.062 38.4981 22.062C39.4336 22.062 39.9563 22.8949 39.9563 23.8304H36.7296Z" fill="white"/>
</g>
<defs>
<clipPath id="clip0_62_3180">
<rect width="59" height="59" fill="white"/>
</clipPath>
</defs>
</svg>
