<svg width="89" height="92" viewBox="0 0 89 92" fill="none" xmlns="http://www.w3.org/2000/svg">
<g clip-path="url(#clip0_698_1317)">
<path d="M29.1741 55.8074C29.5257 55.8074 29.8737 55.7608 30.2182 55.6675C30.5626 55.567 30.8712 55.4235 31.1439 55.2369C31.4166 55.0432 31.6354 54.81 31.8005 54.5373C31.9655 54.2574 32.0481 53.9345 32.0481 53.5685C32.0481 53.1308 31.9332 52.7433 31.7036 52.406C31.4811 52.0616 31.1869 51.7494 30.821 51.4695C30.455 51.1825 30.0352 50.9134 29.5616 50.6622C29.0951 50.4111 28.6179 50.1599 28.1299 49.9087C27.642 49.6576 27.1612 49.3957 26.6876 49.123C26.2211 48.8431 25.8049 48.5345 25.4389 48.1973C25.073 47.8528 24.7752 47.4725 24.5455 47.0563C24.3231 46.6329 24.2118 46.1485 24.2118 45.6031C24.2118 45.0578 24.3123 44.5518 24.5132 44.0854C24.7213 43.619 25.0227 43.2171 25.4174 42.8798C25.8121 42.5354 26.2965 42.2663 26.8706 42.0725C27.4518 41.8788 28.1156 41.7819 28.8619 41.7819C29.5364 41.7819 30.1392 41.8537 30.6703 41.9972C31.2013 42.1407 31.6677 42.3524 32.0696 42.6323C32.4714 42.9121 32.8123 43.2566 33.0922 43.6656C33.372 44.0746 33.5981 44.5483 33.7703 45.0865L32.5432 45.6462C32.3997 45.2084 32.2167 44.8102 31.9942 44.4514C31.7718 44.0854 31.5063 43.7732 31.1977 43.5149C30.8891 43.2566 30.5303 43.0592 30.1213 42.9229C29.7194 42.7794 29.2638 42.7076 28.7543 42.7076C28.3022 42.7076 27.9075 42.7722 27.5702 42.9014C27.2329 43.0234 26.9495 43.1884 26.7199 43.3965C26.4974 43.5974 26.3288 43.8271 26.2139 44.0854C26.1063 44.3366 26.0525 44.5949 26.0525 44.8604C26.0525 45.2336 26.1673 45.578 26.3969 45.8938C26.6266 46.2023 26.9316 46.4965 27.3119 46.7764C27.6922 47.0491 28.1228 47.3146 28.6036 47.5729C29.0915 47.8313 29.5867 48.0932 30.089 48.3587C30.5913 48.6242 31.0829 48.9005 31.5637 49.1876C32.0516 49.4746 32.4858 49.7903 32.8661 50.1348C33.2465 50.4721 33.5514 50.8452 33.7811 51.2542C34.0107 51.6561 34.1255 52.1082 34.1255 52.6105C34.1255 53.1774 34.0179 53.712 33.8026 54.2144C33.5873 54.7095 33.2644 55.1437 32.8338 55.5168C32.4033 55.8828 31.8687 56.1734 31.23 56.3887C30.5913 56.604 29.8486 56.7116 29.0018 56.7116C28.3129 56.7116 27.6994 56.6363 27.1612 56.4856C26.623 56.3349 26.1458 56.116 25.7296 55.829C25.3205 55.5419 24.9689 55.1939 24.6747 54.7849C24.3805 54.3686 24.1401 53.895 23.9535 53.364L25.2344 52.8366C25.3851 53.303 25.586 53.7192 25.8372 54.0852C26.0955 54.4512 26.3933 54.7633 26.7306 55.0217C27.0679 55.2728 27.441 55.4666 27.8501 55.6029C28.2663 55.7393 28.7076 55.8074 29.1741 55.8074ZM43.05 41.7819L49.7667 56.3779H47.3233L45.149 51.6202H39.0242L36.7746 56.3779H35.569L42.4472 41.7819H43.05ZM39.444 50.6945H44.7077L42.1135 45.0434L39.444 50.6945ZM24.5025 60.1048H26.9567L32.5109 71.0518H32.6293L38.0759 60.1048H40.4871V74.3779H38.0759V62.6774H38.0006L32.1449 74.3779H31.6498L25.7296 62.7743H25.5681V74.3779H24.5025V60.1048ZM51.6031 74.7116C50.498 74.7116 49.4647 74.5143 48.5031 74.1196C47.5487 73.7249 46.7162 73.1867 46.0058 72.505C45.3026 71.8161 44.7464 71.016 44.3374 70.1046C43.9355 69.1861 43.7346 68.2065 43.7346 67.166C43.7346 66.4843 43.8243 65.8277 44.0037 65.1962C44.1903 64.5647 44.4522 63.9763 44.7895 63.4309C45.1267 62.8855 45.5322 62.3904 46.0058 61.9455C46.4866 61.4934 47.0176 61.1095 47.5989 60.7937C48.1801 60.4708 48.808 60.2232 49.4826 60.051C50.1643 59.8716 50.8712 59.7819 51.6031 59.7819C52.3422 59.7819 53.0491 59.8716 53.7236 60.051C54.3982 60.2232 55.0261 60.4708 55.6073 60.7937C56.1958 61.1095 56.7268 61.4934 57.2004 61.9455C57.674 62.3904 58.0795 62.8855 58.4167 63.4309C58.7612 63.9763 59.0231 64.5647 59.2025 65.1962C59.3891 65.8277 59.4824 66.4843 59.4824 67.166C59.4824 67.8621 59.3891 68.5295 59.2025 69.1681C59.0231 69.8068 58.7612 70.406 58.4167 70.9657C58.0795 71.5255 57.674 72.035 57.2004 72.4942C56.7268 72.9535 56.1958 73.3482 55.6073 73.6783C55.0261 74.0084 54.3982 74.2631 53.7236 74.4425C53.0491 74.6219 52.3422 74.7116 51.6031 74.7116ZM51.6031 74.0012C52.4212 74.0012 53.1424 73.8326 53.7667 73.4953C54.3982 73.1508 54.9292 72.6736 55.3598 72.0637C55.7903 71.4537 56.1132 70.7325 56.3285 69.9001C56.551 69.0677 56.6622 68.1563 56.6622 67.166C56.6622 66.1829 56.551 65.2823 56.3285 64.4643C56.1132 63.6462 55.7903 62.9429 55.3598 62.3545C54.9292 61.7589 54.3982 61.2996 53.7667 60.9767C53.1424 60.6466 52.4212 60.4816 51.6031 60.4816C50.7707 60.4816 50.0387 60.6466 49.4072 60.9767C48.7829 61.2996 48.2555 61.7589 47.8249 62.3545C47.4015 62.9429 47.0822 63.6462 46.8669 64.4643C46.6517 65.2823 46.544 66.1829 46.544 67.166C46.544 68.1563 46.6517 69.0677 46.8669 69.9001C47.0822 70.7325 47.4015 71.4537 47.8249 72.0637C48.2555 72.6736 48.7829 73.1508 49.4072 73.4953C50.0387 73.8326 50.7707 74.0012 51.6031 74.0012ZM24.5025 77.1048H30.2505C31.0111 77.1048 31.7072 77.1909 32.3387 77.3632C32.9774 77.5282 33.5227 77.765 33.9748 78.0736C34.4341 78.3822 34.7893 78.7517 35.0405 79.1823C35.2916 79.6128 35.4172 80.0865 35.4172 80.6031C35.4172 80.9978 35.3777 81.3494 35.2988 81.658C35.2199 81.9666 35.0799 82.2536 34.879 82.5191C34.6781 82.7775 34.409 83.025 34.0717 83.2618C33.7416 83.4915 33.3218 83.7283 32.8123 83.9723V84.0153C33.3218 84.0943 33.7811 84.2306 34.1901 84.4244C34.5991 84.6181 34.9472 84.8657 35.2342 85.1671C35.5284 85.4613 35.7545 85.8093 35.9123 86.2112C36.0702 86.6059 36.1492 87.04 36.1492 87.5136C36.1492 88.0518 36.0307 88.5578 35.7939 89.0314C35.5643 89.4978 35.2306 89.9068 34.7929 90.2585C34.3623 90.6029 33.8385 90.8756 33.2213 91.0765C32.6114 91.2775 31.9261 91.3779 31.1654 91.3779H24.5025V77.1048ZM26.9028 83.5309H29.9598C30.4406 83.5309 30.8676 83.4628 31.2408 83.3264C31.6139 83.1901 31.9297 83.0035 32.188 82.7667C32.4463 82.5227 32.6401 82.2357 32.7692 81.9056C32.9056 81.5683 32.9738 81.2059 32.9738 80.8184C32.9738 80.4022 32.8948 80.0255 32.737 79.6882C32.5791 79.3437 32.3315 79.0495 31.9942 78.8055C31.6641 78.5616 31.2408 78.375 30.7241 78.2458C30.2146 78.1166 29.601 78.0521 28.8834 78.0521H26.9028V83.5309ZM26.9028 90.3338H29.497C30.1931 90.3338 30.7958 90.2692 31.3053 90.1401C31.822 90.0037 32.2454 89.8171 32.5755 89.5803C32.9128 89.3364 33.1603 89.0457 33.3182 88.7084C33.4833 88.3712 33.5658 88.0016 33.5658 87.5998C33.5658 87.1477 33.494 86.7279 33.3505 86.3404C33.207 85.9529 32.9702 85.6192 32.6401 85.3393C32.3172 85.0523 31.8902 84.8262 31.3592 84.6612C30.8353 84.4961 30.1895 84.4136 29.4216 84.4136H26.9028V90.3338ZM46.3052 91.7116C45.2001 91.7116 44.1667 91.5143 43.2051 91.1196C42.2507 90.7249 41.4183 90.1867 40.7079 89.505C40.0046 88.8161 39.4485 88.016 39.0395 87.1046C38.6376 86.1861 38.4367 85.2065 38.4367 84.166C38.4367 83.4843 38.5264 82.8277 38.7058 82.1962C38.8924 81.5647 39.1543 80.9763 39.4916 80.4309C39.8288 79.8855 40.2343 79.3904 40.7079 78.9455C41.1887 78.4934 41.7197 78.1095 42.301 77.7937C42.8822 77.4708 43.5101 77.2232 44.1847 77.051C44.8664 76.8716 45.5732 76.7819 46.3052 76.7819C47.0443 76.7819 47.7512 76.8716 48.4257 77.051C49.1002 77.2232 49.7281 77.4708 50.3094 77.7937C50.8978 78.1095 51.4289 78.4934 51.9025 78.9455C52.3761 79.3904 52.7815 79.8855 53.1188 80.4309C53.4633 80.9763 53.7252 81.5647 53.9046 82.1962C54.0912 82.8277 54.1845 83.4843 54.1845 84.166C54.1845 84.8621 54.0912 85.5295 53.9046 86.1681C53.7252 86.8068 53.4633 87.406 53.1188 87.9657C52.7815 88.5255 52.3761 89.035 51.9025 89.4942C51.4289 89.9535 50.8978 90.3482 50.3094 90.6783C49.7281 91.0084 49.1002 91.2631 48.4257 91.4425C47.7512 91.6219 47.0443 91.7116 46.3052 91.7116ZM46.3052 91.0012C47.1233 91.0012 47.8444 90.8326 48.4688 90.4953C49.1002 90.1508 49.6313 89.6736 50.0618 89.0637C50.4924 88.4537 50.8153 87.7325 51.0306 86.9001C51.2531 86.0677 51.3643 85.1563 51.3643 84.166C51.3643 83.1829 51.2531 82.2823 51.0306 81.4643C50.8153 80.6462 50.4924 79.9429 50.0618 79.3545C49.6313 78.7589 49.1002 78.2996 48.4688 77.9767C47.8444 77.6466 47.1233 77.4816 46.3052 77.4816C45.4728 77.4816 44.7408 77.6466 44.1093 77.9767C43.485 78.2996 42.9576 78.7589 42.527 79.3545C42.1036 79.9429 41.7843 80.6462 41.569 81.4643C41.3537 82.2823 41.2461 83.1829 41.2461 84.166C41.2461 85.1563 41.3537 86.0677 41.569 86.9001C41.7843 87.7325 42.1036 88.4537 42.527 89.0637C42.9576 89.6736 43.485 90.1508 44.1093 90.4953C44.7408 90.8326 45.4728 91.0012 46.3052 91.0012ZM57.4064 77.1048H62.3578C63.2118 77.1048 63.9616 77.1981 64.6075 77.3847C65.2533 77.5641 65.7915 77.8188 66.2221 78.1489C66.6527 78.479 66.9756 78.8737 67.1909 79.333C67.4133 79.7851 67.5245 80.2802 67.5245 80.8184C67.5245 81.2633 67.4384 81.6795 67.2662 82.067C67.1012 82.4545 66.8644 82.8062 66.5558 83.1219C66.2544 83.4305 65.8884 83.6996 65.4578 83.9292C65.0273 84.1517 64.5537 84.3275 64.037 84.4567L69.236 91.3779H66.4481L61.4859 84.6719H59.8067V91.3779H57.4064V77.1048ZM59.8067 83.9507H61.1953C61.7335 83.9507 62.2286 83.879 62.6807 83.7355C63.14 83.5919 63.5347 83.391 63.8648 83.1327C64.202 82.8672 64.464 82.5478 64.6505 82.1747C64.8371 81.8015 64.9304 81.3817 64.9304 80.9153C64.9304 80.4847 64.8551 80.09 64.7044 79.7312C64.5608 79.3724 64.3527 79.0675 64.0801 78.8163C63.8145 78.558 63.4952 78.357 63.1221 78.2135C62.7561 78.07 62.3542 77.9982 61.9165 77.9982H59.8067V83.9507Z" fill="#555555"/>
<path d="M0 90.3052H12.5328V33.5852C12.5328 33.5852 12.7077 29.6848 13.0429 27.8106C15.7686 12.5688 29.0923 1 45.1179 1C61.1436 1 74.4673 12.5688 77.193 27.8106C77.5282 29.6848 77.7031 33.5852 77.7031 33.5852V90.3052H88.5649" stroke="#555555" stroke-width="1.64988"/>
<path d="M73.1507 32.4118H16.8997C16.9181 32.0907 16.9427 31.6913 16.9733 31.2579C17.0494 30.1837 17.1605 28.9393 17.3014 28.1513C19.6573 14.9777 31.1743 4.97861 45.0252 4.97861C58.8761 4.97861 70.3931 14.9777 72.749 28.1513C72.8899 28.9393 73.001 30.1837 73.077 31.2579C73.1077 31.6913 73.1323 32.0907 73.1507 32.4118Z" stroke="#555555" stroke-width="1.4631"/>
<path d="M24.9023 13V32.237" stroke="#555555" stroke-width="1.43212"/>
<path d="M32.5645 7.58887V32.6544" stroke="#555555" stroke-width="1.46216"/>
<path d="M40.5649 5.08398V32.6561" stroke="#555555" stroke-width="1.46216"/>
<path d="M48.5645 5.08398V32.6561" stroke="#555555" stroke-width="1.46216"/>
<path d="M56.5649 7.58887V32.6544" stroke="#555555" stroke-width="1.46216"/>
<path d="M64.5645 13V32.237" stroke="#555555" stroke-width="1.43212"/>
</g>
<defs>
<clipPath id="clip0_698_1317">
<rect width="89" height="92" fill="white"/>
</clipPath>
</defs>
</svg>
