<svg width="44" height="44" viewBox="0 0 44 44" fill="none" xmlns="http://www.w3.org/2000/svg">
<g clip-path="url(#clip0_39_255)">
<path d="M37.6196 32.6694V42.7349H3.90479L24.6401 16.8296L37.6196 32.6694ZM20.0454 34.9771H29.1108L24.5776 29.2241L20.0454 34.9771Z" fill="#05C4D9"/>
<path d="M1.28906 6.53125H5.15625" stroke="#003C42" stroke-width="1.1" stroke-miterlimit="10" stroke-linejoin="round"/>
<path d="M1.28906 11.6875H5.15625" stroke="#003C42" stroke-width="1.1" stroke-miterlimit="10" stroke-linejoin="round"/>
<path d="M1.28906 16.8438H5.15625" stroke="#003C42" stroke-width="1.1" stroke-miterlimit="10" stroke-linejoin="round"/>
<path d="M1.28906 22H5.15625" stroke="#003C42" stroke-width="1.1" stroke-miterlimit="10" stroke-linejoin="round"/>
<path d="M1.28906 27.1562H5.15625" stroke="#003C42" stroke-width="1.1" stroke-miterlimit="10" stroke-linejoin="round"/>
<path d="M1.28906 32.3125H5.15625" stroke="#003C42" stroke-width="1.1" stroke-miterlimit="10" stroke-linejoin="round"/>
<path d="M37.5547 42.7109H1.28906V1.28907H11.6875V32.957" stroke="#003C42" stroke-width="1.1" stroke-miterlimit="10" stroke-linejoin="round"/>
<path d="M11.6875 38.8438V42.7109" stroke="#003C42" stroke-width="1.1" stroke-miterlimit="10" stroke-linejoin="round"/>
<path d="M16.8438 38.8438V42.7109" stroke="#003C42" stroke-width="1.1" stroke-miterlimit="10" stroke-linejoin="round"/>
<path d="M22 38.8438V42.7109" stroke="#003C42" stroke-width="1.1" stroke-miterlimit="10" stroke-linejoin="round"/>
<path d="M27.1562 38.8438V42.7109" stroke="#003C42" stroke-width="1.1" stroke-miterlimit="10" stroke-linejoin="round"/>
<path d="M32.3125 38.8438V42.7109" stroke="#003C42" stroke-width="1.1" stroke-miterlimit="10" stroke-linejoin="round"/>
<path d="M3.86719 42.7109L24.5781 16.8438L37.5547 32.957" stroke="#003C42" stroke-width="1.1" stroke-miterlimit="10" stroke-linejoin="round"/>
<path d="M20.0449 34.9766L24.578 29.2245L29.1112 34.9766H20.0449Z" stroke="#003C42" stroke-width="1.1" stroke-miterlimit="10" stroke-linejoin="round"/>
<path d="M40.1328 10.479L37.5547 16.8438V42.7109H42.7109V16.8438L40.1328 10.479Z" stroke="#003C42" stroke-width="1.1" stroke-miterlimit="10" stroke-linejoin="round"/>
<path d="M37.5547 16.8438H42.7109" stroke="#003C42" stroke-width="1.1" stroke-miterlimit="10" stroke-linejoin="round"/>
<path d="M37.5547 37.5547H42.7109" stroke="#003C42" stroke-width="1.1" stroke-miterlimit="10" stroke-linejoin="round"/>
</g>
<defs>
<clipPath id="clip0_39_255">
<rect width="44" height="44" fill="white"/>
</clipPath>
</defs>
</svg>
