<svg width="41" height="40" viewBox="0 0 41 40" fill="none" xmlns="http://www.w3.org/2000/svg">
<path d="M15.8463 14.1406L9.92188 16.875L20.0781 21.5625L30.2344 16.875L24.3099 14.1406" fill="#05C4D9"/>
<path d="M15.8463 14.1406L9.92188 16.875L20.0781 21.5625L30.2344 16.875L24.3099 14.1406" stroke="#003C42" stroke-width="2.5" stroke-miterlimit="10" stroke-linejoin="round"/>
<path d="M27.8906 38.75H12.2656" stroke="#003C42" stroke-width="2.5" stroke-miterlimit="10" stroke-linejoin="round"/>
<path d="M34.2188 28.5938V26.25" stroke="#003C42" stroke-width="2.5" stroke-miterlimit="10" stroke-linejoin="round"/>
<path d="M29.5312 28.5938V26.25" stroke="#003C42" stroke-width="2.5" stroke-miterlimit="10" stroke-linejoin="round"/>
<path d="M15.8463 8.67188L9.92188 11.4062L20.0781 16.0938L30.2344 11.4062L24.3099 8.67188" fill="#05C4D9"/>
<path d="M15.8463 8.67188L9.92188 11.4062L20.0781 16.0938L30.2344 11.4062L24.3099 8.67188" stroke="#003C42" stroke-width="2.5" stroke-miterlimit="10" stroke-linejoin="round"/>
<path d="M16.1719 33.2813H23.9844L25.5469 38.75H14.6094L16.1719 33.2813Z" stroke="#003C42" stroke-width="2.5" stroke-miterlimit="10" stroke-linejoin="round"/>
<path d="M20.0781 1.25L30.2344 5.9375L20.0781 10.625L9.92188 5.9375L20.0781 1.25Z" fill="#05C4D9" stroke="#003C42" stroke-width="2.5" stroke-miterlimit="10" stroke-linejoin="round"/>
<path d="M9.92187 5.9375H3.59375C2.29937 5.9375 1.25 6.9868 1.25 8.28125V30.9375C1.25 32.2319 2.29937 33.2812 3.59375 33.2812H36.5625C37.8569 33.2812 38.9062 32.2319 38.9062 30.9375V8.28125C38.9062 6.9868 37.8569 5.9375 36.5625 5.9375H30.2344" stroke="#003C42" stroke-width="2.5" stroke-miterlimit="10" stroke-linejoin="round"/>
<path d="M38.9062 26.25H1.25" stroke="#003C42" stroke-width="2.5" stroke-miterlimit="10" stroke-linejoin="round"/>
</svg>
